<?xml version="1.0" encoding="UTF-8" standalone="no"?>
<svg
   width="280.00027"
   height="163.27394"
   viewBox="0 0 280.00027 163.27394"
   fill="none"
   version="1.1"
   id="svg4"
   sodipodi:docname="63658007a549b0bf7da25ad05d5cb7fb.svg"
   xmlns:inkscape="http://www.inkscape.org/namespaces/inkscape"
   xmlns:sodipodi="http://sodipodi.sourceforge.net/DTD/sodipodi-0.dtd"
   xmlns="http://www.w3.org/2000/svg"
   xmlns:svg="http://www.w3.org/2000/svg">
  <defs
     id="defs8" />
  <sodipodi:namedview
     id="namedview6"
     pagecolor="#ffffff"
     bordercolor="#666666"
     borderopacity="1.0"
     inkscape:pageshadow="2"
     inkscape:pageopacity="0.0"
     inkscape:pagecheckerboard="0" />
  <path
     opacity="0.2"
     d="m 8.847721,96.060145 c -2.97804,8.519795 -5.21994,17.279805 -6.70106,26.183795 l 137.856619,41.03 z M 124.04228,0 140.00328,163.27394 155.96328,0 Z M 63.309081,23.114345 140.00328,163.27394 90.687681,8.197925 c -9.6665,3.90882 -18.8528,8.91372 -27.3786,14.91642 z m -41.68,45.4047 L 139.98528,163.27394 38.848781,44.934845 c -6.4934,7.2826 -12.2607,15.1814 -17.2197,23.5842 z m 249.529199,27.5411 -131.155,67.213795 137.85,-41.03 c -1.479,-8.903 -3.719,-17.663 -6.695,-26.183795 z m -131.155,67.213795 h 139.359 c 0.386,-4.224 0.599,-8.496 0.638,-12.816 z m -139.365089,0 H 140.00328 L 0,150.45794 c 0.046414,4.32 0.259146,8.592 0.638191,12.816 z M 241.15128,44.917445 140.00328,163.27394 258.35928,68.519045 c -4.955,-8.4022 -10.719,-16.301 -17.208,-23.5842 z m -51.862,-36.71952 -49.286,155.076015 76.664,-140.159595 c -8.526,-6.0017 -17.712,-11.0065 -27.378,-14.91642 z"
     fill="#ffc14a"
     id="path2" />
</svg>
