<?xml version="1.0" encoding="UTF-8" standalone="no"?>
<svg
   width="100.83944"
   height="139.67068"
   viewBox="0 0 100.83944 139.67068"
   fill="none"
   version="1.1"
   id="svg62"
   sodipodi:docname="c26d65b10d1c1595e002aa2b8806da2a.svg"
   xmlns:inkscape="http://www.inkscape.org/namespaces/inkscape"
   xmlns:sodipodi="http://sodipodi.sourceforge.net/DTD/sodipodi-0.dtd"
   xmlns="http://www.w3.org/2000/svg"
   xmlns:svg="http://www.w3.org/2000/svg">
  <defs
     id="defs66" />
  <sodipodi:namedview
     id="namedview64"
     pagecolor="#ffffff"
     bordercolor="#666666"
     borderopacity="1.0"
     inkscape:pageshadow="2"
     inkscape:pageopacity="0.0"
     inkscape:pagecheckerboard="0" />
  <path
     d="m 27.894238,122.79768 c -1.5747,0.513 -3.1817,0.921 -4.8104,1.221 -0.252,0.045 -0.4984,0.089 -0.7392,0.123 -0.7896,0.118 -1.5288,0.19 -2.24,0.224 -10.83597,0.56 -11.11597,-8.49 -11.38477,-13.098 -0.26683,-6.164 -0.1134,-12.338095 0.4592,-18.480495 0.75037,-8.5512 2.17277,-17.4328 4.23917,-24.08 2.9904,-9.5872 7.84,-10.64 11.956,-10.7128 0.7952,0 1.5736,0 2.3016,0 0,0 -0.5264,2.716 -0.7784,5.3368 l -1.6352,11.6144 -2.2736,16.1168 -0.3528,2.5144 v 0.14 l -1.232,8.724895 -0.2856,2.01 c -0.1288,1.339 -0.224,3.226 1.2376,4.301 0.206,0.159 0.4319,0.291 0.672,0.392 0.952,0.426 2.3576,0.599 4.4016,0.358 l 0.2072,5.724 0.0392,1.03 0.0672,1.781 0.112,3.237 z"
     fill="#06fba3"
     id="path2" />
  <path
     d="m 3.259198,89.522285 c 3.1024,3.5448 5.6,3.1136 9.88964,3.7856 4.2896,0.672 7.9856,0.4368 12.32,0.0392 0.8792,-12.0568 2.3632,-24.08 2.24,-36.1256 -3.5168,0.2632 -7.28,0.1175 -10.164,1.8647 -3.8416,2.3352 -4.0992,8.3329 -6.6864,12.5609 -3.05764,4.9952 -6.97764,9.0888 -10.858438,13.132 1.411198,2.464 1.495198,2.6992 3.259198,4.7432 z"
     fill="#37474f"
     id="path4" />
  <g
     opacity="0.6"
     id="g8"
     transform="translate(-0.101562,-0.24731534)">
    <path
       opacity="0.6"
       d="m 3.36076,89.7696 c 3.1024,3.5448 5.6,3.1136 9.88964,3.7856 4.2896,0.672 7.9856,0.4368 12.32,0.0392 0.8792,-12.0568 2.3632,-24.08 2.24,-36.1256 -3.5168,0.2632 -7.28,0.1175 -10.164,1.8647 -3.8416,2.3352 -4.0992,8.3329 -6.6864,12.5609 -3.05764,4.9952 -6.97764,9.0888 -10.858438,13.132 1.411198,2.464 1.495198,2.6992 3.259198,4.7432 z"
       fill="#000000"
       id="path6" />
  </g>
  <path
     opacity="0.2"
     d="m 25.262038,74.939985 -5.9808,18.7936 h 7.5488 z"
     fill="#000000"
     id="path10" />
  <path
     d="m 83.042538,96.365685 c -0.6888,3.08 -1.512,6.097995 -2.352,9.945995 -0.1792,0.823 -0.364,1.68 -0.56,2.598 -0.252,1.277 -0.504,2.632 -0.7448,4.11 -0.2688,1.68 -0.532,3.472 -0.784,5.466 -0.224,1.725 -0.4312,3.584 -0.6272,5.6 -0.084,0.879 -0.1736,1.786 -0.252,2.738 -0.1568,1.854 -0.308,3.831 -0.4424,5.942 -0.1344,2.111 -0.2576,4.452 -0.3696,6.905 -1.8256,-0.045 -55.7816,0 -55.7816,0 0.3024,-3.59 0.56,-6.967 0.8064,-10.226 0.1288,-1.809 0.2576,-3.578 0.364,-5.325 v -0.04 c 0.0392,-0.56 0.0728,-1.064 0.1008,-1.59 0.084,-1.333 0.1568,-2.649 0.224,-3.959 0.1624,-3.136 0.2856,-6.239 0.364,-9.403 0,-0.134 0,-0.268 0,-0.403 0.0448,-1.949 0.0728,-3.92 0.084,-5.947 0,-2.911995 0,-5.919195 -0.0616,-9.077595 0,-0.056 0,-0.112 0,-0.168 0,-0.8176 -0.028,-1.6464 -0.0504,-2.4864 -0.0672,-2.576 -0.1568,-5.264 -0.28,-8.092 -0.1512,-3.528 -0.3472,-7.28 -0.5936,-11.2784 -0.2912,-4.732 0.0448,-11.0208 3.2536,-13.692 0.3176,-0.2672 0.6653,-0.4965 1.036,-0.6832 0.5506,-0.2791 1.1423,-0.4682 1.7528,-0.56 l 16.94,-2.6376 5.908,-0.9184 8.7024,1.68 19.096,3.752 c 0.2286,0.0441 0.4548,0.1002 0.6776,0.168 1.2341,0.3608 2.316,1.1161 3.08,2.1504 1.9712,2.6376 2.38,7.28 1.988,13.5296 0.4872,10.8024 -0.2688,16.4472 -1.4784,21.9016 z"
     fill="#37474f"
     id="path12" />
  <path
     opacity="0.6"
     d="m 83.042538,96.365685 c -0.6888,3.08 -1.512,6.097995 -2.352,9.945995 -0.1792,0.823 -0.364,1.68 -0.56,2.598 -0.252,1.277 -0.504,2.632 -0.7448,4.11 -0.2688,1.68 -0.532,3.472 -0.784,5.466 -0.224,1.725 -0.4312,3.584 -0.6272,5.6 -0.084,0.879 -0.1736,1.786 -0.252,2.738 -0.1568,1.854 -0.308,3.831 -0.4424,5.942 -0.1344,2.111 -0.2576,4.452 -0.3696,6.905 -1.8256,-0.045 -55.7816,0 -55.7816,0 0.3024,-3.59 0.56,-6.967 0.8064,-10.226 0.1288,-1.809 0.2576,-3.578 0.364,-5.325 v -0.04 c 0.0392,-0.56 0.0728,-1.064 0.1008,-1.59 0.084,-1.333 0.1568,-2.649 0.224,-3.959 0.1624,-3.136 0.2856,-6.239 0.364,-9.403 0,-0.134 0,-0.268 0,-0.403 0.0448,-1.949 0.0728,-3.92 0.084,-5.947 0,-2.911995 0,-5.919195 -0.0616,-9.077595 0,-0.056 0,-0.112 0,-0.168 0,-0.8176 -0.028,-1.6464 -0.0504,-2.4864 -0.0672,-2.576 -0.1568,-5.264 -0.28,-8.092 -0.1512,-3.528 -0.3472,-7.28 -0.5936,-11.2784 -0.2912,-4.732 0.0448,-11.0208 3.2536,-13.692 0.3176,-0.2672 0.6653,-0.4965 1.036,-0.6832 0.5506,-0.2791 1.1423,-0.4682 1.7528,-0.56 l 16.94,-2.6376 5.908,-0.9184 8.7024,1.68 19.096,3.752 c 0.2286,0.0441 0.4548,0.1002 0.6776,0.168 1.2341,0.3608 2.316,1.1161 3.08,2.1504 1.9712,2.6376 2.38,7.28 1.988,13.5296 0.4872,10.8024 -0.2688,16.4472 -1.4784,21.9016 z"
     fill="#000000"
     id="path14" />
  <path
     d="m 60.468238,55.871985 c 3.3936,2.4192 1.9544,6.2216 -0.812,9.3296 -5.7624,6.468 -11.76,8.4784 -11.76,8.4784 -0.0896,-0.0392 -14.9688,-10.7912 -4.48,-17.5168 1.736,-1.12 2.4136,-3.7576 2.604,-6.5184 0.1155,-2.1088 0.0311,-4.2238 -0.252,-6.3168 -0.0504,-0.5264 -0.1344,-1.0416 -0.224,-1.5288 -0.0896,-0.4872 -0.1904,-0.98 -0.308,-1.4336 l 15.8312,-6.5072 c -1.736,2.6096 -3.0576,10.976 -2.688,13.6696 0.4032,3.0128 0.5208,7.2296 2.0888,8.344 z"
     fill="#06fba3"
     id="path16" />
  <path
     opacity="0.2"
     d="m 46.070738,49.644685 c 0.1154,-2.1089 0.031,-4.2239 -0.252,-6.3168 -0.0504,-0.5264 -0.1344,-1.0416 -0.224,-1.5288 l 12.2024,-2.3408 c -2.5424,2.5592 -6.1488,7.7448 -11.7264,10.1864 z"
     fill="#000000"
     id="path18" />
  <path
     d="m 29.533838,22.008585 c 0.3976,2.6208 4.1104,6.8824 3.92,6.6248 -0.1486,-0.2756 -0.2018,-0.5927 -0.1512,-0.9016 0.0847,-1.1855 0.3865,-2.3453 0.8904,-3.4216 0.308,1.4672 0.7896,4.48 2.2848,4.5192 0.5936,-1.0808 1.3272,-2.0664 1.2264,-3.2984 0.3472,1.26 0.6608,2.5256 1.0024,3.7856 1.4785,-0.9582 2.6535,-2.3177 3.3874,-3.9193 0.7339,-1.6017 0.9963,-3.3793 0.7566,-5.1247 -0.1314,-0.8118 -0.4206,-1.5899 -0.8512,-2.2904 -0.5352,-0.7729 -1.1826,-1.4618 -1.9208,-2.044 -1.8928,-1.6072 -4.3064,-2.9232 -6.72,-2.24 -4.5584,1.2992 -4.2224,5.6896 -3.8248,8.3104 z"
     fill="#263238"
     id="path20" />
  <path
     d="m 32.703938,34.188785 c 1.96,10.6792 14.7448,16.3128 23.184,8.6632 4.872,-4.4072 5.6504,-9.6656 6.5352,-17.864 0.14,-1.2432 0.28,-2.548 0.4424,-3.92 0.2583,-2.1614 0.0346,-4.3531 -0.6552,-6.4176 -0.2845,-0.8625 -0.66,-1.6922 -1.12,-2.4752 -1.6488,-2.9756203 -4.2897,-5.2781403 -7.4621,-6.5061903 -3.1725,-1.22805 -6.6754,-1.30374 -9.8979,-0.21386 -10.5392,3.5616 -12.8016,19.1240503 -11.0264,28.7336503 z"
     fill="#06fba3"
     id="path22" />
  <path
     d="m 43.074938,19.040885 c -0.0783,-0.028 -0.1465,-0.0787 -0.196,-0.1456 -0.0782,-0.1056 -0.1114,-0.2379 -0.0925,-0.3679 0.0189,-0.1301 0.0883,-0.2474 0.1933,-0.3265 0.6288,-0.481 1.3653,-0.8017 2.1459,-0.9344 0.7805,-0.1327 1.5816,-0.0734 2.3341,0.1728 0.06,0.0246 0.1145,0.0607 0.1605,0.1064 0.046,0.0457 0.0825,0.1 0.1075,0.1598 0.025,0.0599 0.0379,0.124 0.038,0.1889 2e-4,0.0648 -0.0125,0.129 -0.0372,0.1889 -0.051,0.123 -0.1481,0.2212 -0.2705,0.2736 -0.1225,0.0523 -0.2606,0.0546 -0.3847,0.0064 -0.5967,-0.1957 -1.2322,-0.2424 -1.8511,-0.136 -0.6189,0.1064 -1.2023,0.3626 -1.6993,0.7464 -0.0625,0.049 -0.1366,0.0809 -0.2151,0.0927 -0.0786,0.0118 -0.1588,0.003 -0.2329,-0.0255 z"
     fill="#263238"
     id="path24" />
  <path
     d="m 37.665338,19.790985 c -0.0532,-0.0628 -0.1205,-0.1123 -0.1964,-0.1444 -0.0758,-0.0321 -0.1582,-0.0459 -0.2404,-0.0404 -0.6407,0.0808 -1.2914,0.0116 -1.9007,-0.2022 -0.6094,-0.2138 -1.1607,-0.5664 -1.6105,-1.0298 -0.087,-0.1025 -0.2107,-0.167 -0.3447,-0.1796 -0.1339,-0.0125 -0.2675,0.0278 -0.3721,0.1124 -0.0998,0.0859 -0.1635,0.2065 -0.178,0.3374 -0.0146,0.1309 0.021,0.2625 0.0996,0.3682 0.5541,0.594 1.2422,1.0468 2.007,1.3206 0.7647,0.2737 1.5839,0.3605 2.389,0.253 0.0679,-0.0048 0.134,-0.0234 0.1945,-0.0544 0.0604,-0.0311 0.114,-0.0741 0.1574,-0.1264 0.0434,-0.0523 0.0758,-0.1129 0.0952,-0.178 0.0195,-0.0652 0.0255,-0.1336 0.0177,-0.2012 -0.0199,-0.0866 -0.0602,-0.1672 -0.1176,-0.2352 z"
     fill="#263238"
     id="path26" />
  <path
     d="m 39.575438,31.086385 c -1.5355,0.0144 -3.0296,-0.4975 -4.2336,-1.4504 1.6408,-1.6296 3.4776,-3.4608 4.6032,-5.4824 z"
     fill="#ed893e"
     id="path28" />
  <path
     d="m 35.756238,24.763885 c -0.4192,-0.0331 -0.8276,-0.1492 -1.2016,-0.3415 -0.3739,-0.1922 -0.706,-0.4569 -0.9768,-0.7785 -0.0254,-0.0268 -0.0452,-0.0584 -0.0584,-0.0929 -0.0131,-0.0345 -0.0194,-0.0713 -0.0183,-0.1082 0.001,-0.0369 0.0093,-0.0733 0.0244,-0.107 0.0151,-0.0337 0.0367,-0.0641 0.0635,-0.0895 0.0268,-0.0254 0.0584,-0.0452 0.0929,-0.0584 0.0345,-0.0131 0.0713,-0.0194 0.1082,-0.0183 0.0369,10e-4 0.0733,0.0093 0.107,0.0244 0.0337,0.0151 0.0641,0.0367 0.0895,0.0635 0.6216,0.6552 1.596,1.3048 2.6936,0.6608 0.0641,-0.0375 0.1404,-0.0485 0.2125,-0.0308 0.0721,0.0178 0.1345,0.063 0.1739,0.126 0.037,0.0648 0.0472,0.1415 0.0283,0.2138 -0.0188,0.0722 -0.0652,0.1341 -0.1291,0.1726 -0.3632,0.2278 -0.781,0.3536 -1.2096,0.364 z"
     fill="#263238"
     id="path30" />
  <path
     d="m 45.500538,33.673485 c -0.7887,0.605 -1.6905,1.046 -2.6522,1.297 -0.9618,0.2511 -1.9641,0.307 -2.9478,0.1646 -0.0668,-0.007 -0.1284,-0.0394 -0.1721,-0.0904 -0.0438,-0.051 -0.0663,-0.1168 -0.0631,-0.184 0.0014,-0.0316 0.0091,-0.0626 0.0226,-0.0913 0.0134,-0.0287 0.0324,-0.0544 0.0558,-0.0757 0.0234,-0.0214 0.0508,-0.0378 0.0806,-0.0486 0.0298,-0.0107 0.0614,-0.0155 0.093,-0.014 1.0726,0.1515 2.1657,0.0545 3.1948,-0.2834 1.0292,-0.3379 1.9671,-0.9076 2.7412,-1.6654 0.0459,-0.0441 0.1071,-0.0688 0.1708,-0.0688 0.0637,0 0.1249,0.0247 0.1708,0.0688 0.0441,0.0493 0.0684,0.1131 0.0684,0.1792 0,0.0662 -0.0243,0.13 -0.0684,0.1792 -0.2091,0.2278 -0.4405,0.4387 -0.6944,0.6328 z"
     fill="#263238"
     id="path32" />
  <path
     d="m 56.851538,40.578385 c 1.2927,-0.2419 2.5129,-0.7763 3.5672,-1.5624 0,1.4168 0.952,3.8472 0.952,3.8472 4.508,-1.484 8.2208,-10.5056 8.7192,-13.496 2.5088,4.6592 2.2904,1.9824 2.4864,0 0.28,-2.8504 0.3472,-5.8016 -0.6216,-8.4896 -0.9688,-2.688 -3.192,-5.0904 -6.0144,-5.5552 -0.5255,-0.0496 -1.0547,0.0428 -1.5324,0.2673 -0.4777,0.2246 -0.8864,0.5732 -1.1836,1.0095 -0.4829,0.8667 -0.7982,1.8165 -0.9296,2.8 -1.3104,7.0616 -1.2544,15.3216 -5.4432,21.1792 z"
     fill="#263238"
     id="path34" />
  <path
     d="m 63.246738,24.338285 c -3.4496,0.0728 -5.5608,4.424 -5.9248,7.4032 -0.4312,3.3096 1.7976,6.0368 4.9952,4.5696 1.1922,-0.5535 2.262,-1.3393 3.1467,-2.3115 0.8846,-0.9722 1.5664,-2.1111 2.0053,-3.3501 1.064,-3.0632 -0.7728,-6.3728 -4.2224,-6.3112 z"
     fill="#06fba3"
     id="path36" />
  <path
     opacity="0.2"
     d="m 72.816638,79.291285 c 0,0 -4.1887,18.956 -1.2823,30.396395 2.9064,11.441 8.7079,17.209 8.7079,17.209 l 1.0361,-47.599795 z"
     fill="#000000"
     id="path38" />
  <path
     opacity="0.2"
     d="m 80.242738,126.89668 c -0.8235,0.197 -1.6838,0.177 -2.4976,-0.056 -0.1568,1.854 -0.308,3.83 -0.4424,5.942 -3.332,1.786 -18.1888,-3.461 -31.22,-8.697 -2.8728,-1.154 -5.656,-2.313 -8.204,-3.394 -0.9072,-0.375 -1.7752,-0.75 -2.6096,-1.12 -1.7304,-0.739 -3.3096,-1.428 -4.6872,-2.033 -1.12,-0.487 -2.1056,-0.924 -2.9232,-1.293 -1.708,-0.756 -2.688,-1.204 -2.688,-1.204 l 2.6488,0.173 20.916,1.356 5.404,0.352 1.0864,0.062 6.692,0.431 4.5696,0.291 h 0.2352 l 4.4352,0.286 3.612,0.23 4.032,0.257 1.6183,0.107 c 0,0 0.0897,1.12 0.1177,2.996 v 0.067 c 0.0392,1.394 0.0224,3.181 -0.0952,5.247 z"
     fill="#000000"
     id="path40" />
  <path
     d="m 88.855438,96.438185 c -0.8288,8.758495 -2.0496,17.410495 -3.0576,23.088495 -0.7,3.954 -2.9344,6.72 -5.5552,7.381 -0.8235,0.197 -1.6838,0.178 -2.4976,-0.056 -0.1232,-0.033 -0.2408,-0.073 -0.364,-0.117 l -20.048,-5.169 -0.1736,-0.051 -2.1448,-0.56 0.0336,-3.976 v -0.319 -1.573 l 0.0448,-4.968 2.7104,0.146 13.244,0.706 c 0.268,0.075 0.5499,0.086 0.8232,0.033 1.148,-0.218 2.1,-1.562 2.24,-3.332 l 0.2576,-3.841 0.56,-8.473295 1.0808,-16.0776 0.9912,-14.8848 c 0.11,-1.606 0.363,-3.1989 0.756,-4.76 1.6845,0.0715 3.3294,0.5336 4.8048,1.3496 3.1192,1.68 6.5072,5.2472 7.056,12.5608 0.4592,6.0704 0.0336,14.5264 -0.7616,22.8928 z"
     fill="#06fba3"
     id="path42" />
  <path
     d="m 64.803238,123.00468 -29.4224,-5.678 c -0.802,-0.253 -1.6528,-0.308 -2.4808,-0.163 l -8.288,1.423 c -0.89,0.154 -1.8047,0.078 -2.6568,-0.222 -0.852,-0.3 -1.6128,-0.814 -2.2096,-1.492 l -3.92,-4.446 c -0.4727,-0.535 -0.8328,-1.159 -1.0586,-1.835 -0.2259,-0.677 -0.3129,-1.392 -0.2559,-2.103 0.0569,-0.711 0.2568,-1.404 0.5875,-2.036 0.3308,-0.632 0.7856,-1.19 1.3374,-1.642 l 1.4056,-1.154 c 0.913,-0.75 2.0508,-1.173 3.2321,-1.202 1.1814,-0.028 2.3382,0.34 3.2863,1.045 0.9574,0.713 2.1279,1.08 3.3208,1.042 h 0.4872 c 1.107,-0.035 2.197,0.279 3.1162,0.897 0.9193,0.618 1.6215,1.509 2.0078,2.547 l 0.4592,1.226 23.9848,0.919 z"
     fill="#06fba3"
     id="path44" />
  <path
     opacity="0.1"
     d="m 29.534538,109.91168 c 1.4056,-0.274 2.8,-0.498 4.2112,-0.728 l -0.4536,-1.209 c -0.3862,-1.039 -1.0884,-1.929 -2.0077,-2.547 -0.9192,-0.618 -2.0092,-0.932 -3.1163,-0.897 h -0.4872 c -1.1928,0.038 -2.3633,-0.33 -3.3208,-1.042 -0.948,-0.705 -2.1049,-1.073 -3.2862,-1.045 -1.1813,0.029 -2.3191,0.452 -3.2322,1.202 l -1.4056,1.153 c -0.9094,0.747 -1.5448,1.775 -1.8063,2.923 -0.2616,1.147 -0.1344,2.349 0.3615,3.417 2.6824,0.252 12.3088,-0.79 14.5432,-1.227 z"
     fill="#000000"
     id="path46" />
  <path
     opacity="0.2"
     d="m 74.026438,116.97368 c -0.987,0.419 -2.0033,0.765 -3.0408,1.036 -1.9544,0.56 -4.648,1.265 -7.7896,2.049 -1.8704,0.465 -3.92,0.952 -6.0256,1.456 -3.5168,0.84 -7.28,1.72 -11.0544,2.576 -9.8504,2.24 -19.6,4.385 -24.1248,5.376 0.1288,-1.808 0.2576,-3.578 0.364,-5.325 -0.7896,0.117 -1.5288,0.19 -2.24,0.224 v -0.135 l 0.1736,-1.237 2.128,-0.482 5.4152,-1.232 7.4312,-1.68 5.4432,-1.237 7.84,-1.787 6.5072,-1.478 4.7992,-1.092 3.6064,-0.818 c 0,0 6.5688,0.684 9.7272,1.787 1.6688,0.56 2.3688,1.237 0.84,1.999 z"
     fill="#000000"
     id="path48" />
  <path
     d="m 12.224638,108.95468 45.1528,-0.835 c 0.836,-0.071 1.6436,-0.337 2.3576,-0.778 l 7.1568,-4.43 c 0.767,-0.476 1.6433,-0.748 2.5453,-0.789 0.902,-0.041 1.7994,0.15 2.6067,0.554 l 5.2976,2.649 c 0.6362,0.319 1.2018,0.763 1.6633,1.305 0.4614,0.542 0.8093,1.171 1.0229,1.85 0.2136,0.679 0.2887,1.394 0.2207,2.103 -0.068,0.708 -0.2777,1.396 -0.6165,2.022 l -0.8568,1.613 c -0.5664,1.037 -1.4632,1.855 -2.5479,2.324 -1.0848,0.468 -2.2951,0.561 -3.4385,0.263 -1.1536,-0.302 -8.4,0.879 -9.9568,-0.795 l -0.896,-0.952 -35.924,8.456 c -2.5467,0.6 -5.1651,0.839 -7.7784,0.711 z"
     fill="#06fba3"
     id="path50" />
  <path
     d="m 100.83944,93.879185 c -1.229202,0.8839 -2.645502,1.4723 -4.138902,1.7192 -9.7328,1.6128 -15.8984,0.7952 -23.744,-0.56 -1.3832,-13.02 -1.036,-23.1 1.4616,-30.38 0.8344,-2.4192 3.22,-5.9416 5.7736,-5.8352 10.8472,0.4536 12.6952,11.3624 13.9328,16.3968 1.5375,6.45 3.7895,12.7084 6.714902,18.6592 z"
     fill="#37474f"
     id="path52" />
  <path
     opacity="0.6"
     d="m 100.83944,93.879185 c -1.229202,0.8839 -2.645502,1.4723 -4.138902,1.7192 -9.7328,1.6128 -15.8984,0.7952 -23.744,-0.56 -1.3832,-13.02 -1.036,-23.1 1.4616,-30.38 0.8344,-2.4192 3.22,-5.9416 5.7736,-5.8352 10.8472,0.4536 12.6952,11.3624 13.9328,16.3968 1.5375,6.45 3.7895,12.7084 6.714902,18.6592 z"
     fill="#000000"
     id="path54" />
  <path
     d="m 54.476638,19.175085 c 1.3384,-3.4496 3.2984,-5.18 2.1392,-4.9448 -3.136,0.644 -5.1968,-2.072 -7.4424,-0.3752 -1.0696,1.3608 0.3416,3.7408 0.392,3.6064 -1.12,0.6104 -2.604,0.2408 -3.5952,-0.56 -0.9912,-0.8008 -1.3944,-2.3072 -1.9208,-3.4832 -0.2881,1.3283 -0.193,2.711 0.2744,3.9872 -0.8008,0.7112 -2.5704,-0.476 -3.36,-1.1704 -0.816,-0.8153 -1.4397,-1.8025 -1.8256,-2.8896 -0.2352,1.1872 -0.42,2.4024 0.4816,3.78 -1.1816,0.1176 -2.744,-0.1792 -3.5616,-1.0416 -0.4282,-0.4499 -0.7541,-0.9872 -0.9551,-1.5749 -0.2011,-0.5877 -0.2726,-1.2119 -0.2097,-1.8299 -0.2408,0.616 -0.168,3.108 0.3808,3.4776 -2.0608,-0.56 -4.0376,-3.0576 -4.032,-5.1968 0.046,-1.0721003 0.3481,-2.1175603 0.8811,-3.0489703 0.5329,-0.9314 1.2811,-1.72164 2.1821,-2.3046 0.8736,-0.56 1.8592,-0.99679 2.8,-1.51199 1.4224,-0.7896 10.3656,-8.24321 24.3264,-0.8568 8.6688,4.5808 7.476,14.5599603 6.5184,15.6799603 -1.1872,1.3832 -3.1304,1.9208 -4.9504,1.82 -1.82,-0.1008 -8.8648,-0.6496 -8.5232,-1.5624 z"
     fill="#263238"
     id="path56" />
  <path
     d="m 56.336438,14.202285 c -0.9057,0.9741 -1.582,2.1385 -1.9793,3.4079 -0.3972,1.2693 -0.5055,2.6115 -0.3167,3.9281 0.3976,2.6208 4.116,6.888 3.92,6.6248 -0.1486,-0.2755 -0.2018,-0.5926 -0.1512,-0.9016 0.0847,-1.1854 0.3865,-2.3452 0.8904,-3.4216 0.3136,1.4672 0.7896,4.48 2.2904,4.5192 0.5936,-1.0808 1.3216,-2.0664 1.2208,-3.2984 0.3472,1.26 0.6608,2.5257 1.008,3.7856 1.4775,-0.9591 2.6517,-2.3187 3.3855,-3.9201 0.7337,-1.6014 0.9968,-3.3785 0.7585,-5.1239 -0.1334,-0.812 -0.4245,-1.5901 -0.8568,-2.2904 -0.5406,-0.7674 -1.1938,-1.4489 -1.9376,-2.0216 -1.8928,-1.6072 -4.4016,-3.2088 -6.72,-2.24 -0.2912,0.1288 -1.6016,0.6048 -1.512,0.952 z"
     fill="#263238"
     id="path58" />
  <path
     d="m 47.006638,22.714385 c 0,0.8736 -0.4648,1.5736 -1.0248,1.5904 -0.56,0.0168 -1.0192,-0.6776 -1.064,-1.5736 -0.0448,-0.896 0.4648,-1.5736 1.0304,-1.5848 0.5656,-0.0112 1.064,0.7056 1.0584,1.568 z"
     fill="#263238"
     id="path60" />
</svg>
