<?xml version="1.0" encoding="UTF-8" standalone="no"?>
<svg
   width="260.67953"
   height="198.11066"
   viewBox="0 0 260.67953 198.11066"
   fill="none"
   version="1.1"
   id="svg38"
   sodipodi:docname="f7e5d257d5857e51ed5fe97e0e7586c6.svg"
   xmlns:inkscape="http://www.inkscape.org/namespaces/inkscape"
   xmlns:sodipodi="http://sodipodi.sourceforge.net/DTD/sodipodi-0.dtd"
   xmlns="http://www.w3.org/2000/svg"
   xmlns:svg="http://www.w3.org/2000/svg">
  <defs
     id="defs42" />
  <sodipodi:namedview
     id="namedview40"
     pagecolor="#ffffff"
     bordercolor="#666666"
     borderopacity="1.0"
     inkscape:pageshadow="2"
     inkscape:pageopacity="0.0"
     inkscape:pagecheckerboard="0" />
  <path
     d="m 12.259439,180.43166 c 0.3584,-1.668 0.6054,-3.357 0.7394,-5.058 0.7395,-5.715 4.0964,-10.137 8.3628,-11.002 l 3.0834,-0.636 c 0,0 -4.8358,0 -6.8544,-1.412 -4.2738,-2.958 -5.2572,-11.831 -5.2572,-11.831 0,0 -1.1979,8.873 -5.47908,11.831 C 4.835759,163.73566 0,163.73566 0,163.73566 l 3.083349,0.636 c 4.27381,0.865 7.66029,5.287 8.37019,11.002 0.1582,1.702 0.4274,3.391 0.8059,5.058 z"
     fill="#ffc14a"
     id="path2" />
  <g
     opacity="0.7"
     id="g6"
     transform="translate(-0.147461,-0.350342)">
    <path
       opacity="0.7"
       d="m 12.4069,180.782 c 0.3584,-1.668 0.6054,-3.357 0.7394,-5.058 0.7395,-5.715 4.0964,-10.137 8.3628,-11.002 l 3.0834,-0.636 c 0,0 -4.8358,0 -6.8544,-1.412 -4.2738,-2.958 -5.2572,-11.831 -5.2572,-11.831 0,0 -1.1979,8.873 -5.47908,11.831 -2.0186,1.412 -6.854359,1.412 -6.854359,1.412 l 3.083349,0.636 c 4.27381,0.865 7.66029,5.287 8.37019,11.002 0.1582,1.702 0.4274,3.391 0.8059,5.058 z"
       fill="#ffffff"
       id="path4" />
  </g>
  <path
     d="m 223.50254,116.32466 c 0.319,-1.438 0.541,-2.895 0.665,-4.363 0.614,-4.924 3.534,-8.732 7.217,-9.486 l 2.654,-0.54 c 0,0 -4.17,0 -5.915,-1.22 -3.697,-2.580802 -4.533,-10.204202 -4.533,-10.204202 0,0 -1.035,7.6234 -4.717,10.204202 -1.738,1.22 -5.916,1.22 -5.916,1.22 l 2.662,0.54 c 3.697,0.739 6.603,4.562 7.21,9.486 0.13,1.467 0.355,2.925 0.673,4.363 z"
     fill="#ffc14a"
     id="path8" />
  <g
     opacity="0.7"
     id="g12"
     transform="translate(-0.147461,-0.350342)">
    <path
       opacity="0.7"
       d="m 223.65,116.675 c 0.319,-1.438 0.541,-2.895 0.665,-4.363 0.614,-4.924 3.534,-8.732 7.217,-9.486 l 2.654,-0.54 c 0,0 -4.17,0 -5.915,-1.22 -3.697,-2.5808 -4.533,-10.2042 -4.533,-10.2042 0,0 -1.035,7.6234 -4.717,10.2042 -1.738,1.22 -5.916,1.22 -5.916,1.22 l 2.662,0.54 c 3.697,0.739 6.603,4.562 7.21,9.486 0.13,1.467 0.355,2.925 0.673,4.363 z"
       fill="#ffffff"
       id="path10" />
  </g>
  <path
     d="m 75.353239,37.909758 c 0.1479,-0.0592 0.5472,-2.9577 0.9761,-6.4034 0.8947,-7.2388 5.1759,-12.8362 10.5958,-13.9379 l 3.9041,-0.7986 c 0,0 -6.1298,0 -8.6807,-1.7894 C 76.728639,11.194758 75.493739,0 75.493739,0 c 0,0 -1.4788,11.194758 -6.9283,14.980458 -2.5583,1.7894 -8.6807,1.7894 -8.6807,1.7894 l 3.9041,0.7986 c 5.4051,1.1017 9.6937,6.6991 10.5884,13.9379 0.4289,3.4753 0.8208,6.3442 0.976,6.4034 z"
     fill="#ffc14a"
     id="path14" />
  <g
     opacity="0.7"
     id="g18"
     transform="translate(-0.147461,-0.350342)">
    <path
       opacity="0.7"
       d="m 75.5007,38.2601 c 0.1479,-0.0592 0.5472,-2.9577 0.9761,-6.4034 0.8947,-7.2388 5.1759,-12.8362 10.5958,-13.9379 l 3.9041,-0.7986 c 0,0 -6.1298,0 -8.6807,-1.7894 -5.4199,-3.7857 -6.6548,-14.980458 -6.6548,-14.980458 0,0 -1.4788,11.194758 -6.9283,14.980458 -2.5583,1.7894 -8.6807,1.7894 -8.6807,1.7894 l 3.9041,0.7986 c 5.4051,1.1017 9.6937,6.6991 10.5884,13.9379 0.4289,3.4753 0.8208,6.3442 0.976,6.4034 z"
       fill="#ffffff"
       id="path16" />
  </g>
  <path
     d="m 245.19654,198.11066 c 0.155,-0.059 0.555,-2.957 0.983,-6.403 0.895,-7.239 5.176,-12.836 10.596,-13.938 l 3.904,-0.799 c 0,0 -6.129,0 -8.688,-1.789 -5.412,-3.793 -6.654,-14.988 -6.654,-14.988 0,0 -1.479,11.195 -6.936,14.988 -2.551,1.789 -8.681,1.789 -8.681,1.789 l 3.904,0.799 c 5.413,1.102 9.701,6.699 10.596,13.938 0.429,3.475 0.828,6.344 0.976,6.403 z"
     fill="#ffc14a"
     id="path20" />
  <g
     opacity="0.7"
     id="g24"
     transform="translate(-0.147461,-0.350342)">
    <path
       opacity="0.7"
       d="m 245.344,198.461 c 0.155,-0.059 0.555,-2.957 0.983,-6.403 0.895,-7.239 5.176,-12.836 10.596,-13.938 l 3.904,-0.799 c 0,0 -6.129,0 -8.688,-1.789 -5.412,-3.793 -6.654,-14.988 -6.654,-14.988 0,0 -1.479,11.195 -6.936,14.988 -2.551,1.789 -8.681,1.789 -8.681,1.789 l 3.904,0.799 c 5.413,1.102 9.701,6.699 10.596,13.938 0.429,3.475 0.828,6.344 0.976,6.403 z"
       fill="#ffffff"
       id="path22" />
  </g>
  <path
     d="m 182.95254,39.639958 c 0.237,-1.0673 0.403,-2.1493 0.496,-3.2386 0.451,-3.6527 2.617,-6.4847 5.353,-7.0466 l 1.974,-0.3993 c 0,0 -3.098,0 -4.384,-0.9021 -2.744,-1.9151 -3.372,-7.579 -3.372,-7.579 0,0 -0.74,5.6639 -3.498,7.579 -1.294,0.9021 -4.392,0.9021 -4.392,0.9021 l 1.975,0.3993 c 2.735,0.5619 4.902,3.3939 5.353,7.0466 0.097,1.0888 0.263,2.1705 0.495,3.2386 z"
     fill="#ffc14a"
     id="path26" />
  <g
     opacity="0.7"
     id="g30"
     transform="translate(-0.147461,-0.350342)">
    <path
       opacity="0.7"
       d="m 183.1,39.9903 c 0.237,-1.0673 0.403,-2.1493 0.496,-3.2386 0.451,-3.6527 2.617,-6.4847 5.353,-7.0466 l 1.974,-0.3993 c 0,0 -3.098,0 -4.384,-0.9021 -2.744,-1.9151 -3.372,-7.579 -3.372,-7.579 0,0 -0.74,5.6639 -3.498,7.579 -1.294,0.9021 -4.392,0.9021 -4.392,0.9021 l 1.975,0.3993 c 2.735,0.5619 4.902,3.3939 5.353,7.0466 0.097,1.0888 0.263,2.1705 0.495,3.2386 z"
       fill="#ffffff"
       id="path28" />
  </g>
  <path
     d="m 13.627639,85.135958 c 0.2412,-1.0665 0.4068,-2.1488 0.4954,-3.2386 0.4511,-3.6527 2.625,-6.4847 5.3534,-7.0466 l 1.9742,-0.3993 c 0,0 -3.0981,0 -4.3847,-0.9021 -2.7358,-1.9151 -3.3643,-7.5716 -3.3643,-7.5716 0,0 -0.7394,5.6565 -3.5048,7.5716 -1.29401,0.9021 -4.39215,0.9021 -4.39215,0.9021 l 1.97423,0.3993 c 2.73582,0.5619 4.90232,3.3939 5.35332,7.0466 0.0973,1.0888 0.2628,2.1705 0.4954,3.2386 z"
     fill="#ffc14a"
     id="path32" />
  <g
     opacity="0.7"
     id="g36"
     transform="translate(-0.147461,-0.350342)">
    <path
       opacity="0.7"
       d="m 13.7751,85.4863 c 0.2412,-1.0665 0.4068,-2.1488 0.4954,-3.2386 0.4511,-3.6527 2.625,-6.4847 5.3534,-7.0466 l 1.9742,-0.3993 c 0,0 -3.0981,0 -4.3847,-0.9021 -2.7358,-1.9151 -3.3643,-7.5716 -3.3643,-7.5716 0,0 -0.7394,5.6565 -3.5048,7.5716 -1.29401,0.9021 -4.39215,0.9021 -4.39215,0.9021 l 1.97423,0.3993 c 2.73582,0.5619 4.90232,3.3939 5.35332,7.0466 0.0973,1.0888 0.2628,2.1705 0.4954,3.2386 z"
       fill="#ffffff"
       id="path34" />
  </g>
</svg>
