<?xml version="1.0" encoding="UTF-8" standalone="no"?>
<svg
   width="83.532997"
   height="118.92406"
   viewBox="0 0 83.532997 118.92406"
   fill="none"
   version="1.1"
   id="svg38"
   sodipodi:docname="cece1dfd9e8cd8ce56657d4b42be131d.svg"
   xmlns:inkscape="http://www.inkscape.org/namespaces/inkscape"
   xmlns:sodipodi="http://sodipodi.sourceforge.net/DTD/sodipodi-0.dtd"
   xmlns="http://www.w3.org/2000/svg"
   xmlns:svg="http://www.w3.org/2000/svg">
  <defs
     id="defs42" />
  <sodipodi:namedview
     id="namedview40"
     pagecolor="#ffffff"
     bordercolor="#666666"
     borderopacity="1.0"
     inkscape:pageshadow="2"
     inkscape:pageopacity="0.0"
     inkscape:pagecheckerboard="0" />
  <g
     id="open-envelope"
     transform="translate(-144.436,-83.470942)">
    <g
       id="open-envelope_2">
      <path
         id="Vector"
         d="m 144.436,144.355 78.89,-41.435 3.158,1.658 c 0.431,0.256 0.79,0.601 1.048,1.007 0.257,0.406 0.407,0.86 0.437,1.328 v 52.951 c -0.029,0.468 -0.178,0.923 -0.436,1.329 -0.258,0.406 -0.617,0.75 -1.049,1.006 l -75.92,39.875 c -0.459,0.21 -0.965,0.32 -1.479,0.32 -0.514,0 -1.02,-0.11 -1.479,-0.32 l -1.674,-0.877 c -0.43,-0.257 -0.789,-0.602 -1.047,-1.007 -0.258,-0.406 -0.408,-0.861 -0.437,-1.329 z"
         fill="#333333" />
      <path
         id="Vector_2"
         opacity="0.2"
         d="m 144.436,144.355 78.89,-41.435 3.158,1.658 c 0.431,0.256 0.79,0.601 1.048,1.007 0.257,0.406 0.407,0.86 0.437,1.328 v 52.951 c -0.029,0.468 -0.178,0.923 -0.436,1.329 -0.258,0.406 -0.617,0.75 -1.049,1.006 l -75.92,39.875 c -0.459,0.21 -0.965,0.32 -1.479,0.32 -0.514,0 -1.02,-0.11 -1.479,-0.32 l -1.674,-0.877 c -0.43,-0.257 -0.789,-0.602 -1.047,-1.007 -0.258,-0.406 -0.408,-0.861 -0.437,-1.329 z"
         fill="#0a0909" />
      <path
         id="Vector_3"
         d="m 222.894,98.2602 0.319,-0.1614 -1.224,-0.6458 c -0.103,-0.0563 -0.212,-0.1032 -0.325,-0.1399 L 186.945,85.6037 c -0.478,-0.1417 -0.993,-0.1432 -1.471,-0.0041 -0.479,0.1391 -0.898,0.4116 -1.197,0.779 l -38.835,51.6004 c -0.608,0.888 -0.954,1.903 -1.006,2.949 v 3.422 l 1.183,0.64 77.683,-42.075 v -3.4279 c -0.006,-0.4357 -0.148,-0.861 -0.408,-1.2269 z"
         fill="#333333" />
      <path
         id="Vector_4"
         opacity="0.1"
         d="m 185.886,86.6369 c -0.155,0.1101 -0.29,0.2407 -0.402,0.3874 l -38.842,51.5997 c -0.319,0.457 -0.562,0.954 -0.721,1.475 l -1.183,-0.635 c 0.087,-0.266 0.192,-0.526 0.313,-0.78 0.054,-0.108 0.107,-0.21 0.166,-0.312 l 0.029,-0.049 c 0.062,-0.108 0.131,-0.212 0.207,-0.312 l 38.836,-51.6001 c 0.059,-0.0765 0.124,-0.1485 0.195,-0.2153 l 0.207,-0.1722 z"
         fill="#0a0909" />
      <path
         id="Vector_5"
         opacity="0.35"
         d="m 223.202,98.0937 c -0.105,-0.0581 -0.216,-0.1067 -0.332,-0.1453 L 188.145,86.239 c -0.381,-0.1155 -0.789,-0.1406 -1.184,-0.0728 -0.396,0.0678 -0.766,0.2262 -1.075,0.4602 l -1.183,-0.6349 c 0.312,-0.2319 0.683,-0.3888 1.078,-0.4565 0.396,-0.0677 0.804,-0.044 1.187,0.069 l 34.719,11.7041 c 0.114,0.0385 0.223,0.0872 0.326,0.1453 z"
         fill="#56ccf2" />
      <path
         id="Vector_6"
         d="m 145.234,138.296 c 0.063,-0.107 0.132,-0.211 0.207,-0.312 -0.075,0.101 -0.144,0.205 -0.207,0.312 z"
         fill="#333333" />
      <path
         id="Vector_7"
         d="m 184.472,86.1629 0.207,-0.1722 z"
         fill="#333333" />
      <path
         id="Vector_8"
         d="m 144.714,139.453 c 0.087,-0.265 0.192,-0.526 0.313,-0.78 -0.121,0.254 -0.226,0.515 -0.313,0.78 z"
         fill="#333333" />
      <path
         id="Vector_9"
         d="m 145.039,138.651 c 0.053,-0.107 0.107,-0.209 0.166,-0.312 -0.059,0.103 -0.113,0.205 -0.166,0.312 z"
         fill="#333333" />
      <path
         id="Vector_10"
         opacity="0.2"
         d="m 145.205,138.339 c 0.008,-0.017 0.017,-0.033 0.029,-0.048 -0.012,0.015 -0.021,0.031 -0.029,0.048 z"
         fill="#0a0909" />
      <path
         id="Vector_11"
         opacity="0.2"
         d="m 184.277,86.3791 c 0.06,-0.0754 0.126,-0.1473 0.196,-0.2153 -0.073,0.0657 -0.139,0.1378 -0.196,0.2153 z"
         fill="#0a0909" />
      <path
         id="Vector_12"
         d="m 185.484,87.0141 -38.842,51.5999 c -0.603,0.89 -0.947,1.905 -0.999,2.949 v 3.428 l 78.889,-41.435 v -3.423 c -0.028,-0.4639 -0.198,-0.9117 -0.492,-1.2922 -0.294,-0.3805 -0.699,-0.6784 -1.17,-0.8599 L 188.145,86.2446 c -0.476,-0.1453 -0.99,-0.149 -1.469,-0.0107 -0.478,0.1383 -0.896,0.4116 -1.192,0.7802 z"
         fill="#333333" />
      <path
         id="Vector_13"
         opacity="0.05"
         d="m 224.532,100.123 c -0.016,-0.4294 -0.161,-0.8464 -0.42,-1.2055 l -78.191,41.1715 c -0.167,0.474 -0.258,0.966 -0.273,1.464 v 3.427 l 78.89,-41.435 z"
         fill="#0a0909" />
      <path
         id="Vector_14"
         d="m 221.161,85.5613 c 0.016,-0.1437 -0.01,-0.2887 -0.074,-0.4208 -0.064,-0.132 -0.165,-0.2466 -0.293,-0.3326 l -2.413,-1.2645 c -0.146,-0.0597 -0.306,-0.0831 -0.465,-0.068 -0.159,0.0151 -0.311,0.0683 -0.44,0.1541 L 152.77,117.633 c -0.374,0.221 -0.685,0.519 -0.908,0.869 -0.223,0.351 -0.351,0.744 -0.376,1.149 v 70.493 c -0.017,0.145 0.008,0.291 0.074,0.423 0.065,0.133 0.169,0.247 0.299,0.331 l 2.401,1.264 c 0.146,0.06 0.306,0.083 0.465,0.069 0.158,-0.014 0.31,-0.065 0.44,-0.149 L 219.884,158.1 c 0.371,-0.222 0.681,-0.52 0.902,-0.871 0.222,-0.35 0.351,-0.744 0.375,-1.147 z"
         fill="#f0f0f0" />
      <path
         id="Vector_15"
         d="m 155.171,192.108 64.712,-34.009 c 0.372,-0.222 0.681,-0.52 0.903,-0.871 0.222,-0.35 0.351,-0.743 0.375,-1.147 V 85.5604 c 0,-0.7426 -0.591,-1.044 -1.278,-0.6727 l -64.712,34.0033 c -0.372,0.222 -0.681,0.52 -0.903,0.871 -0.222,0.35 -0.35,0.743 -0.374,1.147 v 70.494 c 0,0.758 0.573,1.06 1.277,0.705 z"
         fill="#fffaf0" />
      <path
         id="Vector_16"
         d="m 196.644,125.381 c -0.061,0.797 -0.224,1.584 -0.485,2.346 -0.233,0.685 -0.546,1.346 -0.934,1.97 -0.336,0.546 -0.745,1.052 -1.218,1.507 -0.392,0.379 -0.85,0.697 -1.355,0.941 -0.55,0.329 -1.209,0.473 -1.863,0.409 -0.381,-0.071 -0.722,-0.262 -0.964,-0.538 -0.142,0.28 -0.29,0.56 -0.444,0.84 -0.165,0.298 -0.363,0.581 -0.591,0.844 -0.256,0.3 -0.547,0.573 -0.87,0.813 -0.39,0.295 -0.817,0.548 -1.271,0.753 -0.485,0.261 -1.052,0.363 -1.609,0.291 -0.489,-0.1 -0.915,-0.373 -1.183,-0.759 -0.367,-0.519 -0.611,-1.102 -0.716,-1.711 -0.156,-0.85 -0.21,-1.712 -0.159,-2.572 0.039,-0.948 0.168,-1.892 0.384,-2.82 0.197,-0.835 0.48,-1.651 0.846,-2.438 0.322,-0.689 0.748,-1.333 1.266,-1.915 0.446,-0.512 1.003,-0.933 1.638,-1.238 0.211,-0.135 0.449,-0.23 0.701,-0.279 0.252,-0.049 0.513,-0.051 0.766,-0.006 0.323,0.131 0.589,0.356 0.757,0.64 v -0.29 c 0.013,-0.246 0.088,-0.485 0.219,-0.7 0.102,-0.198 0.267,-0.365 0.473,-0.479 l 1.266,-0.587 c 0.068,-0.041 0.151,-0.059 0.233,-0.052 0.082,0.008 0.158,0.042 0.216,0.096 0.068,0.074 0.118,0.16 0.148,0.252 0.029,0.093 0.037,0.19 0.024,0.286 l -0.284,6.839 c -0.024,0.517 0.083,0.856 0.319,1.017 0.125,0.078 0.272,0.12 0.423,0.12 0.151,0 0.299,-0.042 0.423,-0.12 0.371,-0.191 0.67,-0.48 0.858,-0.829 0.284,-0.515 0.444,-1.08 0.467,-1.657 0.059,-0.597 0.1,-1.211 0.13,-1.846 0.03,-0.635 0.03,-1.221 0,-1.759 -0.015,-0.966 -0.174,-1.926 -0.473,-2.852 -0.186,-0.654 -0.601,-1.234 -1.183,-1.652 -0.582,-0.355 -1.29,-0.496 -1.982,-0.393 -1.012,0.144 -1.989,0.448 -2.886,0.898 -0.945,0.445 -1.808,1.023 -2.555,1.712 -0.767,0.716 -1.434,1.514 -1.987,2.378 -0.574,0.912 -1.038,1.877 -1.384,2.879 -0.364,1.034 -0.619,2.097 -0.763,3.175 -0.042,0.296 -0.077,0.673 -0.107,1.141 -0.029,0.468 -0.053,0.952 -0.077,1.458 -0.023,0.506 -0.041,0.996 -0.053,1.469 -0.012,0.474 0,0.845 0,1.13 0.026,0.869 0.198,1.729 0.509,2.551 0.224,0.636 0.633,1.205 1.183,1.647 0.521,0.393 1.18,0.603 1.857,0.591 0.878,-0.026 1.737,-0.246 2.502,-0.64 0.6,-0.276 1.179,-0.589 1.733,-0.936 0.456,-0.288 0.889,-0.604 1.295,-0.947 0.339,-0.296 0.659,-0.608 0.958,-0.937 0.266,-0.306 0.509,-0.602 0.728,-0.893 0.219,-0.29 0.331,-0.447 0.443,-0.57 0.115,-0.134 0.263,-0.241 0.432,-0.312 l 1.774,-0.84 c 0.067,-0.045 0.148,-0.07 0.231,-0.07 0.083,0 0.164,0.025 0.231,0.07 0.13,0.097 0.183,0.285 0.154,0.576 -0.02,0.19 -0.085,0.373 -0.19,0.538 -0.36,0.608 -0.769,1.254 -1.218,1.926 -0.471,0.7 -1.005,1.362 -1.597,1.981 -0.668,0.687 -1.398,1.323 -2.183,1.899 -0.916,0.668 -1.907,1.245 -2.957,1.722 -1.121,0.588 -2.391,0.902 -3.685,0.91 -0.971,-0.026 -1.899,-0.37 -2.614,-0.969 -0.754,-0.679 -1.302,-1.525 -1.591,-2.454 -0.384,-1.146 -0.583,-2.337 -0.592,-3.535 0,-0.291 0,-0.689 0,-1.195 0,-0.5 0.03,-1.028 0.054,-1.576 0.023,-0.549 0.053,-1.077 0.083,-1.572 0.029,-0.495 0.059,-0.893 0.088,-1.178 0.149,-1.427 0.454,-2.837 0.911,-4.208 0.462,-1.422 1.093,-2.793 1.881,-4.09 0.779,-1.287 1.733,-2.481 2.839,-3.552 1.079,-1.058 2.354,-1.936 3.768,-2.593 1.275,-0.669 2.701,-1.063 4.169,-1.152 1.003,-0.036 1.983,0.277 2.739,0.877 0.758,0.682 1.282,1.549 1.508,2.497 0.331,1.206 0.506,2.443 0.521,3.686 0,0.538 0,1.189 -0.042,1.932 -0.041,0.743 -0.029,1.485 -0.083,2.104 z m -11.107,3.939 c -0.103,0.762 0.019,1.535 0.355,2.239 0.278,0.441 0.703,0.538 1.271,0.263 0.646,-0.325 1.141,-0.853 1.39,-1.485 0.357,-0.86 0.546,-1.771 0.556,-2.69 0.099,-0.768 -0.019,-1.546 -0.343,-2.261 -0.272,-0.452 -0.71,-0.538 -1.307,-0.258 -0.635,0.334 -1.116,0.865 -1.354,1.496 -0.357,0.855 -0.549,1.76 -0.568,2.675 z"
         fill="#56ccf2" />
      <path
         id="Vector_17"
         d="m 153.888,191.42 c -0.012,0.131 0.009,0.263 0.061,0.386 0.053,0.123 0.135,0.234 0.24,0.324 l -2.324,-1.216 c -0.132,-0.083 -0.236,-0.197 -0.303,-0.33 -0.066,-0.132 -0.092,-0.278 -0.076,-0.423 v -70.494 c 0.015,-0.405 0.146,-0.8 0.379,-1.146 l 2.401,1.259 c -0.233,0.348 -0.364,0.745 -0.378,1.152 z"
         fill="#e0e0e0" />
      <path
         id="Vector_18"
         d="m 225.97,160.563 c -0.024,0.039 -0.052,0.075 -0.083,0.108 l -32.88,-9.46 c -1.248,-0.501 -2.653,-0.576 -3.957,-0.21 -1.304,0.366 -2.419,1.147 -3.14,2.201 l -35.151,47.516 -1.301,0.683 c -0.145,0.092 -0.313,0.15 -0.489,0.168 -0.175,0.017 -0.353,-0.005 -0.517,-0.066 l 36.145,-48.968 c 0.723,-1.052 1.838,-1.831 3.141,-2.198 1.303,-0.366 2.707,-0.295 3.956,0.201 z"
         fill="#333333" />
      <path
         id="Vector_19"
         opacity="0.4"
         d="m 182.668,157.84 0.083,-0.064 -31.992,42.942 -1.301,0.683 c -0.146,0.091 -0.314,0.148 -0.489,0.165 -0.175,0.018 -0.353,-0.003 -0.517,-0.063 l 32.951,-44.373 z"
         fill="#56ccf2" />
      <path
         id="Vector_20"
         opacity="0.4"
         d="m 225.97,160.564 c -0.024,0.038 -0.052,0.074 -0.083,0.107 l -32.88,-9.46 c -1.248,-0.502 -2.653,-0.577 -3.958,-0.212 -1.304,0.366 -2.419,1.149 -3.139,2.203 l -1.302,-0.689 c 0.725,-1.05 1.841,-1.828 3.144,-2.191 1.303,-0.364 2.707,-0.289 3.954,0.211 z"
         fill="#56ccf2" />
      <path
         id="Vector_21"
         d="m 227.939,106.574 c -0.071,-0.387 -0.296,-0.495 -0.591,-0.312 -0.147,0.1 -0.274,0.219 -0.379,0.355 l -0.166,0.21 -32.442,44.869 -4.844,6.14 c -0.311,0.357 -0.725,0.631 -1.195,0.791 -0.47,0.16 -0.979,0.201 -1.472,0.118 l -4.182,-0.904 -31.939,-10.687 c -0.215,-0.04 -0.436,-0.04 -0.651,0 -0.083,0.015 -0.164,0.039 -0.242,0.07 l 1.183,-0.635 30.602,10.224 4.028,1.308 c 0.494,0.084 1.003,0.044 1.473,-0.116 0.471,-0.161 0.884,-0.435 1.195,-0.794 l 4.844,-6.134 32.601,-45.078 c 0.1,-0.123 0.224,-0.227 0.367,-0.307 l -2.821,-1.48 1.183,-0.619 1.952,1.023 c 0.38,0.219 0.708,0.505 0.965,0.842 0.257,0.336 0.437,0.716 0.531,1.116 z"
         fill="#333333" />
      <path
         id="Vector_22"
         opacity="0.4"
         d="m 194.362,151.695 -4.844,6.14 c -0.312,0.358 -0.725,0.632 -1.195,0.792 -0.47,0.16 -0.979,0.201 -1.473,0.118 l -4.182,-0.904 0.083,-0.065 0.201,-0.291 2.739,0.592 c 0.493,0.085 1.003,0.045 1.473,-0.116 0.47,-0.16 0.883,-0.434 1.194,-0.793 l 4.797,-6.07 z"
         fill="#56ccf2" />
      <path
         id="Vector_23"
         opacity="0.1"
         d="m 226.484,104.567 -1.951,-1.023 -1.183,0.619 2.821,1.48 c -0.144,0.079 -0.269,0.183 -0.367,0.307 l -32.601,45.078 -0.048,0.059 1.183,0.597 32.442,-44.873 0.166,-0.21 c 0.104,-0.136 0.232,-0.256 0.378,-0.355 0.29,-0.183 0.515,-0.076 0.592,0.312 -0.082,-0.402 -0.25,-0.785 -0.496,-1.127 -0.246,-0.341 -0.564,-0.635 -0.936,-0.864 z"
         fill="#0a0909" />
      <path
         id="Vector_24"
         d="m 151.415,148.01 -6.961,-3.654 v 54.506 c 0.029,0.468 0.179,0.923 0.437,1.328 0.258,0.406 0.616,0.751 1.047,1.007 l 1.674,0.877 c 0.459,0.211 0.965,0.321 1.479,0.321 0.513,0 1.02,-0.11 1.478,-0.321 l 0.834,-0.435 z"
         fill="#333333" />
      <path
         id="Vector_25"
         opacity="0.15"
         d="m 151.415,148.01 -6.961,-3.654 v 54.506 c 0.029,0.468 0.179,0.923 0.437,1.328 0.258,0.406 0.616,0.751 1.047,1.007 l 1.674,0.877 c 0.459,0.211 0.965,0.321 1.479,0.321 0.513,0 1.02,-0.11 1.478,-0.321 l 0.834,-0.435 z"
         fill="#0a0909" />
      <path
         id="Vector_26"
         d="m 227.969,106.913 v 52.945 c -0.019,0.485 -0.178,0.956 -0.461,1.367 -0.221,0.347 -0.517,0.649 -0.87,0.888 l -0.059,0.027 c -0.03,0.021 -0.062,0.041 -0.095,0.059 l -75.92,39.874 c -0.145,0.094 -0.314,0.153 -0.491,0.172 -0.177,0.019 -0.356,-0.003 -0.521,-0.064 -0.126,-0.067 -0.232,-0.16 -0.309,-0.273 -0.077,-0.112 -0.123,-0.24 -0.134,-0.373 -0.007,-0.08 -0.007,-0.161 0,-0.242 v -52.951 c -0.013,-0.189 0.024,-0.379 0.109,-0.552 0.086,-0.174 0.216,-0.326 0.38,-0.443 0.164,-0.118 0.357,-0.197 0.562,-0.232 0.206,-0.035 0.417,-0.023 0.617,0.033 l 31.939,10.687 4.181,0.904 c 0.494,0.083 1.003,0.042 1.473,-0.118 0.47,-0.16 0.883,-0.434 1.195,-0.792 l 4.844,-6.14 32.442,-44.868 0.166,-0.21 c 0.502,-0.688 0.952,-0.559 0.952,0.302 z"
         fill="#333333" />
      <path
         id="Vector_27"
         d="m 226.484,162.199 0.101,-0.059 0.053,-0.033 c 0.354,-0.235 0.651,-0.536 0.87,-0.882 0.279,-0.404 0.438,-0.868 0.461,-1.345 l -33.601,-8.18 22.475,15.546 z"
         fill="#333333" />
      <path
         id="Vector_28"
         opacity="0.2"
         d="m 226.484,162.199 0.101,-0.059 0.053,-0.033 c 0.354,-0.235 0.651,-0.536 0.87,-0.882 0.279,-0.404 0.438,-0.868 0.461,-1.345 l -33.601,-8.18 22.475,15.546 z"
         fill="#0a0909" />
      <path
         id="Vector_29"
         d="m 149.079,201.293 c -0.022,0.173 0.01,0.347 0.091,0.504 0.082,0.157 0.21,0.29 0.37,0.384 0.165,0.062 0.344,0.086 0.52,0.068 0.177,-0.018 0.346,-0.077 0.492,-0.17 l 26.148,-13.738 5.974,-30.506 -33.595,42.576 z"
         fill="#333333" />
      <path
         id="Vector_30"
         opacity="0.15"
         d="m 185.892,153.17 -36.352,49.011 c -0.16,-0.094 -0.288,-0.227 -0.37,-0.384 -0.081,-0.157 -0.113,-0.331 -0.091,-0.503 v -0.878 l 35.488,-47.892 z"
         fill="#0a0909" />
      <path
         id="Vector_31"
         d="m 227.507,161.225 c -0.219,0.347 -0.515,0.647 -0.869,0.883 l -0.053,0.032 -76.021,39.934 c -0.146,0.093 -0.315,0.152 -0.492,0.17 -0.176,0.018 -0.355,-0.006 -0.52,-0.068 l 36.358,-49.017 c 0.728,-1.059 1.851,-1.844 3.163,-2.21 1.312,-0.367 2.726,-0.291 3.982,0.214 z"
         fill="#333333" />
      <path
         id="Vector_32"
         opacity="0.15"
         d="m 144.714,139.453 1.183,0.635 c -0.168,0.477 -0.261,0.973 -0.278,1.474 v 3.423 l -1.183,-0.635 v -3.428 c 0.017,-0.499 0.111,-0.994 0.278,-1.469 z"
         fill="#0a0909" />
      <path
         id="Vector_33"
         d="m 151.06,146.567 -1.206,0.635 -1.219,-0.641 -2.998,-1.571 1.165,-0.629 z"
         fill="#333333" />
      <path
         id="Vector_34"
         opacity="0.1"
         d="m 151.113,146.588 -4.311,-2.227 -1.183,0.629 2.998,1.571 1.219,0.641 0.23,-0.065 c 0.215,-0.04 0.436,-0.04 0.651,0 l 2.472,0.845 27.864,9.336 0.438,-0.586 z"
         fill="#0a0909" />
    </g>
  </g>
</svg>
