<svg width="88" height="90" viewBox="0 0 88 90" fill="none" xmlns="http://www.w3.org/2000/svg">
<rect width="88" height="90" fill="#CBC7C7"/>
<g id="KYC" clip-path="url(#clip0_32_2)">
<g id="More">
<rect width="390" height="844" transform="translate(-154 -248)" fill="#0E0D0D"/>
<circle id="Ellipse 187" cx="44" cy="49" r="95" fill="#4DFFBF"/>
<g id="iconoir:face-id">
<path id="Vector" d="M29.3334 11.0526H22.0001C20.0552 11.0526 18.1899 11.8428 16.8146 13.2493C15.4394 14.6558 14.6667 16.5635 14.6667 18.5526V26.0526M66.0001 11.0526H73.3334C75.2783 11.0526 77.1436 11.8428 78.5189 13.2493C79.8941 14.6558 80.6667 16.5635 80.6667 18.5526V26.0526M62.3334 29.8026V37.3026M33.0001 29.8026V37.3026M36.6667 59.8026C36.6667 59.8026 40.3334 63.5526 47.6667 63.5526C55.0001 63.5526 58.6667 59.8026 58.6667 59.8026M47.6667 29.8026V48.5526H44.0001M29.3334 78.5526H22.0001C20.0552 78.5526 18.1899 77.7624 16.8146 76.3559C15.4394 74.9494 14.6667 73.0417 14.6667 71.0526V63.5526M66.0001 78.5526H73.3334C75.2783 78.5526 77.1436 77.7624 78.5189 76.3559C79.8941 74.9494 80.6667 73.0417 80.6667 71.0526V63.5526" stroke="#0E0D0D" stroke-width="4" stroke-linecap="round" stroke-linejoin="round"/>
</g>
</g>
</g>
<defs>
<clipPath id="clip0_32_2">
<rect width="390" height="937" fill="white" transform="translate(-154 -248)"/>
</clipPath>
</defs>
</svg>
