<?xml version="1.0" encoding="UTF-8" standalone="no"?>
<svg
   width="191.73868"
   height="190.92015"
   viewBox="0 0 191.73868 190.92015"
   fill="none"
   version="1.1"
   id="svg26"
   sodipodi:docname="69bae7fbbf954c36c5e50aee182efcb7.svg"
   xmlns:inkscape="http://www.inkscape.org/namespaces/inkscape"
   xmlns:sodipodi="http://sodipodi.sourceforge.net/DTD/sodipodi-0.dtd"
   xmlns="http://www.w3.org/2000/svg"
   xmlns:svg="http://www.w3.org/2000/svg">
  <defs
     id="defs30" />
  <sodipodi:namedview
     id="namedview28"
     pagecolor="#ffffff"
     bordercolor="#666666"
     borderopacity="1.0"
     inkscape:pageshadow="2"
     inkscape:pageopacity="0.0"
     inkscape:pagecheckerboard="0" />
  <path
     d="m 4.1767539,152.40037 c 0.07264,0.893 0.37553,1.759 0.88416,2.527 0.50863,0.767 1.20871,1.415 2.0436,1.89 l 63.7067701,33.455 c 0.9074,0.416 1.9091,0.632 2.9248,0.632 1.0158,0 2.0175,-0.216 2.9248,-0.632 l 112.147796,-58.907 c 0.884,-0.424 1.625,-1.06 2.141,-1.838 0.516,-0.779 0.789,-1.671 0.789,-2.58 0,-0.91 -0.273,-1.802 -0.789,-2.58 -0.516,-0.779 -1.257,-1.414 -2.141,-1.838 l -63.695,-33.465904 c -0.906,-0.4192 -1.908,-0.6377 -2.925,-0.6377 -1.016,0 -2.018,0.2185 -2.924,0.6377 L 7.1045139,147.97637 c -0.83502,0.477 -1.53508,1.126 -2.04366,1.894 -0.50859,0.769 -0.81144,1.635 -0.8841,2.53 z"
     fill="#37474f"
     id="path2" />
  <path
     d="m 7.1040939,151.04937 63.7067901,33.465 c 0.9061,0.42 1.9083,0.638 2.9248,0.638 1.0165,0 2.0187,-0.218 2.9248,-0.638 l 112.148196,-58.913 c 1.62,-0.85 1.62,-2.228 0,-3.072 l -63.695,-33.465904 c -0.906,-0.4192 -1.909,-0.6377 -2.925,-0.6377 -1.017,0 -2.019,0.2185 -2.925,0.6377 L 7.1040939,147.97637 c -1.6147,0.861 -1.6147,2.228 0,3.073 z"
     fill="#455a64"
     id="path4" />
  <path
     d="m 73.726984,185.15537 v 5.763 c -1.0295,0.024 -2.0483,-0.195 -2.9573,-0.635 l -63.6654001,-33.466 c -0.85806,-0.41 -1.58102,-1.02 -2.09506,-1.768 -0.51404,-0.748 -0.80073,-1.606 -0.83081,-2.488 -0.03007,-0.881 0.19756,-1.754 0.65965,-2.53 0.46208,-0.775 1.14205,-1.425 1.97049,-1.883 -1.31306,0.856 -1.18294,2.11 0.29573,2.906 l 63.7068001,33.466 c 0.8978,0.431 1.9007,0.65 2.9159,0.635 z"
     fill="#263238"
     id="path6" />
  <path
     d="m 1.4321539,148.07237 c -1.51415499,-0.796 -1.43134899001,-2.152 -1.43134899001,-3.837 V 64.190766 c 0.061394,-0.9257 0.36101300001,-1.8254 0.87469900001,-2.6264 0.51368999,-0.8011 1.22706999,-1.4811 2.08262999,-1.9853 L 115.08868,0.66598557 c 0.869,-0.41939 1.836,-0.646686 2.82,-0.663513 0.984,-0.016826 1.959,0.177289 2.846,0.566651 1.52,0.79641203 1.437,2.15247203 1.437,3.84216203 V 84.450966 c -0.055,0.9239 -0.349,1.823 -0.858,2.6242 -0.509,0.8013 -1.218,1.4821 -2.07,1.9874 L 7.1043039,147.97537 c -0.87052,0.421 -1.83781,0.649 -2.82334,0.666 -0.98553,0.017 -1.96155,-0.178 -2.84881,-0.569 z"
     fill="#37474f"
     id="path8" />
  <path
     d="m 122.19168,4.4064456 c 0,-1.69507 -1.313,-2.37848 -2.928,-1.53363 L 7.1042239,61.791366 c -0.86661,0.4885 -1.57971,1.1725 -2.07013,1.9856 l -4.16983999,-2.2063 c 0.49133999,-0.8139 1.20413999,-1.4995 2.07013999,-1.991 L 115.08268,0.66652857 c 0.87,-0.420684 1.837,-0.648694 2.823,-0.665524 0.985,-0.016829 1.961,0.177996 2.849,0.568663 1.514,0.82331803 1.437,2.14170803 1.437,3.83677803 z"
     fill="#455a64"
     id="path10" />
  <path
     d="m 6.7611139,148.13837 c -0.83846,0.344 -1.74972,0.517 -2.66948,0.506 -0.91977,-0.011 -1.82564,-0.206 -2.65372,-0.57 -1.51414999,-0.797 -1.43725999001,-2.153 -1.43725999001,-3.837 V 64.192166 c 0.033099,-0.9262 0.32851400001,-1.8288 0.85763000001,-2.6206 l 4.17574999,2.2009 c -0.52571,0.7931 -0.82086,1.695 -0.85763,2.6206 v 80.050304 c 0,1.571 1.1297,2.282 2.58471,1.695 z"
     fill="#263238"
     id="path12" />
  <path
     d="M 8.7070139,64.858566 116.81468,8.0710156 c 0.97,-0.53812 1.775,-0.09687 1.775,0.92018 V 78.881866 c -0.035,0.5558 -0.214,1.0962 -0.522,1.577 -0.309,0.4807 -0.738,0.8882 -1.253,1.189 L 8.7070139,138.41937 c -0.97,0.506 -1.7744,0.097 -1.7744,-0.926 V 67.624466 c 0.03563,-0.5555 0.2149,-1.0956 0.52323,-1.5762 0.30833,-0.4806 0.73701,-0.8883 1.25117,-1.1897 z"
     fill="#fffaf0"
     id="path14" />
  <path
     d="M 15.213584,148.13837 119.31168,93.449066 c 0.452,-0.2098 0.953,-0.3192 1.461,-0.3192 0.508,0 1.008,0.1094 1.461,0.3192 l 1.733,0.8663 c 0.81,0.4251 0.81,1.1139 0,1.539 L 19.868384,150.52737 c -0.4574,0.214 -0.9643,0.325 -1.4786,0.325 -0.5144,0 -1.0213,-0.111 -1.4787,-0.325 l -1.7153,-0.856 c -0.8044,-0.425 -0.8044,-1.114 0.0178,-1.533 z"
     fill="#263238"
     id="path16" />
  <path
     d="M 23.363884,152.55037 127.46168,97.866566 c 0.404,-0.2102 0.855,-0.3317 1.319,-0.3551 0.465,-0.0233 0.928,0.0522 1.355,0.2205 l 27.095,14.238404 c 0.668,0.35 0.556,0.98 -0.249,1.405 l -103.973496,54.608 c -0.4046,0.209 -0.8569,0.331 -1.3217,0.355 -0.4647,0.025 -0.9294,-0.049 -1.3577,-0.215 l -27.2074,-14.169 c -0.6743,-0.35 -0.5619,-0.979 0.2425,-1.404 z"
     fill="#263238"
     id="path18" />
  <path
     d="m 113.57368,120.85537 3.265,-1.711 c 0.136,-0.07 0.148,-0.183 0,-0.248 l -3.117,-1.614 c -0.073,-0.034 -0.154,-0.051 -0.236,-0.051 -0.083,0 -0.163,0.017 -0.237,0.051 l -3.259,1.716 c -0.142,0.07 -0.154,0.183 0,0.248 l 3.117,1.614 c 0.073,0.033 0.153,0.049 0.234,0.049 0.082,-10e-4 0.161,-0.02 0.233,-0.054 z m -4.731,-5.92 -3.259,1.712 c -0.142,0.07 -0.154,0.183 -0.03,0.247 l 3.117,1.615 c 0.074,0.033 0.155,0.05 0.237,0.05 0.082,0 0.163,-0.017 0.236,-0.05 l 3.259,-1.717 c 0.142,-0.07 0.154,-0.183 0.03,-0.248 l -3.117,-1.614 c -0.077,-0.037 -0.163,-0.056 -0.249,-0.055 -0.087,10e-4 -0.173,0.021 -0.248,0.06 z m -10.534496,5.532 -5.5124,2.895 c -0.142,0.07 -0.1538,0.183 -0.0296,0.248 l 3.117,1.641 c 0.0736,0.033 0.1545,0.051 0.2366,0.051 0.0821,0 0.1631,-0.018 0.2366,-0.051 l 5.518296,-2.9 c 0.136,-0.07 0.148,-0.183 0,-0.248 l -3.122896,-1.614 c -0.0685,-0.041 -0.1466,-0.066 -0.2279,-0.073 -0.0812,-0.007 -0.1633,0.003 -0.2393,0.03 z m 5.766496,-3.029 -3.259,1.711 c -0.136,0.07 -0.148,0.183 -0.029,0.247 l 3.123,1.615 c 0.073,0.033 0.154,0.05 0.236,0.05 0.082,0 0.163,-0.017 0.237,-0.05 l 3.259,-1.717 c 0.136,-0.07 0.148,-0.183 0,-0.247 l -3.123,-1.615 c -0.071,-0.036 -0.15,-0.056 -0.232,-0.059 -0.081,-0.003 -0.162,0.012 -0.235,0.043 z m -12.787196,6.715 -3.2589,1.712 c -0.1361,0.075 -0.1479,0.183 -0.0296,0.247 l 3.1229,1.615 c 0.0737,0.032 0.1546,0.049 0.2366,0.049 0.082,0 0.163,-0.017 0.2366,-0.049 l 3.259,-1.712 c 0.136,-0.075 0.1479,-0.183 0.0296,-0.253 l -3.123,-1.614 c -0.0745,-0.041 -0.1592,-0.063 -0.2461,-0.066 -0.0869,-0.003 -0.1732,0.014 -0.2507,0.05 z m -4.7612,2.503 -3.2945,1.689 c -0.142,0.076 -0.1538,0.183 0,0.248 l 3.117,1.641 c 0.0735,0.033 0.1545,0.051 0.2366,0.051 0.0821,0 0.1631,-0.018 0.2366,-0.051 l 3.2589,-1.711 c 0.142,-0.075 0.1538,-0.183 0.0296,-0.253 l -3.117,-1.614 c -0.0734,-0.041 -0.1567,-0.064 -0.2425,-0.068 -0.0857,-0.004 -0.1711,0.012 -0.2484,0.046 z m 12.2196,6.683 3.264796,-1.711 c 0.136,-0.075 0.148,-0.183 0,-0.248 l -3.116896,-1.614 c -0.0731,-0.034 -0.1543,-0.052 -0.2366,-0.052 -0.0823,0 -0.1635,0.018 -0.2366,0.052 l -3.2589,1.711 c -0.142,0.076 -0.1538,0.183 -0.0296,0.248 l 3.117,1.641 c 0.0776,0.026 0.1607,0.035 0.2429,0.027 0.0821,-0.009 0.1609,-0.034 0.2303,-0.075 z m -4.7613,2.502 3.259,-1.711 c 0.136,-0.075 0.1538,-0.183 0.0296,-0.247 l -3.117,-1.642 c -0.0742,-0.034 -0.1563,-0.052 -0.2396,-0.052 -0.0833,0 -0.1654,0.018 -0.2395,0.052 l -3.259,1.712 c -0.136,0.075 -0.1479,0.183 0,0.247 l 3.117,1.614 c 0.0668,0.028 0.139,0.043 0.2123,0.044 0.0733,0.001 0.146,-0.012 0.2136,-0.038 z m -4.7672,2.503 3.2649,-1.712 c 0.1361,-0.075 0.1479,-0.183 0,-0.247 l -3.117,-1.641 c -0.0731,-0.035 -0.1543,-0.053 -0.2366,-0.053 -0.0823,0 -0.1635,0.018 -0.2366,0.053 l -3.259,1.716 c -0.1419,0.076 -0.1537,0.183 -0.0295,0.248 l 3.117,1.641 c 0.0754,0.03 0.1578,0.044 0.2402,0.039 0.0823,-0.005 0.1622,-0.027 0.2329,-0.066 z m -4.8027,2.48 3.259,-1.711 c 0.1419,-0.075 0.1538,-0.183 0,-0.247 l -3.117,-1.642 c -0.0732,-0.034 -0.1543,-0.052 -0.2366,-0.052 -0.0824,0 -0.1635,0.018 -0.2366,0.052 l -3.2176,1.728 c -0.136,0.075 -0.1479,0.183 0,0.247 l 3.117,1.641 c 0.069,0.026 0.1433,0.038 0.2179,0.036 0.0745,-0.003 0.1475,-0.021 0.2139,-0.052 z m 24.379996,-17.489 3.259,-1.711 c 0.136,-0.07 0.154,-0.183 0.03,-0.247 l -3.117,-1.615 c -0.074,-0.033 -0.155,-0.05 -0.237,-0.05 -0.082,0 -0.163,0.017 -0.236,0.05 l -3.265,1.717 c -0.136,0.07 -0.148,0.183 0,0.248 l 3.117,1.614 c 0.073,0.033 0.153,0.049 0.234,0.048 0.081,-0.001 0.161,-0.019 0.233,-0.054 z m -5.323,7.48 7.269,-3.82 c 0.142,-0.07 0.154,-0.183 0,-0.248 l -7.571,-3.977 c -0.074,-0.033 -0.156,-0.05 -0.239,-0.05 -0.083,0 -0.165,0.017 -0.24,0.05 l -3.755496,1.975 c -0.142,0.076 -0.1538,0.189 -0.0296,0.253 l 4.010096,2.104 c 0.124,0.065 0.107,0.178 -0.029,0.248 l -2.963996,1.577 c -0.136,0.075 -0.148,0.182 0,0.247 l 3.116996,1.641 c 0.071,0.03 0.147,0.046 0.225,0.046 0.078,0 0.154,-0.016 0.225,-0.046 z m -21.754096,-1.679 -3.2175,1.712 c -0.1361,0.075 -0.1479,0.183 0,0.247 l 3.117,1.641 c 0.0735,0.034 0.1545,0.051 0.2366,0.051 0.0821,0 0.163,-0.017 0.2366,-0.051 l 3.2589,-1.711 c 0.1361,-0.075 0.1479,-0.183 0.0296,-0.247 l -3.1229,-1.642 c -0.079,-0.042 -0.1688,-0.064 -0.2603,-0.064 -0.0915,0 -0.1813,0.022 -0.2602,0.064 z m -4.7435,2.481 -3.259,1.711 c -0.142,0.076 -0.1538,0.183 0,0.248 l 3.117,1.641 c 0.0731,0.035 0.1543,0.053 0.2366,0.053 0.0823,0 0.1635,-0.018 0.2366,-0.053 l 3.259,-1.711 c 0.1419,-0.075 0.1537,-0.183 0.0295,-0.248 l -3.1466,-1.641 c -0.0731,-0.034 -0.1542,-0.052 -0.2365,-0.052 -0.0824,0 -0.1635,0.018 -0.2366,0.052 z m -26.3617,26.718 c 0.0732,0.034 0.1543,0.052 0.2366,0.052 0.0824,0 0.1635,-0.018 0.2366,-0.052 l 3.259,-1.712 c 0.136,-0.07 0.1479,-0.183 0.0296,-0.247 l -3.123,-1.614 c -0.0731,-0.035 -0.1542,-0.053 -0.2366,-0.053 -0.0823,0 -0.1634,0.018 -0.2366,0.053 l -3.2589,1.711 c -0.1361,0.075 -0.1479,0.188 -0.0296,0.253 z m -11.7406,-6.678 -3.2589,1.711 c -0.1361,0.075 -0.1538,0.188 -0.0296,0.253 l 3.1229,1.614 c 0.0731,0.035 0.1543,0.053 0.2366,0.053 0.0823,0 0.1635,-0.018 0.2366,-0.053 l 3.259,-1.711 c 0.136,-0.07 0.1478,-0.183 0,-0.248 l -3.1171,-1.614 c -0.0696,-0.032 -0.1462,-0.049 -0.224,-0.05 -0.0779,-0.001 -0.155,0.015 -0.2255,0.045 z m 6.0389,5.02 c 0.0747,0.033 0.1566,0.05 0.2395,0.05 0.083,0 0.1649,-0.017 0.2396,-0.05 l 3.259,-1.711 c 0.136,-0.075 0.1478,-0.188 0,-0.253 l -3.1171,-1.614 c -0.0731,-0.035 -0.1542,-0.053 -0.2365,-0.053 -0.0824,0 -0.1635,0.018 -0.2366,0.053 l -3.2294,1.689 c -0.1361,0.07 -0.1538,0.183 -0.0296,0.248 z m 13.1483,2.691 3.259,-1.711 c 0.136,-0.07 0.1478,-0.183 0,-0.248 l -3.123,-1.614 c -0.0735,-0.033 -0.1545,-0.051 -0.2366,-0.051 -0.082,0 -0.163,0.018 -0.2366,0.051 l -3.2589,1.716 c -0.1361,0.07 -0.1479,0.183 0,0.248 l 3.117,1.614 c 0.0733,0.032 0.1538,0.048 0.2351,0.046 0.0812,-0.002 0.1607,-0.021 0.2322,-0.057 z m -5.2404,2.518 c 0.0731,0.035 0.1542,0.053 0.2366,0.053 0.0823,0 0.1635,-0.018 0.2366,-0.053 l 3.2589,-1.711 c 0.142,-0.07 0.1538,-0.183 0,-0.248 l -3.117,-1.614 c -0.0735,-0.033 -0.1545,-0.05 -0.2366,-0.05 -0.082,0 -0.163,0.017 -0.2365,0.05 l -3.259,1.717 c -0.142,0.07 -0.1538,0.183 -0.0296,0.247 z m -9.215,-12.732 -3.2649,1.712 c -0.1361,0.075 -0.1479,0.188 0,0.253 l 3.117,1.614 c 0.0731,0.034 0.1542,0.052 0.2366,0.052 0.0823,0 0.1635,-0.018 0.2366,-0.052 l 3.2589,-1.711 c 0.142,-0.07 0.1538,-0.183 0.0296,-0.248 l -3.117,-1.641 c -0.0785,-0.034 -0.1648,-0.049 -0.2514,-0.045 -0.0865,0.003 -0.1708,0.026 -0.2454,0.066 z m 23.8183,-12.511 -3.259,1.711 c -0.1419,0.076 -0.1538,0.183 -0.0296,0.248 l 3.1171,1.614 c 0.0731,0.035 0.1542,0.053 0.2366,0.053 0.0823,0 0.1634,-0.018 0.2365,-0.053 l 3.2649,-1.711 c 0.1361,-0.075 0.1479,-0.183 0,-0.248 l -3.117,-1.641 c -0.069,-0.023 -0.1427,-0.033 -0.2161,-0.028 -0.0735,0.004 -0.145,0.023 -0.2097,0.055 z m -19.057,10.009 -3.259,1.711 c -0.1361,0.076 -0.1538,0.189 -0.0296,0.253 l 3.117,1.615 c 0.0742,0.034 0.1563,0.052 0.2396,0.052 0.0833,0 0.1654,-0.018 0.2395,-0.052 l 3.259,-1.712 c 0.136,-0.075 0.1479,-0.183 0,-0.247 l -3.117,-1.614 c -0.0668,-0.028 -0.1391,-0.043 -0.2123,-0.044 -0.0733,-0.001 -0.146,0.012 -0.2136,0.038 z m 23.8183,-12.511 -3.259,1.711 c -0.136,0.075 -0.1479,0.183 0,0.248 l 3.117,1.641 c 0.0732,0.034 0.1543,0.052 0.2366,0.052 0.0824,0 0.1635,-0.018 0.2366,-0.052 l 3.259,-1.711 c 0.136,-0.076 0.1479,-0.183 0.0296,-0.248 l -3.123,-1.614 c -0.0707,-0.039 -0.1506,-0.062 -0.233,-0.066 -0.0823,-0.005 -0.1647,0.009 -0.2401,0.039 z m -9.5049,5.01 -3.2589,1.711 c -0.1361,0.075 -0.1479,0.183 0,0.248 l 3.117,1.641 c 0.0731,0.034 0.1542,0.052 0.2366,0.052 0.0823,0 0.1634,-0.018 0.2366,-0.052 l 3.2589,-1.711 c 0.1361,-0.076 0.1538,-0.183 0.0296,-0.248 l -3.1407,-1.641 c -0.0741,-0.035 -0.1562,-0.053 -0.2395,-0.053 -0.0833,0 -0.1654,0.018 -0.2396,0.053 z m -4.7613,2.502 -3.2589,1.711 c -0.142,0.076 -0.1538,0.183 -0.0296,0.248 l 3.117,1.641 c 0.0731,0.034 0.1543,0.052 0.2366,0.052 0.0823,0 0.1635,-0.018 0.2366,-0.052 l 3.2649,-1.711 c 0.136,-0.076 0.1478,-0.183 0,-0.248 l -3.0934,-1.663 c -0.0749,-0.03 -0.1566,-0.045 -0.2387,-0.042 -0.082,0.003 -0.1623,0.023 -0.2345,0.059 z m -4.7317,2.502 -3.2649,1.711 c -0.136,0.076 -0.1479,0.189 0,0.253 l 3.117,1.615 c 0.0732,0.034 0.1543,0.052 0.2366,0.052 0.0824,0 0.1635,-0.018 0.2366,-0.052 l 3.259,-1.711 c 0.1419,-0.076 0.1538,-0.183 0.0296,-0.248 l -3.1407,-1.641 c -0.0788,-0.035 -0.1659,-0.052 -0.2536,-0.05 -0.0877,0.003 -0.1733,0.026 -0.2492,0.066 z m 21.7482,1.679 3.259,-1.711 c 0.1419,-0.075 0.1538,-0.183 0,-0.248 l -3.117,-1.614 c -0.0736,-0.033 -0.1545,-0.05 -0.2366,-0.05 -0.0821,0 -0.1631,0.017 -0.2366,0.05 l -3.2649,1.711 c -0.136,0.076 -0.1479,0.183 0,0.248 l 3.117,1.641 c 0.0727,0.026 0.151,0.037 0.2289,0.031 0.0779,-0.005 0.1533,-0.027 0.2206,-0.063 z m 44.443196,-36.447 -3.259,1.712 c -0.136,0.07 -0.148,0.183 -0.03,0.247 l 3.123,1.615 c 0.073,0.033 0.154,0.05 0.237,0.05 0.082,0 0.163,-0.017 0.236,-0.05 l 3.259,-1.717 c 0.136,-0.07 0.148,-0.183 0.03,-0.248 l -3.123,-1.614 c -0.077,-0.039 -0.164,-0.06 -0.252,-0.06 -0.088,0 -0.174,0.021 -0.251,0.06 z m -5.767,3.025 -3.259,1.716 c -0.136,0.07 -0.148,0.183 -0.03,0.248 l 3.123,1.614 c 0.074,0.033 0.155,0.051 0.237,0.051 0.082,0 0.163,-0.018 0.236,-0.051 l 3.259,-1.716 c 0.136,-0.07 0.148,-0.183 0.03,-0.248 l -3.123,-1.614 c -0.077,-0.039 -0.163,-0.059 -0.251,-0.06 -0.087,-10e-4 -0.174,0.017 -0.252,0.054 z m 10.504,-5.548 -3.259,1.711 c -0.142,0.07 -0.154,0.183 -0.029,0.247 l 3.117,1.615 c 0.073,0.033 0.154,0.05 0.236,0.05 0.082,0 0.163,-0.017 0.237,-0.05 l 3.259,-1.717 c 0.142,-0.07 0.154,-0.183 0.029,-0.247 l -3.117,-1.615 c -0.073,-0.033 -0.155,-0.05 -0.237,-0.049 -0.082,0.001 -0.163,0.019 -0.236,0.055 z m -26.331896,22.267 3.258896,-1.711 c 0.136,-0.07 0.148,-0.183 0.03,-0.248 l -3.123196,-1.614 c -0.0736,-0.033 -0.1545,-0.051 -0.2366,-0.051 -0.0821,0 -0.1631,0.018 -0.2366,0.051 l -3.259,1.717 c -0.136,0.069 -0.1479,0.182 -0.0296,0.247 l 3.123,1.614 c 0.0735,0.034 0.1549,0.051 0.2373,0.05 0.0823,-0.001 0.1632,-0.02 0.2358,-0.055 z m 31.566896,-24.753 c -0.074,-0.034 -0.155,-0.051 -0.237,-0.051 -0.082,0 -0.163,0.017 -0.236,0.051 l -3.259,1.716 c -0.137,0.07 -0.148,0.183 -0.03,0.248 l 3.123,1.614 c 0.073,0.033 0.154,0.051 0.236,0.051 0.083,0 0.164,-0.018 0.237,-0.051 l 3.259,-1.717 c 0.136,-0.069 0.148,-0.182 0.03,-0.247 z m -49.683496,38.965 3.259,-1.712 c 0.1361,-0.075 0.1479,-0.182 0,-0.247 l -3.117,-1.641 c -0.0731,-0.035 -0.1543,-0.053 -0.2366,-0.053 -0.0823,0 -0.1635,0.018 -0.2366,0.053 l -3.1998,1.711 c -0.136,0.075 -0.1538,0.183 0,0.247 l 3.117,1.642 c 0.0691,0.025 0.1434,0.037 0.2178,0.034 0.0744,-0.003 0.1474,-0.02 0.214,-0.05 z m 58.419496,-30.673 3.259,-1.711 c 0.142,-0.07 0.153,-0.183 0.029,-0.248 l -3.135,-1.695 c -0.073,-0.033 -0.154,-0.05 -0.236,-0.05 -0.082,0 -0.163,0.017 -0.237,0.05 l -3.259,1.711 c -0.142,0.076 -0.154,0.189 -0.029,0.253 l 3.117,1.615 c 0.072,0.045 0.155,0.072 0.242,0.08 0.087,0.007 0.175,-0.006 0.255,-0.037 z m -9.221,0.161 3.265,-1.711 c 0.136,-0.07 0.147,-0.183 0,-0.247 l -3.117,-1.615 c -0.074,-0.033 -0.155,-0.05 -0.237,-0.05 -0.082,0 -0.163,0.017 -0.237,0.05 l -3.259,1.717 c -0.142,0.07 -0.153,0.183 -0.029,0.247 l 3.117,1.615 c 0.082,0.031 0.171,0.042 0.259,0.033 0.088,-0.009 0.172,-0.039 0.244,-0.087 z m 4.933,-6.096 c -0.074,-0.034 -0.155,-0.051 -0.237,-0.051 -0.082,0 -0.163,0.017 -0.237,0.051 l -3.259,1.716 c -0.136,0.07 -0.148,0.183 0,0.248 l 3.117,1.614 c 0.074,0.034 0.155,0.052 0.237,0.052 0.082,0 0.163,-0.018 0.237,-0.052 l 3.259,-1.711 c 0.136,-0.07 0.153,-0.183 0,-0.248 z m 1.005,-0.539 7.571,3.977 c 0.074,0.035 0.156,0.053 0.239,0.053 0.084,0 0.166,-0.018 0.24,-0.053 l 3.259,-1.711 c 0.136,-0.07 0.148,-0.183 0,-0.248 l -7.571,-3.976 c -0.073,-0.033 -0.154,-0.051 -0.237,-0.051 -0.082,0 -0.163,0.018 -0.236,0.051 l -3.259,1.711 c -0.118,0.048 -0.118,0.161 0,0.226 z m -11.001,5.511 -3.259,1.716 c -0.136,0.07 -0.148,0.183 0,0.248 l 3.117,1.614 c 0.073,0.035 0.154,0.053 0.236,0.053 0.083,0 0.164,-0.018 0.237,-0.053 l 3.259,-1.711 c 0.136,-0.07 0.154,-0.183 0.029,-0.247 l -3.117,-1.615 c -0.077,-0.037 -0.163,-0.058 -0.25,-0.059 -0.088,0 -0.174,0.018 -0.252,0.054 z m -35.837196,18.834 -3.259,1.716 c -0.136,0.07 -0.1478,0.183 0,0.248 l 3.123,1.614 c 0.0731,0.035 0.1542,0.053 0.2366,0.053 0.0823,0 0.1634,-0.018 0.2365,-0.053 l 3.2117,-1.695 c 0.136,-0.07 0.1479,-0.183 0.0296,-0.247 l -3.123,-1.615 c -0.0694,-0.034 -0.1463,-0.053 -0.225,-0.057 -0.0788,-0.004 -0.1575,0.009 -0.2304,0.036 z m 44.910196,-15.396 c 0.073,0.035 0.154,0.053 0.236,0.053 0.083,0 0.164,-0.018 0.237,-0.053 l 3.259,-1.711 c 0.136,-0.07 0.148,-0.183 0,-0.247 l -3.099,-1.647 c -0.074,-0.033 -0.155,-0.051 -0.237,-0.051 -0.082,0 -0.163,0.018 -0.236,0.051 l -3.259,1.711 c -0.136,0.075 -0.148,0.189 -0.03,0.253 z m -40.142996,12.915 -3.259,1.717 c -0.1419,0.07 -0.1537,0.183 0,0.247 l 3.1171,1.615 c 0.0731,0.034 0.1542,0.052 0.2366,0.052 0.0823,0 0.1634,-0.018 0.2365,-0.052 l 3.259,-1.712 c 0.142,-0.07 0.1538,-0.183 0.0296,-0.247 l -3.117,-1.614 c -0.0801,-0.046 -0.1721,-0.072 -0.2667,-0.075 -0.0946,-0.003 -0.1884,0.017 -0.2716,0.058 z m -37.357,27.772 c 0.0731,0.035 0.1543,0.053 0.2366,0.053 0.0824,0 0.1635,-0.018 0.2366,-0.053 l 3.259,-1.711 c 0.1419,-0.07 0.1538,-0.183 0,-0.247 l -3.0816,-1.636 c -0.0735,-0.033 -0.1545,-0.051 -0.2365,-0.051 -0.0821,0 -0.1631,0.018 -0.2366,0.051 l -3.259,1.711 c -0.142,0.075 -0.1538,0.188 -0.0296,0.253 z m -5.5361,-5.279 -3.2767,1.733 c -0.136,0.07 -0.1479,0.183 0,0.248 l 3.117,1.614 c 0.0731,0.035 0.1543,0.053 0.2366,0.053 0.0823,0 0.1635,-0.018 0.2366,-0.053 l 3.259,-1.711 c 0.1419,-0.075 0.1537,-0.188 0.0295,-0.253 l -3.117,-1.614 c -0.0751,-0.036 -0.1586,-0.054 -0.2432,-0.053 -0.0846,0.001 -0.1677,0.021 -0.2418,0.058 z m 10.7765,2.761 3.259,-1.711 c 0.136,-0.07 0.1479,-0.183 0,-0.248 l -3.117,-1.619 c -0.0736,-0.034 -0.1545,-0.051 -0.2366,-0.051 -0.0821,0 -0.1631,0.017 -0.2366,0.051 l -3.259,1.711 c -0.136,0.075 -0.1478,0.188 0,0.253 l 3.123,1.614 c 0.0704,0.037 0.1495,0.058 0.2307,0.062 0.0813,0.004 0.1623,-0.01 0.2365,-0.04 z m 4.7613,-2.502 3.259,-1.711 c 0.142,-0.076 0.1538,-0.183 0.0296,-0.248 l -3.117,-1.63 c -0.0736,-0.034 -0.1546,-0.051 -0.2366,-0.051 -0.0821,0 -0.1631,0.017 -0.2366,0.051 l -3.259,1.711 c -0.142,0.075 -0.1538,0.188 0,0.253 l 3.117,1.614 c 0.0666,0.035 0.141,0.056 0.2178,0.062 0.0768,0.006 0.1539,-0.005 0.2258,-0.03 z m 4.7672,-2.502 3.259,-1.712 c 0.1361,-0.075 0.1479,-0.183 0,-0.247 l -3.117,-1.641 c -0.0735,-0.034 -0.1545,-0.051 -0.2366,-0.051 -0.0821,0 -0.1631,0.017 -0.2366,0.051 l -3.259,1.711 c -0.136,0.075 -0.1537,0.188 -0.0295,0.247 l 3.1229,1.615 c 0.0715,0.045 0.1546,0.074 0.2415,0.082 0.087,0.009 0.1748,-0.003 0.2553,-0.034 z m -15.5437,-0.259 -3.259,1.711 c -0.136,0.07 -0.1537,0.183 -0.0295,0.248 l 3.117,1.614 c 0.0746,0.034 0.1565,0.051 0.2395,0.051 0.0831,0 0.165,-0.017 0.2396,-0.051 l 3.2589,-1.711 c 0.1361,-0.075 0.1479,-0.188 0,-0.253 l -3.117,-1.614 c -0.0722,-0.027 -0.1503,-0.038 -0.2281,-0.034 -0.0779,0.005 -0.1536,0.026 -0.2214,0.061 z m 4.7672,-2.502 -3.2649,1.711 c -0.136,0.07 -0.1478,0.183 0,0.248 l 3.1171,1.614 c 0.0735,0.033 0.1545,0.051 0.2366,0.051 0.082,0 0.163,-0.018 0.2365,-0.051 l 3.259,-1.717 c 0.1361,-0.069 0.1538,-0.182 0.0296,-0.247 l -3.117,-1.614 c -0.0786,-0.035 -0.1654,-0.05 -0.2523,-0.045 -0.0869,0.004 -0.171,0.029 -0.2446,0.072 z m 19.0511,-10.009 -3.2589,1.711 c -0.1361,0.07 -0.1479,0.183 0,0.248 l 3.117,1.614 c 0.0735,0.033 0.1545,0.051 0.2366,0.051 0.0821,0 0.163,-0.018 0.2366,-0.051 l 3.2589,-1.716 c 0.1361,-0.07 0.1479,-0.183 0.0296,-0.248 l -3.1229,-1.614 c -0.0786,-0.034 -0.1654,-0.05 -0.2522,-0.045 -0.0869,0.004 -0.1711,0.029 -0.2447,0.072 z m -4.7613,2.535 -3.2589,1.711 c -0.142,0.07 -0.1538,0.183 -0.0296,0.247 l 3.117,1.615 c 0.0736,0.033 0.1545,0.05 0.2366,0.05 0.0821,0 0.1631,-0.017 0.2366,-0.05 l 3.259,-1.717 c 0.1419,-0.07 0.1538,-0.183 0,-0.247 l -3.1171,-1.615 c -0.0697,-0.029 -0.1457,-0.044 -0.2224,-0.043 -0.0768,0.001 -0.1523,0.018 -0.2212,0.049 z m 9.5286,-5.01 -3.259,1.716 c -0.142,0.07 -0.1538,0.183 0,0.248 l 3.117,1.614 c 0.0735,0.033 0.1545,0.051 0.2366,0.051 0.0821,0 0.1631,-0.018 0.2366,-0.051 l 3.259,-1.716 c 0.1419,-0.07 0.1537,-0.183 0.0295,-0.248 l -3.117,-1.614 c -0.0763,-0.04 -0.1622,-0.061 -0.2499,-0.063 -0.0877,-0.002 -0.1745,0.016 -0.2528,0.052 z m -19.0571,10.003 -3.2589,1.711 c -0.142,0.07 -0.1538,0.183 -0.0296,0.248 l 3.117,1.614 c 0.0735,0.034 0.1545,0.051 0.2366,0.051 0.0821,0 0.1631,-0.017 0.2366,-0.051 l 3.2649,-1.716 c 0.136,-0.07 0.1478,-0.183 0,-0.248 l -3.1171,-1.614 c -0.0704,-0.03 -0.1475,-0.045 -0.2254,-0.044 -0.0779,0 -0.1545,0.017 -0.2241,0.049 z m 4.7613,-2.502 -3.2589,1.711 c -0.1361,0.07 -0.1479,0.183 0,0.248 l 3.117,1.614 c 0.0735,0.033 0.1545,0.051 0.2366,0.051 0.082,0 0.163,-0.018 0.2365,-0.051 l 3.259,-1.716 c 0.1361,-0.07 0.1538,-0.183 0.0296,-0.248 l -3.1229,-1.614 c -0.0766,-0.038 -0.1623,-0.057 -0.2492,-0.056 -0.0869,0.001 -0.1721,0.022 -0.2477,0.061 z m -6.0802,16.294 3.2589,-1.711 c 0.142,-0.07 0.1538,-0.183 0.0296,-0.248 l -3.117,-1.614 c -0.0736,-0.033 -0.1545,-0.05 -0.2366,-0.05 -0.0821,0 -0.1631,0.017 -0.2366,0.05 l -3.259,1.711 c -0.1419,0.076 -0.1537,0.189 0,0.253 l 3.1171,1.615 c 0.0697,0.029 0.1457,0.044 0.2224,0.043 0.0768,-0.001 0.1523,-0.018 0.2212,-0.049 z m -25.1196,-1.076 -3.117,-1.614 c -0.0731,-0.035 -0.1543,-0.053 -0.2366,-0.053 -0.0823,0 -0.1635,0.018 -0.2366,0.053 l -3.259,1.711 c -0.1419,0.075 -0.1538,0.188 0,0.253 l 3.1171,1.614 c 0.0731,0.035 0.1542,0.053 0.2365,0.053 0.0824,0 0.1635,-0.018 0.2366,-0.053 l 3.259,-1.711 c 0.1124,-0.075 0.1242,-0.205 0,-0.253 z m 6.2104,1.415 -3.117,-1.614 c -0.0732,-0.035 -0.1543,-0.053 -0.2366,-0.053 -0.0824,0 -0.1635,0.018 -0.2366,0.053 l -4.9861,2.626 c -0.1419,0.075 -0.1537,0.188 0,0.253 l 3.1171,1.614 c 0.0731,0.035 0.1542,0.053 0.2365,0.053 0.0824,0 0.1635,-0.018 0.2366,-0.053 l 5.0157,-2.631 c 0.0828,-0.07 0.0946,-0.183 -0.0296,-0.248 z m -10.8652,-4.649 -3.1171,-1.614 c -0.0731,-0.035 -0.1542,-0.053 -0.2365,-0.053 -0.0824,0 -0.1635,0.018 -0.2366,0.053 l -4.0161,2.109 c -0.136,0.07 -0.1479,0.183 0,0.248 l 3.117,1.614 c 0.0736,0.033 0.1545,0.05 0.2366,0.05 0.0821,0 0.1631,-0.017 0.2366,-0.05 l 4.0101,-2.11 c 0.1183,-0.075 0.1302,-0.193 0.006,-0.247 z m 3.0756,-1.614 c 0.0731,0.034 0.1542,0.052 0.2366,0.052 0.0823,0 0.1634,-0.018 0.2366,-0.052 l 3.2589,-1.712 c 0.142,-0.075 0.1538,-0.188 0.0296,-0.253 l -3.117,-1.614 c -0.0731,-0.034 -0.1543,-0.052 -0.2366,-0.052 -0.0823,0 -0.1635,0.018 -0.2366,0.052 l -3.259,1.711 c -0.1419,0.07 -0.1537,0.183 -0.0295,0.248 z m 13.4972,7.953 -3.117,-1.614 c -0.0735,-0.034 -0.1545,-0.051 -0.2366,-0.051 -0.0821,0 -0.163,0.017 -0.2366,0.051 l -6.2695,3.293 c -0.136,0.075 -0.1538,0.183 0,0.247 l 3.117,1.615 c 0.0742,0.034 0.1563,0.052 0.2396,0.052 0.0833,0 0.1654,-0.018 0.2395,-0.052 l 6.2636,-3.294 c 0.1124,-0.075 0.1242,-0.188 0,-0.252 z m 2.2003,3.525 -3.1229,-1.615 c -0.0736,-0.033 -0.1545,-0.05 -0.2366,-0.05 -0.0821,0 -0.1631,0.017 -0.2366,0.05 l -4.0161,2.094 c -0.136,0.075 -0.1478,0.182 0,0.247 l 3.123,1.641 c 0.0736,0.033 0.1545,0.05 0.2365,0.05 0.0821,0 0.163,-0.017 0.2366,-0.05 l 4.0102,-2.109 c 0.1124,-0.086 0.1301,-0.199 0.0059,-0.264 z m 19.7254,-30.081 c 0.0731,0.034 0.1542,0.052 0.2366,0.052 0.0823,0 0.1634,-0.018 0.2366,-0.052 l 3.2589,-1.711 c 0.1361,-0.076 0.1479,-0.183 0.0296,-0.248 l -3.1229,-1.614 c -0.0737,-0.033 -0.1546,-0.05 -0.2366,-0.05 -0.082,0 -0.1629,0.017 -0.2366,0.05 l -3.2531,1.679 c -0.136,0.075 -0.1478,0.183 -0.0295,0.247 z m -9.5285,5.004 c 0.0731,0.035 0.1542,0.053 0.2366,0.053 0.0823,0 0.1634,-0.018 0.2365,-0.053 l 3.259,-1.711 c 0.1361,-0.07 0.1538,-0.183 0.0296,-0.247 l -3.1229,-1.642 c -0.0737,-0.032 -0.1546,-0.05 -0.2366,-0.05 -0.082,0 -0.163,0.018 -0.2366,0.05 l -3.259,1.712 c -0.136,0.075 -0.1479,0.188 0,0.252 z m -21.1331,11.096 c 0.0746,0.034 0.1565,0.051 0.2395,0.051 0.0831,0 0.165,-0.017 0.2396,-0.051 l 3.259,-1.749 c 0.136,-0.075 0.1478,-0.188 0,-0.252 l -3.1171,-1.615 c -0.0731,-0.034 -0.1542,-0.052 -0.2366,-0.052 -0.0823,0 -0.1634,0.018 -0.2365,0.052 l -3.259,1.711 c -0.1361,0.07 -0.1538,0.183 0,0.248 z m 25.8944,-13.587 c 0.0731,0.034 0.1542,0.052 0.2366,0.052 0.0823,0 0.1634,-0.018 0.2365,-0.052 l 3.259,-1.711 c 0.142,-0.07 0.1538,-0.183 0.0296,-0.248 l -3.117,-1.641 c -0.0736,-0.033 -0.1545,-0.051 -0.2366,-0.051 -0.0821,0 -0.1631,0.018 -0.2366,0.051 l -3.259,1.711 c -0.1419,0.075 -0.1538,0.188 -0.0296,0.253 z m -9.5285,5.004 c 0.0731,0.035 0.1542,0.053 0.2365,0.053 0.0824,0 0.1635,-0.018 0.2366,-0.053 l 3.259,-1.711 c 0.142,-0.07 0.1538,-0.183 0,-0.247 l -3.117,-1.642 c -0.0736,-0.033 -0.1545,-0.05 -0.2366,-0.05 -0.0821,0 -0.1631,0.017 -0.2366,0.05 l -3.259,1.712 c -0.1419,0.075 -0.1538,0.188 -0.0296,0.252 z m -3.0934,22.752 c -0.0735,-0.033 -0.1545,-0.051 -0.2366,-0.051 -0.0821,0 -0.1631,0.018 -0.2366,0.051 l -5.0156,2.637 c -0.1361,0.07 -0.1479,0.183 0,0.247 l 3.117,1.615 c 0.0731,0.034 0.1543,0.052 0.2366,0.052 0.0823,0 0.1635,-0.018 0.2366,-0.052 l 5.0156,-2.637 c 0.136,-0.07 0.1479,-0.183 0,-0.248 z m -3.744,-19.162 c 0.0735,0.033 0.1545,0.05 0.2366,0.05 0.0821,0 0.163,-0.017 0.2366,-0.05 l 3.2649,-1.717 c 0.136,-0.07 0.1478,-0.183 0,-0.248 l -3.1171,-1.614 c -0.0731,-0.034 -0.1542,-0.052 -0.2365,-0.052 -0.0824,0 -0.1635,0.018 -0.2366,0.052 l -3.259,1.711 c -0.142,0.07 -0.1538,0.183 -0.0296,0.248 z m -4.7613,2.502 c 0.0735,0.033 0.1545,0.05 0.2366,0.05 0.0821,0 0.163,-0.017 0.2366,-0.05 l 3.259,-1.717 c 0.1419,-0.07 0.1537,-0.183 0.0295,-0.247 l -3.117,-1.615 c -0.0731,-0.034 -0.1542,-0.052 -0.2366,-0.052 -0.0823,0 -0.1635,0.018 -0.2366,0.052 l -3.2649,1.712 c -0.136,0.07 -0.1478,0.183 0,0.247 z m 96.769496,-29.704 c -0.073,-0.035 -0.154,-0.053 -0.236,-0.053 -0.083,0 -0.164,0.018 -0.237,0.053 l -8.026,4.213 c -0.136,0.076 -0.154,0.183 -0.03,0.248 l 3.123,1.641 c 0.073,0.034 0.155,0.052 0.237,0.052 0.082,0 0.163,-0.018 0.236,-0.052 l 8.021,-4.213 c 0.142,-0.076 0.153,-0.183 0.029,-0.248 z m -10.534,5.532 c -0.073,-0.035 -0.154,-0.053 -0.236,-0.053 -0.083,0 -0.164,0.018 -0.237,0.053 l -3.259,1.711 c -0.136,0.075 -0.154,0.183 -0.029,0.247 l 3.117,1.642 c 0.074,0.034 0.156,0.052 0.239,0.052 0.083,0 0.165,-0.018 0.24,-0.052 l 3.259,-1.712 c 0.136,-0.075 0.147,-0.183 0,-0.247 z m -64.297996,32.588 3.2589,-1.711 c 0.1361,-0.07 0.1479,-0.183 0.0296,-0.248 l -3.1229,-1.614 c -0.0735,-0.033 -0.1545,-0.051 -0.2366,-0.051 -0.0821,0 -0.1631,0.018 -0.2366,0.051 l -3.259,1.711 c -0.136,0.075 -0.1478,0.188 0,0.253 l 3.1171,1.614 c 0.0705,0.03 0.1475,0.046 0.2254,0.045 0.0779,-0.001 0.1545,-0.018 0.2241,-0.05 z m 54.769996,-27.584 c -0.074,-0.033 -0.155,-0.05 -0.237,-0.05 -0.082,0 -0.163,0.017 -0.236,0.05 l -3.259,1.711 c -0.136,0.076 -0.154,0.183 -0.03,0.248 l 3.123,1.641 c 0.073,0.035 0.154,0.052 0.237,0.052 0.082,0 0.163,-0.017 0.236,-0.052 l 3.259,-1.711 c 0.136,-0.075 0.148,-0.183 0,-0.248 z m 24.841,-13.039 c -0.073,-0.034 -0.154,-0.052 -0.236,-0.052 -0.083,0 -0.164,0.018 -0.237,0.052 l -3.277,1.739 c -0.136,0.075 -0.153,0.183 -0.029,0.247 l 3.117,1.614 c 0.073,0.034 0.154,0.051 0.236,0.051 0.083,0 0.163,-0.017 0.237,-0.051 l 3.265,-1.711 c 0.136,-0.075 0.148,-0.183 0,-0.247 z m 7.885,-0.861 -7.577,-3.982 c -0.073,-0.034 -0.154,-0.052 -0.237,-0.052 -0.082,0 -0.163,0.018 -0.236,0.052 l -3.277,1.739 c -0.136,0.075 -0.148,0.182 -0.03,0.247 l 7.577,3.982 c 0.074,0.033 0.155,0.051 0.237,0.051 0.082,0 0.163,-0.018 0.236,-0.051 l 3.259,-1.711 c 0.136,-0.118 0.154,-0.226 0.03,-0.291 z m -50.547,23.236 c -0.073,-0.034 -0.154,-0.052 -0.237,-0.052 -0.082,0 -0.163,0.018 -0.236,0.052 l -4.01,2.104 c -0.135996,0.076 -0.153996,0.189 -0.03,0.253 l 3.117,1.615 c 0.074,0.034 0.156,0.052 0.24,0.052 0.083,0 0.165,-0.018 0.239,-0.052 l 4.01,-2.104 c 0.136,-0.076 0.148,-0.189 0.03,-0.253 z m 12.036,-6.322 c -0.073,-0.035 -0.154,-0.053 -0.236,-0.053 -0.083,0 -0.164,0.018 -0.237,0.053 l -5.016,2.631 c -0.136,0.075 -0.147,0.188 -0.029,0.253 l 3.123,1.614 c 0.073,0.035 0.154,0.053 0.236,0.053 0.083,0 0.164,-0.018 0.237,-0.053 l 5.016,-2.631 c 0.136,-0.076 0.147,-0.183 0,-0.248 z m -23.066996,12.118 c -0.0731,-0.035 -0.1542,-0.052 -0.2366,-0.052 -0.0823,0 -0.1634,0.017 -0.2366,0.052 l -26.8289,14.093 c -0.136,0.07 -0.1537,0.183 -0.0295,0.248 l 3.117,1.614 c 0.0731,0.035 0.1542,0.053 0.2366,0.053 0.0823,0 0.1635,-0.018 0.2366,-0.053 l 26.8348,-14.088 c 0.136,-0.075 0.1478,-0.188 0,-0.253 z m -28.3312,14.884 c -0.0735,-0.033 -0.1545,-0.05 -0.2366,-0.05 -0.0821,0 -0.1631,0.017 -0.2366,0.05 l -4.016,2.11 c -0.1361,0.075 -0.1479,0.183 0,0.247 l 3.117,1.641 c 0.0735,0.034 0.1545,0.051 0.2366,0.051 0.0821,0 0.163,-0.017 0.2366,-0.051 l 4.0101,-2.109 c 0.136,-0.07 0.1538,-0.183 0.0296,-0.247 z m 33.8496,-17.758 c -0.0731,-0.034 -0.1543,-0.052 -0.2366,-0.052 -0.0823,0 -0.1635,0.018 -0.2366,0.052 l -4.016,2.11 c -0.1361,0.07 -0.1479,0.183 0,0.247 l 3.117,1.615 c 0.0731,0.034 0.1542,0.052 0.2366,0.052 0.0823,0 0.1634,-0.018 0.2366,-0.052 l 4.010596,-2.11 c 0.141,-0.07 0.153,-0.183 0.029,-0.247 z m -39.368,20.675 c -0.0731,-0.035 -0.1542,-0.053 -0.2366,-0.053 -0.0823,0 -0.1634,0.018 -0.2366,0.053 l -4.0101,2.104 c -0.142,0.075 -0.1538,0.188 0,0.253 l 3.117,1.614 c 0.0731,0.035 0.1543,0.053 0.2366,0.053 0.0824,0 0.1635,-0.018 0.2366,-0.053 l 4.0101,-2.104 c 0.142,-0.075 0.1538,-0.183 0,-0.247 z m 50.416596,-26.476 c -0.074,-0.033 -0.155,-0.05 -0.237,-0.05 -0.082,0 -0.163,0.017 -0.236,0.05 l -4.01,2.11 c -0.142,0.07 -0.154,0.183 0,0.247 l 3.117,1.642 c 0.073,0.033 0.154,0.05 0.236,0.05 0.082,0 0.163,-0.017 0.237,-0.05 l 4.01,-2.11 c 0.142,-0.07 0.154,-0.183 0.03,-0.247 z m 17.052,-8.959 c -0.073,-0.035 -0.154,-0.053 -0.237,-0.053 -0.082,0 -0.163,0.018 -0.236,0.053 l -3.265,1.711 c -0.136,0.075 -0.148,0.183 0,0.248 l 3.093,1.619 c 0.073,0.035 0.154,0.053 0.237,0.053 0.082,0 0.163,-0.018 0.236,-0.053 l 3.259,-1.711 c 0.142,-0.075 0.154,-0.183 0,-0.247 z m 10.646,-6.775 3.259,-1.711 c 0.136,-0.076 0.154,-0.183 0.03,-0.248 l -3.123,-1.614 c -0.074,-0.033 -0.155,-0.05 -0.237,-0.05 -0.082,0 -0.163,0.017 -0.236,0.05 l -3.259,1.711 c -0.136,0.075 -0.148,0.183 0,0.253 l 3.117,1.614 c 0.075,0.031 0.157,0.046 0.239,0.042 0.083,-0.004 0.163,-0.025 0.234,-0.063 z m -19.441,0.85 3.259,-1.711 c 0.136,-0.07 0.154,-0.183 0.029,-0.248 l -3.117,-1.614 c -0.074,-0.033 -0.156,-0.051 -0.239,-0.051 -0.083,0 -0.165,0.018 -0.24,0.051 l -3.259,1.717 c -0.136,0.07 -0.148,0.183 0,0.247 l 3.117,1.615 c 0.075,0.031 0.157,0.045 0.24,0.041 0.082,-0.003 0.162,-0.025 0.233,-0.063 z m -12.61,15.993 9.522,-5.004 c 0.142,-0.076 0.154,-0.183 0.03,-0.248 l -3.117,-1.641 c -0.074,-0.033 -0.155,-0.051 -0.237,-0.051 -0.082,0 -0.163,0.018 -0.236,0.051 l -9.529,5.004 c -0.136,0.076 -0.154,0.183 -0.029,0.248 l 3.117,1.614 c 0.071,0.039 0.152,0.061 0.236,0.066 0.083,0.005 0.166,-0.009 0.243,-0.039 z m 26.852,-14.341 c 0.073,0.035 0.155,0.053 0.237,0.053 0.082,0 0.163,-0.018 0.237,-0.053 l 3.258,-1.711 c 0.142,-0.075 0.154,-0.183 0.03,-0.248 l -3.117,-1.641 c -0.073,-0.033 -0.154,-0.05 -0.237,-0.05 -0.082,0 -0.163,0.017 -0.236,0.05 l -3.259,1.711 c -0.142,0.076 -0.154,0.189 0,0.253 z m -3.998,-2.373 3.259,-1.711 c 0.142,-0.07 0.154,-0.183 0.03,-0.248 l -3.117,-1.614 c -0.074,-0.033 -0.155,-0.05 -0.237,-0.05 -0.082,0 -0.163,0.017 -0.237,0.05 l -3.259,1.711 c -0.142,0.076 -0.153,0.189 -0.029,0.253 l 3.117,1.614 c 0.073,0.034 0.155,0.051 0.237,0.05 0.082,-0.001 0.163,-0.02 0.236,-0.055 z m -27.639,19.2 3.259,-1.711 c 0.142,-0.075 0.154,-0.183 0.029,-0.248 l -3.117,-1.636 c -0.073,-0.034 -0.154,-0.052 -0.236,-0.052 -0.083,0 -0.164,0.018 -0.237,0.052 l -3.264696,1.712 c -0.1361,0.075 -0.1479,0.183 0,0.247 l 3.116696,1.641 c 0.069,0.033 0.146,0.051 0.224,0.053 0.078,0.002 0.155,-0.012 0.226,-0.042 z m 21.092,-11.3 c 0.073,0.034 0.154,0.052 0.236,0.052 0.082,0 0.164,-0.018 0.237,-0.052 l 3.259,-1.712 c 0.136,-0.075 0.148,-0.183 0.029,-0.247 l -3.123,-1.614 c -0.073,-0.033 -0.154,-0.05 -0.236,-0.05 -0.082,0 -0.163,0.017 -0.237,0.05 l -3.259,1.711 c -0.136,0.075 -0.148,0.183 0,0.253 z m -44.910496,23.849 3.259,-1.711 c 0.136,-0.07 0.1478,-0.183 0,-0.248 l -3.123,-1.641 c -0.0736,-0.033 -0.1546,-0.05 -0.2366,-0.05 -0.082,0 -0.1629,0.017 -0.2365,0.05 l -3.259,1.711 c -0.1361,0.076 -0.1479,0.189 -0.0296,0.253 l 3.1229,1.614 c 0.0748,0.043 0.1603,0.067 0.2483,0.071 0.0881,0.004 0.1757,-0.013 0.2545,-0.049 z m 4.7613,-2.502 3.259,-1.711 c 0.1419,-0.07 0.1538,-0.183 0.0295,-0.248 l -3.1052,-1.663 c -0.0735,-0.033 -0.1545,-0.05 -0.2365,-0.05 -0.0821,0 -0.1631,0.017 -0.2366,0.05 l -3.259,1.711 c -0.142,0.076 -0.1538,0.189 0,0.253 l 3.117,1.615 c 0.066,0.032 0.1387,0.05 0.2133,0.054 0.0746,0.003 0.1491,-0.008 0.2185,-0.033 z m -9.5285,5.004 3.259,-1.711 c 0.1419,-0.07 0.1537,-0.183 0,-0.247 l -3.1171,-1.615 c -0.0735,-0.033 -0.1545,-0.05 -0.2366,-0.05 -0.082,0 -0.163,0.017 -0.2365,0.05 l -3.259,1.711 c -0.142,0.076 -0.1538,0.189 -0.0296,0.253 l 3.117,1.615 c 0.0793,0.035 0.1672,0.051 0.2553,0.046 0.088,-0.005 0.1732,-0.03 0.2475,-0.073 z m 19.057,-10.036 3.259,-1.711 c 0.1419,-0.075 0.1538,-0.183 0.0295,-0.247 l -3.117,-1.642 c -0.0735,-0.033 -0.1545,-0.05 -0.2365,-0.05 -0.0821,0 -0.1631,0.017 -0.2366,0.05 l -3.259,1.712 c -0.142,0.075 -0.1538,0.183 0,0.247 l 3.0874,1.641 c 0.0732,0.035 0.1543,0.053 0.2366,0.053 0.0824,0 0.1635,-0.018 0.2366,-0.053 z m -4.7613,2.503 3.259,-1.712 c 0.136,-0.07 0.1479,-0.183 0.0296,-0.247 l -3.1407,-1.62 c -0.0736,-0.033 -0.1545,-0.05 -0.2366,-0.05 -0.0821,0 -0.1631,0.017 -0.2366,0.05 l -3.259,1.711 c -0.136,0.076 -0.1478,0.189 -0.0295,0.253 l 3.1229,1.615 c 0.0749,0.038 0.159,0.058 0.2447,0.059 0.0857,0.001 0.1704,-0.018 0.2462,-0.054 z m 9.5285,-5.005 3.259,-1.711 c 0.1365,-0.075 0.1475,-0.183 0,-0.248 l -3.117,-1.641 c -0.0731,-0.034 -0.1543,-0.052 -0.2366,-0.052 -0.0823,0 -0.1635,0.018 -0.2366,0.052 l -3.259,1.711 c -0.136,0.076 -0.1538,0.183 -0.0296,0.248 l 3.123,1.641 c 0.0756,0.039 0.1608,0.06 0.2476,0.061 0.0869,10e-4 0.1726,-0.018 0.2492,-0.056 z m 25.994496,-34.811 c 0.074,0.035 0.155,0.053 0.237,0.053 0.082,0 0.164,-0.018 0.237,-0.053 l 3.259,-1.711 c 0.142,-0.075 0.153,-0.183 0.029,-0.247 l -0.828,-0.436 c -0.073,-0.034 -0.154,-0.051 -0.236,-0.051 -0.083,0 -0.164,0.017 -0.237,0.051 l -3.265,1.716 c -0.136,0.07 -0.148,0.183 0,0.248 z m -23.658196,13.642 c 0.0737,0.032 0.1546,0.049 0.2366,0.049 0.082,0 0.1629,-0.017 0.2366,-0.049 l 3.258996,-1.712 c 0.136,-0.075 0.148,-0.188 0,-0.253 l -3.117096,-1.614 c -0.0731,-0.034 -0.1542,-0.052 -0.2365,-0.052 -0.0824,0 -0.1635,0.018 -0.2366,0.052 l -3.259,1.711 c -0.136,0.07 -0.1479,0.183 -0.0296,0.248 z m 9.528196,-5.005 c 0.074,0.033 0.155,0.05 0.237,0.05 0.082,0 0.163,-0.017 0.237,-0.05 l 3.258,-1.711 c 0.137,-0.075 0.148,-0.188 0,-0.253 l -3.093,-1.647 c -0.073,-0.034 -0.154,-0.052 -0.236,-0.052 -0.083,0 -0.164,0.018 -0.237,0.052 l -3.259,1.712 c -0.136,0.069 -0.154,0.182 -0.03,0.247 z m -15.348196,8.072 c 0.0735,0.033 0.1545,0.05 0.2366,0.05 0.0821,0 0.163,-0.017 0.2366,-0.05 l 3.2589,-1.717 c 0.142,-0.07 0.1538,-0.183 0.0296,-0.247 l -3.1525,-1.647 c -0.0731,-0.034 -0.1542,-0.052 -0.2366,-0.052 -0.0823,0 -0.1634,0.018 -0.2366,0.052 l -3.2589,1.711 c -0.142,0.07 -0.1538,0.183 -0.0296,0.248 z m 10.581196,-5.554 c 0.074,0.034 0.155,0.051 0.237,0.051 0.082,0 0.163,-0.017 0.236,-0.051 l 3.259,-1.711 c 0.142,-0.075 0.154,-0.188 0.03,-0.253 l -3.117,-1.614 c -0.073,-0.034 -0.154,-0.052 -0.237,-0.052 -0.082,0 -0.163,0.018 -0.236,0.052 l -3.259,1.711 c -0.142,0.07 -0.154,0.183 -0.03,0.248 z m -20.109696,10.564 c 0.074,0.031 0.1548,0.048 0.2366,0.048 0.0818,0 0.1625,-0.017 0.2365,-0.048 l 3.259,-1.712 c 0.142,-0.075 0.1538,-0.188 0.0296,-0.252 l -3.117,-1.615 c -0.0731,-0.034 -0.1543,-0.052 -0.2366,-0.052 -0.0824,0 -0.1635,0.018 -0.2366,0.052 l -3.259,1.711 c -0.1419,0.07 -0.1538,0.183 -0.0296,0.248 z m 4.7672,-2.508 c 0.0735,0.033 0.1545,0.051 0.2366,0.051 0.0821,0 0.163,-0.018 0.2366,-0.051 l 3.2589,-1.711 c 0.1361,-0.075 0.1479,-0.188 0,-0.253 l -3.117,-1.614 c -0.0731,-0.035 -0.1542,-0.053 -0.2366,-0.053 -0.0823,0 -0.1634,0.018 -0.2366,0.053 l -3.2589,1.711 c -0.1361,0.07 -0.1479,0.183 -0.0296,0.247 z m 24.711496,-14.185 c 0.073,0.035 0.154,0.053 0.237,0.053 0.082,0 0.163,-0.018 0.236,-0.053 l 3.259,-1.711 c 0.142,-0.075 0.154,-0.183 0.03,-0.247 l -0.828,-0.436 c -0.074,-0.034 -0.155,-0.051 -0.237,-0.051 -0.082,0 -0.163,0.017 -0.237,0.051 l -3.259,1.716 c -0.141,0.07 -0.153,0.183 -0.029,0.248 z m 14.296,-7.533 c 0.073,0.034 0.154,0.052 0.236,0.052 0.083,0 0.164,-0.018 0.237,-0.052 l 3.259,-1.712 c 0.136,-0.075 0.148,-0.183 0,-0.247 l -0.828,-0.436004 c -0.074,-0.0332 -0.155,-0.0504 -0.237,-0.0504 -0.082,0 -0.163,0.0172 -0.236,0.0504 l -3.259,1.717004 c -0.142,0.07 -0.154,0.183 -0.03,0.247 z m 6.547,3.438 c 0.074,0.033 0.155,0.051 0.237,0.051 0.082,0 0.163,-0.018 0.236,-0.051 l 3.259,-1.716 c 0.142,-0.07 0.154,-0.183 0.03,-0.248 l -3.117,-1.614 c -0.074,-0.033 -0.155,-0.051 -0.237,-0.051 -0.082,0 -0.163,0.018 -0.236,0.051 l -3.259,1.716 c -0.142,0.07 -0.154,0.183 -0.03,0.248 z m 9.073,9.509 3.259,-1.711 c 0.142,-0.076 0.154,-0.183 0,-0.248 l -3.117,-1.641 c -0.073,-0.033 -0.154,-0.051 -0.236,-0.051 -0.082,0 -0.163,0.018 -0.237,0.051 l -3.259,1.711 c -0.142,0.075 -0.154,0.183 -0.029,0.248 l 3.117,1.641 c 0.075,0.041 0.161,0.063 0.249,0.065 0.088,0.002 0.175,-0.017 0.253,-0.054 z m -25.149,-7.943 c 0.073,0.035 0.154,0.053 0.237,0.053 0.082,0 0.163,-0.018 0.236,-0.053 l 3.259,-1.711 c 0.136,-0.075 0.148,-0.183 0,-0.248 l -0.828,-0.435 c -0.073,-0.034 -0.154,-0.051 -0.236,-0.051 -0.082,0 -0.163,0.017 -0.237,0.051 l -3.259,1.716 c -0.136,0.07 -0.154,0.183 0,0.248 z m -39.036596,21.702 c 0.0737,0.033 0.1546,0.05 0.2366,0.05 0.082,0 0.1629,-0.017 0.2366,-0.05 l 3.259,-1.711 c 0.136,-0.075 0.1478,-0.188 0.0295,-0.253 l -3.1229,-1.614 c -0.0731,-0.034 -0.1543,-0.052 -0.2366,-0.052 -0.0823,0 -0.1635,0.018 -0.2366,0.052 l -3.259,1.711 c -0.136,0.07 -0.1478,0.183 -0.0295,0.248 z"
     fill="#455a64"
     id="path20" />
  <path
     d="m 92.464884,151.09237 0.6683,0.35 17.755496,9.32 31.567,-16.58 0.656,-0.344 -18.418,-9.67 z"
     fill="#37474f"
     id="path22" />
  <path
     d="m 93.133284,151.44237 17.755396,9.32 31.567,-16.58 -17.762,-9.325 z"
     fill="#263238"
     id="path24" />
</svg>
