<?xml version="1.0" encoding="UTF-8" standalone="no"?>
<svg
   width="390"
   height="844"
   viewBox="0 0 390 844"
   fill="none"
   version="1.1"
   id="svg66"
   sodipodi:docname="5aa2241de8135b3902ead08f5c580a80.svg"
   xmlns:inkscape="http://www.inkscape.org/namespaces/inkscape"
   xmlns:sodipodi="http://sodipodi.sourceforge.net/DTD/sodipodi-0.dtd"
   xmlns="http://www.w3.org/2000/svg"
   xmlns:svg="http://www.w3.org/2000/svg">
  <defs
     id="defs70" />
  <sodipodi:namedview
     id="namedview68"
     pagecolor="#ffffff"
     bordercolor="#666666"
     borderopacity="1.0"
     inkscape:pageshadow="2"
     inkscape:pageopacity="0.0"
     inkscape:pagecheckerboard="0" />
  <rect
     width="60"
     height="89"
     fill="#cbc7c7"
     id="rect2"
     x="74"
     y="382" />
  <g
     id="OTP sent"
     transform="translate(74,382)">
    <rect
       width="390"
       height="844"
       transform="translate(-74,-382)"
       fill="#0e0d0d"
       id="rect4"
       x="0"
       y="0" />
    <g
       id="emails/amico">
      <g
         id="Floor">
        <path
           id="floor"
           d="m 125.133,152.224 c 72.976,0 132.134,-31.614 132.134,-70.6122 C 257.267,42.614 198.109,11 125.133,11 52.1582,11 -7,42.614 -7,81.6118 -7,120.61 52.1582,152.224 125.133,152.224 Z"
           fill="#f5f5f5" />
      </g>
      <g
         id="Shadows">
        <path
           id="Shadow"
           d="m 32.5976,76.1415 c 7.6418,4.0144 7.6418,10.5256 0,14.5292 -7.6417,4.0036 -20.0448,4.0143 -27.69243,0 -7.64765,-4.0144 -7.64765,-10.531 0,-14.5292 7.64763,-3.9982 20.00343,-4.0197 27.69243,0 z"
           fill="#e0e0e0" />
        <path
           id="shadow"
           d="m 49.3596,85.3703 69.3554,36.4307 c 0.794,0.366 1.671,0.557 2.561,0.557 0.89,0 1.767,-0.191 2.561,-0.557 L 241.243,60.1325 c 1.414,-0.7426 1.414,-1.9479 0,-2.6905 L 171.888,21.006 c -0.794,-0.3663 -1.671,-0.5573 -2.561,-0.5573 -0.89,0 -1.768,0.191 -2.561,0.5573 L 49.3596,82.6797 c -1.4196,0.7426 -1.4196,1.948 0,2.6906 z"
           fill="#e0e0e0" />
      </g>
      <g
         id="Device">
        <g
           id="Laptop">
          <path
             id="Vector"
             d="m 51.7261,78.6756 c 0.0726,0.8937 0.3755,1.7594 0.8841,2.5269 0.5087,0.7675 1.2087,1.4153 2.0436,1.891 l 63.7072,33.4545 c 0.907,0.416 1.909,0.632 2.924,0.632 1.016,0 2.018,-0.216 2.925,-0.632 L 236.358,57.6405 c 0.884,-0.4239 1.625,-1.0594 2.141,-1.8379 0.516,-0.7786 0.789,-1.6707 0.789,-2.58 0,-0.9093 -0.273,-1.8014 -0.789,-2.58 -0.516,-0.7785 -1.257,-1.4141 -2.141,-1.838 L 172.663,15.3391 c -0.906,-0.4192 -1.908,-0.6377 -2.925,-0.6377 -1.016,0 -2.018,0.2185 -2.924,0.6377 L 54.6538,74.2522 c -0.835,0.4769 -1.535,1.1257 -2.0436,1.894 -0.5086,0.7684 -0.8115,1.6348 -0.8841,2.5294 z"
             fill="#37474f" />
          <path
             id="Vector_2"
             d="M 54.6534,77.3249 118.36,110.79 c 0.906,0.42 1.908,0.638 2.925,0.638 1.017,0 2.019,-0.218 2.925,-0.638 L 236.358,51.8773 c 1.62,-0.8502 1.62,-2.2278 0,-3.0727 L 172.663,15.3391 c -0.906,-0.4192 -1.909,-0.6377 -2.925,-0.6377 -1.017,0 -2.019,0.2185 -2.925,0.6377 L 54.6534,74.2522 c -1.6147,0.861 -1.6147,2.2278 0,3.0727 z"
             fill="#455a64" />
          <path
             id="Vector_3"
             d="m 121.276,111.431 v 5.763 c -1.029,0.024 -2.048,-0.195 -2.957,-0.635 L 54.6536,83.0934 c -0.8581,-0.4104 -1.581,-1.0206 -2.0951,-1.7684 -0.514,-0.7477 -0.8007,-1.6062 -0.8308,-2.4877 -0.03,-0.8815 0.1976,-1.7545 0.6597,-2.5298 0.4621,-0.7753 1.142,-1.4252 1.9705,-1.8832 -1.3131,0.8556 -1.183,2.1094 0.2957,2.9058 L 118.36,110.796 c 0.898,0.431 1.901,0.65 2.916,0.635 z"
             fill="#263238" />
          <path
             id="Vector_4"
             d="M 48.9815,74.3482 C 47.4673,73.5518 47.5501,72.1957 47.5501,70.5114 V -9.53359 c 0.0614,-0.92571 0.361,-1.82541 0.8747,-2.62641 0.5137,-0.8011 1.2271,-1.4811 2.0827,-1.9853 L 162.638,-73.0584 c 0.869,-0.4194 1.836,-0.6467 2.82,-0.6635 0.984,-0.0168 1.959,0.1773 2.846,0.5667 1.52,0.7964 1.437,2.1524 1.437,3.8421 v 80.0397 c -0.055,0.9239 -0.349,1.823 -0.858,2.6242 -0.509,0.8013 -1.218,1.4821 -2.07,1.9874 L 54.6536,74.2513 c -0.8705,0.4207 -1.8378,0.6487 -2.8233,0.6656 -0.9856,0.0168 -1.9616,-0.178 -2.8488,-0.5687 z"
             fill="#37474f" />
          <path
             id="Vector_5"
             d="M 54.3104,74.4142 C 53.472,74.7583 52.5607,74.9309 51.6409,74.9198 50.7212,74.9086 49.8153,74.714 48.9872,74.3496 47.4731,73.5532 47.55,72.1971 47.55,70.5128 v -80.045 c 0.0331,-0.9262 0.3285,-1.8288 0.8576,-2.6206 l 4.1757,2.20087 c -0.5257,0.79316 -0.8208,1.69502 -0.8576,2.62063 v 80.0504 c 0,1.5713 1.1297,2.2816 2.5847,1.6951 z"
             fill="#263238" />
          <path
             id="Vector_6"
             d="M 56.2563,-8.8658 164.364,-65.6534 c 0.97,-0.5381 1.775,-0.0968 1.775,0.9202 V 5.15755 c -0.035,0.55576 -0.214,1.09614 -0.522,1.5769 -0.309,0.48076 -0.738,0.88822 -1.253,1.18902 L 56.2563,64.6949 c -0.97,0.5058 -1.7744,0.0968 -1.7744,-0.9256 V -6.09988 c 0.0357,-0.55555 0.2149,-1.09561 0.5233,-1.57623 0.3083,-0.48063 0.737,-0.88824 1.2511,-1.18969 z"
             fill="#fffaf0" />
        </g>
      </g>
      <g
         id="mail-box">
        <g
           id="MailBox">
          <path
             id="Vector_7"
             d="M 40.3226,4.72685 33.089,0.960024 C 32.7696,0.787826 32.533,0.744775 32.4088,0.81473 L 31.5275,1.27751 C 31.3737,1.35823 31.3796,1.595 31.5689,1.96092 l 1.7744,3.31481 -1.3131,1.07624 c -0.1394,0.09731 -0.249,0.22567 -0.3181,0.3727 -0.0691,0.14704 -0.0955,0.3078 -0.0764,0.46677 0.019,0.15898 0.0827,0.31082 0.185,0.44089 0.1022,0.13006 0.2396,0.23397 0.3988,0.3017 l 7.2336,3.79907 0.8813,-0.4681 z"
             fill="#333333" />
          <path
             id="Vector_8"
             opacity="0.5"
             d="M 40.3226,4.72685 33.089,0.960024 C 32.7696,0.787826 32.533,0.744775 32.4088,0.81473 L 31.5275,1.27751 C 31.3737,1.35823 31.3796,1.595 31.5689,1.96092 l 1.7744,3.31481 -1.3131,1.07624 c -0.1394,0.09731 -0.249,0.22567 -0.3181,0.3727 -0.0691,0.14704 -0.0955,0.3078 -0.0764,0.46677 0.019,0.15898 0.0827,0.31082 0.185,0.44089 0.1022,0.13006 0.2396,0.23397 0.3988,0.3017 l 7.2336,3.79907 0.8813,-0.4681 z"
             fill="#828282" />
          <path
             id="Vector_9"
             d="M 32.2075,1.39121 C 31.5036,1.01991 31.2138,1.26207 31.5687,1.92933 L 33.3431,5.24414 32.03,6.32037 c -0.1394,0.09732 -0.249,0.22567 -0.3181,0.37271 -0.0691,0.14704 -0.0954,0.3078 -0.0764,0.46677 0.019,0.15898 0.0827,0.31082 0.185,0.44089 0.1022,0.13006 0.2396,0.23397 0.3988,0.3017 l 7.2336,3.79916 V 5.19571 Z"
             fill="#333333" />
          <path
             id="Vector_10"
             d="m 40.2868,25.6654 c -0.1121,7e-4 -0.2232,-0.0189 -0.3269,-0.0575 -0.1037,-0.0387 -0.1979,-0.0958 -0.2771,-0.1679 -0.0793,-0.0721 -0.142,-0.1578 -0.1845,-0.2521 -0.0425,-0.0944 -0.064,-0.1954 -0.0632,-0.2974 V 3.03215 c 0.0178,-0.19367 0.1149,-0.37418 0.2721,-0.50576 0.1572,-0.13158 0.363,-0.20461 0.5766,-0.20461 0.2136,0 0.4195,0.07303 0.5767,0.20461 0.1572,0.13158 0.2543,0.31209 0.2721,0.50576 V 24.8905 c 8e-4,0.1015 -0.0205,0.2021 -0.0627,0.2961 -0.0421,0.094 -0.1043,0.1795 -0.1829,0.2515 -0.0787,0.072 -0.1722,0.1292 -0.2752,0.1682 -0.103,0.039 -0.2134,0.0591 -0.325,0.0591 z"
             fill="#455a64" />
          <path
             id="Vector_11"
             d="m 9.17003,83.8681 v -1.3614 h 0.36079 c 0.56198,-0.9181 1.40698,-1.6663 2.43088,-2.1525 3.7381,-1.9641 9.7947,-1.9641 13.5328,0 1.0258,0.4838 1.8715,1.2327 2.4309,2.1525 h 0.3667 v 1.3184 c 0,1.3076 -0.899,2.6206 -2.7976,3.6161 -3.7381,1.9641 -9.7947,1.9641 -13.5328,0 -1.8394,-0.9847 -2.8035,-2.2816 -2.79167,-3.5731 z"
             fill="#263238" />
          <path
             id="Vector_12"
             d="m 18.734,87.5325 c 5.2853,0 9.5699,-2.2502 9.5699,-5.026 0,-2.7758 -4.2846,-5.026 -9.5699,-5.026 -5.2853,0 -9.56994,2.2502 -9.56994,5.026 0,2.7758 4.28464,5.026 9.56994,5.026 z"
             fill="#455a64" />
          <path
             id="Vector_13"
             d="m 21.2003,35.1682 v 46.7409 c -0.0207,0.1969 -0.0983,0.3853 -0.2251,0.546 -0.1268,0.1607 -0.298,0.2879 -0.4964,0.3688 -0.5397,0.2496 -1.1365,0.3796 -1.7419,0.3796 -0.6054,0 -1.2022,-0.13 -1.7419,-0.3796 -0.1991,-0.0799 -0.371,-0.2069 -0.4979,-0.3678 -0.1269,-0.1609 -0.2042,-0.3498 -0.2237,-0.547 V 35.1682 Z"
             fill="#37474f" />
          <path
             id="Vector_14"
             d="m 16.2734,40.8245 v 4.3964 l 4.9269,2.583 v -4.3857 z"
             fill="#263238" />
          <path
             id="Vector_15"
             d="m 34.1356,30.9873 9.1086,4.7892 c -0.0465,0.0672 -0.1067,0.1257 -0.1775,0.1722 l -15.9341,8.3677 c -0.136,0.07 -0.2425,0 -0.2425,-0.1345 V 33.737 c 0.0439,-2.0094 0.4951,-3.9942 1.3308,-5.8547 z"
             fill="#333333" />
          <path
             id="Vector_16"
             opacity="0.4"
             d="m 34.1356,30.9873 9.1086,4.7892 c -0.0465,0.0672 -0.1067,0.1257 -0.1775,0.1722 l -15.9341,8.3677 c -0.136,0.07 -0.2425,0 -0.2425,-0.1345 V 33.737 c 0.0439,-2.0094 0.4951,-3.9942 1.3308,-5.8547 z"
             fill="#0a0909" />
          <path
             id="Vector_17"
             d="m 43.3154,24.1266 v 11.704 L 28.2212,27.888 28.2744,27.775 c 1.6147,-3.6807 4.3236,-6.7964 7.281,-8.3462 1.025,-0.5878 2.202,-0.92 3.4127,-0.9632 2.6853,0 4.3473,2.1686 4.3473,5.661 z"
             fill="#333333" />
          <path
             id="Vector_18"
             opacity="0.3"
             d="m 43.3154,24.1266 v 11.704 L 28.2212,27.888 28.2744,27.775 c 1.6147,-3.6807 4.3236,-6.7964 7.281,-8.3462 1.025,-0.5878 2.202,-0.92 3.4127,-0.9632 2.6853,0 4.3473,2.1686 4.3473,5.661 z"
             fill="#0a0909" />
          <path
             id="Vector_19"
             d="m 59.7045,48.8634 v -1.044 h -0.1123 v 0.1507 c -0.068,-0.2898 -0.167,-0.5727 -0.2958,-0.8449 -0.5914,-1.2807 -1.8749,-2.5076 -3.809,-3.5246 L 44.705,37.9342 c -0.2528,-0.1143 -0.5311,-0.1737 -0.8133,-0.1737 -0.2822,0 -0.5606,0.0594 -0.8133,0.1737 l -16.49,8.6583 c -0.2033,-0.1536 -0.379,-0.3351 -0.5205,-0.5381 v 1.0762 c 0.0101,0.0916 0.0459,0.1792 0.1039,0.2545 0.058,0.0754 0.1362,0.136 0.2273,0.176 l 10.7883,5.661 c 3.1644,1.5461 6.7189,2.3105 10.3093,2.2171 2.9904,0.0302 5.9412,-0.623 8.5822,-1.8996 2.425,-1.2646 3.6197,-2.9489 3.6197,-4.6655 z"
             fill="#333333" />
          <path
             id="Vector_20"
             opacity="0.4"
             d="m 59.7045,48.8634 v -1.044 h -0.1123 v 0.1507 c -0.068,-0.2898 -0.167,-0.5727 -0.2958,-0.8449 -0.5914,-1.2807 -1.8749,-2.5076 -3.809,-3.5246 L 44.705,37.9342 c -0.2528,-0.1143 -0.5311,-0.1737 -0.8133,-0.1737 -0.2822,0 -0.5606,0.0594 -0.8133,0.1737 l -16.49,8.6583 c -0.2033,-0.1536 -0.379,-0.3351 -0.5205,-0.5381 v 1.0762 c 0.0101,0.0916 0.0459,0.1792 0.1039,0.2545 0.058,0.0754 0.1362,0.136 0.2273,0.176 l 10.7883,5.661 c 3.1644,1.5461 6.7189,2.3105 10.3093,2.2171 2.9904,0.0302 5.9412,-0.623 8.5822,-1.8996 2.425,-1.2646 3.6197,-2.9489 3.6197,-4.6655 z"
             fill="#0a0909" />
          <path
             id="Vector_21"
             d="M 59.2964,47.1309 C 58.705,45.8501 57.4215,44.6232 55.4874,43.6062 L 44.705,37.9398 c -0.2527,-0.1142 -0.5311,-0.1737 -0.8133,-0.1737 -0.2822,0 -0.5605,0.0595 -0.8132,0.1737 l -16.4901,8.6529 10.5991,5.5642 c 3.1654,1.5435 6.7192,2.3077 10.3092,2.217 2.9901,0.0277 5.9403,-0.6253 8.5822,-1.8995 2.1766,-1.1409 3.3654,-2.6099 3.5843,-4.1435 -0.0588,-0.4139 -0.1822,-0.818 -0.3668,-1.2 z"
             fill="#333333" />
          <path
             id="Vector_22"
             opacity="0.2"
             d="M 59.2964,47.1309 C 58.705,45.8501 57.4215,44.6232 55.4874,43.6062 L 44.705,37.9398 c -0.2527,-0.1142 -0.5311,-0.1737 -0.8133,-0.1737 -0.2822,0 -0.5605,0.0595 -0.8132,0.1737 l -16.4901,8.6529 10.5991,5.5642 c 3.1654,1.5435 6.7192,2.3077 10.3092,2.217 2.9901,0.0277 5.9403,-0.6253 8.5822,-1.8995 2.1766,-1.1409 3.3654,-2.6099 3.5843,-4.1435 -0.0588,-0.4139 -0.1822,-0.818 -0.3668,-1.2 z"
             fill="#0a0909" />
          <path
             id="Vector_23"
             d="m 59.6634,48.3367 c -0.0576,-0.4175 -0.1811,-0.8253 -0.3667,-1.2108 -0.5914,-1.2807 -1.8749,-2.5076 -3.809,-3.5246 L 44.7053,37.9349 c -0.2528,-0.1143 -0.5311,-0.1737 -0.8133,-0.1737 -0.2822,0 -0.5606,0.0594 -0.8133,0.1737 l -16.49,8.6583 -0.1893,-0.0969 c -0.0981,-0.0304 -0.1833,-0.088 -0.2437,-0.1648 -0.0603,-0.0767 -0.0927,-0.1686 -0.0927,-0.263 0,-0.0943 0.0324,-0.1863 0.0927,-0.263 0.0604,-0.0767 0.1456,-0.1343 0.2437,-0.1648 l 16.6793,-8.7336 c 0.2515,-0.118 0.5303,-0.1796 0.8133,-0.1796 0.2829,0 0.5618,0.0616 0.8133,0.1796 l 10.7824,5.6664 c 1.9341,1.017 3.2057,2.2439 3.809,3.5246 0.1979,0.4085 0.3256,0.8423 0.3786,1.2861 0.0385,0.3168 0.0345,0.6366 -0.0119,0.9525 z"
             fill="#333333" />
          <path
             id="Vector_24"
             opacity="0.3"
             d="m 59.6634,48.3367 c -0.0576,-0.4175 -0.1811,-0.8253 -0.3667,-1.2108 -0.5914,-1.2807 -1.8749,-2.5076 -3.809,-3.5246 L 44.7053,37.9349 c -0.2528,-0.1143 -0.5311,-0.1737 -0.8133,-0.1737 -0.2822,0 -0.5606,0.0594 -0.8133,0.1737 l -16.49,8.6583 -0.1893,-0.0969 c -0.0981,-0.0304 -0.1833,-0.088 -0.2437,-0.1648 -0.0603,-0.0767 -0.0927,-0.1686 -0.0927,-0.263 0,-0.0943 0.0324,-0.1863 0.0927,-0.263 0.0604,-0.0767 0.1456,-0.1343 0.2437,-0.1648 l 16.6793,-8.7336 c 0.2515,-0.118 0.5303,-0.1796 0.8133,-0.1796 0.2829,0 0.5618,0.0616 0.8133,0.1796 l 10.7824,5.6664 c 1.9341,1.017 3.2057,2.2439 3.809,3.5246 0.1979,0.4085 0.3256,0.8423 0.3786,1.2861 0.0385,0.3168 0.0345,0.6366 -0.0119,0.9525 z"
             fill="#0a0909" />
          <path
             id="Vector_25"
             d="m 26.7661,45.4947 16.6734,-8.7606 -0.3726,-0.791 -15.9341,8.3731 z"
             fill="#333333" />
          <path
             id="Vector_26"
             opacity="0.1"
             d="m 26.7661,45.4947 16.6734,-8.7606 -0.3726,-0.791 -15.9341,8.3731 z"
             fill="#0a0909" />
          <g
             id="Letter">
            <path
               id="Vector_27"
               d="M 41.8425,23.4561 C 41.8356,23.3309 41.796,23.2091 41.7271,23.1005 41.6582,22.992 41.5619,22.8999 41.4463,22.8319 L 21.1471,12.1556 c -0.1222,-0.0584 -0.2582,-0.0889 -0.3962,-0.0889 -0.1381,0 -0.2741,0.0305 -0.3963,0.0889 l -0.4495,0.2368 c -0.1157,0.0681 -0.212,0.1601 -0.2809,0.2687 -0.0689,0.1085 -0.1084,0.2304 -0.1154,0.3555 v 14.1579 c 0.0079,0.125 0.0479,0.2465 0.1167,0.3549 0.0688,0.1084 0.1645,0.2006 0.2796,0.2693 l 20.2991,10.6655 c 0.1242,0.0556 0.2608,0.0845 0.3992,0.0845 0.1384,0 0.275,-0.0289 0.3993,-0.0845 l 0.4436,-0.2368 c 0.115,-0.0686 0.2107,-0.1609 0.2795,-0.2693 0.0689,-0.1084 0.1088,-0.2299 0.1167,-0.3549 z"
               fill="#828282" />
            <path
               id="Vector_28"
               d="M 41.73,23.0785 40.6003,23.6704 19.627,12.6497 c 0.0652,-0.1116 0.1609,-0.2061 0.2779,-0.2744 l 0.4496,-0.2314 c 0.1222,-0.0584 0.2582,-0.089 0.3962,-0.089 0.1381,0 0.2741,0.0306 0.3963,0.089 l 20.3228,10.6655 c 0.1111,0.0674 0.2009,0.1602 0.2602,0.2691 z"
               fill="#828282" />
            <path
               id="Vector_29"
               d="m 40.6064,23.6654 -0.207,0.113 c 0.0651,0.0255 0.1199,0.0686 0.157,0.1235 0.037,0.0549 0.0545,0.1189 0.05,0.1833 V 38.243 c 0.0057,0.0461 -0.0029,0.0928 -0.0248,0.1346 -0.022,0.0419 -0.0564,0.0773 -0.0994,0.1022 -0.0609,0.0216 -0.1284,0.0216 -0.1893,0 L 40.2101,38.4475 19.9051,27.7874 c -0.1147,-0.069 -0.2102,-0.1613 -0.279,-0.2696 -0.0688,-0.1083 -0.1089,-0.2297 -0.1173,-0.3546 V 13.0053 c 0.0053,-0.1273 0.046,-0.2514 0.1183,-0.3605 z"
               fill="#828282" />
            <path
               id="Vector_30"
               opacity="0.2"
               d="m 40.6005,23.6701 -9.3984,3.1911 c -0.3247,0.1126 -0.682,0.1207 -1.0124,0.0227 -0.3304,-0.0979 -0.614,-0.2958 -0.8034,-0.5608 l -1.5201,-2.1095 -8.316,-11.6072 8.0262,11.688 -8.0676,2.8735 c 0.0049,0.1282 0.0478,0.2528 0.1242,0.3606 l 7.967,-3.2019 1.7744,2.5561 c 0.195,0.2843 0.496,0.4952 0.848,0.594 0.3519,0.0989 0.7312,0.079 1.0684,-0.0559 l 1.248,-0.5004 7.967,11.5641 c 0.041,-0.0264 0.0735,-0.0622 0.0943,-0.1038 0.0208,-0.0416 0.0291,-0.0875 0.024,-0.133 V 37.9841 L 32.5565,26.8988 Z"
               fill="#0a0909" />
          </g>
          <g
             id="letter">
            <path
               id="Vector_31"
               d="m 37.0399,25.9343 c -0.0084,-0.1248 -0.0486,-0.2462 -0.1173,-0.3545 -0.0688,-0.1084 -0.1643,-0.2007 -0.279,-0.2697 L 16.3386,14.65 c -0.1223,-0.0584 -0.2583,-0.089 -0.3963,-0.089 -0.1381,0 -0.2741,0.0306 -0.3963,0.089 l -0.4495,0.2314 c -0.1147,0.069 -0.2102,0.1613 -0.279,0.2696 -0.0688,0.1084 -0.1089,0.2298 -0.1173,0.3546 v 14.1579 c 0.0088,0.1255 0.0491,0.2475 0.1178,0.3567 0.0687,0.1091 0.164,0.2025 0.2785,0.2729 l 20.305,10.6601 c 0.1222,0.0585 0.2582,0.089 0.3963,0.089 0.1381,0 0.2741,-0.0305 0.3963,-0.089 l 0.4495,-0.2314 c 0.1147,-0.069 0.2102,-0.1613 0.279,-0.2696 0.0687,-0.1083 0.1089,-0.2297 0.1173,-0.3546 z"
               fill="#828282" />
            <path
               id="Vector_32"
               d="M 36.9214,25.6056 35.7977,26.1975 14.8184,15.15 c 0.0671,-0.109 0.1625,-0.2014 0.278,-0.2691 l 0.4495,-0.2314 c 0.1222,-0.0584 0.2582,-0.089 0.3962,-0.089 0.1381,0 0.2741,0.0306 0.3963,0.089 l 20.3051,10.6601 c 0.1191,0.0752 0.2149,0.1772 0.2779,0.296 z"
               fill="#828282" />
            <path
               id="Vector_33"
               d="m 35.7978,26.171 -0.207,0.113 c 0.0651,0.0255 0.1199,0.0686 0.157,0.1235 0.037,0.0549 0.0545,0.119 0.05,0.1833 v 14.1579 c 0.0057,0.046 -0.0028,0.0927 -0.0248,0.1345 -0.022,0.0419 -0.0564,0.0773 -0.0994,0.1022 -0.0609,0.0216 -0.1284,0.0216 -0.1893,0 L 35.4015,40.9531 15.0965,30.293 c -0.1147,-0.069 -0.2102,-0.1613 -0.279,-0.2696 -0.0688,-0.1083 -0.1089,-0.2297 -0.1173,-0.3546 V 15.5109 c 0.0053,-0.1273 0.046,-0.2514 0.1183,-0.3605 z"
               fill="#828282" />
            <path
               id="Vector_34"
               opacity="0.2"
               d="m 35.7978,26.1704 -9.4043,3.2018 c -0.3241,0.1102 -0.6797,0.117 -1.0085,0.0192 -0.3289,-0.0977 -0.6115,-0.2943 -0.8014,-0.5573 L 23.0694,26.73 14.7416,15.1121 22.7678,26.8 14.7002,29.6735 c 0.0121,0.127 0.0545,0.25 0.1242,0.3606 l 7.967,-3.2287 1.7744,2.556 c 0.1948,0.2831 0.4948,0.4931 0.8454,0.5918 0.3507,0.0988 0.7286,0.0797 1.0651,-0.0537 l 1.2539,-0.5004 7.9434,11.5857 c 0.043,-0.025 0.0774,-0.0604 0.0994,-0.1022 0.022,-0.0419 0.0305,-0.0885 0.0248,-0.1346 V 40.5112 L 27.7479,29.4045 Z"
               fill="#0a0909" />
          </g>
          <g
             id="letter_2">
            <path
               id="Vector_35"
               d="m 32.2312,28.4421 c -0.007,-0.1252 -0.0465,-0.247 -0.1154,-0.3556 -0.0689,-0.1085 -0.1652,-0.2006 -0.2809,-0.2686 L 11.5358,17.1524 c -0.123,-0.0559 -0.2587,-0.085 -0.3963,-0.085 -0.1375,0 -0.2732,0.0291 -0.3962,0.085 l -0.4496,0.2367 c -0.1156,0.0681 -0.2119,0.1602 -0.2808,0.2687 -0.06889,0.1085 -0.10846,0.2304 -0.11544,0.3556 v 14.1578 c 0.00698,0.1252 0.04655,0.2471 0.11544,0.3556 0.0689,0.1085 0.1652,0.2006 0.2808,0.2687 l 20.2992,10.6654 c 0.1242,0.0556 0.2608,0.0845 0.3992,0.0845 0.1384,0 0.275,-0.0289 0.3992,-0.0845 l 0.4436,-0.2367 c 0.1157,-0.0681 0.212,-0.1601 0.2809,-0.2687 0.0689,-0.1085 0.1084,-0.2304 0.1154,-0.3555 z"
               fill="#828282" />
            <path
               id="Vector_36"
               d="M 32.1187,28.0869 30.989,28.6789 10.0156,17.6582 c 0.0654,-0.1101 0.1613,-0.2028 0.278,-0.2691 l 0.4495,-0.2367 c 0.1231,-0.0559 0.2588,-0.085 0.3963,-0.085 0.1376,0 0.2732,0.0291 0.3963,0.085 l 20.2991,10.6655 c 0.1186,0.0658 0.2164,0.1585 0.2839,0.269 z"
               fill="#828282" />
            <path
               id="Vector_37"
               d="m 30.9004,43.5361 c 0.0252,0.0057 0.0516,0.0057 0.0769,0 -0.0117,0.0062 -0.025,0.0094 -0.0385,0.0094 -0.0135,0 -0.0267,-0.0032 -0.0384,-0.0094 z"
               fill="#333333" />
            <path
               id="Vector_38"
               d="m 30.9951,28.6735 -0.2071,0.113 c 0.0651,0.0254 0.12,0.0685 0.157,0.1235 0.0371,0.0549 0.0546,0.1189 0.0501,0.1832 v 14.1633 c 0.0053,0.0453 -0.0036,0.091 -0.0255,0.1319 -0.022,0.041 -0.0562,0.0754 -0.0988,0.0995 -0.0608,0.0216 -0.1284,0.0216 -0.1892,0 L 30.5988,43.4609 10.2937,32.7954 C 10.1781,32.7274 10.0818,32.6353 10.0129,32.5268 9.94401,32.4183 9.90444,32.2964 9.89746,32.1712 V 18.0187 c 0.00528,-0.1273 0.04598,-0.2514 0.11834,-0.3605 z"
               fill="#828282" />
            <path
               id="Vector_39"
               opacity="0.2"
               d="m 30.9891,28.6787 -9.3984,3.1964 c -0.3249,0.1106 -0.6814,0.1176 -1.0113,0.0199 -0.3299,-0.0978 -0.6135,-0.2945 -0.8045,-0.558 L 18.2667,29.2329 9.93886,17.6204 17.9651,29.3029 9.89746,32.1764 c 0.00487,0.1282 0.04779,0.2528 0.12424,0.3606 l 7.967,-3.2018 1.7744,2.556 c 0.195,0.2844 0.496,0.4952 0.8479,0.5941 0.352,0.0988 0.7313,0.0789 1.0685,-0.0559 l 1.248,-0.5059 7.967,11.5642 c 0.0419,-0.0256 0.0752,-0.0613 0.0961,-0.1031 0.0209,-0.0418 0.0286,-0.0881 0.0222,-0.1337 V 43.0141 L 22.9689,31.9074 Z"
               fill="#0a0909" />
          </g>
          <path
             id="Vector_40"
             d="m 41.2037,18.0728 c -1.6147,-0.7695 -3.7558,-0.635 -6.098,0.6027 -2.6321,1.3722 -5.0038,3.869 -6.6659,6.7264 -0.3864,0.6626 -0.7339,1.3434 -1.0409,2.0395 -0.9128,1.9918 -1.4044,4.1223 -1.4491,6.2798 v 11.957 c -0.2821,0.0025 -0.5605,-0.0585 -0.8103,-0.1776 L 1.78248,33.2208 C 1.5474,33.0792 1.3518,32.8897 1.21115,32.6674 1.07051,32.4452 0.988683,32.1961 0.972168,31.94 V 20.6073 C 0.972168,14.9463 5.07103,8.23059 10.1221,5.54 12.488,4.28081 14.6942,4.17857 16.3266,5.00189 Z"
             fill="#333333" />
          <path
             id="Vector_41"
             opacity="0.2"
             d="m 41.2037,18.0728 c -1.6147,-0.7695 -3.7558,-0.635 -6.098,0.6027 -2.6321,1.3722 -5.0038,3.869 -6.6659,6.7264 -0.3864,0.6626 -0.7339,1.3434 -1.0409,2.0395 -0.9128,1.9918 -1.4044,4.1223 -1.4491,6.2798 v 11.957 c -0.2821,0.0025 -0.5605,-0.0585 -0.8103,-0.1776 L 1.78248,33.2208 C 1.5474,33.0792 1.3518,32.8897 1.21115,32.6674 1.07051,32.4452 0.988683,32.1961 0.972168,31.94 V 20.6073 C 0.972168,14.9463 5.07103,8.23059 10.1221,5.54 12.488,4.28081 14.6942,4.17857 16.3266,5.00189 Z"
             fill="#0a0909" />
          <path
             id="Vector_42"
             opacity="0.1"
             d="m 1.78248,33.2201 23.35702,12.296 c 0.2498,0.1191 0.5282,0.1801 0.8103,0.1775 V 33.7367 c 0.0086,-1.1253 0.1554,-2.2462 0.4377,-3.3417 L 1.40394,17.2703 C 1.1264,18.3647 0.981614,19.4835 0.972168,20.6066 v 11.3327 c 0.016515,0.2561 0.098342,0.5052 0.238982,0.7274 0.14065,0.2223 0.33625,0.4118 0.57133,0.5534 z"
             fill="#0a0909" />
          <path
             id="Vector_43"
             d="m 27.3986,27.4574 c -0.9127,1.9918 -1.4043,4.1223 -1.4491,6.2798 V 45.678 c -0.0994,-0.0024 -0.1984,-0.0132 -0.2957,-0.0322 0,-0.6835 0,-4.5149 0,-11.9086 0,-8.7767 7.4229,-14.357 9.4635,-15.0673 -2.6321,1.3722 -5.0038,3.8691 -6.6659,6.7265 -0.3912,0.6693 -0.7426,1.3573 -1.0528,2.061 z"
             fill="#333333" />
          <path
             id="Vector_44"
             opacity="0.4"
             d="m 27.3986,27.4574 c -0.9127,1.9918 -1.4043,4.1223 -1.4491,6.2798 V 45.678 c -0.0994,-0.0024 -0.1984,-0.0132 -0.2957,-0.0322 0,-0.6835 0,-4.5149 0,-11.9086 0,-8.7767 7.4229,-14.357 9.4635,-15.0673 -2.6321,1.3722 -5.0038,3.8691 -6.6659,6.7265 -0.3912,0.6693 -0.7426,1.3573 -1.0528,2.061 z"
             fill="#0a0909" />
          <path
             id="Vector_45"
             d="m 27.1325,44.3167 c -0.1301,0.0699 -0.2425,0 -0.2425,-0.1292 V 33.7427 c 0.0427,-2.0096 0.4939,-3.9946 1.3308,-5.8548 l 0.0533,-0.113 c 0.3226,-0.7372 0.6939,-1.456 1.1119,-2.1524 1.6147,-2.7068 3.8031,-4.9561 6.169,-6.1938 1.0251,-0.5878 2.202,-0.92 3.4128,-0.9632 0.618,-0.0043 1.2276,0.1306 1.7744,0.3928 1.5969,0.7749 2.5314,2.6476 2.5314,5.2682 v 11.435 c -0.0052,0.0764 -0.0298,0.1507 -0.0718,0.217 -0.0421,0.0663 -0.1005,0.1228 -0.1707,0.1651 l 0.3668,0.791 0.0828,-0.0431 c 0.1262,-0.0846 0.2396,-0.1842 0.3371,-0.2959 0.2359,-0.2666 0.3726,-0.5945 0.3904,-0.9364 V 24.1265 c 0,-3.0296 -1.183,-5.139 -3.0461,-6.0323 -1.6147,-0.7749 -3.7558,-0.6404 -6.098,0.5973 -2.632,1.3722 -5.0038,3.8637 -6.6658,6.7319 -0.3863,0.6608 -0.7338,1.3398 -1.041,2.034 -0.9139,1.9934 -1.4055,4.1258 -1.4491,6.2853 v 11.93 h 0.1834 c 0.2358,-0.0121 0.4659,-0.0709 0.6742,-0.1722 z"
             fill="#333333" />
          <path
             id="Vector_46"
             opacity="0.1"
             d="m 27.1325,44.3167 c -0.1301,0.0699 -0.2425,0 -0.2425,-0.1292 V 33.7427 c 0.0427,-2.0096 0.4939,-3.9946 1.3308,-5.8548 l 0.0533,-0.113 c 0.3226,-0.7372 0.6939,-1.456 1.1119,-2.1524 1.6147,-2.7068 3.8031,-4.9561 6.169,-6.1938 1.0251,-0.5878 2.202,-0.92 3.4128,-0.9632 0.618,-0.0043 1.2276,0.1306 1.7744,0.3928 1.5969,0.7749 2.5314,2.6476 2.5314,5.2682 v 11.435 c -0.0052,0.0764 -0.0298,0.1507 -0.0718,0.217 -0.0421,0.0663 -0.1005,0.1228 -0.1707,0.1651 l 0.3668,0.791 0.0828,-0.0431 c 0.1262,-0.0846 0.2396,-0.1842 0.3371,-0.2959 0.2359,-0.2666 0.3726,-0.5945 0.3904,-0.9364 V 24.1265 c 0,-3.0296 -1.183,-5.139 -3.0461,-6.0323 -1.6147,-0.7749 -3.7558,-0.6404 -6.098,0.5973 -2.632,1.3722 -5.0038,3.8637 -6.6658,6.7319 -0.3863,0.6608 -0.7338,1.3398 -1.041,2.034 -0.9139,1.9934 -1.4055,4.1258 -1.4491,6.2853 v 11.93 h 0.1834 c 0.2358,-0.0121 0.4659,-0.0709 0.6742,-0.1722 z"
             fill="#0a0909" />
        </g>
      </g>
    </g>
  </g>
</svg>
