<svg width="196" height="142" viewBox="0 0 196 142" fill="none" xmlns="http://www.w3.org/2000/svg">
<rect width="196" height="142" fill="#CBC7C7"/>
<g id="KYC" clip-path="url(#clip0_32_2)">
<g id="More">
<rect width="390" height="844" transform="translate(-90 -229)" fill="#0E0D0D"/>
<g id="uiw:verification" clip-path="url(#clip1_32_2)">
<g id="I.D card 1">
<g id="Vector">
<path d="M23.625 141.75H151.875C152.77 141.75 153.629 141.394 154.261 140.761C154.894 140.129 155.25 139.27 155.25 138.375C155.25 137.48 154.894 136.621 154.261 135.989C153.629 135.356 152.77 135 151.875 135H23.625C19.1511 134.995 14.8619 133.215 11.6984 130.052C8.53486 126.888 6.75527 122.599 6.75 118.125V57.375C6.75 56.4799 6.39442 55.6214 5.76148 54.9885C5.12855 54.3556 4.27011 54 3.375 54C2.47989 54 1.62145 54.3556 0.988514 54.9885C0.355579 55.6214 0 56.4799 0 57.375V118.125C0.0069678 124.389 2.49826 130.394 6.9273 134.823C11.3563 139.252 17.3614 141.743 23.625 141.75Z" fill="#4DFFBF"/>
<path d="M172.125 0H23.625C17.3614 0.0069678 11.3563 2.49826 6.9273 6.9273C2.49826 11.3563 0.0069678 17.3614 0 23.625V37.125C0 38.0201 0.355579 38.8786 0.988514 39.5115C1.62145 40.1444 2.47989 40.5 3.375 40.5C4.27011 40.5 5.12855 40.1444 5.76148 39.5115C6.39442 38.8786 6.75 38.0201 6.75 37.125V23.625C6.75527 19.1511 8.53486 14.8619 11.6984 11.6984C14.8619 8.53486 19.1511 6.75527 23.625 6.75H172.125C176.599 6.75527 180.888 8.53486 184.052 11.6984C187.215 14.8619 188.995 19.1511 189 23.625V118.125C188.995 122.599 187.215 126.888 184.052 130.052C180.888 133.215 176.599 134.995 172.125 135C171.23 135 170.371 135.356 169.739 135.989C169.106 136.621 168.75 137.48 168.75 138.375C168.75 139.27 169.106 140.129 169.739 140.761C170.371 141.394 171.23 141.75 172.125 141.75C178.389 141.743 184.394 139.252 188.823 134.823C193.252 130.394 195.743 124.389 195.75 118.125V23.625C195.743 17.3614 193.252 11.3563 188.823 6.9273C184.394 2.49826 178.389 0.0069678 172.125 0Z" fill="#4DFFBF"/>
<path d="M27 87.75V101.25C27 102.145 27.3556 103.004 27.9885 103.636C28.6215 104.269 29.4799 104.625 30.375 104.625H70.875C71.7701 104.625 72.6286 104.269 73.2615 103.636C73.8944 103.004 74.25 102.145 74.25 101.25V87.75C74.2449 83.4249 73.0531 79.1841 70.8044 75.4896C68.5557 71.795 65.3363 68.7883 61.4969 66.797C64.1434 64.5676 66.0405 61.5786 66.9313 58.2349C67.8221 54.8912 67.6634 51.3545 66.4768 48.104C65.2901 44.8535 63.1329 42.0464 60.2975 40.063C57.462 38.0796 54.0853 37.0159 50.625 37.0159C47.1647 37.0159 43.788 38.0796 40.9525 40.063C38.1171 42.0464 35.9599 44.8535 34.7732 48.104C33.5866 51.3545 33.4279 54.8912 34.3187 58.2349C35.2095 61.5786 37.1066 64.5676 39.7531 66.797C35.9137 68.7883 32.6943 71.795 30.4456 75.4896C28.1969 79.1841 27.0051 83.4249 27 87.75ZM40.5 54C40.5 51.9975 41.0938 50.0399 42.2064 48.3749C43.3189 46.7098 44.9002 45.4121 46.7503 44.6457C48.6004 43.8794 50.6362 43.6789 52.6003 44.0695C54.5644 44.4602 56.3685 45.4245 57.7845 46.8405C59.2005 48.2566 60.1648 50.0606 60.5555 52.0247C60.9461 53.9888 60.7456 56.0246 59.9793 57.8747C59.2129 59.7248 57.9152 61.3061 56.2501 62.4186C54.5851 63.5312 52.6275 64.125 50.625 64.125C47.9406 64.1221 45.367 63.0544 43.4688 61.1562C41.5706 59.258 40.5029 56.6844 40.5 54ZM50.625 70.875C55.0989 70.8803 59.3881 72.6599 62.5516 75.8234C65.7151 78.9869 67.4947 83.2761 67.5 87.75V97.875H33.75V87.75C33.7553 83.2761 35.5349 78.9869 38.6984 75.8234C41.8619 72.6599 46.1511 70.8803 50.625 70.875Z" fill="#4DFFBF"/>
<path d="M104.625 47.25H165.375C166.27 47.25 167.129 46.8944 167.761 46.2615C168.394 45.6286 168.75 44.7701 168.75 43.875C168.75 42.9799 168.394 42.1214 167.761 41.4885C167.129 40.8556 166.27 40.5 165.375 40.5H104.625C103.73 40.5 102.871 40.8556 102.239 41.4885C101.606 42.1214 101.25 42.9799 101.25 43.875C101.25 44.7701 101.606 45.6286 102.239 46.2615C102.871 46.8944 103.73 47.25 104.625 47.25Z" fill="#4DFFBF"/>
<path d="M104.625 74.25H165.375C166.27 74.25 167.129 73.8944 167.761 73.2615C168.394 72.6286 168.75 71.7701 168.75 70.875C168.75 69.9799 168.394 69.1214 167.761 68.4885C167.129 67.8556 166.27 67.5 165.375 67.5H104.625C103.73 67.5 102.871 67.8556 102.239 68.4885C101.606 69.1214 101.25 69.9799 101.25 70.875C101.25 71.7701 101.606 72.6286 102.239 73.2615C102.871 73.8944 103.73 74.25 104.625 74.25Z" fill="#4DFFBF"/>
<path d="M165.375 94.5H158.625C157.73 94.5 156.871 94.8556 156.239 95.4885C155.606 96.1214 155.25 96.9799 155.25 97.875C155.25 98.7701 155.606 99.6286 156.239 100.261C156.871 100.894 157.73 101.25 158.625 101.25H165.375C166.27 101.25 167.129 100.894 167.761 100.261C168.394 99.6286 168.75 98.7701 168.75 97.875C168.75 96.9799 168.394 96.1214 167.761 95.4885C167.129 94.8556 166.27 94.5 165.375 94.5Z" fill="#4DFFBF"/>
<path d="M104.625 101.25H138.375C139.27 101.25 140.129 100.894 140.761 100.261C141.394 99.6286 141.75 98.7701 141.75 97.875C141.75 96.9799 141.394 96.1214 140.761 95.4885C140.129 94.8556 139.27 94.5 138.375 94.5H104.625C103.73 94.5 102.871 94.8556 102.239 95.4885C101.606 96.1214 101.25 96.9799 101.25 97.875C101.25 98.7701 101.606 99.6286 102.239 100.261C102.871 100.894 103.73 101.25 104.625 101.25Z" fill="#4DFFBF"/>
</g>
</g>
</g>
</g>
</g>
<defs>
<clipPath id="clip0_32_2">
<rect width="390" height="937" fill="white" transform="translate(-90 -229)"/>
</clipPath>
<clipPath id="clip1_32_2">
<rect width="279" height="251" fill="white" transform="translate(-35 -28)"/>
</clipPath>
</defs>
</svg>
