<?xml version="1.0" encoding="UTF-8" standalone="no"?>
<svg
   width="264.267"
   height="225.94839"
   viewBox="0 0 264.267 225.94839"
   fill="none"
   version="1.1"
   id="svg246"
   sodipodi:docname="60d5eb3435e6a424fcca6618ca787089.svg"
   xmlns:inkscape="http://www.inkscape.org/namespaces/inkscape"
   xmlns:sodipodi="http://sodipodi.sourceforge.net/DTD/sodipodi-0.dtd"
   xmlns="http://www.w3.org/2000/svg"
   xmlns:svg="http://www.w3.org/2000/svg">
  <defs
     id="defs250" />
  <sodipodi:namedview
     id="namedview248"
     pagecolor="#ffffff"
     bordercolor="#666666"
     borderopacity="1.0"
     inkscape:pageshadow="2"
     inkscape:pageopacity="0.0"
     inkscape:pagecheckerboard="0" />
  <path
     d="m 132.133,225.9484 c 72.976,0 132.134,-31.614 132.134,-70.612 0,-38.998 -59.158,-70.611999 -132.134,-70.611999 C 59.1582,84.724401 0,116.3384 0,155.3364 c 0,38.998 59.1582,70.612 132.133,70.612 z"
     fill="#f5f5f5"
     id="path2" />
  <path
     d="m 39.5976,149.8664 c 7.6418,4.014 7.6418,10.525 0,14.529 -7.6417,4.003 -20.0448,4.014 -27.6924,0 -7.6477,-4.015 -7.6477,-10.531 0,-14.529 7.6476,-3.999 20.0034,-4.02 27.6924,0 z"
     fill="#e0e0e0"
     id="path4" />
  <path
     d="m 56.3596,159.0944 69.3554,36.431 c 0.794,0.366 1.671,0.557 2.561,0.557 0.89,0 1.767,-0.191 2.561,-0.557 l 117.406,-61.668 c 1.414,-0.743 1.414,-1.948 0,-2.691 L 178.888,94.730401 c -0.794,-0.366 -1.671,-0.557 -2.561,-0.557 -0.89,0 -1.768,0.191 -2.561,0.557 L 56.3596,156.4044 c -1.4196,0.742 -1.4196,1.948 0,2.69 z"
     fill="#e0e0e0"
     id="path6" />
  <path
     d="m 231.398,120.7904 -4.832,-2.54 c 0,0 -2.88,-10.875 -1.733,-20.657999 1.615,-13.755 9.747,-19.744 15.349,-17.758 3.726,1.334 4.879,5.187 -1.384,13.383 -3.691,4.848 -8.228,14.910999 -7.4,27.572999 z"
     fill="#333333"
     id="path8" />
  <g
     opacity="0.3"
     id="g12"
     transform="translate(-16,-36.275599)">
    <path
       opacity="0.3"
       d="m 247.398,157.066 -4.832,-2.54 c 0,0 -2.88,-10.875 -1.733,-20.658 1.615,-13.755 9.747,-19.744 15.349,-17.758 3.726,1.334 4.879,5.187 -1.384,13.383 -3.691,4.848 -8.228,14.911 -7.4,27.573 z"
       fill="#0a0909"
       id="path10" />
  </g>
  <path
     d="m 229.393,115.4734 h 0.065 c 0.044,-0.007 0.085,-0.022 0.122,-0.044 0.037,-0.021 0.069,-0.05 0.093,-0.083 0.025,-0.033 0.042,-0.07 0.051,-0.109 0.009,-0.039 0.009,-0.08 0.001,-0.119 -2.65,-12.684 2.224,-26.943999 8.28,-32.873999 0.058,-0.06 0.087,-0.138 0.082,-0.218 -0.005,-0.08 -0.044,-0.155 -0.109,-0.208 -0.065,-0.054 -0.15,-0.083 -0.238,-0.081 -0.087,0.002 -0.171,0.036 -0.232,0.093 -6.139,6.043 -11.107,20.528999 -8.416,33.400999 0.013,0.065 0.05,0.125 0.104,0.168 0.055,0.044 0.125,0.07 0.197,0.074 z"
     fill="#fff0d4"
     id="path14" />
  <path
     d="m 244.056,127.4414 c 0.763,0.349 2.791,-1.233 3.359,-1.615 0.969,-0.668 1.733,-1.552 2.218,-2.567 0.54,-1.152 0.674,-2.429 0.385,-3.653 -0.149,-0.647 -0.346,-1.284 -0.592,-1.905 l -0.692,-1.841 c -0.274,-0.592 -0.413,-1.229 -0.408,-1.872 0.106,-1.292 1.307,-2.244 2.401,-3.068 1.183,-0.914 2.449,-2.104 2.366,-3.643 -0.158,-1.192 -0.747,-2.303 -1.674,-3.158 -0.857,-0.894 -1.869,-1.674 -2.655,-2.626 -0.613,-0.661 -0.96,-1.493 -0.982,-2.356999 0.048,-0.533 0.215,-1.051 0.491,-1.523 0.634,-0.985 1.18,-2.014 1.632,-3.078 0.355,-1.077 0.219,-2.438 -0.745,-3.164 -0.799,-0.598 -1.928,-0.635 -2.957,-0.539 -0.956,0.152 -1.864,0.49 -2.662,0.991 -2.614,1.485 -3.986,4.455 -6.784,5.628 -1.114,0.374 -2.251,0.685 -3.407,0.931 -1.136,0.328 -2.277,0.915 -2.75,1.899999 -0.947,1.953 1.129,4.208 0.503,6.263 -0.551,1.819 -2.42,2.589 -3.401,4.252 -0.403,0.729 -0.534,1.559 -0.373,2.362 0.167,1.362 0.608,2.684 1.301,3.901 0.778,1.252 1.641,2.458 2.585,3.611 0,0 12.722,6.716 12.841,6.77 z"
     fill="#333333"
     id="path16" />
  <g
     opacity="0.15"
     id="g20"
     transform="translate(-16,-36.275599)">
    <path
       opacity="0.15"
       d="m 260.056,163.717 c 0.763,0.349 2.791,-1.233 3.359,-1.615 0.969,-0.668 1.733,-1.552 2.218,-2.567 0.54,-1.152 0.674,-2.429 0.385,-3.653 -0.149,-0.647 -0.346,-1.284 -0.592,-1.905 l -0.692,-1.841 c -0.274,-0.592 -0.413,-1.229 -0.408,-1.872 0.106,-1.292 1.307,-2.244 2.401,-3.068 1.183,-0.914 2.449,-2.104 2.366,-3.643 -0.158,-1.192 -0.747,-2.303 -1.674,-3.158 -0.857,-0.894 -1.869,-1.674 -2.655,-2.626 -0.613,-0.661 -0.96,-1.493 -0.982,-2.357 0.048,-0.533 0.215,-1.051 0.491,-1.523 0.634,-0.985 1.18,-2.014 1.632,-3.078 0.355,-1.077 0.219,-2.438 -0.745,-3.164 -0.799,-0.598 -1.928,-0.635 -2.957,-0.539 -0.956,0.152 -1.864,0.49 -2.662,0.991 -2.614,1.485 -3.986,4.455 -6.784,5.628 -1.114,0.374 -2.251,0.685 -3.407,0.931 -1.136,0.328 -2.277,0.915 -2.75,1.9 -0.947,1.953 1.129,4.208 0.503,6.263 -0.551,1.819 -2.42,2.589 -3.401,4.252 -0.403,0.729 -0.534,1.559 -0.373,2.362 0.167,1.362 0.608,2.684 1.301,3.901 0.778,1.252 1.641,2.458 2.585,3.611 0,0 12.722,6.716 12.841,6.77 z"
       fill="#0a0909"
       id="path18" />
  </g>
  <path
     d="m 236.656,123.9324 c 0.045,-0.003 0.088,-0.015 0.127,-0.033 0.04,-0.019 0.075,-0.045 0.103,-0.076 0.029,-0.031 0.051,-0.066 0.064,-0.105 0.013,-0.039 0.018,-0.079 0.014,-0.12 -1.225,-12.064 4.3,-25.699999 8.635,-29.789999 0.037,-0.027 0.068,-0.061 0.09,-0.1 0.021,-0.038 0.034,-0.081 0.036,-0.124 0.003,-0.044 -0.005,-0.087 -0.023,-0.127 -0.017,-0.041 -0.044,-0.077 -0.078,-0.108 -0.034,-0.03 -0.075,-0.053 -0.12,-0.068 -0.045,-0.015 -0.093,-0.021 -0.14,-0.018 -0.048,0.003 -0.094,0.015 -0.136,0.036 -0.042,0.021 -0.079,0.05 -0.108,0.084 -4.43,4.17 -10.055,18.037999 -8.825,30.268999 0.008,0.081 0.05,0.155 0.118,0.208 0.067,0.052 0.155,0.078 0.243,0.072 z"
     fill="#fff0d4"
     id="path22" />
  <path
     d="m 237.976,109.0534 h 0.1 c 3.103,-0.937 6.311,-1.56 9.564,-1.857 0.089,-0.008 0.17,-0.047 0.227,-0.11 0.056,-0.062 0.083,-0.143 0.075,-0.223 -0.002,-0.04 -0.013,-0.08 -0.033,-0.116 -0.02,-0.036 -0.047,-0.068 -0.081,-0.094 -0.034,-0.025 -0.074,-0.044 -0.116,-0.056 -0.043,-0.011 -0.087,-0.014 -0.131,-0.009 -3.311,0.307 -6.575,0.94 -9.735,1.889 -0.074,0.027 -0.135,0.076 -0.173,0.139 -0.037,0.063 -0.05,0.136 -0.034,0.207 0.015,0.07 0.058,0.133 0.119,0.178 0.062,0.045 0.139,0.069 0.218,0.068 z"
     fill="#fff0d4"
     id="path24" />
  <path
     d="m 58.7261,152.4004 c 0.0726,0.893 0.3755,1.759 0.8841,2.527 0.5087,0.767 1.2087,1.415 2.0436,1.89 l 63.7072,33.455 c 0.907,0.416 1.909,0.632 2.924,0.632 1.016,0 2.018,-0.216 2.925,-0.632 l 112.148,-58.907 c 0.884,-0.424 1.625,-1.06 2.141,-1.838 0.516,-0.779 0.789,-1.671 0.789,-2.58 0,-0.91 -0.273,-1.802 -0.789,-2.58 -0.516,-0.779 -1.257,-1.414 -2.141,-1.838 L 179.663,89.063401 c -0.906,-0.419 -1.908,-0.638 -2.925,-0.638 -1.016,0 -2.018,0.219 -2.924,0.638 L 61.6538,147.9764 c -0.835,0.477 -1.535,1.126 -2.0436,1.894 -0.5086,0.769 -0.8115,1.635 -0.8841,2.53 z"
     fill="#37474f"
     id="path26" />
  <path
     d="m 61.6534,151.0494 63.7066,33.465 c 0.906,0.42 1.908,0.638 2.925,0.638 1.017,0 2.019,-0.218 2.925,-0.638 l 112.148,-58.913 c 1.62,-0.85 1.62,-2.228 0,-3.072 L 179.663,89.063401 c -0.906,-0.419 -1.909,-0.638 -2.925,-0.638 -1.017,0 -2.019,0.219 -2.925,0.638 L 61.6534,147.9764 c -1.6147,0.861 -1.6147,2.228 0,3.073 z"
     fill="#455a64"
     id="path28" />
  <path
     d="m 128.276,185.1554 v 5.763 c -1.029,0.024 -2.048,-0.195 -2.957,-0.635 l -63.6654,-33.466 c -0.8581,-0.41 -1.581,-1.02 -2.0951,-1.768 -0.514,-0.748 -0.8007,-1.606 -0.8308,-2.488 -0.03,-0.881 0.1976,-1.754 0.6597,-2.53 0.4621,-0.775 1.142,-1.425 1.9705,-1.883 -1.3131,0.856 -1.183,2.11 0.2957,2.906 l 63.7064,33.466 c 0.898,0.431 1.901,0.65 2.916,0.635 z"
     fill="#263238"
     id="path30" />
  <path
     d="m 55.9815,148.0724 c -1.5142,-0.796 -1.4314,-2.152 -1.4314,-3.837 V 64.190401 c 0.0614,-0.9253 0.361,-1.825 0.8747,-2.626 0.5137,-0.8011 1.2271,-1.4811 2.0827,-1.9853 L 169.638,0.66600136 c 0.869,-0.4194 1.836,-0.6467 2.82,-0.6635 0.984,-0.0168 1.959,0.1773 2.846,0.5667 1.52,0.79640004 1.437,2.15240004 1.437,3.84210004 V 84.451401 c -0.055,0.923 -0.349,1.823 -0.858,2.624 -0.509,0.801 -1.218,1.482 -2.07,1.987 L 61.6536,147.9754 c -0.8705,0.421 -1.8378,0.649 -2.8233,0.666 -0.9856,0.017 -1.9616,-0.178 -2.8488,-0.569 z"
     fill="#37474f"
     id="path32" />
  <path
     d="m 176.741,4.4065014 c 0,-1.6951 -1.313,-2.3785 -2.928,-1.5337 L 61.6535,61.791401 c -0.8666,0.4885 -1.5797,1.1725 -2.0701,1.986 l -4.1698,-2.2067 c 0.4913,-0.8139 1.2041,-1.4995 2.0701,-1.991 L 169.632,0.66660136 c 0.87,-0.4207 1.837,-0.6487 2.823,-0.6656 0.985,-0.0168 1.961,0.178 2.849,0.5687 1.514,0.82330004 1.437,2.14170004 1.437,3.83680004 z"
     fill="#455a64"
     id="path34" />
  <path
     d="m 61.3104,148.1384 c -0.8384,0.344 -1.7497,0.517 -2.6695,0.506 -0.9197,-0.011 -1.8256,-0.206 -2.6537,-0.57 -1.5141,-0.797 -1.4372,-2.153 -1.4372,-3.837 V 64.192401 c 0.0331,-0.9264 0.3285,-1.829 0.8576,-2.6208 l 4.1757,2.2008 c -0.5257,0.793 -0.8208,1.695 -0.8576,2.621 V 146.4434 c 0,1.571 1.1297,2.282 2.5847,1.695 z"
     fill="#263238"
     id="path36" />
  <path
     d="M 63.2563,64.858401 171.364,8.0710014 c 0.97,-0.5381 1.775,-0.0968 1.775,0.9202 V 78.882401 c -0.035,0.555 -0.214,1.096 -0.522,1.576 -0.309,0.481 -0.738,0.889 -1.253,1.189 L 63.2563,138.4194 c -0.97,0.506 -1.7744,0.097 -1.7744,-0.926 V 67.624401 c 0.0357,-0.555 0.2149,-1.095 0.5233,-1.576 0.3083,-0.481 0.737,-0.888 1.2511,-1.19 z"
     fill="#fffaf0"
     id="path38" />
  <path
     d="M 69.7629,148.1384 173.861,93.449401 c 0.452,-0.21 0.953,-0.319 1.461,-0.319 0.508,0 1.008,0.109 1.461,0.319 l 1.733,0.866 c 0.81,0.425 0.81,1.114 0,1.539 L 74.4177,150.5274 c -0.4574,0.214 -0.9643,0.325 -1.4786,0.325 -0.5144,0 -1.0213,-0.111 -1.4787,-0.325 l -1.7153,-0.856 c -0.8044,-0.425 -0.8044,-1.114 0.0178,-1.533 z"
     fill="#263238"
     id="path40" />
  <path
     d="M 77.9132,152.5504 182.011,97.866401 c 0.404,-0.21 0.855,-0.332 1.319,-0.355 0.465,-0.023 0.928,0.052 1.355,0.221 L 211.78,111.9704 c 0.668,0.35 0.556,0.98 -0.249,1.405 l -103.974,54.608 c -0.404,0.209 -0.856,0.331 -1.321,0.355 -0.465,0.025 -0.93,-0.049 -1.358,-0.215 l -27.2073,-14.169 c -0.6743,-0.35 -0.5619,-0.979 0.2425,-1.404 z"
     fill="#263238"
     id="path42" />
  <path
     d="m 168.123,120.8554 3.265,-1.711 c 0.136,-0.07 0.148,-0.183 0,-0.248 l -3.117,-1.614 c -0.073,-0.034 -0.154,-0.051 -0.236,-0.051 -0.083,0 -0.163,0.017 -0.237,0.051 l -3.259,1.716 c -0.142,0.07 -0.154,0.183 0,0.248 l 3.117,1.614 c 0.073,0.033 0.153,0.049 0.234,0.049 0.082,-0.001 0.161,-0.02 0.233,-0.054 z m -4.731,-5.92 -3.259,1.712 c -0.142,0.07 -0.154,0.183 -0.03,0.247 l 3.117,1.615 c 0.074,0.033 0.155,0.05 0.237,0.05 0.082,0 0.163,-0.017 0.236,-0.05 l 3.259,-1.717 c 0.142,-0.07 0.154,-0.183 0.03,-0.248 l -3.117,-1.614 c -0.077,-0.037 -0.163,-0.056 -0.249,-0.055 -0.087,0.001 -0.173,0.021 -0.248,0.06 z m -10.534,5.532 -5.513,2.895 c -0.142,0.07 -0.154,0.183 -0.029,0.248 l 3.117,1.641 c 0.073,0.033 0.154,0.051 0.236,0.051 0.082,0 0.163,-0.018 0.237,-0.051 l 5.518,-2.9 c 0.136,-0.07 0.148,-0.183 0,-0.248 l -3.123,-1.614 c -0.068,-0.041 -0.147,-0.066 -0.228,-0.073 -0.081,-0.007 -0.163,0.003 -0.239,0.03 z m 5.766,-3.029 -3.259,1.711 c -0.136,0.07 -0.148,0.183 -0.029,0.247 l 3.123,1.615 c 0.073,0.033 0.154,0.05 0.236,0.05 0.082,0 0.163,-0.017 0.237,-0.05 l 3.259,-1.717 c 0.136,-0.07 0.148,-0.183 0,-0.247 l -3.123,-1.615 c -0.071,-0.036 -0.15,-0.056 -0.232,-0.059 -0.081,-0.003 -0.162,0.012 -0.235,0.043 z m -12.787,6.715 -3.259,1.712 c -0.136,0.075 -0.148,0.183 -0.03,0.247 l 3.123,1.615 c 0.074,0.032 0.155,0.049 0.237,0.049 0.082,0 0.163,-0.017 0.236,-0.049 l 3.259,-1.712 c 0.136,-0.075 0.148,-0.183 0.03,-0.253 l -3.123,-1.614 c -0.075,-0.041 -0.159,-0.063 -0.246,-0.066 -0.087,-0.003 -0.173,0.014 -0.251,0.05 z m -4.761,2.503 -3.295,1.689 c -0.142,0.076 -0.154,0.183 0,0.248 l 3.117,1.641 c 0.074,0.033 0.155,0.051 0.237,0.051 0.082,0 0.163,-0.018 0.236,-0.051 l 3.259,-1.711 c 0.142,-0.075 0.154,-0.183 0.03,-0.253 l -3.117,-1.614 c -0.074,-0.041 -0.157,-0.064 -0.243,-0.068 -0.085,-0.004 -0.171,0.012 -0.248,0.046 z m 12.219,6.683 3.265,-1.711 c 0.136,-0.075 0.148,-0.183 0,-0.248 l -3.117,-1.614 c -0.073,-0.034 -0.154,-0.052 -0.236,-0.052 -0.083,0 -0.164,0.018 -0.237,0.052 l -3.259,1.711 c -0.142,0.076 -0.154,0.183 -0.03,0.248 l 3.117,1.641 c 0.078,0.026 0.161,0.035 0.243,0.027 0.082,-0.009 0.161,-0.034 0.231,-0.075 z m -4.761,2.502 3.259,-1.711 c 0.136,-0.075 0.154,-0.183 0.029,-0.247 l -3.117,-1.642 c -0.074,-0.034 -0.156,-0.052 -0.239,-0.052 -0.083,0 -0.165,0.018 -0.24,0.052 l -3.259,1.712 c -0.136,0.075 -0.147,0.183 0,0.247 l 3.117,1.614 c 0.067,0.028 0.139,0.043 0.213,0.044 0.073,0.001 0.146,-0.012 0.213,-0.038 z m -4.767,2.503 3.265,-1.712 c 0.136,-0.075 0.147,-0.183 0,-0.247 l -3.117,-1.641 c -0.074,-0.035 -0.155,-0.053 -0.237,-0.053 -0.082,0 -0.163,0.018 -0.237,0.053 l -3.259,1.716 c -0.142,0.076 -0.153,0.183 -0.029,0.248 l 3.117,1.641 c 0.075,0.03 0.158,0.044 0.24,0.039 0.082,-0.005 0.162,-0.027 0.233,-0.066 z m -4.803,2.48 3.259,-1.711 c 0.142,-0.075 0.154,-0.183 0,-0.247 l -3.117,-1.642 c -0.073,-0.034 -0.154,-0.052 -0.237,-0.052 -0.082,0 -0.163,0.018 -0.236,0.052 l -3.218,1.728 c -0.136,0.075 -0.148,0.183 0,0.247 l 3.117,1.641 c 0.069,0.026 0.144,0.038 0.218,0.036 0.075,-0.003 0.148,-0.021 0.214,-0.052 z m 24.38,-17.489 3.259,-1.711 c 0.136,-0.07 0.154,-0.183 0.03,-0.247 l -3.117,-1.615 c -0.074,-0.033 -0.155,-0.05 -0.237,-0.05 -0.082,0 -0.163,0.017 -0.236,0.05 l -3.265,1.717 c -0.136,0.07 -0.148,0.183 0,0.248 l 3.117,1.614 c 0.073,0.033 0.153,0.049 0.234,0.048 0.081,-10e-4 0.161,-0.019 0.233,-0.054 z m -5.323,7.48 7.269,-3.82 c 0.142,-0.07 0.154,-0.183 0,-0.248 l -7.571,-3.977 c -0.074,-0.033 -0.156,-0.05 -0.239,-0.05 -0.083,0 -0.165,0.017 -0.24,0.05 l -3.756,1.975 c -0.141,0.076 -0.153,0.189 -0.029,0.253 l 4.01,2.104 c 0.124,0.065 0.107,0.178 -0.029,0.248 l -2.964,1.577 c -0.136,0.075 -0.148,0.182 0,0.247 l 3.117,1.641 c 0.071,0.03 0.147,0.046 0.225,0.046 0.078,0 0.154,-0.016 0.225,-0.046 z m -21.754,-1.679 -3.218,1.712 c -0.136,0.075 -0.148,0.183 0,0.247 l 3.117,1.641 c 0.074,0.034 0.155,0.051 0.237,0.051 0.082,0 0.163,-0.017 0.237,-0.051 l 3.259,-1.711 c 0.136,-0.075 0.147,-0.183 0.029,-0.247 l -3.123,-1.642 c -0.079,-0.042 -0.169,-0.064 -0.26,-0.064 -0.092,0 -0.181,0.022 -0.26,0.064 z m -4.744,2.481 -3.259,1.711 c -0.142,0.076 -0.153,0.183 0,0.248 l 3.117,1.641 c 0.074,0.035 0.155,0.053 0.237,0.053 0.082,0 0.163,-0.018 0.237,-0.053 l 3.259,-1.711 c 0.142,-0.075 0.153,-0.183 0.029,-0.248 l -3.146,-1.641 c -0.074,-0.034 -0.155,-0.052 -0.237,-0.052 -0.082,0 -0.164,0.018 -0.237,0.052 z m -26.361,26.718 c 0.073,0.034 0.154,0.052 0.236,0.052 0.083,0 0.164,-0.018 0.237,-0.052 l 3.259,-1.712 c 0.136,-0.07 0.148,-0.183 0.029,-0.247 l -3.122,-1.614 c -0.074,-0.035 -0.155,-0.053 -0.237,-0.053 -0.082,0 -0.164,0.018 -0.237,0.053 l -3.259,1.711 c -0.136,0.075 -0.147,0.188 -0.029,0.253 z m -11.741,-6.678 -3.259,1.711 c -0.136,0.075 -0.154,0.188 -0.029,0.253 l 3.123,1.614 c 0.073,0.035 0.154,0.053 0.236,0.053 0.082,0 0.164,-0.018 0.237,-0.053 l 3.259,-1.711 c 0.136,-0.07 0.148,-0.183 0,-0.248 l -3.117,-1.614 c -0.07,-0.032 -0.147,-0.049 -0.224,-0.05 -0.078,-0.001 -0.155,0.015 -0.226,0.045 z m 6.039,5.02 c 0.075,0.033 0.157,0.05 0.24,0.05 0.083,0 0.164,-0.017 0.239,-0.05 l 3.259,-1.711 c 0.136,-0.075 0.148,-0.188 0,-0.253 l -3.117,-1.614 c -0.073,-0.035 -0.154,-0.053 -0.237,-0.053 -0.082,0 -0.163,0.018 -0.236,0.053 l -3.23,1.689 c -0.136,0.07 -0.153,0.183 -0.029,0.248 z m 13.148,2.691 3.259,-1.711 c 0.136,-0.07 0.148,-0.183 0,-0.248 l -3.123,-1.614 c -0.073,-0.033 -0.154,-0.051 -0.236,-0.051 -0.082,0 -0.163,0.018 -0.237,0.051 l -3.259,1.716 c -0.136,0.07 -0.148,0.183 0,0.248 l 3.117,1.614 c 0.073,0.032 0.154,0.048 0.235,0.046 0.081,-0.002 0.161,-0.021 0.232,-0.057 z m -5.24,2.518 c 0.073,0.035 0.154,0.053 0.236,0.053 0.083,0 0.164,-0.018 0.237,-0.053 l 3.259,-1.711 c 0.142,-0.07 0.154,-0.183 0,-0.248 l -3.117,-1.614 c -0.074,-0.033 -0.154,-0.05 -0.237,-0.05 -0.082,0 -0.163,0.017 -0.236,0.05 l -3.259,1.717 c -0.142,0.07 -0.154,0.183 -0.03,0.247 z m -9.215,-12.732 -3.265,1.712 c -0.136,0.075 -0.148,0.188 0,0.253 l 3.117,1.614 c 0.073,0.034 0.154,0.052 0.237,0.052 0.082,0 0.163,-0.018 0.236,-0.052 l 3.259,-1.711 c 0.142,-0.07 0.154,-0.183 0.03,-0.248 l -3.117,-1.641 c -0.079,-0.034 -0.165,-0.049 -0.252,-0.045 -0.086,0.003 -0.171,0.026 -0.245,0.066 z m 23.818,-12.511 -3.259,1.711 c -0.142,0.076 -0.154,0.183 -0.029,0.248 l 3.117,1.614 c 0.073,0.035 0.154,0.053 0.236,0.053 0.083,0 0.164,-0.018 0.237,-0.053 l 3.265,-1.711 c 0.136,-0.075 0.148,-0.183 0,-0.248 l -3.117,-1.641 c -0.069,-0.023 -0.143,-0.033 -0.216,-0.028 -0.074,0.004 -0.145,0.023 -0.21,0.055 z m -19.057,10.009 -3.259,1.711 c -0.136,0.076 -0.154,0.189 -0.029,0.253 l 3.117,1.615 c 0.074,0.034 0.156,0.052 0.239,0.052 0.083,0 0.166,-0.018 0.24,-0.052 l 3.259,-1.712 c 0.136,-0.075 0.148,-0.183 0,-0.247 l -3.117,-1.614 c -0.067,-0.028 -0.139,-0.043 -0.213,-0.044 -0.073,-10e-4 -0.146,0.012 -0.213,0.038 z m 23.818,-12.511 -3.258,1.711 c -0.137,0.075 -0.148,0.183 0,0.248 l 3.117,1.641 c 0.073,0.034 0.154,0.052 0.236,0.052 0.082,0 0.164,-0.018 0.237,-0.052 l 3.259,-1.711 c 0.136,-0.076 0.148,-0.183 0.029,-0.248 l -3.123,-1.614 c -0.07,-0.039 -0.15,-0.062 -0.233,-0.066 -0.082,-0.005 -0.164,0.009 -0.24,0.039 z m -9.504,5.01 -3.259,1.711 c -0.136,0.075 -0.148,0.183 0,0.248 l 3.117,1.641 c 0.073,0.034 0.154,0.052 0.236,0.052 0.083,0 0.164,-0.018 0.237,-0.052 l 3.259,-1.711 c 0.136,-0.076 0.154,-0.183 0.029,-0.248 l -3.14,-1.641 c -0.074,-0.035 -0.157,-0.053 -0.24,-0.053 -0.083,0 -0.165,0.018 -0.239,0.053 z m -4.762,2.502 -3.259,1.711 c -0.142,0.076 -0.153,0.183 -0.029,0.248 l 3.117,1.641 c 0.073,0.034 0.154,0.052 0.236,0.052 0.083,0 0.164,-0.018 0.237,-0.052 l 3.265,-1.711 c 0.136,-0.076 0.148,-0.183 0,-0.248 l -3.093,-1.663 c -0.075,-0.03 -0.157,-0.045 -0.239,-0.042 -0.082,0.003 -0.163,0.023 -0.235,0.059 z m -4.731,2.502 -3.265,1.711 c -0.136,0.076 -0.148,0.189 0,0.253 l 3.117,1.615 c 0.073,0.034 0.154,0.052 0.236,0.052 0.083,0 0.164,-0.018 0.237,-0.052 l 3.259,-1.711 c 0.142,-0.076 0.154,-0.183 0.029,-0.248 l -3.14,-1.641 c -0.079,-0.035 -0.166,-0.052 -0.254,-0.05 -0.088,0.003 -0.173,0.026 -0.249,0.066 z m 21.748,1.679 3.259,-1.711 c 0.142,-0.075 0.154,-0.183 0,-0.248 l -3.117,-1.614 c -0.074,-0.033 -0.155,-0.05 -0.237,-0.05 -0.082,0 -0.163,0.017 -0.236,0.05 l -3.265,1.711 c -0.136,0.076 -0.148,0.183 0,0.248 l 3.117,1.641 c 0.072,0.026 0.151,0.037 0.229,0.031 0.077,-0.005 0.153,-0.027 0.22,-0.063 z m 44.443,-36.447 -3.259,1.712 c -0.136,0.07 -0.148,0.183 -0.03,0.247 l 3.123,1.615 c 0.073,0.033 0.154,0.05 0.237,0.05 0.082,0 0.163,-0.017 0.236,-0.05 l 3.259,-1.717 c 0.136,-0.07 0.148,-0.183 0.03,-0.248 l -3.123,-1.614 c -0.077,-0.039 -0.164,-0.06 -0.252,-0.06 -0.088,0 -0.174,0.021 -0.251,0.06 z m -5.767,3.025 -3.259,1.716 c -0.136,0.07 -0.148,0.183 -0.03,0.248 l 3.123,1.614 c 0.074,0.033 0.155,0.051 0.237,0.051 0.082,0 0.163,-0.018 0.236,-0.051 l 3.259,-1.716 c 0.136,-0.07 0.148,-0.183 0.03,-0.248 l -3.123,-1.614 c -0.077,-0.039 -0.163,-0.059 -0.251,-0.06 -0.087,-0.001 -0.174,0.017 -0.252,0.054 z m 10.504,-5.548 -3.259,1.711 c -0.142,0.07 -0.154,0.183 -0.029,0.247 l 3.117,1.615 c 0.073,0.033 0.154,0.05 0.236,0.05 0.082,0 0.163,-0.017 0.237,-0.05 l 3.259,-1.717 c 0.142,-0.07 0.154,-0.183 0.029,-0.247 l -3.117,-1.615 c -0.073,-0.033 -0.155,-0.05 -0.237,-0.049 -0.082,0.001 -0.163,0.019 -0.236,0.055 z m -26.332,22.267 3.259,-1.711 c 0.136,-0.07 0.148,-0.183 0.03,-0.248 l -3.123,-1.614 c -0.074,-0.033 -0.155,-0.051 -0.237,-0.051 -0.082,0 -0.163,0.018 -0.236,0.051 l -3.259,1.717 c -0.136,0.069 -0.148,0.182 -0.03,0.247 l 3.123,1.614 c 0.074,0.034 0.155,0.051 0.237,0.05 0.083,-0.001 0.163,-0.02 0.236,-0.055 z m 31.567,-24.753 c -0.074,-0.034 -0.155,-0.051 -0.237,-0.051 -0.082,0 -0.163,0.017 -0.236,0.051 l -3.259,1.716 c -0.137,0.07 -0.148,0.183 -0.03,0.248 l 3.123,1.614 c 0.073,0.033 0.154,0.051 0.236,0.051 0.083,0 0.164,-0.018 0.237,-0.051 l 3.259,-1.717 c 0.136,-0.069 0.148,-0.182 0.03,-0.247 z m -49.683,38.965 3.259,-1.712 c 0.136,-0.075 0.147,-0.182 0,-0.247 l -3.118,-1.641 c -0.073,-0.035 -0.154,-0.053 -0.236,-0.053 -0.082,0 -0.164,0.018 -0.237,0.053 l -3.2,1.711 c -0.136,0.075 -0.153,0.183 0,0.247 l 3.118,1.642 c 0.069,0.025 0.143,0.037 0.217,0.034 0.075,-0.003 0.148,-0.02 0.214,-0.05 z m 58.419,-30.673 3.259,-1.711 c 0.142,-0.07 0.153,-0.183 0.029,-0.248 l -3.135,-1.695 c -0.073,-0.033 -0.154,-0.05 -0.236,-0.05 -0.082,0 -0.163,0.017 -0.237,0.05 l -3.259,1.711 c -0.142,0.076 -0.154,0.189 -0.029,0.253 l 3.117,1.615 c 0.072,0.045 0.155,0.072 0.242,0.08 0.087,0.007 0.175,-0.006 0.255,-0.037 z m -9.221,0.161 3.265,-1.711 c 0.136,-0.07 0.147,-0.183 0,-0.247 l -3.117,-1.615 c -0.074,-0.033 -0.155,-0.05 -0.237,-0.05 -0.082,0 -0.163,0.017 -0.237,0.05 l -3.259,1.717 c -0.142,0.07 -0.153,0.183 -0.029,0.247 l 3.117,1.615 c 0.082,0.031 0.171,0.042 0.259,0.033 0.088,-0.009 0.172,-0.039 0.244,-0.087 z m 4.933,-6.096 c -0.074,-0.034 -0.155,-0.051 -0.237,-0.051 -0.082,0 -0.163,0.017 -0.237,0.051 l -3.259,1.716 c -0.136,0.07 -0.148,0.183 0,0.248 l 3.117,1.614 c 0.074,0.034 0.155,0.052 0.237,0.052 0.082,0 0.163,-0.018 0.237,-0.052 l 3.259,-1.711 c 0.136,-0.07 0.153,-0.183 0,-0.248 z m 1.005,-0.539 7.571,3.977 c 0.074,0.035 0.156,0.053 0.239,0.053 0.084,0 0.166,-0.018 0.24,-0.053 l 3.259,-1.711 c 0.136,-0.07 0.148,-0.183 0,-0.248 l -7.571,-3.976 c -0.073,-0.033 -0.154,-0.051 -0.237,-0.051 -0.082,0 -0.163,0.018 -0.236,0.051 l -3.259,1.711 c -0.118,0.048 -0.118,0.161 0,0.226 z m -11.001,5.511 -3.259,1.716 c -0.136,0.07 -0.148,0.183 0,0.248 l 3.117,1.614 c 0.073,0.035 0.154,0.053 0.236,0.053 0.083,0 0.164,-0.018 0.237,-0.053 l 3.259,-1.711 c 0.136,-0.07 0.154,-0.183 0.029,-0.247 l -3.117,-1.615 c -0.077,-0.037 -0.163,-0.058 -0.25,-0.059 -0.088,0 -0.174,0.018 -0.252,0.054 z m -35.837,18.834 -3.259,1.716 c -0.136,0.07 -0.148,0.183 0,0.248 l 3.123,1.614 c 0.073,0.035 0.154,0.053 0.236,0.053 0.083,0 0.164,-0.018 0.237,-0.053 l 3.212,-1.695 c 0.136,-0.07 0.147,-0.183 0.029,-0.247 l -3.123,-1.615 c -0.069,-0.034 -0.146,-0.053 -0.225,-0.057 -0.079,-0.004 -0.157,0.009 -0.23,0.036 z m 44.91,-15.396 c 0.073,0.035 0.154,0.053 0.236,0.053 0.083,0 0.164,-0.018 0.237,-0.053 l 3.259,-1.711 c 0.136,-0.07 0.148,-0.183 0,-0.247 l -3.099,-1.647 c -0.074,-0.033 -0.155,-0.051 -0.237,-0.051 -0.082,0 -0.163,0.018 -0.236,0.051 l -3.259,1.711 c -0.136,0.075 -0.148,0.189 -0.03,0.253 z m -40.143,12.915 -3.259,1.717 c -0.142,0.07 -0.154,0.183 0,0.247 l 3.117,1.615 c 0.073,0.034 0.154,0.052 0.237,0.052 0.082,0 0.163,-0.018 0.236,-0.052 l 3.259,-1.712 c 0.142,-0.07 0.154,-0.183 0.03,-0.247 l -3.117,-1.614 c -0.08,-0.046 -0.172,-0.072 -0.267,-0.075 -0.095,-0.003 -0.188,0.017 -0.271,0.058 z m -37.357,27.772 c 0.073,0.035 0.154,0.053 0.237,0.053 0.082,0 0.163,-0.018 0.236,-0.053 l 3.259,-1.711 c 0.142,-0.07 0.154,-0.183 0,-0.247 l -3.081,-1.636 c -0.074,-0.033 -0.155,-0.051 -0.237,-0.051 -0.082,0 -0.163,0.018 -0.237,0.051 l -3.259,1.711 c -0.141,0.075 -0.153,0.188 -0.029,0.253 z m -5.536,-5.279 -3.277,1.733 c -0.136,0.07 -0.148,0.183 0,0.248 l 3.117,1.614 c 0.073,0.035 0.154,0.053 0.237,0.053 0.082,0 0.163,-0.018 0.236,-0.053 l 3.259,-1.711 c 0.142,-0.075 0.154,-0.188 0.03,-0.253 l -3.117,-1.614 c -0.075,-0.036 -0.159,-0.054 -0.243,-0.053 -0.085,0.001 -0.168,0.021 -0.242,0.058 z m 10.776,2.761 3.259,-1.711 c 0.136,-0.07 0.148,-0.183 0,-0.248 l -3.117,-1.619 c -0.073,-0.034 -0.154,-0.051 -0.236,-0.051 -0.082,0 -0.163,0.017 -0.237,0.051 l -3.259,1.711 c -0.136,0.075 -0.148,0.188 0,0.253 l 3.123,1.614 c 0.071,0.037 0.15,0.058 0.231,0.062 0.081,0.004 0.162,-0.01 0.236,-0.04 z m 4.762,-2.502 3.259,-1.711 c 0.142,-0.076 0.153,-0.183 0.029,-0.248 l -3.117,-1.63 c -0.073,-0.034 -0.154,-0.051 -0.236,-0.051 -0.082,0 -0.163,0.017 -0.237,0.051 l -3.259,1.711 c -0.142,0.075 -0.154,0.188 0,0.253 l 3.117,1.614 c 0.067,0.035 0.141,0.056 0.218,0.062 0.077,0.006 0.154,-0.005 0.226,-0.03 z m 4.767,-2.502 3.259,-1.712 c 0.136,-0.075 0.148,-0.183 0,-0.247 l -3.117,-1.641 c -0.074,-0.034 -0.155,-0.051 -0.237,-0.051 -0.082,0 -0.163,0.017 -0.236,0.051 l -3.259,1.711 c -0.136,0.075 -0.154,0.188 -0.03,0.247 l 3.123,1.615 c 0.072,0.045 0.155,0.074 0.242,0.082 0.087,0.009 0.174,-0.003 0.255,-0.034 z m -15.544,-0.259 -3.259,1.711 c -0.136,0.07 -0.154,0.183 -0.029,0.248 l 3.117,1.614 c 0.074,0.034 0.156,0.051 0.239,0.051 0.083,0 0.165,-0.017 0.24,-0.051 l 3.259,-1.711 c 0.136,-0.075 0.148,-0.188 0,-0.253 l -3.117,-1.614 c -0.073,-0.027 -0.151,-0.038 -0.228,-0.034 -0.078,0.005 -0.154,0.026 -0.222,0.061 z m 4.767,-2.502 -3.264,1.711 c -0.136,0.07 -0.148,0.183 0,0.248 l 3.117,1.614 c 0.073,0.033 0.154,0.051 0.236,0.051 0.082,0 0.163,-0.018 0.237,-0.051 l 3.259,-1.717 c 0.136,-0.069 0.153,-0.182 0.029,-0.247 l -3.117,-1.614 c -0.078,-0.035 -0.165,-0.05 -0.252,-0.045 -0.087,0.004 -0.171,0.029 -0.245,0.072 z m 19.052,-10.009 -3.259,1.711 c -0.136,0.07 -0.148,0.183 0,0.248 l 3.117,1.614 c 0.073,0.033 0.154,0.051 0.236,0.051 0.082,0 0.163,-0.018 0.237,-0.051 l 3.259,-1.716 c 0.136,-0.07 0.148,-0.183 0.029,-0.248 l -3.123,-1.614 c -0.078,-0.034 -0.165,-0.05 -0.252,-0.045 -0.087,0.004 -0.171,0.029 -0.244,0.072 z m -4.762,2.535 -3.259,1.711 c -0.142,0.07 -0.154,0.183 -0.029,0.247 l 3.117,1.615 c 0.073,0.033 0.154,0.05 0.236,0.05 0.082,0 0.163,-0.017 0.237,-0.05 l 3.259,-1.717 c 0.142,-0.07 0.154,-0.183 0,-0.247 l -3.117,-1.615 c -0.07,-0.029 -0.146,-0.044 -0.223,-0.043 -0.076,0.001 -0.152,0.018 -0.221,0.049 z m 9.529,-5.01 -3.259,1.716 c -0.142,0.07 -0.154,0.183 0,0.248 l 3.117,1.614 c 0.073,0.033 0.154,0.051 0.236,0.051 0.082,0 0.163,-0.018 0.237,-0.051 l 3.259,-1.716 c 0.142,-0.07 0.154,-0.183 0.03,-0.248 l -3.117,-1.614 c -0.077,-0.04 -0.163,-0.061 -0.25,-0.063 -0.088,-0.002 -0.175,0.016 -0.253,0.052 z m -19.057,10.003 -3.259,1.711 c -0.142,0.07 -0.154,0.183 -0.03,0.248 l 3.117,1.614 c 0.074,0.034 0.155,0.051 0.237,0.051 0.082,0 0.163,-0.017 0.236,-0.051 l 3.265,-1.716 c 0.136,-0.07 0.148,-0.183 0,-0.248 l -3.117,-1.614 c -0.07,-0.03 -0.147,-0.045 -0.225,-0.044 -0.078,0 -0.155,0.017 -0.224,0.049 z m 4.761,-2.502 -3.259,1.711 c -0.136,0.07 -0.148,0.183 0,0.248 l 3.117,1.614 c 0.074,0.033 0.155,0.051 0.237,0.051 0.082,0 0.163,-0.018 0.236,-0.051 l 3.259,-1.716 c 0.136,-0.07 0.154,-0.183 0.03,-0.248 l -3.123,-1.614 c -0.077,-0.038 -0.162,-0.057 -0.249,-0.056 -0.087,0.001 -0.172,0.022 -0.248,0.061 z m -6.08,16.294 3.259,-1.711 c 0.142,-0.07 0.154,-0.183 0.029,-0.248 l -3.117,-1.614 c -0.073,-0.033 -0.154,-0.05 -0.236,-0.05 -0.082,0 -0.163,0.017 -0.237,0.05 l -3.259,1.711 c -0.142,0.076 -0.154,0.189 0,0.253 l 3.117,1.615 c 0.07,0.029 0.146,0.044 0.223,0.043 0.076,-0.001 0.152,-0.018 0.221,-0.049 z m -25.12,-1.076 -3.117,-1.614 c -0.073,-0.035 -0.154,-0.053 -0.236,-0.053 -0.083,0 -0.164,0.018 -0.237,0.053 l -3.259,1.711 c -0.142,0.075 -0.154,0.188 0,0.253 l 3.117,1.614 c 0.073,0.035 0.154,0.053 0.237,0.053 0.082,0 0.163,-0.018 0.236,-0.053 l 3.259,-1.711 c 0.113,-0.075 0.124,-0.205 0,-0.253 z m 6.211,1.415 -3.117,-1.614 c -0.074,-0.035 -0.155,-0.053 -0.237,-0.053 -0.082,0 -0.163,0.018 -0.237,0.053 l -4.986,2.626 c -0.142,0.075 -0.153,0.188 0,0.253 l 3.117,1.614 c 0.073,0.035 0.155,0.053 0.237,0.053 0.082,0 0.163,-0.018 0.237,-0.053 l 5.015,-2.631 c 0.083,-0.07 0.095,-0.183 -0.029,-0.248 z m -10.866,-4.649 -3.117,-1.614 c -0.073,-0.035 -0.154,-0.053 -0.236,-0.053 -0.083,0 -0.164,0.018 -0.2368,0.053 l -4.0161,2.109 c -0.136,0.07 -0.1479,0.183 0,0.248 l 3.117,1.614 c 0.0736,0.033 0.1545,0.05 0.2366,0.05 0.0821,0 0.1631,-0.017 0.2366,-0.05 l 4.0097,-2.11 c 0.119,-0.075 0.131,-0.193 0.006,-0.247 z m 3.076,-1.614 c 0.073,0.034 0.154,0.052 0.237,0.052 0.082,0 0.163,-0.018 0.236,-0.052 l 3.259,-1.712 c 0.142,-0.075 0.154,-0.188 0.03,-0.253 l -3.117,-1.614 c -0.073,-0.034 -0.155,-0.052 -0.237,-0.052 -0.082,0 -0.163,0.018 -0.236,0.052 l -3.259,1.711 c -0.142,0.07 -0.154,0.183 -0.03,0.248 z m 13.497,7.953 -3.117,-1.614 c -0.073,-0.034 -0.154,-0.051 -0.236,-0.051 -0.082,0 -0.163,0.017 -0.237,0.051 l -6.269,3.293 c -0.137,0.075 -0.154,0.183 0,0.247 l 3.117,1.615 c 0.074,0.034 0.156,0.052 0.239,0.052 0.083,0 0.165,-0.018 0.24,-0.052 l 6.263,-3.294 c 0.113,-0.075 0.124,-0.188 0,-0.252 z m 2.2,3.525 -3.122,-1.615 c -0.074,-0.033 -0.155,-0.05 -0.237,-0.05 -0.082,0 -0.163,0.017 -0.237,0.05 l -4.016,2.094 c -0.136,0.075 -0.148,0.182 0,0.247 l 3.123,1.641 c 0.074,0.033 0.155,0.05 0.237,0.05 0.082,0 0.163,-0.017 0.236,-0.05 l 4.011,-2.109 c 0.112,-0.086 0.13,-0.199 0.005,-0.264 z m 19.726,-30.081 c 0.073,0.034 0.154,0.052 0.236,0.052 0.083,0 0.164,-0.018 0.237,-0.052 l 3.259,-1.711 c 0.136,-0.076 0.148,-0.183 0.03,-0.248 l -3.123,-1.614 c -0.074,-0.033 -0.155,-0.05 -0.237,-0.05 -0.082,0 -0.163,0.017 -0.237,0.05 l -3.253,1.679 c -0.136,0.075 -0.147,0.183 -0.029,0.247 z m -9.529,5.004 c 0.073,0.035 0.155,0.053 0.237,0.053 0.082,0 0.163,-0.018 0.237,-0.053 l 3.259,-1.711 c 0.136,-0.07 0.153,-0.183 0.029,-0.247 l -3.123,-1.642 c -0.074,-0.032 -0.154,-0.05 -0.236,-0.05 -0.082,0 -0.163,0.018 -0.237,0.05 l -3.259,1.712 c -0.136,0.075 -0.148,0.188 0,0.252 z m -21.133,11.096 c 0.075,0.034 0.157,0.051 0.24,0.051 0.083,0 0.165,-0.017 0.239,-0.051 l 3.259,-1.749 c 0.136,-0.075 0.148,-0.188 0,-0.252 l -3.117,-1.615 c -0.073,-0.034 -0.154,-0.052 -0.236,-0.052 -0.083,0 -0.164,0.018 -0.237,0.052 l -3.259,1.711 c -0.136,0.07 -0.154,0.183 0,0.248 z m 25.895,-13.587 c 0.073,0.034 0.154,0.052 0.236,0.052 0.083,0 0.164,-0.018 0.237,-0.052 l 3.259,-1.711 c 0.142,-0.07 0.154,-0.183 0.029,-0.248 l -3.117,-1.641 c -0.073,-0.033 -0.154,-0.051 -0.236,-0.051 -0.082,0 -0.163,0.018 -0.237,0.051 l -3.259,1.711 c -0.142,0.075 -0.154,0.188 -0.029,0.253 z m -9.529,5.004 c 0.073,0.035 0.154,0.053 0.237,0.053 0.082,0 0.163,-0.018 0.236,-0.053 l 3.259,-1.711 c 0.142,-0.07 0.154,-0.183 0,-0.247 l -3.117,-1.642 c -0.073,-0.033 -0.154,-0.05 -0.236,-0.05 -0.082,0 -0.163,0.017 -0.237,0.05 l -3.259,1.712 c -0.142,0.075 -0.154,0.188 -0.029,0.252 z m -3.093,22.752 c -0.074,-0.033 -0.155,-0.051 -0.237,-0.051 -0.082,0 -0.163,0.018 -0.236,0.051 l -5.016,2.637 c -0.136,0.07 -0.148,0.183 0,0.247 l 3.117,1.615 c 0.073,0.034 0.154,0.052 0.237,0.052 0.082,0 0.163,-0.018 0.236,-0.052 l 5.016,-2.637 c 0.136,-0.07 0.148,-0.183 0,-0.248 z m -3.744,-19.162 c 0.073,0.033 0.154,0.05 0.236,0.05 0.082,0 0.163,-0.017 0.237,-0.05 l 3.265,-1.717 c 0.136,-0.07 0.148,-0.183 0,-0.248 l -3.117,-1.614 c -0.073,-0.034 -0.154,-0.052 -0.237,-0.052 -0.082,0 -0.163,0.018 -0.236,0.052 l -3.259,1.711 c -0.142,0.07 -0.154,0.183 -0.03,0.248 z m -4.761,2.502 c 0.073,0.033 0.154,0.05 0.236,0.05 0.082,0 0.163,-0.017 0.237,-0.05 l 3.259,-1.717 c 0.142,-0.07 0.153,-0.183 0.029,-0.247 l -3.117,-1.615 c -0.073,-0.034 -0.154,-0.052 -0.236,-0.052 -0.083,0 -0.164,0.018 -0.237,0.052 l -3.265,1.712 c -0.136,0.07 -0.148,0.183 0,0.247 z m 96.769,-29.704 c -0.073,-0.035 -0.154,-0.053 -0.236,-0.053 -0.083,0 -0.164,0.018 -0.237,0.053 l -8.026,4.213 c -0.136,0.076 -0.154,0.183 -0.03,0.248 l 3.123,1.641 c 0.073,0.034 0.155,0.052 0.237,0.052 0.082,0 0.163,-0.018 0.236,-0.052 l 8.021,-4.213 c 0.142,-0.076 0.153,-0.183 0.029,-0.248 z m -10.534,5.532 c -0.073,-0.035 -0.154,-0.053 -0.236,-0.053 -0.083,0 -0.164,0.018 -0.237,0.053 l -3.259,1.711 c -0.136,0.075 -0.154,0.183 -0.029,0.247 l 3.117,1.642 c 0.074,0.034 0.156,0.052 0.239,0.052 0.083,0 0.165,-0.018 0.24,-0.052 l 3.259,-1.712 c 0.136,-0.075 0.147,-0.183 0,-0.247 z m -64.298,32.588 3.259,-1.711 c 0.136,-0.07 0.148,-0.183 0.03,-0.248 l -3.123,-1.614 c -0.074,-0.033 -0.155,-0.051 -0.237,-0.051 -0.082,0 -0.163,0.018 -0.237,0.051 l -3.259,1.711 c -0.136,0.075 -0.147,0.188 0,0.253 l 3.117,1.614 c 0.071,0.03 0.148,0.046 0.226,0.045 0.078,-0.001 0.154,-0.018 0.224,-0.05 z m 54.77,-27.584 c -0.074,-0.033 -0.155,-0.05 -0.237,-0.05 -0.082,0 -0.163,0.017 -0.236,0.05 l -3.259,1.711 c -0.136,0.076 -0.154,0.183 -0.03,0.248 l 3.123,1.641 c 0.073,0.035 0.154,0.052 0.237,0.052 0.082,0 0.163,-0.017 0.236,-0.052 l 3.259,-1.711 c 0.136,-0.075 0.148,-0.183 0,-0.248 z m 24.841,-13.039 c -0.073,-0.034 -0.154,-0.052 -0.236,-0.052 -0.083,0 -0.164,0.018 -0.237,0.052 l -3.277,1.739 c -0.136,0.075 -0.153,0.183 -0.029,0.247 l 3.117,1.614 c 0.073,0.034 0.154,0.051 0.236,0.051 0.083,0 0.163,-0.017 0.237,-0.051 l 3.265,-1.711 c 0.136,-0.075 0.148,-0.183 0,-0.247 z m 7.885,-0.861 -7.577,-3.982 c -0.073,-0.034 -0.154,-0.052 -0.237,-0.052 -0.082,0 -0.163,0.018 -0.236,0.052 l -3.277,1.739 c -0.136,0.075 -0.148,0.182 -0.03,0.247 l 7.577,3.982 c 0.074,0.033 0.155,0.051 0.237,0.051 0.082,0 0.163,-0.018 0.236,-0.051 l 3.259,-1.711 c 0.136,-0.118 0.154,-0.226 0.03,-0.291 z m -50.547,23.236 c -0.073,-0.034 -0.154,-0.052 -0.237,-0.052 -0.082,0 -0.163,0.018 -0.236,0.052 l -4.01,2.104 c -0.136,0.076 -0.154,0.189 -0.03,0.253 l 3.117,1.615 c 0.074,0.034 0.156,0.052 0.24,0.052 0.083,0 0.165,-0.018 0.239,-0.052 l 4.01,-2.104 c 0.136,-0.076 0.148,-0.189 0.03,-0.253 z m 12.036,-6.322 c -0.073,-0.035 -0.154,-0.053 -0.236,-0.053 -0.083,0 -0.164,0.018 -0.237,0.053 l -5.016,2.631 c -0.136,0.075 -0.147,0.188 -0.029,0.253 l 3.123,1.614 c 0.073,0.035 0.154,0.053 0.236,0.053 0.083,0 0.164,-0.018 0.237,-0.053 l 5.016,-2.631 c 0.136,-0.076 0.147,-0.183 0,-0.248 z m -23.067,12.118 c -0.073,-0.035 -0.154,-0.052 -0.237,-0.052 -0.082,0 -0.163,0.017 -0.236,0.052 l -26.829,14.093 c -0.136,0.07 -0.154,0.183 -0.03,0.248 l 3.117,1.614 c 0.074,0.035 0.155,0.053 0.237,0.053 0.082,0 0.163,-0.018 0.237,-0.053 l 26.834,-14.088 c 0.136,-0.075 0.148,-0.188 0,-0.253 z m -28.331,14.884 c -0.074,-0.033 -0.155,-0.05 -0.237,-0.05 -0.082,0 -0.163,0.017 -0.236,0.05 l -4.016,2.11 c -0.136,0.075 -0.148,0.183 0,0.247 l 3.117,1.641 c 0.073,0.034 0.154,0.051 0.236,0.051 0.082,0 0.163,-0.017 0.237,-0.051 l 4.01,-2.109 c 0.136,-0.07 0.154,-0.183 0.029,-0.247 z m 33.849,-17.758 c -0.073,-0.034 -0.154,-0.052 -0.236,-0.052 -0.083,0 -0.164,0.018 -0.237,0.052 l -4.016,2.11 c -0.136,0.07 -0.148,0.183 0,0.247 l 3.117,1.615 c 0.073,0.034 0.154,0.052 0.237,0.052 0.082,0 0.163,-0.018 0.236,-0.052 l 4.011,-2.11 c 0.141,-0.07 0.153,-0.183 0.029,-0.247 z m -39.368,20.675 c -0.073,-0.035 -0.154,-0.053 -0.236,-0.053 -0.083,0 -0.164,0.018 -0.237,0.053 l -4.01,2.104 c -0.142,0.075 -0.154,0.188 0,0.253 l 3.117,1.614 c 0.073,0.035 0.154,0.053 0.237,0.053 0.082,0 0.163,-0.018 0.236,-0.053 l 4.01,-2.104 c 0.142,-0.075 0.154,-0.183 0,-0.247 z m 50.417,-26.476 c -0.074,-0.033 -0.155,-0.05 -0.237,-0.05 -0.082,0 -0.163,0.017 -0.236,0.05 l -4.01,2.11 c -0.142,0.07 -0.154,0.183 0,0.247 l 3.117,1.642 c 0.073,0.033 0.154,0.05 0.236,0.05 0.082,0 0.163,-0.017 0.237,-0.05 l 4.01,-2.11 c 0.142,-0.07 0.154,-0.183 0.03,-0.247 z m 17.052,-8.959 c -0.073,-0.035 -0.154,-0.053 -0.237,-0.053 -0.082,0 -0.163,0.018 -0.236,0.053 l -3.265,1.711 c -0.136,0.075 -0.148,0.183 0,0.248 l 3.093,1.619 c 0.073,0.035 0.154,0.053 0.237,0.053 0.082,0 0.163,-0.018 0.236,-0.053 l 3.259,-1.711 c 0.142,-0.075 0.154,-0.183 0,-0.247 z m 10.646,-6.775 3.259,-1.711 c 0.136,-0.076 0.154,-0.183 0.03,-0.248 l -3.123,-1.614 c -0.074,-0.033 -0.155,-0.05 -0.237,-0.05 -0.082,0 -0.163,0.017 -0.236,0.05 l -3.259,1.711 c -0.136,0.075 -0.148,0.183 0,0.253 l 3.117,1.614 c 0.075,0.031 0.157,0.046 0.239,0.042 0.083,-0.004 0.163,-0.025 0.234,-0.063 z m -19.441,0.85 3.259,-1.711 c 0.136,-0.07 0.154,-0.183 0.029,-0.248 l -3.117,-1.614 c -0.074,-0.033 -0.156,-0.051 -0.239,-0.051 -0.083,0 -0.165,0.018 -0.24,0.051 l -3.259,1.717 c -0.136,0.07 -0.148,0.183 0,0.247 l 3.117,1.615 c 0.075,0.031 0.157,0.045 0.24,0.041 0.082,-0.003 0.162,-0.025 0.233,-0.063 z m -12.61,15.993 9.522,-5.004 c 0.142,-0.076 0.154,-0.183 0.03,-0.248 l -3.117,-1.641 c -0.074,-0.033 -0.155,-0.051 -0.237,-0.051 -0.082,0 -0.163,0.018 -0.236,0.051 l -9.529,5.004 c -0.136,0.076 -0.154,0.183 -0.029,0.248 l 3.117,1.614 c 0.071,0.039 0.152,0.061 0.236,0.066 0.083,0.005 0.166,-0.009 0.243,-0.039 z m 26.852,-14.341 c 0.073,0.035 0.155,0.053 0.237,0.053 0.082,0 0.163,-0.018 0.237,-0.053 l 3.258,-1.711 c 0.142,-0.075 0.154,-0.183 0.03,-0.248 l -3.117,-1.641 c -0.073,-0.033 -0.154,-0.05 -0.237,-0.05 -0.082,0 -0.163,0.017 -0.236,0.05 l -3.259,1.711 c -0.142,0.076 -0.154,0.189 0,0.253 z m -3.998,-2.373 3.259,-1.711 c 0.142,-0.07 0.154,-0.183 0.03,-0.248 l -3.117,-1.614 c -0.074,-0.033 -0.155,-0.05 -0.237,-0.05 -0.082,0 -0.163,0.017 -0.237,0.05 l -3.259,1.711 c -0.142,0.076 -0.153,0.189 -0.029,0.253 l 3.117,1.614 c 0.073,0.034 0.155,0.051 0.237,0.05 0.082,-10e-4 0.163,-0.02 0.236,-0.055 z m -27.639,19.2 3.259,-1.711 c 0.142,-0.075 0.154,-0.183 0.029,-0.248 l -3.117,-1.636 c -0.073,-0.034 -0.154,-0.052 -0.236,-0.052 -0.083,0 -0.164,0.018 -0.237,0.052 l -3.265,1.712 c -0.136,0.075 -0.148,0.183 0,0.247 l 3.117,1.641 c 0.069,0.033 0.146,0.051 0.224,0.053 0.078,0.002 0.155,-0.012 0.226,-0.042 z m 21.092,-11.3 c 0.073,0.034 0.154,0.052 0.236,0.052 0.082,0 0.164,-0.018 0.237,-0.052 l 3.259,-1.712 c 0.136,-0.075 0.148,-0.183 0.029,-0.247 l -3.123,-1.614 c -0.073,-0.033 -0.154,-0.05 -0.236,-0.05 -0.082,0 -0.163,0.017 -0.237,0.05 l -3.259,1.711 c -0.136,0.075 -0.148,0.183 0,0.253 z m -44.911,23.849 3.259,-1.711 c 0.137,-0.07 0.148,-0.183 0,-0.248 l -3.122,-1.641 c -0.074,-0.033 -0.155,-0.05 -0.237,-0.05 -0.082,0 -0.163,0.017 -0.237,0.05 l -3.259,1.711 c -0.136,0.076 -0.147,0.189 -0.029,0.253 l 3.123,1.614 c 0.075,0.043 0.16,0.067 0.248,0.071 0.088,0.004 0.176,-0.013 0.254,-0.049 z m 4.762,-2.502 3.259,-1.711 c 0.142,-0.07 0.154,-0.183 0.029,-0.248 l -3.105,-1.663 c -0.073,-0.033 -0.154,-0.05 -0.236,-0.05 -0.083,0 -0.163,0.017 -0.237,0.05 l -3.259,1.711 c -0.142,0.076 -0.154,0.189 0,0.253 l 3.117,1.615 c 0.066,0.032 0.139,0.05 0.213,0.054 0.075,0.003 0.149,-0.008 0.219,-0.033 z m -9.529,5.004 3.259,-1.711 c 0.142,-0.07 0.154,-0.183 0,-0.247 l -3.117,-1.615 c -0.073,-0.033 -0.154,-0.05 -0.236,-0.05 -0.082,0 -0.163,0.017 -0.237,0.05 l -3.259,1.711 c -0.142,0.076 -0.154,0.189 -0.029,0.253 l 3.117,1.615 c 0.079,0.035 0.167,0.051 0.255,0.046 0.088,-0.005 0.173,-0.03 0.247,-0.073 z m 19.057,-10.036 3.259,-1.711 c 0.142,-0.075 0.154,-0.183 0.03,-0.247 l -3.117,-1.642 c -0.074,-0.033 -0.155,-0.05 -0.237,-0.05 -0.082,0 -0.163,0.017 -0.236,0.05 l -3.259,1.712 c -0.142,0.075 -0.154,0.183 0,0.247 l 3.087,1.641 c 0.073,0.035 0.154,0.053 0.237,0.053 0.082,0 0.163,-0.018 0.236,-0.053 z m -4.761,2.503 3.259,-1.712 c 0.136,-0.07 0.148,-0.183 0.03,-0.247 l -3.141,-1.62 c -0.074,-0.033 -0.155,-0.05 -0.237,-0.05 -0.082,0 -0.163,0.017 -0.236,0.05 l -3.259,1.711 c -0.136,0.076 -0.148,0.189 -0.03,0.253 l 3.123,1.615 c 0.075,0.038 0.159,0.058 0.245,0.059 0.086,0.001 0.17,-0.018 0.246,-0.054 z m 9.529,-5.005 3.258,-1.711 c 0.137,-0.075 0.148,-0.183 0,-0.248 l -3.117,-1.641 c -0.073,-0.034 -0.154,-0.052 -0.236,-0.052 -0.082,0 -0.164,0.018 -0.237,0.052 l -3.259,1.711 c -0.136,0.076 -0.153,0.183 -0.029,0.248 l 3.123,1.641 c 0.075,0.039 0.16,0.06 0.247,0.061 0.087,0.001 0.173,-0.018 0.25,-0.056 z m 25.994,-34.811 c 0.074,0.035 0.155,0.053 0.237,0.053 0.082,0 0.164,-0.018 0.237,-0.053 l 3.259,-1.711 c 0.142,-0.075 0.153,-0.183 0.029,-0.247 l -0.828,-0.436 c -0.073,-0.034 -0.154,-0.051 -0.236,-0.051 -0.083,0 -0.164,0.017 -0.237,0.051 l -3.265,1.716 c -0.136,0.07 -0.148,0.183 0,0.248 z m -23.658,13.642 c 0.073,0.032 0.154,0.049 0.236,0.049 0.082,0 0.163,-0.017 0.237,-0.049 l 3.259,-1.712 c 0.136,-0.075 0.148,-0.188 0,-0.253 l -3.117,-1.614 c -0.073,-0.034 -0.154,-0.052 -0.237,-0.052 -0.082,0 -0.163,0.018 -0.236,0.052 l -3.259,1.711 c -0.136,0.07 -0.148,0.183 -0.03,0.248 z m 9.528,-5.005 c 0.074,0.033 0.155,0.05 0.237,0.05 0.082,0 0.163,-0.017 0.237,-0.05 l 3.258,-1.711 c 0.137,-0.075 0.148,-0.188 0,-0.253 l -3.093,-1.647 c -0.073,-0.034 -0.154,-0.052 -0.236,-0.052 -0.083,0 -0.164,0.018 -0.237,0.052 l -3.259,1.712 c -0.136,0.069 -0.154,0.182 -0.03,0.247 z m -15.348,8.072 c 0.073,0.033 0.154,0.05 0.236,0.05 0.082,0 0.163,-0.017 0.237,-0.05 l 3.259,-1.717 c 0.142,-0.07 0.154,-0.183 0.03,-0.247 l -3.153,-1.647 c -0.073,-0.034 -0.154,-0.052 -0.237,-0.052 -0.082,0 -0.163,0.018 -0.236,0.052 l -3.259,1.711 c -0.142,0.07 -0.154,0.183 -0.03,0.248 z m 10.581,-5.554 c 0.074,0.034 0.155,0.051 0.237,0.051 0.082,0 0.163,-0.017 0.236,-0.051 l 3.259,-1.711 c 0.142,-0.075 0.154,-0.188 0.03,-0.253 l -3.117,-1.614 c -0.073,-0.034 -0.154,-0.052 -0.237,-0.052 -0.082,0 -0.163,0.018 -0.236,0.052 l -3.259,1.711 c -0.142,0.07 -0.154,0.183 -0.03,0.248 z m -20.11,10.564 c 0.074,0.031 0.155,0.048 0.237,0.048 0.082,0 0.162,-0.017 0.236,-0.048 l 3.259,-1.712 c 0.142,-0.075 0.154,-0.188 0.03,-0.252 l -3.117,-1.615 c -0.073,-0.034 -0.154,-0.052 -0.237,-0.052 -0.082,0 -0.163,0.018 -0.236,0.052 l -3.259,1.711 c -0.142,0.07 -0.154,0.183 -0.03,0.248 z m 4.767,-2.508 c 0.074,0.033 0.155,0.051 0.237,0.051 0.082,0 0.163,-0.018 0.237,-0.051 l 3.259,-1.711 c 0.136,-0.075 0.148,-0.188 0,-0.253 l -3.117,-1.614 c -0.074,-0.035 -0.155,-0.053 -0.237,-0.053 -0.082,0 -0.163,0.018 -0.237,0.053 l -3.259,1.711 c -0.136,0.07 -0.147,0.183 -0.029,0.247 z m 24.712,-14.185 c 0.073,0.035 0.154,0.053 0.237,0.053 0.082,0 0.163,-0.018 0.236,-0.053 l 3.259,-1.711 c 0.142,-0.075 0.154,-0.183 0.03,-0.247 l -0.828,-0.436 c -0.074,-0.034 -0.155,-0.051 -0.237,-0.051 -0.082,0 -0.163,0.017 -0.237,0.051 l -3.259,1.716 c -0.141,0.07 -0.153,0.183 -0.029,0.248 z m 14.296,-7.533 c 0.073,0.034 0.154,0.052 0.236,0.052 0.083,0 0.164,-0.018 0.237,-0.052 l 3.259,-1.712 c 0.136,-0.075 0.148,-0.183 0,-0.247 l -0.828,-0.435999 c -0.074,-0.033 -0.155,-0.05 -0.237,-0.05 -0.082,0 -0.163,0.017 -0.236,0.05 l -3.259,1.716999 c -0.142,0.07 -0.154,0.183 -0.03,0.247 z m 6.547,3.438 c 0.074,0.033 0.155,0.051 0.237,0.051 0.082,0 0.163,-0.018 0.236,-0.051 l 3.259,-1.716 c 0.142,-0.07 0.154,-0.183 0.03,-0.248 l -3.117,-1.614 c -0.074,-0.033 -0.155,-0.051 -0.237,-0.051 -0.082,0 -0.163,0.018 -0.236,0.051 l -3.259,1.716 c -0.142,0.07 -0.154,0.183 -0.03,0.248 z m 9.073,9.509 3.259,-1.711 c 0.142,-0.076 0.154,-0.183 0,-0.248 l -3.117,-1.641 c -0.073,-0.033 -0.154,-0.051 -0.236,-0.051 -0.082,0 -0.163,0.018 -0.237,0.051 l -3.259,1.711 c -0.142,0.075 -0.154,0.183 -0.029,0.248 l 3.117,1.641 c 0.075,0.041 0.161,0.063 0.249,0.065 0.088,0.002 0.175,-0.017 0.253,-0.054 z m -25.149,-7.943 c 0.073,0.035 0.154,0.053 0.237,0.053 0.082,0 0.163,-0.018 0.236,-0.053 l 3.259,-1.711 c 0.136,-0.075 0.148,-0.183 0,-0.248 l -0.828,-0.435 c -0.073,-0.034 -0.154,-0.051 -0.236,-0.051 -0.082,0 -0.163,0.017 -0.237,0.051 l -3.259,1.716 c -0.136,0.07 -0.154,0.183 0,0.248 z m -39.037,21.702 c 0.074,0.033 0.155,0.05 0.237,0.05 0.082,0 0.163,-0.017 0.237,-0.05 l 3.259,-1.711 c 0.136,-0.075 0.147,-0.188 0.029,-0.253 l -3.123,-1.614 c -0.073,-0.034 -0.154,-0.052 -0.236,-0.052 -0.083,0 -0.164,0.018 -0.237,0.052 l -3.259,1.711 c -0.136,0.07 -0.148,0.183 -0.03,0.248 z"
     fill="#455a64"
     id="path44" />
  <path
     d="m 147.014,151.0924 0.669,0.35 17.755,9.32 31.567,-16.58 0.656,-0.344 -18.418,-9.67 z"
     fill="#37474f"
     id="path46" />
  <path
     d="m 147.683,151.4424 17.755,9.32 31.567,-16.58 -17.762,-9.325 z"
     fill="#263238"
     id="path48" />
  <path
     d="m 47.3226,78.451401 -7.2336,-3.767 c -0.3194,-0.172 -0.556,-0.215 -0.6802,-0.145 l -0.8813,0.463 c -0.1538,0.08 -0.1479,0.317 0.0414,0.683 l 1.7744,3.315 -1.3131,1.076 c -0.1394,0.097 -0.249,0.226 -0.3181,0.373 -0.0691,0.147 -0.0955,0.307 -0.0764,0.466 0.019,0.159 0.0827,0.311 0.185,0.441 0.1022,0.13 0.2396,0.234 0.3988,0.302 l 7.2336,3.799 0.8813,-0.468 z"
     fill="#333333"
     id="path50" />
  <path
     opacity="0.5"
     d="m 47.3226,78.451401 -7.2336,-3.767 c -0.3194,-0.172 -0.556,-0.215 -0.6802,-0.145 l -0.8813,0.463 c -0.1538,0.08 -0.1479,0.317 0.0414,0.683 l 1.7744,3.315 -1.3131,1.076 c -0.1394,0.097 -0.249,0.226 -0.3181,0.373 -0.0691,0.147 -0.0955,0.307 -0.0764,0.466 0.019,0.159 0.0827,0.311 0.185,0.441 0.1022,0.13 0.2396,0.234 0.3988,0.302 l 7.2336,3.799 0.8813,-0.468 z"
     fill="#828282"
     id="path52" />
  <path
     d="m 39.2075,75.115401 c -0.7039,-0.371 -0.9937,-0.129 -0.6388,0.538 l 1.7744,3.315 -1.3131,1.076 c -0.1394,0.098 -0.249,0.226 -0.3181,0.373 -0.0691,0.147 -0.0954,0.308 -0.0764,0.467 0.019,0.159 0.0827,0.311 0.185,0.441 0.1022,0.13 0.2396,0.234 0.3988,0.301 l 7.2336,3.8 v -6.506 z"
     fill="#333333"
     id="path54" />
  <path
     d="m 47.2868,99.389401 c -0.1121,10e-4 -0.2232,-0.018 -0.3269,-0.057 -0.1037,-0.039 -0.1979,-0.096 -0.2771,-0.168 -0.0793,-0.072 -0.142,-0.158 -0.1845,-0.252 -0.0425,-0.094 -0.064,-0.196 -0.0632,-0.298 v -21.858 c 0.0178,-0.194 0.1149,-0.374 0.2721,-0.506 0.1572,-0.131 0.363,-0.204 0.5766,-0.204 0.2136,0 0.4195,0.073 0.5767,0.204 0.1572,0.132 0.2543,0.312 0.2721,0.506 v 21.858 c 8e-4,0.102 -0.0205,0.203 -0.0627,0.297 -0.0421,0.094 -0.1043,0.179 -0.1829,0.251 -0.0787,0.072 -0.1722,0.129 -0.2752,0.168 -0.103,0.039 -0.2134,0.059 -0.325,0.059 z"
     fill="#455a64"
     id="path56" />
  <path
     d="m 16.17,157.5924 v -1.361 h 0.3608 c 0.562,-0.918 1.407,-1.667 2.4309,-2.153 3.7381,-1.964 9.7947,-1.964 13.5328,0 1.0258,0.484 1.8715,1.233 2.4309,2.153 h 0.3667 v 1.318 c 0,1.308 -0.899,2.621 -2.7976,3.616 -3.7381,1.964 -9.7947,1.964 -13.5328,0 -1.8394,-0.985 -2.8035,-2.281 -2.7917,-3.573 z"
     fill="#263238"
     id="path58" />
  <path
     d="m 25.734,161.2574 c 5.2853,0 9.5699,-2.251 9.5699,-5.027 0,-2.775 -4.2846,-5.026 -9.5699,-5.026 -5.2853,0 -9.5699,2.251 -9.5699,5.026 0,2.776 4.2846,5.027 9.5699,5.027 z"
     fill="#455a64"
     id="path60" />
  <path
     d="m 28.2003,108.8924 v 46.741 c -0.0207,0.197 -0.0983,0.385 -0.2251,0.546 -0.1268,0.161 -0.298,0.288 -0.4964,0.369 -0.5397,0.249 -1.1365,0.38 -1.7419,0.38 -0.6054,0 -1.2022,-0.131 -1.7419,-0.38 -0.1991,-0.08 -0.371,-0.207 -0.4979,-0.368 -0.1269,-0.161 -0.2042,-0.35 -0.2237,-0.547 v -46.741 z"
     fill="#37474f"
     id="path62" />
  <path
     d="m 23.2734,114.5484 v 4.397 l 4.9269,2.583 v -4.386 z"
     fill="#263238"
     id="path64" />
  <path
     d="m 41.1356,104.7114 9.1086,4.79 c -0.0465,0.067 -0.1067,0.125 -0.1775,0.172 l -15.9341,8.367 c -0.136,0.07 -0.2425,0 -0.2425,-0.134 v -10.445 c 0.0439,-2.009 0.4951,-3.994 1.3308,-5.855 z"
     fill="#333333"
     id="path66" />
  <path
     opacity="0.4"
     d="m 41.1356,104.7114 9.1086,4.79 c -0.0465,0.067 -0.1067,0.125 -0.1775,0.172 l -15.9341,8.367 c -0.136,0.07 -0.2425,0 -0.2425,-0.134 v -10.445 c 0.0439,-2.009 0.4951,-3.994 1.3308,-5.855 z"
     fill="#0a0909"
     id="path68" />
  <path
     d="M 50.3154,97.851401 V 109.5554 l -15.0942,-7.943 0.0532,-0.113 c 1.6147,-3.680999 4.3236,-6.795999 7.281,-8.345999 1.025,-0.588 2.202,-0.92 3.4127,-0.963 2.6853,0 4.3473,2.168 4.3473,5.661 z"
     fill="#333333"
     id="path70" />
  <path
     opacity="0.3"
     d="M 50.3154,97.851401 V 109.5554 l -15.0942,-7.943 0.0532,-0.113 c 1.6147,-3.680999 4.3236,-6.795999 7.281,-8.345999 1.025,-0.588 2.202,-0.92 3.4127,-0.963 2.6853,0 4.3473,2.168 4.3473,5.661 z"
     fill="#0a0909"
     id="path72" />
  <path
     d="m 66.7045,122.5874 v -1.044 h -0.1123 v 0.151 c -0.068,-0.29 -0.167,-0.573 -0.2958,-0.845 -0.5914,-1.28 -1.8749,-2.507 -3.809,-3.524 l -10.7824,-5.667 c -0.2528,-0.114 -0.5311,-0.174 -0.8133,-0.174 -0.2822,0 -0.5606,0.06 -0.8133,0.174 l -16.49,8.659 c -0.2033,-0.154 -0.379,-0.336 -0.5205,-0.539 v 1.077 c 0.0101,0.091 0.0459,0.179 0.1039,0.254 0.058,0.076 0.1362,0.136 0.2273,0.176 l 10.7883,5.661 c 3.1644,1.546 6.7189,2.311 10.3093,2.217 2.9904,0.03 5.9412,-0.623 8.5822,-1.899 2.425,-1.265 3.6197,-2.949 3.6197,-4.666 z"
     fill="#333333"
     id="path74" />
  <path
     opacity="0.4"
     d="m 66.7045,122.5874 v -1.044 h -0.1123 v 0.151 c -0.068,-0.29 -0.167,-0.573 -0.2958,-0.845 -0.5914,-1.28 -1.8749,-2.507 -3.809,-3.524 l -10.7824,-5.667 c -0.2528,-0.114 -0.5311,-0.174 -0.8133,-0.174 -0.2822,0 -0.5606,0.06 -0.8133,0.174 l -16.49,8.659 c -0.2033,-0.154 -0.379,-0.336 -0.5205,-0.539 v 1.077 c 0.0101,0.091 0.0459,0.179 0.1039,0.254 0.058,0.076 0.1362,0.136 0.2273,0.176 l 10.7883,5.661 c 3.1644,1.546 6.7189,2.311 10.3093,2.217 2.9904,0.03 5.9412,-0.623 8.5822,-1.899 2.425,-1.265 3.6197,-2.949 3.6197,-4.666 z"
     fill="#0a0909"
     id="path76" />
  <path
     d="m 66.2964,120.8554 c -0.5914,-1.281 -1.8749,-2.508 -3.809,-3.525 l -10.7824,-5.666 c -0.2527,-0.114 -0.5311,-0.174 -0.8133,-0.174 -0.2822,0 -0.5605,0.06 -0.8132,0.174 l -16.4901,8.653 10.5991,5.564 c 3.1654,1.543 6.7192,2.308 10.3092,2.217 2.9901,0.028 5.9403,-0.625 8.5822,-1.9 2.1766,-1.14 3.3654,-2.61 3.5843,-4.143 -0.0588,-0.414 -0.1822,-0.818 -0.3668,-1.2 z"
     fill="#333333"
     id="path78" />
  <path
     opacity="0.2"
     d="m 66.2964,120.8554 c -0.5914,-1.281 -1.8749,-2.508 -3.809,-3.525 l -10.7824,-5.666 c -0.2527,-0.114 -0.5311,-0.174 -0.8133,-0.174 -0.2822,0 -0.5605,0.06 -0.8132,0.174 l -16.4901,8.653 10.5991,5.564 c 3.1654,1.543 6.7192,2.308 10.3092,2.217 2.9901,0.028 5.9403,-0.625 8.5822,-1.9 2.1766,-1.14 3.3654,-2.61 3.5843,-4.143 -0.0588,-0.414 -0.1822,-0.818 -0.3668,-1.2 z"
     fill="#0a0909"
     id="path80" />
  <path
     d="m 66.6634,122.0614 c -0.0576,-0.418 -0.1811,-0.826 -0.3667,-1.211 -0.5914,-1.281 -1.8749,-2.508 -3.809,-3.525 l -10.7824,-5.666 c -0.2528,-0.114 -0.5311,-0.174 -0.8133,-0.174 -0.2822,0 -0.5606,0.06 -0.8133,0.174 l -16.49,8.658 -0.1893,-0.097 c -0.0981,-0.03 -0.1833,-0.088 -0.2437,-0.164 -0.0603,-0.077 -0.0927,-0.169 -0.0927,-0.263 0,-0.095 0.0324,-0.187 0.0927,-0.263 0.0604,-0.077 0.1456,-0.135 0.2437,-0.165 l 16.6793,-8.734 c 0.2515,-0.118 0.5303,-0.179 0.8133,-0.179 0.2829,0 0.5618,0.061 0.8133,0.179 l 10.7824,5.666 c 1.9341,1.018 3.2057,2.244 3.809,3.525 0.1979,0.409 0.3256,0.842 0.3786,1.286 0.0385,0.317 0.0345,0.637 -0.0119,0.953 z"
     fill="#333333"
     id="path82" />
  <path
     opacity="0.3"
     d="m 66.6634,122.0614 c -0.0576,-0.418 -0.1811,-0.826 -0.3667,-1.211 -0.5914,-1.281 -1.8749,-2.508 -3.809,-3.525 l -10.7824,-5.666 c -0.2528,-0.114 -0.5311,-0.174 -0.8133,-0.174 -0.2822,0 -0.5606,0.06 -0.8133,0.174 l -16.49,8.658 -0.1893,-0.097 c -0.0981,-0.03 -0.1833,-0.088 -0.2437,-0.164 -0.0603,-0.077 -0.0927,-0.169 -0.0927,-0.263 0,-0.095 0.0324,-0.187 0.0927,-0.263 0.0604,-0.077 0.1456,-0.135 0.2437,-0.165 l 16.6793,-8.734 c 0.2515,-0.118 0.5303,-0.179 0.8133,-0.179 0.2829,0 0.5618,0.061 0.8133,0.179 l 10.7824,5.666 c 1.9341,1.018 3.2057,2.244 3.809,3.525 0.1979,0.409 0.3256,0.842 0.3786,1.286 0.0385,0.317 0.0345,0.637 -0.0119,0.953 z"
     fill="#0a0909"
     id="path84" />
  <path
     d="m 33.7661,119.2194 16.6734,-8.761 -0.3726,-0.791 -15.9341,8.373 z"
     fill="#333333"
     id="path86" />
  <path
     opacity="0.1"
     d="m 33.7661,119.2194 16.6734,-8.761 -0.3726,-0.791 -15.9341,8.373 z"
     fill="#0a0909"
     id="path88" />
  <path
     d="m 48.8425,97.180401 c -0.0069,-0.125 -0.0465,-0.247 -0.1154,-0.355 -0.0689,-0.109 -0.1652,-0.201 -0.2808,-0.269 l -20.2992,-10.676 c -0.1222,-0.059 -0.2582,-0.089 -0.3962,-0.089 -0.1381,0 -0.2741,0.03 -0.3963,0.089 l -0.4495,0.236 c -0.1157,0.068 -0.212,0.161 -0.2809,0.269 -0.0689,0.109 -0.1084,0.23 -0.1154,0.356 V 100.8984 c 0.0079,0.125 0.0479,0.247 0.1167,0.355 0.0688,0.109 0.1645,0.201 0.2796,0.27 l 20.2991,10.665 c 0.1242,0.056 0.2608,0.085 0.3992,0.085 0.1384,0 0.275,-0.029 0.3993,-0.085 l 0.4436,-0.237 c 0.115,-0.068 0.2107,-0.16 0.2795,-0.269 0.0689,-0.108 0.1088,-0.23 0.1167,-0.355 z"
     fill="#828282"
     id="path90" />
  <path
     d="m 48.73,96.802401 -1.1297,0.592 -20.9733,-11.02 c 0.0652,-0.112 0.1609,-0.206 0.2779,-0.275 l 0.4496,-0.231 c 0.1222,-0.059 0.2582,-0.089 0.3962,-0.089 0.1381,0 0.2741,0.03 0.3963,0.089 l 20.3228,10.665 c 0.1111,0.068 0.2009,0.161 0.2602,0.269 z"
     fill="#828282"
     id="path92" />
  <path
     d="m 47.6064,97.389401 -0.207,0.113 c 0.0651,0.026 0.1199,0.069 0.157,0.124 0.037,0.055 0.0545,0.119 0.05,0.183 V 111.9674 c 0.0057,0.046 -0.0029,0.093 -0.0248,0.135 -0.022,0.041 -0.0564,0.077 -0.0994,0.102 -0.0609,0.021 -0.1284,0.021 -0.1893,0 l -0.0828,-0.032 -20.305,-10.661 c -0.1147,-0.069 -0.2102,-0.161 -0.279,-0.269 -0.0688,-0.109 -0.1089,-0.23 -0.1173,-0.355 V 86.729401 c 0.0053,-0.127 0.046,-0.251 0.1183,-0.36 z"
     fill="#828282"
     id="path94" />
  <path
     opacity="0.2"
     d="m 47.6005,97.394401 -9.3984,3.190999 c -0.3247,0.113 -0.682,0.121 -1.0124,0.023 -0.3304,-0.098 -0.614,-0.296 -0.8034,-0.561 l -1.5201,-2.108999 -8.316,-11.608 8.0262,11.688 -8.0676,2.873999 c 0.0049,0.128 0.0478,0.253 0.1242,0.36 l 7.967,-3.200999 1.7744,2.555999 c 0.195,0.284 0.496,0.495 0.848,0.594 0.3519,0.099 0.7312,0.079 1.0684,-0.056 l 1.248,-0.501 7.967,11.565 c 0.041,-0.027 0.0735,-0.063 0.0943,-0.104 0.0208,-0.042 0.0291,-0.088 0.024,-0.133 v -0.264 l -8.0676,-11.085 z"
     fill="#0a0909"
     id="path96" />
  <path
     d="m 44.0399,99.658401 c -0.0084,-0.125 -0.0486,-0.246 -0.1173,-0.354 -0.0688,-0.109 -0.1643,-0.201 -0.279,-0.27 l -20.305,-10.66 c -0.1223,-0.058 -0.2583,-0.089 -0.3963,-0.089 -0.1381,0 -0.2741,0.031 -0.3963,0.089 l -0.4495,0.231 c -0.1147,0.069 -0.2102,0.162 -0.279,0.27 -0.0688,0.108 -0.1089,0.23 -0.1173,0.355 V 103.3884 c 0.0088,0.125 0.0491,0.247 0.1178,0.356 0.0687,0.109 0.164,0.203 0.2785,0.273 l 20.305,10.66 c 0.1222,0.059 0.2582,0.089 0.3963,0.089 0.1381,0 0.2741,-0.03 0.3963,-0.089 l 0.4495,-0.231 c 0.1147,-0.069 0.2102,-0.161 0.279,-0.27 0.0687,-0.108 0.1089,-0.23 0.1173,-0.354 z"
     fill="#828282"
     id="path98" />
  <path
     d="m 43.9214,99.330401 -1.1237,0.592 -20.9793,-11.048 c 0.0671,-0.109 0.1625,-0.201 0.278,-0.269 l 0.4495,-0.231 c 0.1222,-0.059 0.2582,-0.089 0.3962,-0.089 0.1381,0 0.2741,0.03 0.3963,0.089 l 20.3051,10.66 c 0.1191,0.075 0.2149,0.177 0.2779,0.296 z"
     fill="#828282"
     id="path100" />
  <path
     d="m 42.7978,99.895401 -0.207,0.112999 c 0.0651,0.025 0.1199,0.069 0.157,0.124 0.037,0.054 0.0545,0.118 0.05,0.183 v 14.158 c 0.0057,0.046 -0.0028,0.092 -0.0248,0.134 -0.022,0.042 -0.0564,0.077 -0.0994,0.102 -0.0609,0.022 -0.1284,0.022 -0.1893,0 l -0.0828,-0.032 -20.305,-10.66 c -0.1147,-0.069 -0.2102,-0.161 -0.279,-0.27 -0.0688,-0.108 -0.1089,-0.229 -0.1173,-0.354 V 89.235401 c 0.0053,-0.127 0.046,-0.251 0.1183,-0.361 z"
     fill="#828282"
     id="path102" />
  <path
     opacity="0.2"
     d="m 42.7978,99.894401 -9.4043,3.201999 c -0.3241,0.11 -0.6797,0.117 -1.0085,0.019 -0.3289,-0.097 -0.6115,-0.294 -0.8014,-0.557 l -1.5142,-2.104 -8.3278,-11.617999 8.0262,11.687999 -8.0676,2.874 c 0.0121,0.126 0.0545,0.25 0.1242,0.36 l 7.967,-3.229 1.7744,2.556 c 0.1948,0.283 0.4948,0.493 0.8454,0.592 0.3507,0.099 0.7286,0.08 1.0651,-0.053 l 1.2539,-0.501 7.9434,11.586 c 0.043,-0.025 0.0774,-0.061 0.0994,-0.102 0.022,-0.042 0.0305,-0.089 0.0248,-0.135 v -0.237 l -8.0499,-11.107 z"
     fill="#0a0909"
     id="path104" />
  <path
     d="m 39.2312,102.1664 c -0.007,-0.125 -0.0465,-0.247 -0.1154,-0.355 -0.0689,-0.109 -0.1652,-0.201 -0.2809,-0.269 L 18.5358,90.876401 c -0.123,-0.056 -0.2587,-0.085 -0.3963,-0.085 -0.1375,0 -0.2732,0.029 -0.3962,0.085 l -0.4496,0.237 c -0.1156,0.068 -0.2119,0.16 -0.2808,0.269 -0.0689,0.108 -0.1085,0.23 -0.1154,0.355 V 105.8954 c 0.0069,0.125 0.0465,0.247 0.1154,0.356 0.0689,0.108 0.1652,0.2 0.2808,0.268 l 20.2992,10.666 c 0.1242,0.056 0.2608,0.084 0.3992,0.084 0.1384,0 0.275,-0.028 0.3992,-0.084 l 0.4436,-0.237 c 0.1157,-0.068 0.212,-0.16 0.2809,-0.268 0.0689,-0.109 0.1084,-0.231 0.1154,-0.356 z"
     fill="#828282"
     id="path106" />
  <path
     d="m 39.1187,101.8114 -1.1297,0.592 -20.9734,-11.020999 c 0.0654,-0.11 0.1613,-0.203 0.278,-0.269 l 0.4495,-0.237 c 0.1231,-0.056 0.2588,-0.085 0.3963,-0.085 0.1376,0 0.2732,0.029 0.3963,0.085 L 38.8348,101.5424 c 0.1186,0.066 0.2164,0.158 0.2839,0.269 z"
     fill="#828282"
     id="path108" />
  <path
     d="m 37.9004,117.2604 c 0.0252,0.006 0.0516,0.006 0.0769,0 -0.0117,0.006 -0.025,0.009 -0.0385,0.009 -0.0135,0 -0.0267,-0.003 -0.0384,-0.009 z"
     fill="#333333"
     id="path110" />
  <path
     d="m 37.9951,102.3974 -0.2071,0.113 c 0.0651,0.026 0.12,0.069 0.157,0.124 0.0371,0.055 0.0546,0.119 0.0501,0.183 v 14.163 c 0.0053,0.046 -0.0036,0.091 -0.0255,0.132 -0.022,0.041 -0.0562,0.076 -0.0988,0.1 -0.0608,0.021 -0.1284,0.021 -0.1892,0 l -0.0828,-0.027 -20.3051,-10.666 c -0.1156,-0.068 -0.2119,-0.16 -0.2808,-0.268 -0.0689,-0.109 -0.1085,-0.231 -0.1154,-0.356 V 91.743401 c 0.0052,-0.128 0.0459,-0.252 0.1183,-0.361 z"
     fill="#828282"
     id="path112" />
  <path
     opacity="0.2"
     d="m 37.9891,102.4034 -9.3984,3.196 c -0.3249,0.111 -0.6814,0.118 -1.0113,0.02 -0.3299,-0.098 -0.6135,-0.295 -0.8045,-0.558 l -1.5082,-2.104 -8.3278,-11.612999 8.0262,11.682999 -8.0676,2.873 c 0.0048,0.129 0.0478,0.253 0.1242,0.361 l 7.967,-3.202 1.7744,2.556 c 0.195,0.285 0.496,0.495 0.8479,0.594 0.352,0.099 0.7313,0.079 1.0685,-0.056 l 1.248,-0.505 7.967,11.564 c 0.0419,-0.026 0.0752,-0.062 0.0961,-0.103 0.0209,-0.042 0.0286,-0.089 0.0222,-0.134 v -0.237 l -8.0439,-11.107 z"
     fill="#0a0909"
     id="path114" />
  <path
     d="m 48.2037,91.797401 c -1.6147,-0.77 -3.7558,-0.635 -6.098,0.602 -2.6321,1.373 -5.0038,3.87 -6.6659,6.727 -0.3864,0.662 -0.7339,1.342999 -1.0409,2.038999 -0.9128,1.992 -1.4044,4.123 -1.4491,6.28 v 11.957 c -0.2821,0.003 -0.5605,-0.058 -0.8103,-0.177 l -23.357,-12.28 c -0.2351,-0.142 -0.4307,-0.331 -0.5713,-0.554 -0.1407,-0.222 -0.2225,-0.471 -0.239,-0.727 V 94.331401 c 0,-5.661 4.0988,-12.376 9.1499,-15.067 2.3659,-1.259 4.5721,-1.361 6.2045,-0.538 z"
     fill="#333333"
     id="path116" />
  <path
     opacity="0.2"
     d="m 48.2037,91.797401 c -1.6147,-0.77 -3.7558,-0.635 -6.098,0.602 -2.6321,1.373 -5.0038,3.87 -6.6659,6.727 -0.3864,0.662 -0.7339,1.342999 -1.0409,2.038999 -0.9128,1.992 -1.4044,4.123 -1.4491,6.28 v 11.957 c -0.2821,0.003 -0.5605,-0.058 -0.8103,-0.177 l -23.357,-12.28 c -0.2351,-0.142 -0.4307,-0.331 -0.5713,-0.554 -0.1407,-0.222 -0.2225,-0.471 -0.239,-0.727 V 94.331401 c 0,-5.661 4.0988,-12.376 9.1499,-15.067 2.3659,-1.259 4.5721,-1.361 6.2045,-0.538 z"
     fill="#0a0909"
     id="path118" />
  <path
     opacity="0.1"
     d="m 8.7825,106.9444 23.357,12.296 c 0.2498,0.119 0.5282,0.18 0.8103,0.178 v -11.957 c 0.0086,-1.126 0.1554,-2.246 0.4377,-3.342 L 8.4039,90.994401 c -0.2775,1.095 -0.4223,2.213 -0.4317,3.337 V 105.6634 c 0.0165,0.256 0.0983,0.505 0.239,0.728 0.1406,0.222 0.3362,0.411 0.5713,0.553 z"
     fill="#0a0909"
     id="path120" />
  <path
     d="m 34.3986,101.1814 c -0.9127,1.992 -1.4043,4.123 -1.4491,6.28 v 11.941 c -0.0994,-0.002 -0.1984,-0.013 -0.2957,-0.032 0,-0.684 0,-4.515 0,-11.909 0,-8.775999 7.4229,-14.356999 9.4635,-15.066999 -2.6321,1.372 -5.0038,3.869 -6.6659,6.726 -0.3912,0.67 -0.7426,1.357999 -1.0528,2.060999 z"
     fill="#333333"
     id="path122" />
  <path
     opacity="0.4"
     d="m 34.3986,101.1814 c -0.9127,1.992 -1.4043,4.123 -1.4491,6.28 v 11.941 c -0.0994,-0.002 -0.1984,-0.013 -0.2957,-0.032 0,-0.684 0,-4.515 0,-11.909 0,-8.775999 7.4229,-14.356999 9.4635,-15.066999 -2.6321,1.372 -5.0038,3.869 -6.6659,6.726 -0.3912,0.67 -0.7426,1.357999 -1.0528,2.060999 z"
     fill="#0a0909"
     id="path124" />
  <path
     d="m 34.1325,118.0414 c -0.1301,0.07 -0.2425,0 -0.2425,-0.129 v -10.445 c 0.0427,-2.01 0.4939,-3.995 1.3308,-5.855 l 0.0533,-0.113 c 0.3226,-0.737 0.6939,-1.456 1.1119,-2.152999 1.6147,-2.706 3.8031,-4.956 6.169,-6.193 1.0251,-0.588 2.202,-0.92 3.4128,-0.964 0.618,-0.004 1.2276,0.131 1.7744,0.393 1.5969,0.775 2.5314,2.648 2.5314,5.268 V 109.2854 c -0.0052,0.077 -0.0298,0.151 -0.0718,0.217 -0.0421,0.067 -0.1005,0.123 -0.1707,0.166 l 0.3668,0.791 0.0828,-0.043 c 0.1262,-0.085 0.2396,-0.185 0.3371,-0.296 0.2359,-0.267 0.3726,-0.595 0.3904,-0.937 V 97.850401 c 0,-3.029 -1.183,-5.139 -3.0461,-6.032 -1.6147,-0.775 -3.7558,-0.64 -6.098,0.597 -2.632,1.373 -5.0038,3.864 -6.6658,6.732 -0.3863,0.661 -0.7338,1.339999 -1.041,2.033999 -0.9139,1.994 -1.4055,4.126 -1.4491,6.286 v 11.93 h 0.1834 c 0.2358,-0.012 0.4659,-0.071 0.6742,-0.172 z"
     fill="#333333"
     id="path126" />
  <path
     opacity="0.1"
     d="m 34.1325,118.0414 c -0.1301,0.07 -0.2425,0 -0.2425,-0.129 v -10.445 c 0.0427,-2.01 0.4939,-3.995 1.3308,-5.855 l 0.0533,-0.113 c 0.3226,-0.737 0.6939,-1.456 1.1119,-2.152999 1.6147,-2.706 3.8031,-4.956 6.169,-6.193 1.0251,-0.588 2.202,-0.92 3.4128,-0.964 0.618,-0.004 1.2276,0.131 1.7744,0.393 1.5969,0.775 2.5314,2.648 2.5314,5.268 V 109.2854 c -0.0052,0.077 -0.0298,0.151 -0.0718,0.217 -0.0421,0.067 -0.1005,0.123 -0.1707,0.166 l 0.3668,0.791 0.0828,-0.043 c 0.1262,-0.085 0.2396,-0.185 0.3371,-0.296 0.2359,-0.267 0.3726,-0.595 0.3904,-0.937 V 97.850401 c 0,-3.029 -1.183,-5.139 -3.0461,-6.032 -1.6147,-0.775 -3.7558,-0.64 -6.098,0.597 -2.632,1.373 -5.0038,3.864 -6.6658,6.732 -0.3863,0.661 -0.7338,1.339999 -1.041,2.033999 -0.9139,1.994 -1.4055,4.126 -1.4491,6.286 v 11.93 h 0.1834 c 0.2358,-0.012 0.4659,-0.071 0.6742,-0.172 z"
     fill="#0a0909"
     id="path128" />
  <path
     d="m 89.837,87.427401 c 0.027,-0.485 0.181,-0.958 0.448,-1.379 0.268,-0.421 0.641,-0.778 1.09,-1.042 l 75.808,-39.821 c 0.476,-0.2202 1.003,-0.335 1.538,-0.335 0.534,0 1.061,0.1148 1.538,0.335 l 1.733,0.9094 c 0.446,0.2658 0.817,0.6235 1.084,1.0442 0.266,0.4207 0.419,0.8926 0.447,1.3774 V 103.3394 c -0.029,0.485 -0.183,0.956 -0.449,1.377 -0.266,0.42 -0.637,0.778 -1.082,1.045 l -75.815,39.848 c -0.476,0.217 -1.001,0.331 -1.534,0.331 -0.533,0 -1.059,-0.114 -1.535,-0.331 l -1.733,-0.91 c -0.447,-0.266 -0.819,-0.624 -1.086,-1.044 -0.267,-0.421 -0.422,-0.892 -0.452,-1.377 z"
     fill="#333333"
     id="path130" />
  <g
     opacity="0.7"
     id="g134"
     transform="translate(-16,-36.275599)">
    <path
       opacity="0.7"
       d="m 105.837,123.703 c 0.027,-0.485 0.181,-0.958 0.448,-1.379 0.268,-0.421 0.641,-0.778 1.09,-1.042 l 75.808,-39.821 c 0.476,-0.2202 1.003,-0.335 1.538,-0.335 0.534,0 1.061,0.1148 1.538,0.335 l 1.733,0.9094 c 0.446,0.2658 0.817,0.6235 1.084,1.0442 0.266,0.4207 0.419,0.8926 0.447,1.3774 v 54.823 c -0.029,0.485 -0.183,0.956 -0.449,1.377 -0.266,0.42 -0.637,0.778 -1.082,1.045 l -75.815,39.848 c -0.476,0.217 -1.001,0.331 -1.534,0.331 -0.533,0 -1.059,-0.114 -1.535,-0.331 l -1.733,-0.91 c -0.447,-0.266 -0.819,-0.624 -1.086,-1.044 -0.267,-0.421 -0.422,-0.892 -0.452,-1.377 z"
       fill="#fff0d4"
       id="path132" />
  </g>
  <path
     d="m 90.287,86.050401 4.359,2.287 78.428,-41.204 c -0.26,-0.4243 -0.632,-0.7831 -1.082,-1.044 l -1.739,-0.904 c -0.474,-0.2227 -0.999,-0.3389 -1.532,-0.3389 -0.533,0 -1.058,0.1162 -1.532,0.3389 l -75.814,39.821 c -0.456,0.256 -0.831,0.616 -1.088,1.044 z"
     fill="#333333"
     id="path136" />
  <path
     opacity="0.8"
     d="m 90.287,86.050401 4.359,2.287 78.428,-41.204 c -0.26,-0.4243 -0.632,-0.7831 -1.082,-1.044 l -1.739,-0.904 c -0.474,-0.2227 -0.999,-0.3389 -1.532,-0.3389 -0.533,0 -1.058,0.1162 -1.532,0.3389 l -75.814,39.821 c -0.456,0.256 -0.831,0.616 -1.088,1.044 z"
     fill="#fff0d4"
     id="path138" />
  <path
     opacity="0.1"
     d="M 89.837,87.422401 V 142.2454 c 0.027,0.486 0.181,0.959 0.448,1.379 0.268,0.421 0.641,0.779 1.09,1.043 l 1.733,0.915 c 0.134,0.068 0.275,0.125 0.42,0.172 0.206,0.061 0.418,0.104 0.633,0.129 0.403,0.047 0.813,0.034 1.212,-0.038 l 0.302,-0.07 0.189,-0.059 c -0.119,0.043 -0.247,0.063 -0.376,0.059 -0.128,-0.005 -0.254,-0.034 -0.369,-0.086 -0.165,-0.097 -0.297,-0.234 -0.38,-0.396 -0.084,-0.161 -0.116,-0.341 -0.093,-0.519 V 89.951401 c -0.017,-0.249 0.051,-0.496 0.194,-0.708 0.143,-0.213 0.354,-0.381 0.604,-0.481 l -0.798,-0.425 -4.36,-2.287 c -0.275,0.415 -0.43,0.887 -0.449,1.372 z"
     fill="#333333"
     id="path140" />
  <path
     opacity="0.05"
     d="M 89.837,87.422401 V 142.2454 c 0.027,0.486 0.181,0.959 0.448,1.379 0.268,0.421 0.641,0.779 1.09,1.043 l 1.733,0.915 c 0.134,0.068 0.275,0.125 0.42,0.172 0.206,0.061 0.418,0.104 0.633,0.129 0.403,0.047 0.813,0.034 1.212,-0.038 l 0.302,-0.07 0.189,-0.059 c -0.119,0.043 -0.247,0.063 -0.376,0.059 -0.128,-0.005 -0.254,-0.034 -0.369,-0.086 -0.165,-0.097 -0.297,-0.234 -0.38,-0.396 -0.084,-0.161 -0.116,-0.341 -0.093,-0.519 V 89.951401 c -0.017,-0.249 0.051,-0.496 0.194,-0.708 0.143,-0.213 0.354,-0.381 0.604,-0.481 l -0.798,-0.425 -4.36,-2.287 c -0.275,0.415 -0.43,0.887 -0.449,1.372 z"
     fill="#0a0909"
     id="path142" />
  <path
     opacity="0.2"
     d="M 94.645,88.337401 131.05,100.7144 c 1.26,0.428 2.642,0.453 3.92,0.071 1.277,-0.383 2.373,-1.149999 3.107,-2.174999 l 5.843,-8.153 29.154,-43.3236 -27.988,43.6256 28.437,12.596999 c -0.026,0.496 -0.191,0.977 -0.479,1.399 l -28.047,-13.861999 -6.79,9.890999 c -0.754,1.099 -1.919,1.914 -3.281,2.294 -1.361,0.381 -2.828,0.302 -4.13,-0.222 l -4.844,-1.943 -30.845,44.777 c -0.165,-0.097 -0.297,-0.235 -0.38,-0.396 -0.084,-0.162 -0.116,-0.342 -0.093,-0.519 v -0.915 l 31.164,-43.006 z"
     fill="#333333"
     id="path144" />
  <path
     opacity="0.05"
     d="M 94.645,88.337401 131.05,100.7144 c 1.26,0.428 2.642,0.453 3.92,0.071 1.277,-0.383 2.373,-1.149999 3.107,-2.174999 l 5.843,-8.153 29.154,-43.3236 -27.988,43.6256 28.437,12.596999 c -0.026,0.496 -0.191,0.977 -0.479,1.399 l -28.047,-13.861999 -6.79,9.890999 c -0.754,1.099 -1.919,1.914 -3.281,2.294 -1.361,0.381 -2.828,0.302 -4.13,-0.222 l -4.844,-1.943 -30.845,44.777 c -0.165,-0.097 -0.297,-0.235 -0.38,-0.396 -0.084,-0.162 -0.116,-0.342 -0.093,-0.519 v -0.915 l 31.164,-43.006 z"
     fill="#0a0909"
     id="path146" />
  <path
     d="m 109.06,97.533401 c 0.028,-0.484 0.181,-0.956 0.448,-1.377 0.266,-0.421 0.637,-0.778 1.084,-1.044 l 75.814,-39.8208 c 0.475,-0.2202 1.001,-0.335 1.535,-0.335 0.533,0 1.059,0.1148 1.534,0.335 l 1.733,0.9094 c 0.448,0.2651 0.821,0.6226 1.088,1.0433 0.267,0.4208 0.421,0.893 0.45,1.3782 V 113.4464 c -0.03,0.485 -0.184,0.956 -0.451,1.377 -0.268,0.421 -0.64,0.778 -1.087,1.044 l -75.808,39.821 c -0.477,0.218 -1.004,0.331 -1.538,0.331 -0.534,0 -1.06,-0.113 -1.537,-0.331 l -1.751,-0.931 c -0.445,-0.267 -0.815,-0.626 -1.081,-1.046 -0.266,-0.42 -0.42,-0.891 -0.451,-1.376 z"
     fill="#333333"
     id="path148" />
  <g
     opacity="0.5"
     id="g152"
     transform="translate(-16,-36.275599)">
    <path
       opacity="0.5"
       d="m 125.06,133.809 c 0.028,-0.484 0.181,-0.956 0.448,-1.377 0.266,-0.421 0.637,-0.778 1.084,-1.044 l 75.814,-39.8208 c 0.475,-0.2202 1.001,-0.335 1.535,-0.335 0.533,0 1.059,0.1148 1.534,0.335 l 1.733,0.9094 c 0.448,0.2651 0.821,0.6226 1.088,1.0433 0.267,0.4208 0.421,0.893 0.45,1.3782 v 54.8239 c -0.03,0.485 -0.184,0.956 -0.451,1.377 -0.268,0.421 -0.64,0.778 -1.087,1.044 L 131.4,191.964 c -0.477,0.218 -1.004,0.331 -1.538,0.331 -0.534,0 -1.06,-0.113 -1.537,-0.331 l -1.751,-0.931 c -0.445,-0.267 -0.815,-0.626 -1.081,-1.046 -0.266,-0.42 -0.42,-0.891 -0.451,-1.376 z"
       fill="#fff0d4"
       id="path150" />
  </g>
  <path
     d="m 109.503,96.156401 4.365,2.287 78.429,-41.1984 c -0.26,-0.4243 -0.632,-0.7831 -1.083,-1.0439 l -1.738,-0.9041 c -0.475,-0.2227 -1.001,-0.339 -1.535,-0.339 -0.534,0 -1.061,0.1163 -1.535,0.339 l -75.832,39.8154 c -0.449,0.259 -0.818,0.618 -1.071,1.044 z"
     fill="#333333"
     id="path154" />
  <path
     opacity="0.6"
     d="m 109.503,96.156401 4.365,2.287 78.429,-41.1984 c -0.26,-0.4243 -0.632,-0.7831 -1.083,-1.0439 l -1.738,-0.9041 c -0.475,-0.2227 -1.001,-0.339 -1.535,-0.339 -0.534,0 -1.061,0.1163 -1.535,0.339 l -75.832,39.8154 c -0.449,0.259 -0.818,0.618 -1.071,1.044 z"
     fill="#fff0d4"
     id="path156" />
  <path
     opacity="0.1"
     d="M 109.054,97.527401 V 152.3504 c 0.028,0.481 0.181,0.95 0.445,1.368 0.264,0.417 0.632,0.773 1.075,1.038 l 1.727,0.914 c 0.136,0.069 0.279,0.126 0.426,0.173 0.206,0.061 0.417,0.105 0.633,0.129 0.403,0.046 0.813,0.034 1.212,-0.038 l 0.296,-0.075 c 0.063,-0.016 0.125,-0.038 0.183,-0.065 -0.115,0.046 -0.24,0.07 -0.367,0.07 -0.126,0 -0.251,-0.024 -0.366,-0.07 -0.165,-0.099 -0.296,-0.237 -0.379,-0.399 -0.084,-0.163 -0.116,-0.343 -0.094,-0.521 v -54.818 c -0.016,-0.248999 0.051,-0.495999 0.194,-0.707999 0.143,-0.213 0.354,-0.381 0.604,-0.481 l -0.798,-0.425 -4.365,-2.287 c -0.265,0.418 -0.412,0.889 -0.426,1.372 z"
     fill="#0a0909"
     id="path158" />
  <path
     opacity="0.4"
     d="m 113.868,98.443401 36.405,12.375999 c 1.26,0.429 2.642,0.453 3.92,0.071 1.277,-0.382 2.373,-1.15 3.107,-2.175 l 5.849,-8.147 29.154,-43.323699 -27.988,43.624699 28.437,12.598 c -0.027,0.496 -0.191,0.977 -0.479,1.399 l -28.053,-13.867 -6.796,9.89 c -0.754,1.098 -1.918,1.912 -3.278,2.293 -1.36,0.38 -2.825,0.302 -4.127,-0.221 l -4.838,-1.943 -30.839,44.783 c -0.165,-0.099 -0.296,-0.238 -0.379,-0.4 -0.084,-0.162 -0.116,-0.343 -0.095,-0.521 v -0.914 l 31.165,-43.007 z"
     fill="#333333"
     id="path160" />
  <path
     opacity="0.05"
     d="m 113.868,98.443401 36.405,12.375999 c 1.26,0.429 2.642,0.453 3.92,0.071 1.277,-0.382 2.373,-1.15 3.107,-2.175 l 5.849,-8.147 29.154,-43.323699 -27.988,43.624699 28.437,12.598 c -0.027,0.496 -0.191,0.977 -0.479,1.399 l -28.053,-13.867 -6.796,9.89 c -0.754,1.098 -1.918,1.912 -3.278,2.293 -1.36,0.38 -2.825,0.302 -4.127,-0.221 l -4.838,-1.943 -30.839,44.783 c -0.165,-0.099 -0.296,-0.238 -0.379,-0.4 -0.084,-0.162 -0.116,-0.343 -0.095,-0.521 v -0.914 l 31.165,-43.007 z"
     fill="#0a0909"
     id="path162" />
  <path
     d="m 128.436,108.0794 78.89,-41.434999 3.158,1.658 c 0.431,0.256 0.79,0.601 1.048,1.007 0.257,0.406 0.407,0.86 0.437,1.328 V 123.5884 c -0.029,0.468 -0.178,0.923 -0.436,1.329 -0.258,0.406 -0.617,0.75 -1.049,1.006 l -75.92,39.875 c -0.459,0.21 -0.965,0.32 -1.479,0.32 -0.514,0 -1.02,-0.11 -1.479,-0.32 l -1.674,-0.877 c -0.43,-0.257 -0.789,-0.602 -1.047,-1.007 -0.258,-0.406 -0.408,-0.861 -0.437,-1.329 z"
     fill="#333333"
     id="path164" />
  <path
     opacity="0.2"
     d="m 128.436,108.0794 78.89,-41.434999 3.158,1.658 c 0.431,0.256 0.79,0.601 1.048,1.007 0.257,0.406 0.407,0.86 0.437,1.328 V 123.5884 c -0.029,0.468 -0.178,0.923 -0.436,1.329 -0.258,0.406 -0.617,0.75 -1.049,1.006 l -75.92,39.875 c -0.459,0.21 -0.965,0.32 -1.479,0.32 -0.514,0 -1.02,-0.11 -1.479,-0.32 l -1.674,-0.877 c -0.43,-0.257 -0.789,-0.602 -1.047,-1.007 -0.258,-0.406 -0.408,-0.861 -0.437,-1.329 z"
     fill="#0a0909"
     id="path166" />
  <path
     d="m 206.894,61.984601 0.319,-0.1614 -1.224,-0.6458 c -0.103,-0.0563 -0.212,-0.1032 -0.325,-0.1399 l -34.719,-11.7094 c -0.478,-0.1417 -0.993,-0.1432 -1.471,-0.0041 -0.479,0.1391 -0.898,0.4116 -1.197,0.779 L 129.442,101.7034 c -0.608,0.888 -0.954,1.903 -1.006,2.949 v 3.422 l 1.183,0.64 77.683,-42.074999 v -3.4279 c -0.006,-0.4357 -0.148,-0.861 -0.408,-1.2269 z"
     fill="#333333"
     id="path168" />
  <path
     opacity="0.1"
     d="m 169.886,50.361301 c -0.155,0.1101 -0.29,0.2407 -0.402,0.3874 L 130.642,102.3484 c -0.319,0.457 -0.562,0.954 -0.721,1.475 l -1.183,-0.635 c 0.087,-0.266 0.192,-0.526 0.313,-0.78 0.054,-0.108 0.107,-0.21 0.166,-0.312 l 0.029,-0.049 c 0.062,-0.108 0.131,-0.212 0.207,-0.312 l 38.836,-51.600099 c 0.059,-0.0765 0.124,-0.1485 0.195,-0.2153 l 0.207,-0.1722 z"
     fill="#0a0909"
     id="path170" />
  <path
     opacity="0.35"
     d="m 207.202,61.818101 c -0.105,-0.0581 -0.216,-0.1067 -0.332,-0.1453 l -34.725,-11.7094 c -0.381,-0.1155 -0.789,-0.1406 -1.184,-0.0728 -0.396,0.0678 -0.766,0.2262 -1.075,0.4602 l -1.183,-0.6349 c 0.312,-0.2319 0.683,-0.3888 1.078,-0.4565 0.396,-0.0677 0.804,-0.044 1.187,0.069 l 34.719,11.7041 c 0.114,0.0385 0.223,0.0872 0.326,0.1453 z"
     fill="#56ccf2"
     id="path172" />
  <path
     d="m 129.234,102.0204 c 0.063,-0.107 0.132,-0.211 0.207,-0.312 -0.075,0.101 -0.144,0.205 -0.207,0.312 z"
     fill="#333333"
     id="path174" />
  <path
     d="m 168.472,49.887301 0.207,-0.1722 z"
     fill="#333333"
     id="path176" />
  <path
     d="m 128.714,103.1774 c 0.087,-0.265 0.192,-0.526 0.313,-0.78 -0.121,0.254 -0.226,0.515 -0.313,0.78 z"
     fill="#333333"
     id="path178" />
  <path
     d="m 129.039,102.3754 c 0.053,-0.107 0.107,-0.209 0.166,-0.312 -0.059,0.103 -0.113,0.205 -0.166,0.312 z"
     fill="#333333"
     id="path180" />
  <path
     opacity="0.2"
     d="m 129.205,102.0634 c 0.008,-0.017 0.017,-0.033 0.029,-0.048 -0.012,0.015 -0.021,0.031 -0.029,0.048 z"
     fill="#0a0909"
     id="path182" />
  <path
     opacity="0.2"
     d="m 168.277,50.103501 c 0.06,-0.0754 0.126,-0.1473 0.196,-0.2153 -0.073,0.0657 -0.139,0.1378 -0.196,0.2153 z"
     fill="#0a0909"
     id="path184" />
  <path
     d="M 169.484,50.738501 130.642,102.3384 c -0.603,0.89 -0.947,1.905 -0.999,2.949 v 3.428 l 78.889,-41.434999 v -3.423 c -0.028,-0.4639 -0.198,-0.9117 -0.492,-1.2922 -0.294,-0.3805 -0.699,-0.6784 -1.17,-0.8599 l -34.725,-11.7363 c -0.476,-0.1453 -0.99,-0.149 -1.469,-0.0107 -0.478,0.1383 -0.896,0.4116 -1.192,0.7802 z"
     fill="#333333"
     id="path186" />
  <path
     opacity="0.05"
     d="m 208.532,63.847401 c -0.016,-0.4294 -0.161,-0.8464 -0.42,-1.2055 L 129.921,103.8134 c -0.167,0.474 -0.258,0.966 -0.273,1.464 v 3.427 l 78.89,-41.434999 z"
     fill="#0a0909"
     id="path188" />
  <path
     d="m 205.161,49.285701 c 0.016,-0.1437 -0.01,-0.2887 -0.074,-0.4208 -0.064,-0.132 -0.165,-0.2466 -0.293,-0.3326 l -2.413,-1.2645 c -0.146,-0.0597 -0.306,-0.0831 -0.465,-0.068 -0.159,0.0151 -0.311,0.0683 -0.44,0.1541 l -64.706,34.0035 c -0.374,0.221 -0.685,0.519 -0.908,0.869 -0.223,0.351 -0.351,0.744 -0.376,1.149 V 153.8684 c -0.017,0.145 0.008,0.291 0.074,0.423 0.065,0.133 0.169,0.247 0.299,0.331 l 2.401,1.264 c 0.146,0.06 0.306,0.083 0.465,0.069 0.158,-0.014 0.31,-0.065 0.44,-0.149 l 64.719,-33.982 c 0.371,-0.222 0.681,-0.52 0.902,-0.871 0.222,-0.35 0.351,-0.744 0.375,-1.147 z"
     fill="#f0f0f0"
     id="path190" />
  <path
     d="m 139.171,155.8324 64.712,-34.009 c 0.372,-0.222 0.681,-0.52 0.903,-0.871 0.222,-0.35 0.351,-0.743 0.375,-1.147 V 49.284801 c 0,-0.7426 -0.591,-1.044 -1.278,-0.6727 l -64.712,34.0033 c -0.372,0.222 -0.681,0.52 -0.903,0.871 -0.222,0.35 -0.35,0.743 -0.374,1.147 V 155.1274 c 0,0.758 0.573,1.06 1.277,0.705 z"
     fill="#fffaf0"
     id="path192" />
  <path
     d="m 180.644,89.105401 c -0.061,0.797 -0.224,1.584 -0.485,2.346 -0.233,0.685 -0.546,1.346 -0.934,1.97 -0.336,0.546 -0.745,1.052 -1.218,1.507 -0.392,0.379 -0.85,0.697 -1.355,0.941 -0.55,0.329 -1.209,0.473 -1.863,0.409 -0.381,-0.071 -0.722,-0.262 -0.964,-0.538 -0.142,0.28 -0.29,0.56 -0.444,0.84 -0.165,0.298 -0.363,0.581 -0.591,0.844 -0.256,0.3 -0.547,0.573 -0.87,0.813 -0.39,0.295 -0.817,0.548 -1.271,0.753 -0.485,0.261 -1.052,0.363 -1.609,0.291 -0.489,-0.1 -0.915,-0.373 -1.183,-0.759 -0.367,-0.519 -0.611,-1.102 -0.716,-1.711 -0.156,-0.85 -0.21,-1.712 -0.159,-2.572 0.039,-0.948 0.168,-1.892 0.384,-2.82 0.197,-0.835 0.48,-1.651 0.846,-2.438 0.322,-0.689 0.748,-1.333 1.266,-1.915 0.446,-0.512 1.003,-0.933 1.638,-1.238 0.211,-0.135 0.449,-0.23 0.701,-0.279 0.252,-0.049 0.513,-0.051 0.766,-0.006 0.323,0.131 0.589,0.356 0.757,0.64 v -0.29 c 0.013,-0.246 0.088,-0.485 0.219,-0.7 0.102,-0.198 0.267,-0.365 0.473,-0.479 l 1.266,-0.587 c 0.068,-0.041 0.151,-0.059 0.233,-0.052 0.082,0.008 0.158,0.042 0.216,0.096 0.068,0.074 0.118,0.16 0.148,0.252 0.029,0.093 0.037,0.19 0.024,0.286 l -0.284,6.839 c -0.024,0.517 0.083,0.856 0.319,1.017 0.125,0.078 0.272,0.12 0.423,0.12 0.151,0 0.299,-0.042 0.423,-0.12 0.371,-0.191 0.67,-0.48 0.858,-0.829 0.284,-0.515 0.444,-1.08 0.467,-1.657 0.059,-0.597 0.1,-1.211 0.13,-1.846 0.03,-0.635 0.03,-1.221 0,-1.759 -0.015,-0.966 -0.174,-1.926 -0.473,-2.852 -0.186,-0.654 -0.601,-1.234 -1.183,-1.652 -0.582,-0.355 -1.29,-0.496 -1.982,-0.393 -1.012,0.144 -1.989,0.448 -2.886,0.898 -0.945,0.445 -1.808,1.023 -2.555,1.712 -0.767,0.716 -1.434,1.514 -1.987,2.378 -0.574,0.912 -1.038,1.877 -1.384,2.879 -0.364,1.034 -0.619,2.097 -0.763,3.175 -0.042,0.296 -0.077,0.673 -0.107,1.141 -0.029,0.468 -0.053,0.952 -0.077,1.458 -0.023,0.506 -0.041,0.996 -0.053,1.469 -0.012,0.474 0,0.845 0,1.13 0.026,0.869 0.198,1.729 0.509,2.550999 0.224,0.636 0.633,1.205 1.183,1.647 0.521,0.393 1.18,0.603 1.857,0.591 0.878,-0.026 1.737,-0.246 2.502,-0.64 0.6,-0.276 1.179,-0.589 1.733,-0.936 0.456,-0.288 0.889,-0.604 1.295,-0.947 0.339,-0.295999 0.659,-0.607999 0.958,-0.936999 0.266,-0.306 0.509,-0.602 0.728,-0.893 0.219,-0.29 0.331,-0.447 0.443,-0.57 0.115,-0.134 0.263,-0.241 0.432,-0.312 l 1.774,-0.84 c 0.067,-0.045 0.148,-0.07 0.231,-0.07 0.083,0 0.164,0.025 0.231,0.07 0.13,0.097 0.183,0.285 0.154,0.576 -0.02,0.19 -0.085,0.373 -0.19,0.538 -0.36,0.608 -0.769,1.254 -1.218,1.926 -0.471,0.699999 -1.005,1.361999 -1.597,1.980999 -0.668,0.687 -1.398,1.323 -2.183,1.899 -0.916,0.668 -1.907,1.245 -2.957,1.722 -1.121,0.588 -2.391,0.902 -3.685,0.91 -0.971,-0.026 -1.899,-0.37 -2.614,-0.969 -0.754,-0.679 -1.302,-1.525 -1.591,-2.454 -0.384,-1.146 -0.583,-2.337 -0.592,-3.534999 0,-0.291 0,-0.689 0,-1.195 0,-0.5 0.03,-1.028 0.054,-1.576 0.023,-0.549 0.053,-1.077 0.083,-1.572 0.029,-0.495 0.059,-0.893 0.088,-1.178 0.149,-1.427 0.454,-2.837 0.911,-4.208 0.462,-1.422 1.093,-2.793 1.881,-4.09 0.779,-1.287 1.733,-2.481 2.839,-3.552 1.079,-1.058 2.354,-1.936 3.768,-2.593 1.275,-0.669 2.701,-1.063 4.169,-1.152 1.003,-0.036 1.983,0.277 2.739,0.877 0.758,0.682 1.282,1.549 1.508,2.497 0.331,1.206 0.506,2.443 0.521,3.686 0,0.538 0,1.189 -0.042,1.932 -0.041,0.743 -0.029,1.485 -0.083,2.104 z m -11.107,3.939 c -0.103,0.762 0.019,1.535 0.355,2.239 0.278,0.441 0.703,0.538 1.271,0.263 0.646,-0.325 1.141,-0.853 1.39,-1.485 0.357,-0.86 0.546,-1.771 0.556,-2.69 0.099,-0.768 -0.019,-1.546 -0.343,-2.261 -0.272,-0.452 -0.71,-0.538 -1.307,-0.258 -0.635,0.334 -1.116,0.865 -1.354,1.496 -0.357,0.855 -0.549,1.76 -0.568,2.675 z"
     fill="#56ccf2"
     id="path194" />
  <path
     d="m 137.888,155.1444 c -0.012,0.131 0.009,0.263 0.061,0.386 0.053,0.123 0.135,0.234 0.24,0.324 l -2.324,-1.216 c -0.132,-0.083 -0.236,-0.197 -0.303,-0.33 -0.066,-0.132 -0.092,-0.278 -0.076,-0.423 V 83.391401 c 0.015,-0.405 0.146,-0.8 0.379,-1.146 l 2.401,1.259 c -0.233,0.348 -0.364,0.745 -0.378,1.152 z"
     fill="#e0e0e0"
     id="path196" />
  <path
     d="m 209.97,124.2874 c -0.024,0.039 -0.052,0.075 -0.083,0.108 l -32.88,-9.46 c -1.248,-0.501 -2.653,-0.576 -3.957,-0.21 -1.304,0.366 -2.419,1.147 -3.14,2.201 l -35.151,47.516 -1.301,0.683 c -0.145,0.092 -0.313,0.15 -0.489,0.168 -0.175,0.017 -0.353,-0.005 -0.517,-0.066 l 36.145,-48.968 c 0.723,-1.052 1.838,-1.831 3.141,-2.198 1.303,-0.366 2.707,-0.295 3.956,0.201 z"
     fill="#333333"
     id="path198" />
  <path
     opacity="0.4"
     d="m 166.668,121.5644 0.083,-0.064 -31.992,42.942 -1.301,0.683 c -0.146,0.091 -0.314,0.148 -0.489,0.165 -0.175,0.018 -0.353,-0.003 -0.517,-0.063 l 32.951,-44.373 z"
     fill="#56ccf2"
     id="path200" />
  <path
     opacity="0.4"
     d="m 209.97,124.2884 c -0.024,0.038 -0.052,0.074 -0.083,0.107 l -32.88,-9.46 c -1.248,-0.502 -2.653,-0.577 -3.958,-0.212 -1.304,0.366 -2.419,1.149 -3.139,2.203 l -1.302,-0.689 c 0.725,-1.05 1.841,-1.828 3.144,-2.191 1.303,-0.364 2.707,-0.289 3.954,0.211 z"
     fill="#56ccf2"
     id="path202" />
  <path
     d="m 211.939,70.298401 c -0.071,-0.387 -0.296,-0.495 -0.591,-0.312 -0.147,0.1 -0.274,0.219 -0.379,0.355 l -0.166,0.21 -32.442,44.868999 -4.844,6.14 c -0.311,0.357 -0.725,0.631 -1.195,0.791 -0.47,0.16 -0.979,0.201 -1.472,0.118 l -4.182,-0.904 -31.939,-10.687 c -0.215,-0.04 -0.436,-0.04 -0.651,0 -0.083,0.015 -0.164,0.039 -0.242,0.07 l 1.183,-0.635 30.602,10.224 4.028,1.308 c 0.494,0.084 1.003,0.044 1.473,-0.116 0.471,-0.161 0.884,-0.435 1.195,-0.794 l 4.844,-6.134 32.601,-45.077999 c 0.1,-0.123 0.224,-0.227 0.367,-0.307 l -2.821,-1.48 1.183,-0.619 1.952,1.023 c 0.38,0.219 0.708,0.505 0.965,0.842 0.257,0.336 0.437,0.716 0.531,1.116 z"
     fill="#333333"
     id="path204" />
  <path
     opacity="0.4"
     d="m 178.362,115.4194 -4.844,6.14 c -0.312,0.358 -0.725,0.632 -1.195,0.792 -0.47,0.16 -0.979,0.201 -1.473,0.118 l -4.182,-0.904 0.083,-0.065 0.201,-0.291 2.739,0.592 c 0.493,0.085 1.003,0.045 1.473,-0.116 0.47,-0.16 0.883,-0.434 1.194,-0.793 l 4.797,-6.07 z"
     fill="#56ccf2"
     id="path206" />
  <path
     opacity="0.1"
     d="m 210.484,68.291401 -1.951,-1.023 -1.183,0.619 2.821,1.48 c -0.144,0.079 -0.269,0.183 -0.367,0.307 l -32.601,45.077999 -0.048,0.059 1.183,0.597 32.442,-44.872999 0.166,-0.21 c 0.104,-0.136 0.232,-0.256 0.378,-0.355 0.29,-0.183 0.515,-0.076 0.592,0.312 -0.082,-0.402 -0.25,-0.785 -0.496,-1.127 -0.246,-0.341 -0.564,-0.635 -0.936,-0.864 z"
     fill="#0a0909"
     id="path208" />
  <path
     d="m 135.415,111.7344 -6.961,-3.654 v 54.506 c 0.029,0.468 0.179,0.923 0.437,1.328 0.258,0.406 0.616,0.751 1.047,1.007 l 1.674,0.877 c 0.459,0.211 0.965,0.321 1.479,0.321 0.513,0 1.02,-0.11 1.478,-0.321 l 0.834,-0.435 z"
     fill="#333333"
     id="path210" />
  <path
     opacity="0.15"
     d="m 135.415,111.7344 -6.961,-3.654 v 54.506 c 0.029,0.468 0.179,0.923 0.437,1.328 0.258,0.406 0.616,0.751 1.047,1.007 l 1.674,0.877 c 0.459,0.211 0.965,0.321 1.479,0.321 0.513,0 1.02,-0.11 1.478,-0.321 l 0.834,-0.435 z"
     fill="#0a0909"
     id="path212" />
  <path
     d="M 211.969,70.637401 V 123.5824 c -0.019,0.485 -0.178,0.956 -0.461,1.367 -0.221,0.347 -0.517,0.649 -0.87,0.888 l -0.059,0.027 c -0.03,0.021 -0.062,0.041 -0.095,0.059 l -75.92,39.874 c -0.145,0.094 -0.314,0.153 -0.491,0.172 -0.177,0.019 -0.356,-0.003 -0.521,-0.064 -0.126,-0.067 -0.232,-0.16 -0.309,-0.273 -0.077,-0.112 -0.123,-0.24 -0.134,-0.373 -0.007,-0.08 -0.007,-0.161 0,-0.242 v -52.951 c -0.013,-0.189 0.024,-0.379 0.109,-0.552 0.086,-0.174 0.216,-0.326 0.38,-0.443 0.164,-0.118 0.357,-0.197 0.562,-0.232 0.206,-0.035 0.417,-0.023 0.617,0.033 l 31.939,10.687 4.181,0.904 c 0.494,0.083 1.003,0.042 1.473,-0.118 0.47,-0.16 0.883,-0.434 1.195,-0.792 l 4.844,-6.14 32.442,-44.867999 0.166,-0.21 c 0.502,-0.688 0.952,-0.559 0.952,0.302 z"
     fill="#333333"
     id="path214" />
  <path
     d="m 210.484,125.9234 0.101,-0.059 0.053,-0.033 c 0.354,-0.235 0.651,-0.536 0.87,-0.882 0.279,-0.404 0.438,-0.868 0.461,-1.345 l -33.601,-8.18 22.475,15.546 z"
     fill="#333333"
     id="path216" />
  <path
     opacity="0.2"
     d="m 210.484,125.9234 0.101,-0.059 0.053,-0.033 c 0.354,-0.235 0.651,-0.536 0.87,-0.882 0.279,-0.404 0.438,-0.868 0.461,-1.345 l -33.601,-8.18 22.475,15.546 z"
     fill="#0a0909"
     id="path218" />
  <path
     d="m 133.079,165.0174 c -0.022,0.173 0.01,0.347 0.091,0.504 0.082,0.157 0.21,0.29 0.37,0.384 0.165,0.062 0.344,0.086 0.52,0.068 0.177,-0.018 0.346,-0.077 0.492,-0.17 l 26.148,-13.738 5.974,-30.506 -33.595,42.576 z"
     fill="#333333"
     id="path220" />
  <path
     opacity="0.15"
     d="m 169.892,116.8944 -36.352,49.011 c -0.16,-0.094 -0.288,-0.227 -0.37,-0.384 -0.081,-0.157 -0.113,-0.331 -0.091,-0.503 v -0.878 l 35.488,-47.892 z"
     fill="#0a0909"
     id="path222" />
  <path
     d="m 211.507,124.9494 c -0.219,0.347 -0.515,0.647 -0.869,0.883 l -0.053,0.032 -76.021,39.934 c -0.146,0.093 -0.315,0.152 -0.492,0.17 -0.176,0.018 -0.355,-0.006 -0.52,-0.068 l 36.358,-49.017 c 0.728,-1.059 1.851,-1.844 3.163,-2.21 1.312,-0.367 2.726,-0.291 3.982,0.214 z"
     fill="#333333"
     id="path224" />
  <path
     opacity="0.15"
     d="m 128.714,103.1774 1.183,0.635 c -0.168,0.477 -0.261,0.973 -0.278,1.474 v 3.423 l -1.183,-0.635 v -3.428 c 0.017,-0.499 0.111,-0.994 0.278,-1.469 z"
     fill="#0a0909"
     id="path226" />
  <path
     d="m 135.06,110.2914 -1.206,0.635 -1.219,-0.641 -2.998,-1.571 1.165,-0.629 z"
     fill="#333333"
     id="path228" />
  <path
     opacity="0.1"
     d="m 135.113,110.3124 -4.311,-2.227 -1.183,0.629 2.998,1.571 1.219,0.641 0.23,-0.065 c 0.215,-0.04 0.436,-0.04 0.651,0 l 2.472,0.845 27.864,9.336 0.438,-0.586 z"
     fill="#0a0909"
     id="path230" />
  <path
     d="m 69.7627,18.650001 -4.5069,2.3677 c 0.0232,-0.1786 0.035,-0.3583 0.0355,-0.5381 v -1.1839 c 0,-2.1148 -1.6325,-2.9704 -3.6435,-1.9157 -0.8629,0.4866 -1.6027,1.134 -2.1706,1.8996 -0.3254,-2.6583 -2.6202,-3.6485 -5.406,-2.1848 -3.0047,1.5821 -5.4474,5.4242 -5.4474,8.6099 v 1.7758 c -0.0195,0.7099 0.1383,1.4145 0.4613,2.061 l -3.744,1.9641 c -0.5871,0.35 -1.0756,0.8207 -1.4259,1.3741 -0.3504,0.5533 -0.5528,1.1739 -0.591,1.8116 0,1.1731 0.905,1.6466 2.0169,1.0762 l 24.4216,-12.8503 c 0.587,-0.3488 1.0755,-0.8185 1.4259,-1.371 0.3504,-0.5525 0.5529,-1.1723 0.591,-1.8092 0.0178,-1.1946 -0.8872,-1.6628 -2.0169,-1.087 z"
     fill="#828282"
     id="path232" />
  <path
     d="m 47.9612,5.1588014 -5.5479,2.9112 c 0.0303,-0.2214 0.0461,-0.4442 0.0473,-0.6673 v -1.4852 c 0,-2.5991 -2.0051,-3.6538 -4.4833,-2.3515 -1.0647,0.5953 -1.9764,1.3917 -2.6734,2.3354 -0.4022,-3.2718 -3.2235,-4.4879 -6.654,-2.6906 -3.7026,1.948 -6.7073,6.6834 -6.7073,10.5578996 v 2.1847 c -0.0166,0.8748 0.1857,1.7415 0.5915,2.5346 l -4.6075,2.4215 c -0.7241,0.4291 -1.3269,1.0074 -1.7595,1.688 -0.4327,0.6807 -0.6829,1.4445 -0.7306,2.2295 0,1.4475 1.1179,2.0287 2.4901,1.3076 l 30.0583,-15.7884 c 0.7251,-0.4280996 1.3287,-1.0061996 1.7614,-1.6869996 0.4328,-0.6808 0.6824,-1.4451 0.7287,-2.2304 -0.0237,-1.4314 -1.1356,-2.0126 -2.5138,-1.27 z"
     fill="#828282"
     id="path234" />
  <path
     d="m 223.52,52.363001 20.92,-12.1884 9.221,2.6906 z"
     fill="#333333"
     id="path236" />
  <path
     d="m 223.52,52.362801 18.081,-13.722 -4.016,-4.2189 z"
     fill="#333333"
     id="path238" />
  <path
     d="m 241.601,38.640701 v 3.1856 l -18.081,10.5364 z"
     fill="#333333"
     id="path240" />
  <path
     opacity="0.25"
     d="m 241.601,38.640701 v 3.1856 l -18.081,10.5364 z"
     fill="#0a0909"
     id="path242" />
  <path
     d="m 244.618,38.377401 c -0.089,0 -0.177,-0.0244 -0.25,-0.0701 -0.074,-0.0457 -0.131,-0.1105 -0.163,-0.1861 -0.033,-0.0755 -0.04,-0.1582 -0.02,-0.2373 0.02,-0.0791 0.066,-0.1509 0.131,-0.206 0.62,-0.5215 1.192,-1.0885 1.709,-1.6951 0.034,-0.0451 0.078,-0.0834 0.129,-0.1127 0.051,-0.0292 0.108,-0.0487 0.167,-0.0573 0.06,-0.0086 0.12,-0.0061 0.179,0.0073 0.058,0.0134 0.113,0.0374 0.16,0.0707 0.048,0.0332 0.088,0.0749 0.118,0.1226 0.029,0.0477 0.048,0.1004 0.054,0.1548 0.007,0.0544 0.001,0.1094 -0.017,0.1618 -0.018,0.0523 -0.047,0.1008 -0.086,0.1425 -0.548,0.6432 -1.153,1.2443 -1.81,1.7973 -0.083,0.0679 -0.19,0.1061 -0.301,0.1076 z m 3.33,-4.0197 c -0.07,0.0011 -0.139,-0.0137 -0.201,-0.0431 -0.052,-0.0234 -0.099,-0.056 -0.137,-0.0958 -0.038,-0.0398 -0.066,-0.0861 -0.085,-0.1361 -0.018,-0.0501 -0.025,-0.1029 -0.02,-0.1555 0.004,-0.0525 0.02,-0.1038 0.046,-0.1507 0.517,-0.9369 0.914,-1.9245 1.183,-2.9435 0.028,-0.1042 0.1,-0.1942 0.2,-0.2502 0.1,-0.056 0.221,-0.0734 0.336,-0.0484 0.114,0.0249 0.213,0.0903 0.275,0.1816 0.061,0.0913 0.08,0.2012 0.053,0.3054 -0.279,1.0791 -0.696,2.1248 -1.242,3.1157 -0.038,0.0681 -0.097,0.1251 -0.169,0.1641 -0.072,0.0391 -0.155,0.0587 -0.239,0.0565 z m 1.62,-5.6879 c -0.058,-0.0021 -0.115,-0.0146 -0.168,-0.0368 -0.053,-0.0223 -0.101,-0.0538 -0.14,-0.0928 -0.04,-0.0389 -0.071,-0.0846 -0.091,-0.1344 -0.02,-0.0498 -0.029,-0.1027 -0.027,-0.1557 0,-0.2207 0,-0.4359 0,-0.6512 0,-0.8313 -0.077,-1.6611 -0.23,-2.4807 -0.01,-0.0523 -0.009,-0.1059 0.003,-0.1578 0.013,-0.0519 0.037,-0.1009 0.07,-0.1444 0.034,-0.0435 0.076,-0.0806 0.126,-0.109 0.049,-0.0285 0.104,-0.0479 0.162,-0.057 0.116,-0.0171 0.236,0.0083 0.332,0.0707 0.096,0.0625 0.162,0.1569 0.182,0.263 0.16,0.8641 0.241,1.7389 0.243,2.6152 0,0.226 0,0.4574 0,0.6834 -0.003,0.053 -0.016,0.1051 -0.041,0.1533 -0.024,0.0482 -0.059,0.0915 -0.102,0.1275 -0.043,0.036 -0.093,0.0639 -0.148,0.0822 -0.054,0.0183 -0.112,0.0266 -0.171,0.0245 z m -0.952,-5.8171 c -0.093,0 -0.183,-0.0265 -0.258,-0.0758 -0.076,-0.0492 -0.132,-0.1187 -0.162,-0.1986 -0.382,-0.9921 -0.863,-1.9503 -1.437,-2.8628 -0.051,-0.0923 -0.063,-0.1987 -0.032,-0.2983 0.031,-0.0995 0.101,-0.1851 0.197,-0.2398 0.102,-0.0478 0.219,-0.0589 0.329,-0.0309 0.11,0.028 0.204,0.0929 0.263,0.1816 0.6,0.9567 1.1,1.9619 1.496,3.0027 0.024,0.0513 0.035,0.1066 0.034,0.1622 -0.001,0.0556 -0.015,0.1104 -0.04,0.1609 -0.026,0.0505 -0.063,0.0957 -0.108,0.1327 -0.046,0.037 -0.1,0.065 -0.158,0.0823 -0.044,-0.001 -0.087,-0.0064 -0.13,-0.0162 z m -3.111,-5.1713 c -0.067,-2e-4 -0.134,-0.0143 -0.194,-0.0414 -0.061,-0.027 -0.114,-0.0662 -0.155,-0.1146 -0.71,-0.8352 -1.489,-1.6196 -2.33,-2.3462 -0.055,-0.032 -0.1,-0.0743 -0.135,-0.1239 -0.034,-0.0497 -0.056,-0.1056 -0.064,-0.1638 -0.008,-0.0582 -0.002,-0.1173 0.017,-0.1732 0.02,-0.0559 0.053,-0.1073 0.096,-0.1505 0.044,-0.0432 0.097,-0.0773 0.157,-0.0998 0.059,-0.0225 0.124,-0.033 0.188,-0.0306 0.064,0.0023 0.127,0.0175 0.185,0.0443 0.057,0.0268 0.107,0.0646 0.147,0.1109 0.875,0.7558 1.685,1.5706 2.425,2.4377 0.062,0.083 0.088,0.1841 0.073,0.2836 -0.015,0.0996 -0.071,0.1903 -0.156,0.2545 -0.07,0.0633 -0.162,0.1032 -0.26,0.113 z m -4.631,-4.1327 c -0.096,4e-4 -0.19,-0.028 -0.266,-0.0807 -0.932,-0.6366 -1.906,-1.2206 -2.916,-1.7489 -0.097,-0.0547 -0.167,-0.1407 -0.197,-0.2405 -0.029,-0.0998 -0.016,-0.2062 0.037,-0.2976 0.058,-0.0899 0.153,-0.1554 0.263,-0.1825 0.111,-0.0272 0.229,-0.0138 0.328,0.0372 1.042,0.5443 2.045,1.1464 3.005,1.8027 0.075,0.0508 0.13,0.1216 0.157,0.2025 0.028,0.0808 0.027,0.1676 -0.002,0.248 -0.03,0.0803 -0.086,0.1502 -0.162,0.1997 -0.075,0.0496 -0.166,0.0762 -0.259,0.0762 z m -46.484,-1.5606 c -0.098,7e-4 -0.193,-0.0281 -0.271,-0.082 -0.078,-0.0539 -0.134,-0.1298 -0.16,-0.2158 -0.026,-0.0861 -0.019,-0.1774 0.018,-0.2598 0.037,-0.0824 0.104,-0.1513 0.189,-0.1957 1.029,-0.5382 2.093,-1.044 3.176,-1.5120996 0.053,-0.0228 0.11,-0.0358 0.168,-0.0383 0.059,-0.0026 0.117,0.0053 0.172,0.0233 0.055,0.018 0.105,0.0457 0.148,0.0815 0.044,0.0358 0.079,0.079 0.103,0.1272 0.026,0.0479 0.041,0.1 0.044,0.1532996 0.004,0.0533 -0.005,0.1066 -0.025,0.1568 -0.02,0.0501 -0.051,0.0962 -0.09,0.1354 -0.04,0.0391 -0.088,0.0706 -0.142,0.0926 -1.058,0.4574 -2.105,0.9525 -3.111,1.4798 -0.068,0.0361 -0.146,0.0547 -0.224,0.0538 z m 40.906,-1.4475 c -0.065,10e-4 -0.13,-0.0119 -0.189,-0.0377 -1.053,-0.4628 -2.135,-0.8878996 -3.224,-1.2698996 -0.056,-0.019 -0.108,-0.0482 -0.152,-0.0859 -0.043,-0.0377 -0.078,-0.0831 -0.102,-0.1335 -0.024,-0.0503 -0.036,-0.1045 -0.036,-0.1593 0,-0.0549 0.012,-0.1091 0.036,-0.1594 0.021,-0.0515 0.053,-0.0985 0.094,-0.1383 0.042,-0.0398 0.092,-0.0715 0.147,-0.0931 0.056,-0.0217 0.115,-0.0328 0.175,-0.0328 0.061,0 0.12,0.0111 0.176,0.0328 1.106,0.3874 2.212,0.8233 3.288,1.2968 0.089,0.0407 0.16,0.1074 0.203,0.1893 0.042,0.082 0.052,0.1744996 0.03,0.2625996 -0.023,0.0882 -0.077,0.1669 -0.155,0.2235 -0.077,0.0567 -0.174,0.0879 -0.273,0.0888 z M 200.24,9.4644014 c -0.089,-0.0014 -0.176,-0.0267 -0.25,-0.0726 -0.073,-0.0459 -0.13,-0.1105 -0.164,-0.1857 -0.024,-0.0504 -0.036,-0.1046 -0.036,-0.1594 0,-0.0548 0.012,-0.1091 0.036,-0.1594 0.024,-0.0504 0.059,-0.0958 0.102,-0.1335 0.044,-0.0377 0.096,-0.0669 0.152,-0.0859 1.106,-0.3928 2.248,-0.7533 3.389,-1.0762 0.113,-0.0307 0.235,-0.0193 0.339,0.0317 0.104,0.0509 0.181,0.1373 0.214,0.2401 0.034,0.1027 0.022,0.2135 -0.034,0.3078 -0.056,0.0944 -0.151,0.1646 -0.264,0.1953 -1.118,0.3013 -2.236,0.6565 -3.318,1.0386 -0.053,0.019 -0.109,0.0282 -0.166,0.0269 z m 28.982,-1.0763 c -0.043,0.0077 -0.087,0.0077 -0.13,0 -1.112,-0.3067 -2.254,-0.5758 -3.395,-0.8018 -0.059,-0.0127 -0.114,-0.0358 -0.163,-0.068 -0.049,-0.0321 -0.09,-0.0727 -0.122,-0.1195 -0.064,-0.0943 -0.084,-0.2079 -0.055,-0.3156 0.028,-0.1078 0.102,-0.2009 0.206,-0.2589 0.103,-0.058 0.228,-0.0762 0.347,-0.0505 1.183,0.2314 2.33,0.5058 3.466,0.8233 0.056,0.0154 0.108,0.0407 0.153,0.0745 0.045,0.0338 0.083,0.0754 0.11,0.1224 0.028,0.047 0.045,0.0985 0.05,0.1515 0.006,0.0531 0,0.1065 -0.018,0.1574 -0.028,0.0824 -0.085,0.1544 -0.162,0.2056 -0.076,0.0513 -0.168,0.0791 -0.263,0.0796 z m -22.772,-0.7049 c -0.1,-10e-5 -0.197,-0.0309 -0.275,-0.0876 -0.079,-0.0567 -0.134,-0.1358 -0.156,-0.2245 -0.025,-0.1048 -0.004,-0.2143 0.059,-0.3049 0.063,-0.0906 0.163,-0.155 0.278,-0.1794 1.153,-0.2422 2.336,-0.4467 3.519,-0.6027 0.059,-0.012 0.121,-0.0127 0.181,-0.0022 0.06,0.0106 0.116,0.0323 0.166,0.0637 0.051,0.0314 0.093,0.0718 0.125,0.1188 0.033,0.047 0.054,0.0996 0.063,0.1544 0.009,0.0548 0.005,0.1106 -0.011,0.1641 -0.015,0.0535 -0.043,0.1035 -0.081,0.1468 -0.038,0.0433 -0.085,0.0791 -0.139,0.105 -0.054,0.026 -0.113,0.0415 -0.174,0.0458 -1.183,0.1561 -2.318,0.3552 -3.454,0.5973 z m 16.455,-0.6188 h -0.065 c -1.153,-0.1561 -2.33,-0.2691 -3.496,-0.3391 -0.061,0.0016 -0.123,-0.0087 -0.18,-0.03 -0.057,-0.0213 -0.109,-0.0532 -0.152,-0.0938 -0.042,-0.0405 -0.075,-0.0887 -0.096,-0.1415 -0.022,-0.0528 -0.03,-0.109 -0.026,-0.1651 0.004,-0.0561 0.021,-0.1108 0.05,-0.1605 0.028,-0.0498 0.068,-0.0936 0.116,-0.1285 0.049,-0.035 0.105,-0.0604 0.164,-0.0745 0.06,-0.0142 0.123,-0.0169 0.184,-0.0079 1.182,0.07 2.365,0.183 3.548,0.3391 0.11,0.0163 0.208,0.0693 0.277,0.1485 0.068,0.0792 0.102,0.1789 0.094,0.2794 -0.008,0.1006 -0.058,0.1947 -0.138,0.2639 -0.081,0.0692 -0.187,0.1084 -0.298,0.11 z m -10.008,-0.2906 c -0.117,0.0043 -0.232,-0.0342 -0.318,-0.1068 -0.087,-0.0727 -0.138,-0.1736 -0.143,-0.2807 -0.005,-0.107 0.038,-0.2114 0.117,-0.2901 0.08,-0.0787 0.191,-0.1253 0.309,-0.1296 1.183,-0.0861 2.395,-0.1345 3.584,-0.1345 0.118,0 0.231,0.0425 0.314,0.1182 0.083,0.0757 0.13,0.1783 0.13,0.2854 0,0.107 -0.047,0.2096 -0.13,0.2853 -0.083,0.0757 -0.196,0.1182 -0.314,0.1182 -1.183,0 -2.366,0.0485 -3.513,0.1346 z"
     fill="#e0e0e0"
     id="path244" />
</svg>
