<?xml version="1.0" encoding="UTF-8" standalone="no"?>
<svg
   width="280"
   height="198.461"
   viewBox="0 0 280 198.461"
   fill="none"
   version="1.1"
   id="svg267"
   sodipodi:docname="d1b886ce632c0612d82b7656c6844c3b.svg"
   xmlns:inkscape="http://www.inkscape.org/namespaces/inkscape"
   xmlns:sodipodi="http://sodipodi.sourceforge.net/DTD/sodipodi-0.dtd"
   xmlns="http://www.w3.org/2000/svg"
   xmlns:svg="http://www.w3.org/2000/svg">
  <sodipodi:namedview
     id="namedview269"
     pagecolor="#ffffff"
     bordercolor="#666666"
     borderopacity="1.0"
     inkscape:pageshadow="2"
     inkscape:pageopacity="0.0"
     inkscape:pagecheckerboard="0" />
  <g
     clip-path="url(#clip0_41_1031)"
     id="g260"
     transform="translate(-0.511719)">
    <path
       opacity="0.2"
       d="m 9.35944,127.391 c -2.97804,8.52 -5.21994,17.28 -6.70106,26.184 L 140.515,194.605 Z M 124.554,31.3311 140.515,194.605 156.475,31.3311 Z M 63.8208,54.4454 140.515,194.605 91.1994,39.529 C 81.5329,43.4378 72.3466,48.4427 63.8208,54.4454 Z M 22.1408,99.8501 140.497,194.605 39.3605,76.2659 C 32.8671,83.5485 27.0998,91.4473 22.1408,99.8501 Z m 249.5292,27.5409 -131.155,67.214 137.85,-41.03 c -1.479,-8.903 -3.719,-17.663 -6.695,-26.184 z m -131.155,67.214 h 139.359 c 0.386,-4.224 0.599,-8.496 0.638,-12.816 z m -139.36509,0 H 140.515 L 0.511719,181.789 c 0.046414,4.32 0.259146,8.592 0.638191,12.816 z M 241.663,76.2485 140.515,194.605 258.871,99.8501 C 253.916,91.4479 248.152,83.5491 241.663,76.2659 Z M 189.801,39.529 140.515,194.605 217.179,54.4454 C 208.653,48.4437 199.467,43.4389 189.801,39.529 Z"
       fill="#ffc14a"
       id="path2" />
    <path
       d="m 153.397,65.4703 c -2.01,-1.2992 -2.8,-4.3456 -3.018,-7.5432 -0.132,-2.4306 -0.033,-4.8683 0.297,-7.28 0.061,-0.616 0.151,-1.2096 0.257,-1.7696 0.09,-0.566 0.209,-1.1268 0.359,-1.68 L 133.03,39.6599 c 2.005,3.024 3.534,12.7064 3.108,15.82 -0.465,3.4944 -0.605,8.4 -2.419,9.6656 z"
       fill="#37474f"
       id="path4" />
    <g
       opacity="0.7"
       id="g8">
      <path
         opacity="0.7"
         d="m 153.397,65.4703 c -2.01,-1.2992 -2.8,-4.3456 -3.018,-7.5432 -0.132,-2.4306 -0.033,-4.8683 0.297,-7.28 0.061,-0.616 0.151,-1.2096 0.257,-1.7696 0.09,-0.566 0.209,-1.1268 0.359,-1.68 L 133.03,39.6599 c 2.005,3.024 3.534,12.7064 3.108,15.82 -0.465,3.4944 -0.605,8.4 -2.419,9.6656 z"
         fill="#ffffff"
         id="path6" />
    </g>
    <path
       d="m 133.719,65.1455 c -3.92,2.8 -2.24,7.2016 0.947,10.7968 1.225,1.3787 2.545,2.6716 3.948,3.8696 6.104,5.2248 15.68,3.0072 18.53,-4.508 1.249,-3.332 0.818,-6.9048 -3.746,-9.828 z"
       fill="#06fba3"
       id="path10" />
    <path
       opacity="0.2"
       d="m 150.38,57.9272 c -0.133,-2.4305 -0.033,-4.8682 0.296,-7.28 0.062,-0.616 0.152,-1.2096 0.258,-1.7696 l -14.118,-2.7104 c 2.963,2.9344 7.101,8.9376 13.564,11.76 z"
       fill="#000000"
       id="path12" />
    <path
       d="m 169.005,25.184 c -0.448,3.0352 -4.609,7.9688 -4.407,7.672 0.167,-0.3218 0.226,-0.6891 0.168,-1.0472 -0.091,-1.3665 -0.427,-2.7056 -0.991,-3.9536 -0.353,1.68 -0.891,5.2024 -2.565,5.2304 -0.667,-1.2544 -1.484,-2.3968 -1.367,-3.8192 -0.386,1.456 -0.744,2.9232 -1.12,4.3792 -3.248,-1.9992 -5.303,-6.6136 -4.625,-10.4664 0.146,-0.9344 0.471,-1.8319 0.957,-2.6432 0.602,-0.8854 1.333,-1.6762 2.168,-2.3464 2.122,-1.8592 2.984,-2.7216 5.773,-2.7216 6.087,0 6.457,6.6808 6.009,9.716 z"
       fill="#37474f"
       id="path14" />
    <path
       opacity="0.3"
       d="m 169.005,25.184 c -0.448,3.0352 -4.609,7.9688 -4.407,7.672 0.167,-0.3218 0.226,-0.6891 0.168,-1.0472 -0.091,-1.3665 -0.427,-2.7056 -0.991,-3.9536 -0.353,1.68 -0.891,5.2024 -2.565,5.2304 -0.667,-1.2544 -1.484,-2.3968 -1.367,-3.8192 -0.386,1.456 -0.744,2.9232 -1.12,4.3792 -3.248,-1.9992 -5.303,-6.6136 -4.625,-10.4664 0.146,-0.9344 0.471,-1.8319 0.957,-2.6432 0.602,-0.8854 1.333,-1.6762 2.168,-2.3464 2.122,-1.8592 2.984,-2.7216 5.773,-2.7216 6.087,0 6.457,6.6808 6.009,9.716 z"
       fill="#000000"
       id="path16" />
    <path
       d="m 165.852,40.0464 c -2.268,12.3592 -17.063,18.8776 -26.829,10.024 -5.639,-5.1016 -6.535,-11.2 -7.566,-20.6752 -0.162,-1.4392 -0.325,-2.9512 -0.504,-4.5584 -0.302,-2.5021 -0.046,-5.0401 0.751,-7.4312 0.326,-0.9949 0.754,-1.9538 1.276,-2.8616 1.91,-3.4347 4.964,-6.09124 8.63,-7.50731 3.666,-1.41607 7.712,-1.50208 11.435,-0.24309 12.242,4.1216 14.863,22.1312 12.807,33.2528 z"
       fill="#37474f"
       id="path18" />
    <path
       opacity="0.7"
       d="m 165.852,40.0464 c -2.268,12.3592 -17.063,18.8776 -26.829,10.024 -5.639,-5.1016 -6.535,-11.2 -7.566,-20.6752 -0.162,-1.4392 -0.325,-2.9512 -0.504,-4.5584 -0.302,-2.5021 -0.046,-5.0401 0.751,-7.4312 0.326,-0.9949 0.754,-1.9538 1.276,-2.8616 1.91,-3.4347 4.964,-6.09124 8.63,-7.50731 3.666,-1.41607 7.712,-1.50208 11.435,-0.24309 12.242,4.1216 14.863,22.1312 12.807,33.2528 z"
       fill="#ffffff"
       id="path20" />
    <path
       d="m 150.575,25.2008 c 0.65,-0.0448 1.215,0.7392 1.266,1.7304 0.05,0.9912 -0.342,1.8312 -1.07,1.8704 -0.728,0.0392 -1.299,-0.7336 -1.355,-1.736 -0.056,-1.0024 0.515,-1.8256 1.159,-1.8648 z"
       fill="#37474f"
       id="path22" />
    <path
       opacity="0.3"
       d="m 150.575,25.2008 c 0.65,-0.0448 1.215,0.7392 1.266,1.7304 0.05,0.9912 -0.342,1.8312 -1.07,1.8704 -0.728,0.0392 -1.299,-0.7336 -1.355,-1.736 -0.056,-1.0024 0.515,-1.8256 1.159,-1.8648 z"
       fill="#000000"
       id="path24" />
    <path
       d="m 161.663,25.1 c 0.65,-0.0448 1.215,0.728 1.271,1.7192 0.056,0.9912 -0.414,1.8256 -1.075,1.8704 -0.661,0.0448 -1.226,-0.728 -1.282,-1.7192 -0.056,-0.9912 0.442,-1.8312 1.086,-1.8704 z"
       fill="#37474f"
       id="path26" />
    <path
       opacity="0.3"
       d="m 161.663,25.1 c 0.65,-0.0448 1.215,0.728 1.271,1.7192 0.056,0.9912 -0.414,1.8256 -1.075,1.8704 -0.661,0.0448 -1.226,-0.728 -1.282,-1.7192 -0.056,-0.9912 0.442,-1.8312 1.086,-1.8704 z"
       fill="#000000"
       id="path28" />
    <path
       d="m 156.998,36.7423 c 1.68,0.1736 4.744,-0.8456 5.959,-2.0384 -2.313,-2.2904 -4.895,-4.8664 -6.479,-7.7056 z"
       fill="#37474f"
       id="path30" />
    <path
       opacity="0.5"
       d="m 156.998,36.7423 c 1.68,0.1736 4.744,-0.8456 5.959,-2.0384 -2.313,-2.2904 -4.895,-4.8664 -6.479,-7.7056 z"
       fill="#ffffff"
       id="path32" />
    <path
       d="m 148.722,21.3032 c 0.726,-0.1373 1.474,-0.1019 2.185,0.1034 0.71,0.2052 1.362,0.5746 1.903,1.0782 0.031,0.0528 0.071,0.1001 0.117,0.14 0.059,0.0504 0.127,0.0887 0.2,0.1129 0.073,0.0242 0.15,0.0336 0.227,0.0279 0.077,-0.0057 0.152,-0.0265 0.221,-0.0613 0.069,-0.0347 0.131,-0.0827 0.181,-0.1411 0.05,-0.0585 0.089,-0.1263 0.113,-0.1996 0.024,-0.0733 0.034,-0.1506 0.028,-0.2276 -0.006,-0.0769 -0.027,-0.152 -0.061,-0.2209 -0.035,-0.069 -0.083,-0.1303 -0.142,-0.1807 -0.662,-0.6482 -1.469,-1.1286 -2.355,-1.4014 -0.885,-0.2727 -1.823,-0.3299 -2.735,-0.1666 -0.077,0.0079 -0.152,0.0318 -0.219,0.0701 -0.067,0.0382 -0.126,0.09 -0.172,0.1521 -0.047,0.0621 -0.08,0.1332 -0.097,0.2087 -0.017,0.0755 -0.019,0.1537 -0.005,0.2299 0.013,0.1018 0.056,0.1974 0.123,0.2744 0.061,0.0685 0.136,0.1223 0.221,0.1572 0.084,0.035 0.175,0.0502 0.267,0.0444 z"
       fill="#37474f"
       id="path34" />
    <path
       opacity="0.3"
       d="m 148.722,21.3032 c 0.726,-0.1373 1.474,-0.1019 2.185,0.1034 0.71,0.2052 1.362,0.5746 1.903,1.0782 0.031,0.0528 0.071,0.1001 0.117,0.14 0.059,0.0504 0.127,0.0887 0.2,0.1129 0.073,0.0242 0.15,0.0336 0.227,0.0279 0.077,-0.0057 0.152,-0.0265 0.221,-0.0613 0.069,-0.0347 0.131,-0.0827 0.181,-0.1411 0.05,-0.0585 0.089,-0.1263 0.113,-0.1996 0.024,-0.0733 0.034,-0.1506 0.028,-0.2276 -0.006,-0.0769 -0.027,-0.152 -0.061,-0.2209 -0.035,-0.069 -0.083,-0.1303 -0.142,-0.1807 -0.662,-0.6482 -1.469,-1.1286 -2.355,-1.4014 -0.885,-0.2727 -1.823,-0.3299 -2.735,-0.1666 -0.077,0.0079 -0.152,0.0318 -0.219,0.0701 -0.067,0.0382 -0.126,0.09 -0.172,0.1521 -0.047,0.0621 -0.08,0.1332 -0.097,0.2087 -0.017,0.0755 -0.019,0.1537 -0.005,0.2299 0.013,0.1018 0.056,0.1974 0.123,0.2744 0.061,0.0685 0.136,0.1223 0.221,0.1572 0.084,0.035 0.175,0.0502 0.267,0.0444 z"
       fill="#000000"
       id="path36" />
    <path
       d="m 165.713,20.1161 c -0.009,-0.1516 -0.075,-0.2941 -0.186,-0.3982 -0.11,-0.1042 -0.256,-0.1621 -0.408,-0.1618 -0.925,-0.0237 -1.842,0.1775 -2.672,0.5861 -0.83,0.4087 -1.548,1.0128 -2.094,1.7603 -0.042,0.0627 -0.07,0.1333 -0.084,0.2075 -0.015,0.0743 -0.013,0.1505 0.003,0.2243 0.016,0.0738 0.047,0.1435 0.091,0.205 0.044,0.0615 0.1,0.1134 0.164,0.1528 h 0.039 c 0.127,0.0762 0.279,0.0989 0.423,0.0632 0.144,-0.0356 0.268,-0.1269 0.344,-0.2536 0.444,-0.5815 1.02,-1.0492 1.68,-1.3646 0.66,-0.3154 1.386,-0.4696 2.117,-0.4498 0.097,0.0043 0.194,-0.0167 0.28,-0.0609 0.086,-0.0442 0.16,-0.11 0.213,-0.1911 0.053,-0.0984 0.084,-0.2075 0.09,-0.3192 z"
       fill="#37474f"
       id="path38" />
    <path
       opacity="0.3"
       d="m 165.713,20.1161 c -0.009,-0.1516 -0.075,-0.2941 -0.186,-0.3982 -0.11,-0.1042 -0.256,-0.1621 -0.408,-0.1618 -0.925,-0.0237 -1.842,0.1775 -2.672,0.5861 -0.83,0.4087 -1.548,1.0128 -2.094,1.7603 -0.042,0.0627 -0.07,0.1333 -0.084,0.2075 -0.015,0.0743 -0.013,0.1505 0.003,0.2243 0.016,0.0738 0.047,0.1435 0.091,0.205 0.044,0.0615 0.1,0.1134 0.164,0.1528 h 0.039 c 0.127,0.0762 0.279,0.0989 0.423,0.0632 0.144,-0.0356 0.268,-0.1269 0.344,-0.2536 0.444,-0.5815 1.02,-1.0492 1.68,-1.3646 0.66,-0.3154 1.386,-0.4696 2.117,-0.4498 0.097,0.0043 0.194,-0.0167 0.28,-0.0609 0.086,-0.0442 0.16,-0.11 0.213,-0.1911 0.053,-0.0984 0.084,-0.2075 0.09,-0.3192 z"
       fill="#000000"
       id="path40" />
    <path
       d="m 137.908,47.4216 c -1.496,-0.2836 -2.907,-0.9041 -4.127,-1.8144 0,1.6408 -1.12,4.48 -1.12,4.48 -5.219,-1.7192 -9.52,-12.1576 -10.08,-15.6184 -2.901,5.3928 -2.649,2.2904 -2.873,0 -0.325,-3.2984 -0.409,-6.72 0.717,-9.828 1.125,-3.108 3.69,-5.8912 6.961,-6.4288 0.608,-0.0557 1.22,0.0526 1.773,0.3136 0.552,0.2609 1.025,0.6651 1.368,1.1704 0.556,0.9983 0.919,2.0927 1.07,3.2256 1.529,8.1816 1.461,17.7352 6.311,24.5 z"
       fill="#37474f"
       id="path42" />
    <path
       opacity="0.3"
       d="m 137.908,47.4216 c -1.496,-0.2836 -2.907,-0.9041 -4.127,-1.8144 0,1.6408 -1.12,4.48 -1.12,4.48 -5.219,-1.7192 -9.52,-12.1576 -10.08,-15.6184 -2.901,5.3928 -2.649,2.2904 -2.873,0 -0.325,-3.2984 -0.409,-6.72 0.717,-9.828 1.125,-3.108 3.69,-5.8912 6.961,-6.4288 0.608,-0.0557 1.22,0.0526 1.773,0.3136 0.552,0.2609 1.025,0.6651 1.368,1.1704 0.556,0.9983 0.919,2.0927 1.07,3.2256 1.529,8.1816 1.461,17.7352 6.311,24.5 z"
       fill="#000000"
       id="path44" />
    <path
       d="m 130.511,28.6615 c 3.992,0.0896 6.428,5.124 6.854,8.568 0.498,3.836 -2.078,6.9888 -5.779,5.292 -1.38,-0.6402 -2.619,-1.5495 -3.643,-2.6746 -1.024,-1.1251 -1.813,-2.4433 -2.321,-3.8774 -1.238,-3.5616 0.89,-7.392 4.889,-7.308 z"
       fill="#37474f"
       id="path46" />
    <path
       opacity="0.7"
       d="m 130.511,28.6615 c 3.992,0.0896 6.428,5.124 6.854,8.568 0.498,3.836 -2.078,6.9888 -5.779,5.292 -1.38,-0.6402 -2.619,-1.5495 -3.643,-2.6746 -1.024,-1.1251 -1.813,-2.4433 -2.321,-3.8774 -1.238,-3.5616 0.89,-7.392 4.889,-7.308 z"
       fill="#ffffff"
       id="path48" />
    <path
       d="m 138.507,16.9185 c 1.045,1.1249 1.825,2.4687 2.284,3.9336 0.46,1.4648 0.586,3.0136 0.371,4.5336 -0.465,3.0352 -4.76,7.9632 -4.559,7.6664 0.172,-0.3205 0.234,-0.688 0.179,-1.0472 -0.099,-1.3697 -0.448,-2.7097 -1.03,-3.9536 -0.364,1.68 -0.918,5.2024 -2.649,5.2248 -0.689,-1.2488 -1.534,-2.3912 -1.417,-3.8192 -0.397,1.4616 -0.767,2.9288 -1.164,4.3848 -3.36,-2.0048 -5.488,-6.6192 -4.794,-10.472 0.153,-0.9378 0.49,-1.8361 0.991,-2.6432 0.628,-0.8878 1.382,-1.6783 2.24,-2.3464 2.195,-1.8592 5.102,-3.7128 7.751,-2.5984 0.38,0.1792 1.898,0.7336 1.797,1.1368 z"
       fill="#37474f"
       id="path50" />
    <path
       opacity="0.3"
       d="m 138.507,16.9185 c 1.045,1.1249 1.825,2.4687 2.284,3.9336 0.46,1.4648 0.586,3.0136 0.371,4.5336 -0.465,3.0352 -4.76,7.9632 -4.559,7.6664 0.172,-0.3205 0.234,-0.688 0.179,-1.0472 -0.099,-1.3697 -0.448,-2.7097 -1.03,-3.9536 -0.364,1.68 -0.918,5.2024 -2.649,5.2248 -0.689,-1.2488 -1.534,-2.3912 -1.417,-3.8192 -0.397,1.4616 -0.767,2.9288 -1.164,4.3848 -3.36,-2.0048 -5.488,-6.6192 -4.794,-10.472 0.153,-0.9378 0.49,-1.8361 0.991,-2.6432 0.628,-0.8878 1.382,-1.6783 2.24,-2.3464 2.195,-1.8592 5.102,-3.7128 7.751,-2.5984 0.38,0.1792 1.898,0.7336 1.797,1.1368 z"
       fill="#000000"
       id="path52" />
    <path
       d="m 160.158,40.136 c 0,0 -3.422,-1.3888 -13.508,-2.5928 0.56,3.6624 2.8,5.208 7.958,5.768 5.158,0.56 5.55,-3.1752 5.55,-3.1752 z"
       fill="#263238"
       id="path54" />
    <path
       d="m 159.698,40.0072 c -0.154,0.4019 -0.41,0.7568 -0.743,1.0297 -0.333,0.273 -0.731,0.4546 -1.155,0.5271 -2.979,-0.3595 -5.914,-1.0123 -8.764,-1.9488 -0.483,-0.1101 -0.924,-0.3548 -1.273,-0.7057 -0.349,-0.3509 -0.591,-0.7936 -0.699,-1.2767 4.275,0.4039 8.504,1.1987 12.634,2.3744 z"
       fill="#ffffff"
       id="path56" />
    <path
       d="m 157.598,41.2615 c -2.542,-1.033 -5.228,-1.6659 -7.963,-1.876 -0.767,0.0835 -1.497,0.3738 -2.112,0.84 1.12,1.8144 3.36,2.716 7.04,3.1304 1.385,0.2451 2.811,-0.0152 4.02,-0.7336 -0.266,-0.4958 -0.597,-0.9535 -0.985,-1.3608 z"
       fill="#ffffff"
       id="path58" />
    <path
       d="m 166.737,64.3 c -0.432,4.0606 -1.95,7.9296 -4.396,11.2 -0.179,0.2408 -0.364,0.4816 -0.56,0.7168 -5.443,6.8936 -15.226,9.0328 -23.363,5.4096 -2.572,-1.1145 -5.042,-2.4524 -7.381,-3.9984 -4.614,-3.1024 -8.596,-7.4144 -10.472,-12.4768 l 14.308,-1.8424 9.784,-1.26 6.686,0.6832 z"
       fill="#06fba3"
       id="path60" />
    <path
       d="M 95.9929,73.4727 C 95.4329,115.473 64.4369,151.873 61.2393,193.778 H 215.077 C 199.784,161.017 190.201,125.885 186.741,89.8975 l -2.38,-24.752 H 105.63 c 0,0 -9.5811,4.2168 -9.6371,8.3272 z"
       fill="#37474f"
       id="path62" />
    <path
       opacity="0.6"
       d="M 95.9929,73.4727 C 95.4329,115.473 64.4369,151.873 61.2393,193.778 H 215.077 C 199.784,161.017 190.201,125.885 186.741,89.8975 l -2.38,-24.752 H 105.63 c 0,0 -9.5811,4.2168 -9.6371,8.3272 z"
       fill="#ffffff"
       id="path64" />
    <path
       opacity="0.2"
       d="m 80.3792,193.722 c 0,0 -0.896,-43.249 13.44,-87.993 14.3358,-44.7442 -3.6624,13.417 -0.8624,65.257 0.7952,14.946 4.7096,22.96 4.7096,22.96 z"
       fill="#ffffff"
       id="path66" />
    <path
       opacity="0.2"
       d="m 200.958,193.946 c 0,0 -18.793,-43.585 -22.17,-101.114 0,0 -4.603,50.91 11.278,100.946 z"
       fill="#ffffff"
       id="path68" />
    <path
       d="m 195.936,57.9663 c 0.075,-0.0375 0.154,-0.0693 0.235,-0.0952 l -0.09,0.0392 z"
       fill="#37474f"
       id="path70" />
    <path
       d="m 197.173,57.5073 -0.397,0.1456 -0.325,0.1176 h -0.05 l -0.23,0.084 c 0.319,-0.112 0.655,-0.2296 1.002,-0.3472 z"
       fill="#37474f"
       id="path72" />
    <path
       d="m 237.336,59.7361 c 0,15.3664 -27.574,25.0376 -39.878,28.56 -11.67,3.92 -18.67,4.508 -18.67,4.508 -0.431,-4.06 -9.234,-27.888 -9.234,-27.888 0,0 5.264,-2.24 9.038,-1.904 h 0.095 c 4.418,0.349 8.837,-0.6634 12.662,-2.9008 1.391,-0.8031 2.84,-1.5013 4.334,-2.0888 l 0.252,-0.0952 0.146,-0.056 0.319,-0.1232 h 0.05 l 0.325,-0.1176 0.398,-0.1456 0.465,-0.1512 0.14,-0.0448 0.145,-0.0448 0.107,-0.028 h 0.039 c 1.088,-0.3151 2.193,-0.5693 3.309,-0.7616 3.275,-0.6386 6.667,-0.2474 9.711,1.12 0.578,0.2834 1.218,0.418 1.861,0.3916 0.644,-0.0264 1.271,-0.213 1.824,-0.5428 0.56,-0.3584 0.8,-0.7448 0.263,-1.0472 l -26.174,-29.9376 7.98,-4.3848 c 0,0 40.493,21.3976 40.493,37.6824 z"
       fill="#37474f"
       id="path74" />
    <path
       d="m 237.336,59.7361 c 0,15.3664 -27.574,25.0376 -39.878,28.56 -11.67,3.92 -18.67,4.508 -18.67,4.508 -0.431,-4.06 -9.234,-27.888 -9.234,-27.888 0,0 5.264,-2.24 9.038,-1.904 h 0.095 c 4.418,0.349 8.837,-0.6634 12.662,-2.9008 1.391,-0.8031 2.84,-1.5013 4.334,-2.0888 l 0.252,-0.0952 0.146,-0.056 0.319,-0.1232 h 0.05 l 0.325,-0.1176 0.398,-0.1456 0.465,-0.1512 0.14,-0.0448 0.145,-0.0448 0.107,-0.028 h 0.039 c 1.088,-0.3151 2.193,-0.5693 3.309,-0.7616 3.275,-0.6386 6.667,-0.2474 9.711,1.12 0.578,0.2834 1.218,0.418 1.861,0.3916 0.644,-0.0264 1.271,-0.213 1.824,-0.5428 0.56,-0.3584 0.8,-0.7448 0.263,-1.0472 l -26.174,-29.9376 7.98,-4.3848 c 0,0 40.493,21.3976 40.493,37.6824 z"
       fill="#37474f"
       id="path76" />
    <g
       opacity="0.3"
       id="g80">
      <path
         opacity="0.3"
         d="m 237.336,59.7361 c 0,15.3664 -27.574,25.0376 -39.878,28.56 -11.67,3.92 -18.67,4.508 -18.67,4.508 -0.431,-4.06 -9.234,-27.888 -9.234,-27.888 0,0 5.264,-2.24 9.038,-1.904 h 0.095 c 4.418,0.349 8.837,-0.6634 12.662,-2.9008 1.391,-0.8031 2.84,-1.5013 4.334,-2.0888 l 0.252,-0.0952 0.146,-0.056 0.319,-0.1232 h 0.05 l 0.325,-0.1176 0.398,-0.1456 0.465,-0.1512 0.14,-0.0448 0.145,-0.0448 0.107,-0.028 h 0.039 c 1.088,-0.3151 2.193,-0.5693 3.309,-0.7616 3.275,-0.6386 6.667,-0.2474 9.711,1.12 0.578,0.2834 1.218,0.418 1.861,0.3916 0.644,-0.0264 1.271,-0.213 1.824,-0.5428 0.56,-0.3584 0.8,-0.7448 0.263,-1.0472 l -26.174,-29.9376 7.98,-4.3848 c 0,0 40.493,21.3976 40.493,37.6824 z"
         fill="#ffffff"
         id="path78" />
    </g>
    <path
       d="m 191.019,27.2168 -11.155,-4.4184 -6.72,-8.96 9.654,-2.1448 9.128,4.732 5.477,5.9584 c 0.253,0.2767 0.434,0.6128 0.523,0.9773 0.09,0.3645 0.087,0.7457 -0.009,1.1087 -0.096,0.363 -0.281,0.696 -0.539,0.9686 -0.259,0.2725 -0.581,0.4757 -0.938,0.591 l -3.92,1.2488 c -0.493,0.1528 -1.023,0.1311 -1.501,-0.0616 z"
       fill="#37474f"
       id="path82" />
    <path
       opacity="0.7"
       d="m 191.019,27.2168 -11.155,-4.4184 -6.72,-8.96 9.654,-2.1448 9.128,4.732 5.477,5.9584 c 0.253,0.2767 0.434,0.6128 0.523,0.9773 0.09,0.3645 0.087,0.7457 -0.009,1.1087 -0.096,0.363 -0.281,0.696 -0.539,0.9686 -0.259,0.2725 -0.581,0.4757 -0.938,0.591 l -3.92,1.2488 c -0.493,0.1528 -1.023,0.1311 -1.501,-0.0616 z"
       fill="#ffffff"
       id="path84" />
    <path
       opacity="0.2"
       d="m 183.716,80.5847 1.12,11.3288 c 0,0 16.514,-3.8304 25.849,-8.1032 l -7.498,0.4088 c -6.204,0.4256 -12.413,-0.7426 -18.038,-3.3936 z"
       fill="#000000"
       id="path86" />
    <path
       d="m 185.693,91.6504 c -0.162,36.0586 -6.787,39.4636 -6.473,70.4986 0,0 -62.435,0.252 -64.552,0.308 -5.04,-41.765 -10.175,-43.68 -8.82,-75.7514 -0.655,-10.5336 5.32,-19.796 11.329,-21 l 27.491,-3.6568 26.443,2.8 c 6.72,0.9632 12.796,6.2608 14.582,26.8016 z"
       fill="#37474f"
       id="path88" />
    <path
       opacity="0.3"
       d="m 185.693,91.6504 c -0.162,36.0586 -6.787,39.4636 -6.473,70.4986 0,0 -62.435,0.252 -64.552,0.308 -5.04,-41.765 -10.175,-43.68 -8.82,-75.7514 -0.655,-10.5336 5.32,-19.796 11.329,-21 l 27.491,-3.6568 26.443,2.8 c 6.72,0.9632 12.796,6.2608 14.582,26.8016 z"
       fill="#ffffff"
       id="path90" />
    <path
       d="m 140.602,21.2304 c -1.68,-3.696 -3.92,-5.4824 -2.615,-5.2808 3.505,0.56 5.65,-2.5256 8.226,-0.7896 1.254,1.4336 -0.19,4.0992 -0.252,3.9536 1.288,0.6104 2.895,0.1288 3.954,-0.812 1.058,-0.9408 1.428,-2.5872 1.948,-3.92 0.39,1.4332 0.355,2.9488 -0.1,4.3624 0.924,0.7336 2.827,-0.644 3.695,-1.4448 0.868,-0.9187 1.517,-2.0213 1.899,-3.2256 0.33,1.288 0.588,2.5984 -0.336,4.1496 1.31,0.0728 3.03,-0.3304 3.892,-1.3104 0.451,-0.5105 0.784,-1.1133 0.978,-1.7662 0.193,-0.6529 0.242,-1.3402 0.142,-2.0138 0.297,0.6608 0.342,3.36 -0.246,3.8136 2.24,-0.7336 4.317,-3.5336 4.2,-5.8688 -0.108,-1.17156 -0.497,-2.29989 -1.134,-3.28934 -0.636,-0.98946 -1.502,-1.81087 -2.523,-2.39464 -1.003,-0.5992 -2.117,-0.9912 -3.17,-1.5064 -1.618,-0.7952 -11.9,-8.4672 -26.997,0.28 -9.369,5.432 -7.538,16.23998 -6.424,17.41598 1.384,1.4504 3.562,1.9376 5.572,1.736 2.011,-0.2016 9.728,-1.1088 9.291,-2.0888 z"
       fill="#37474f"
       id="path92" />
    <path
       opacity="0.3"
       d="m 140.602,21.2304 c -1.68,-3.696 -3.92,-5.4824 -2.615,-5.2808 3.505,0.56 5.65,-2.5256 8.226,-0.7896 1.254,1.4336 -0.19,4.0992 -0.252,3.9536 1.288,0.6104 2.895,0.1288 3.954,-0.812 1.058,-0.9408 1.428,-2.5872 1.948,-3.92 0.39,1.4332 0.355,2.9488 -0.1,4.3624 0.924,0.7336 2.827,-0.644 3.695,-1.4448 0.868,-0.9187 1.517,-2.0213 1.899,-3.2256 0.33,1.288 0.588,2.5984 -0.336,4.1496 1.31,0.0728 3.03,-0.3304 3.892,-1.3104 0.451,-0.5105 0.784,-1.1133 0.978,-1.7662 0.193,-0.6529 0.242,-1.3402 0.142,-2.0138 0.297,0.6608 0.342,3.36 -0.246,3.8136 2.24,-0.7336 4.317,-3.5336 4.2,-5.8688 -0.108,-1.17156 -0.497,-2.29989 -1.134,-3.28934 -0.636,-0.98946 -1.502,-1.81087 -2.523,-2.39464 -1.003,-0.5992 -2.117,-0.9912 -3.17,-1.5064 -1.618,-0.7952 -11.9,-8.4672 -26.997,0.28 -9.369,5.432 -7.538,16.23998 -6.424,17.41598 1.384,1.4504 3.562,1.9376 5.572,1.736 2.011,-0.2016 9.728,-1.1088 9.291,-2.0888 z"
       fill="#000000"
       id="path94" />
    <path
       d="m 160.158,40.136 c 0,0 -3.422,-1.3888 -13.508,-2.5928 0.56,3.6624 2.8,5.208 7.958,5.768 5.158,0.56 5.55,-3.1752 5.55,-3.1752 z"
       fill="#37474f"
       id="path96" />
    <path
       opacity="0.3"
       d="m 160.158,40.136 c 0,0 -3.422,-1.3888 -13.508,-2.5928 0.56,3.6624 2.8,5.208 7.958,5.768 5.158,0.56 5.55,-3.1752 5.55,-3.1752 z"
       fill="#000000"
       id="path98" />
    <path
       d="m 159.698,40.0072 c -0.154,0.4019 -0.41,0.7568 -0.743,1.0297 -0.333,0.273 -0.731,0.4546 -1.155,0.5271 -2.979,-0.3595 -5.914,-1.0123 -8.764,-1.9488 -0.483,-0.1101 -0.924,-0.3548 -1.273,-0.7057 -0.349,-0.3509 -0.591,-0.7936 -0.699,-1.2767 4.275,0.4039 8.504,1.1987 12.634,2.3744 z"
       fill="#ffffff"
       id="path100" />
    <path
       d="m 157.598,41.2615 c -2.542,-1.033 -5.228,-1.6659 -7.963,-1.876 -0.767,0.0835 -1.497,0.3738 -2.112,0.84 1.12,1.8144 3.36,2.716 7.04,3.1304 1.385,0.2451 2.811,-0.0152 4.02,-0.7336 -0.266,-0.4958 -0.597,-0.9535 -0.985,-1.3608 z"
       fill="#ffffff"
       id="path102" />
    <path
       d="m 111.437,146.553 c 0,0 13.204,-7 13.132,-6.233 -0.073,0.767 0.274,15.579 0.274,15.579 l -14.398,-0.33 z"
       fill="#37474f"
       id="path104" />
    <path
       d="m 124.558,140.32 c 0,0 12.157,0.398 12.09,1.747 -0.067,1.35 -1.378,12.679 -1.378,12.679 l -10.438,1.159 z"
       fill="#37474f"
       id="path106" />
    <g
       opacity="0.7"
       id="g110">
      <path
         opacity="0.7"
         d="m 136.637,142.067 c -0.068,1.355 -1.372,12.673 -1.372,12.673 l -10.439,1.159 -14.397,-0.33 0.991,-9.016 c 0,0 13.205,-7 13.132,-6.233 0.006,0 12.163,0.426 12.085,1.747 z"
         fill="#ffffff"
         id="path108" />
    </g>
    <path
       d="m 166.737,64.3 c -0.432,4.0606 -1.95,7.9296 -4.396,11.2 -0.179,0.2408 -0.364,0.4816 -0.56,0.7168 -5.443,6.8936 -15.226,9.0328 -23.363,5.4096 -2.572,-1.1145 -5.042,-2.4524 -7.381,-3.9984 -4.614,-3.1024 -8.596,-7.4144 -10.472,-12.4768 l 14.308,-1.8424 9.784,-1.26 6.686,0.6832 z"
       fill="#37474f"
       id="path112" />
    <path
       opacity="0.7"
       d="m 166.737,64.3 c -0.432,4.0606 -1.95,7.9296 -4.396,11.2 -0.179,0.2408 -0.364,0.4816 -0.56,0.7168 -5.443,6.8936 -15.226,9.0328 -23.363,5.4096 -2.572,-1.1145 -5.042,-2.4524 -7.381,-3.9984 -4.614,-3.1024 -8.596,-7.4144 -10.472,-12.4768 l 14.308,-1.8424 9.784,-1.26 6.686,0.6832 z"
       fill="#ffffff"
       id="path114" />
    <path
       opacity="0.2"
       d="m 105.938,100.666 c 0.02,6.298 0.582,12.582 1.679,18.783 l 4.676,-29.1875 z"
       fill="#000000"
       id="path116" />
    <path
       d="m 80.5922,121.784 31.2758,22.098 -1.433,12.997 c 0,0 -46.9396,-10.791 -54.046,-25.435 -3.3208,-6.832 0.42,-15.187 6.1992,-22.915 0.0027,-0.009 0.0027,-0.019 0,-0.028 6.8712,-11.2395 13.1152,-17.9203 17.8248,-21.8683 4.619,-3.7586 8.6309,-8.2069 11.8944,-13.188 8.1086,-12.7288 26.3196,-7.5712 26.3196,-7.5712 -4.149,9.7104 -4.194,28.1792 -4.194,28.1792 0,0 -4.071,3.0688 -8.518,6.6133 -0.044,2.996 -1.864,6.664 -5.381,10.808 -4.6202,5.466 -18.3626,8.58 -19.9418,10.31 z"
       fill="#37474f"
       id="path118" />
    <path
       opacity="0.3"
       d="m 80.5922,121.784 31.2758,22.098 -1.433,12.997 c 0,0 -46.9396,-10.791 -54.046,-25.435 -3.3208,-6.832 0.42,-15.187 6.1992,-22.915 0.0027,-0.009 0.0027,-0.019 0,-0.028 6.8712,-11.2395 13.1152,-17.9203 17.8248,-21.8683 4.619,-3.7586 8.6309,-8.2069 11.8944,-13.188 8.1086,-12.7288 26.3196,-7.5712 26.3196,-7.5712 -4.149,9.7104 -4.194,28.1792 -4.194,28.1792 0,0 -4.071,3.0688 -8.518,6.6133 -0.044,2.996 -1.864,6.664 -5.381,10.808 -4.6202,5.466 -18.3626,8.58 -19.9418,10.31 z"
       fill="#ffffff"
       id="path120" />
    <path
       d="m 104.218,62.1104 c 9.888,8.2236 21.123,14.6765 33.208,19.0736 0,-3.7912 -1.209,-11.452 -3.36,-16.2008 -0.61,-1.3328 -1.383,-2.6712 -2.632,-3.4384 -1.248,-0.7672 -3.08,-0.7616 -4.009,0.3752 -3.551,-2.5088 -9.391,-2.6264 -12.835,0 -2.666,-0.924 -6.452,-2.3912 -9.229,-1.8928 -2.778,0.4984 -6.205,4.2 -5.7906,6.9944 2.5616,-1.2264 5.3396,-1.938 8.1756,-2.0944 -0.761,-0.9016 -0.016,0.028 -3.528,-2.8168 z"
       fill="#37474f"
       id="path122" />
    <path
       opacity="0.6"
       d="m 104.218,62.1104 c 9.888,8.2236 21.123,14.6765 33.208,19.0736 0,-3.7912 -1.209,-11.452 -3.36,-16.2008 -0.61,-1.3328 -1.383,-2.6712 -2.632,-3.4384 -1.248,-0.7672 -3.08,-0.7616 -4.009,0.3752 -3.551,-2.5088 -9.391,-2.6264 -12.835,0 -2.666,-0.924 -6.452,-2.3912 -9.229,-1.8928 -2.778,0.4984 -6.205,4.2 -5.7906,6.9944 2.5616,-1.2264 5.3396,-1.938 8.1756,-2.0944 -0.761,-0.9016 -0.016,0.028 -3.528,-2.8168 z"
       fill="#ffffff"
       id="path124" />
    <path
       d="m 176.078,63.0679 c -1.606,-0.7266 -3.348,-1.1025 -5.11,-1.1025 -1.763,0 -3.505,0.3759 -5.11,1.1025 -2.195,-1.6072 -5.572,-1.9487 -7.84,-0.4087 -0.357,-0.4267 -0.799,-0.7745 -1.297,-1.0213 -0.498,-0.2469 -1.043,-0.3873 -1.598,-0.4123 -1.12,-0.0392 -1.837,0.7336 -2.604,1.5344 1.612,0.812 2.436,2.6208 3.007,4.3344 1.458,4.3405 2.079,8.9182 1.831,13.4904 7.728,-3.7744 14.286,-10.108 18.721,-17.5169 z"
       fill="#37474f"
       id="path126" />
    <path
       opacity="0.6"
       d="m 176.078,63.0679 c -1.606,-0.7266 -3.348,-1.1025 -5.11,-1.1025 -1.763,0 -3.505,0.3759 -5.11,1.1025 -2.195,-1.6072 -5.572,-1.9487 -7.84,-0.4087 -0.357,-0.4267 -0.799,-0.7745 -1.297,-1.0213 -0.498,-0.2469 -1.043,-0.3873 -1.598,-0.4123 -1.12,-0.0392 -1.837,0.7336 -2.604,1.5344 1.612,0.812 2.436,2.6208 3.007,4.3344 1.458,4.3405 2.079,8.9182 1.831,13.4904 7.728,-3.7744 14.286,-10.108 18.721,-17.5169 z"
       fill="#ffffff"
       id="path128" />
    <path
       opacity="0.5"
       d="m 174.565,106.709 c 0,8.506 -12.107,23.71 -27.042,23.71 -14.935,0 -27.043,-15.204 -27.043,-23.71 0,-8.5066 12.108,-15.4058 27.043,-15.4058 14.935,0 27.042,6.8824 27.042,15.4058 z"
       fill="#ffffff"
       id="path130" />
    <path
       d="m 170.931,107.442 c 0,7.006 -9.974,19.533 -22.277,19.533 -12.303,0 -22.271,-12.55 -22.271,-19.533 0,-6.983 9.968,-12.6949 22.271,-12.6949 12.303,0 22.277,5.6779 22.277,12.6949 z"
       fill="#37474f"
       id="path132" />
    <path
       opacity="0.5"
       d="m 170.931,107.442 c 0,7.006 -9.974,19.533 -22.277,19.533 -12.303,0 -22.271,-12.55 -22.271,-19.533 0,-6.983 9.968,-12.6949 22.271,-12.6949 12.303,0 22.277,5.6779 22.277,12.6949 z"
       fill="#ffffff"
       id="path134" />
    <path
       d="M 179.23,162.457 H 114.668 V 172.99 H 179.23 Z"
       fill="#ffffff"
       id="path136" />
    <path
       d="m 114.668,172.99 -6.177,20.787 h 72.828 l -2.083,-20.787 z"
       fill="#37474f"
       id="path138" />
    <path
       opacity="0.2"
       d="m 114.668,172.99 -6.177,20.787 h 72.828 l -2.083,-20.787 z"
       fill="#ffffff"
       id="path140" />
    <path
       d="m 162.52,161.785 h -19.303 v 11.542 h 19.303 z"
       fill="#263238"
       id="path142" />
    <path
       opacity="0.7"
       d="m 162.52,161.785 h -19.303 v 11.542 h 19.303 z"
       fill="#ffffff"
       id="path144" />
    <path
       opacity="0.7"
       d="m 151.298,161.785 -5.684,11.542 h 4.211 l 5.864,-11.542 z"
       fill="#ffffff"
       id="path146" />
    <path
       opacity="0.7"
       d="m 157.492,161.785 -5.684,11.542 h 3.007 l 5.863,-11.542 z"
       fill="#ffffff"
       id="path148" />
    <path
       opacity="0.2"
       d="m 169.005,25.156 c -0.236,1.5848 -1.473,3.6792 -2.582,5.2808 0.18,3.2048 -0.008,6.4196 -0.56,9.5816 -0.672,3.7241 -2.554,7.1223 -5.355,9.6669 -2.801,2.5447 -6.363,4.0935 -10.135,4.4059 -0.069,1.2684 -0.069,2.5396 0,3.808 0.079,1.6408 0.404,3.2604 0.964,4.8048 l 15.383,1.568 c -0.432,4.0605 -1.951,7.9296 -4.396,11.2 -0.179,0.2408 -0.364,0.4816 -0.56,0.7168 -5.443,6.8936 -15.227,9.0328 -23.363,5.4096 -2.567,-1.1154 -5.031,-2.4533 -7.364,-3.9984 -4.615,-3.1024 -8.596,-7.4144 -10.472,-12.4768 l 14.308,-1.8424 c 0.739,-2.0944 0.907,-5.32 1.243,-7.84 0.235,-1.7192 -0.123,-5.4376 -0.829,-8.9264 -0.537,-0.2667 -1.049,-0.5816 -1.529,-0.9408 0,1.6408 -1.12,4.48 -1.12,4.48 -5.219,-1.7192 -9.52,-12.1576 -10.08,-15.6184 -2.906,5.3928 -2.649,2.2904 -2.873,0 -0.324,-3.2984 -0.408,-6.72 0.717,-9.828 0.803,-2.3113 2.388,-4.27 4.48,-5.5384 -0.56,-3.7968 0.213,-10.85842 7.213,-14.91842 15.12,-8.74721 25.379,-1.0752 26.998,-0.28 1.052,0.5152 2.161,0.90719 3.169,1.50639 1.022,0.58377 1.887,1.40519 2.524,2.39464 0.637,0.98945 1.025,2.11778 1.133,3.28939 0.073,1.5232 -0.778,3.2368 -1.999,4.452 5.197,0.6664 5.51,6.7816 5.085,9.6432 z"
       fill="#ffffff"
       id="path150" />
    <path
       opacity="0.2"
       d="m 158.259,14.7064 -0.191,-0.3192 c 0.071,-0.4152 0.071,-0.8392 0,-1.2544 0.147,0.511 0.212,1.0423 0.191,1.5736 z"
       fill="#ffffff"
       id="path152" />
    <path
       d="m 115.996,177.045 c -1.575,0.513 -3.182,0.921 -4.811,1.221 -0.252,0.045 -0.498,0.089 -0.739,0.123 -0.789,0.118 -1.529,0.19 -2.24,0.224 -10.8358,0.56 -11.1158,-8.49 -11.3846,-13.098 -0.2668,-6.164 -0.1134,-12.338 0.4592,-18.48 0.7504,-8.552 2.1728,-17.433 4.2394,-24.08 2.99,-9.588 7.84,-10.641 11.956,-10.713 0.795,0 1.573,0 2.301,0 0,0 -0.526,2.716 -0.778,5.336 l -1.635,11.615 -2.274,16.117 -0.353,2.514 v 0.14 l -1.232,8.725 -0.285,2.01 c -0.129,1.339 -0.224,3.226 1.237,4.301 0.206,0.159 0.432,0.291 0.672,0.392 0.952,0.426 2.358,0.599 4.402,0.358 l 0.207,5.724 0.039,1.03 0.068,1.781 0.112,3.237 z"
       fill="#06fba3"
       id="path154" />
    <path
       d="m 91.3608,143.77 c 3.1024,3.544 5.6,3.113 9.8892,3.785 4.29,0.672 7.986,0.437 12.32,0.039 0.88,-12.056 2.364,-24.08 2.24,-36.125 -3.516,0.263 -7.28,0.117 -10.164,1.865 -3.841,2.335 -4.099,8.332 -6.686,12.56 -3.0576,4.996 -6.9776,9.089 -10.8584,13.132 1.4112,2.464 1.4952,2.7 3.2592,4.744 z"
       fill="#37474f"
       id="path156" />
    <g
       opacity="0.6"
       id="g160">
      <path
         opacity="0.6"
         d="m 91.3608,143.77 c 3.1024,3.544 5.6,3.113 9.8892,3.785 4.29,0.672 7.986,0.437 12.32,0.039 0.88,-12.056 2.364,-24.08 2.24,-36.125 -3.516,0.263 -7.28,0.117 -10.164,1.865 -3.841,2.335 -4.099,8.332 -6.686,12.56 -3.0576,4.996 -6.9776,9.089 -10.8584,13.132 1.4112,2.464 1.4952,2.7 3.2592,4.744 z"
         fill="#000000"
         id="path158" />
    </g>
    <path
       opacity="0.2"
       d="m 113.364,129.187 -5.981,18.794 h 7.549 z"
       fill="#000000"
       id="path162" />
    <path
       d="m 171.144,150.613 c -0.689,3.08 -1.512,6.098 -2.352,9.946 -0.179,0.823 -0.364,1.68 -0.56,2.598 -0.252,1.277 -0.504,2.632 -0.745,4.11 -0.269,1.68 -0.532,3.472 -0.784,5.466 -0.224,1.725 -0.431,3.584 -0.627,5.6 -0.084,0.879 -0.174,1.786 -0.252,2.738 -0.157,1.854 -0.308,3.831 -0.442,5.942 -0.135,2.111 -0.258,4.452 -0.37,6.905 -1.826,-0.045 -55.782,0 -55.782,0 0.303,-3.59 0.56,-6.967 0.807,-10.226 0.129,-1.809 0.257,-3.578 0.364,-5.325 v -0.04 c 0.039,-0.56 0.073,-1.064 0.101,-1.59 0.084,-1.333 0.156,-2.649 0.224,-3.959 0.162,-3.136 0.285,-6.239 0.364,-9.403 0,-0.134 0,-0.268 0,-0.403 0.044,-1.949 0.072,-3.92 0.084,-5.947 0,-2.912 0,-5.919 -0.062,-9.078 0,-0.056 0,-0.112 0,-0.168 0,-0.817 -0.028,-1.646 -0.05,-2.486 -0.068,-2.576 -0.157,-5.264 -0.28,-8.092 -0.152,-3.528 -0.348,-7.28 -0.594,-11.278 -0.291,-4.732 0.045,-11.021 3.254,-13.692 0.317,-0.268 0.665,-0.497 1.036,-0.684 0.55,-0.279 1.142,-0.468 1.752,-0.56 l 16.94,-2.637 5.908,-0.919 8.703,1.68 19.096,3.752 c 0.229,0.044 0.455,0.101 0.677,0.168 1.235,0.361 2.317,1.117 3.08,2.151 1.972,2.637 2.38,7.28 1.988,13.529 0.488,10.803 -0.268,16.448 -1.478,21.902 z"
       fill="#37474f"
       id="path164" />
    <path
       opacity="0.6"
       d="m 171.144,150.613 c -0.689,3.08 -1.512,6.098 -2.352,9.946 -0.179,0.823 -0.364,1.68 -0.56,2.598 -0.252,1.277 -0.504,2.632 -0.745,4.11 -0.269,1.68 -0.532,3.472 -0.784,5.466 -0.224,1.725 -0.431,3.584 -0.627,5.6 -0.084,0.879 -0.174,1.786 -0.252,2.738 -0.157,1.854 -0.308,3.831 -0.442,5.942 -0.135,2.111 -0.258,4.452 -0.37,6.905 -1.826,-0.045 -55.782,0 -55.782,0 0.303,-3.59 0.56,-6.967 0.807,-10.226 0.129,-1.809 0.257,-3.578 0.364,-5.325 v -0.04 c 0.039,-0.56 0.073,-1.064 0.101,-1.59 0.084,-1.333 0.156,-2.649 0.224,-3.959 0.162,-3.136 0.285,-6.239 0.364,-9.403 0,-0.134 0,-0.268 0,-0.403 0.044,-1.949 0.072,-3.92 0.084,-5.947 0,-2.912 0,-5.919 -0.062,-9.078 0,-0.056 0,-0.112 0,-0.168 0,-0.817 -0.028,-1.646 -0.05,-2.486 -0.068,-2.576 -0.157,-5.264 -0.28,-8.092 -0.152,-3.528 -0.348,-7.28 -0.594,-11.278 -0.291,-4.732 0.045,-11.021 3.254,-13.692 0.317,-0.268 0.665,-0.497 1.036,-0.684 0.55,-0.279 1.142,-0.468 1.752,-0.56 l 16.94,-2.637 5.908,-0.919 8.703,1.68 19.096,3.752 c 0.229,0.044 0.455,0.101 0.677,0.168 1.235,0.361 2.317,1.117 3.08,2.151 1.972,2.637 2.38,7.28 1.988,13.529 0.488,10.803 -0.268,16.448 -1.478,21.902 z"
       fill="#000000"
       id="path166" />
    <path
       d="m 148.57,110.119 c 3.393,2.42 1.954,6.222 -0.812,9.33 -5.763,6.468 -11.76,8.478 -11.76,8.478 -0.09,-0.039 -14.969,-10.791 -4.48,-17.516 1.736,-1.12 2.413,-3.758 2.604,-6.519 0.115,-2.109 0.031,-4.2237 -0.252,-6.3167 -0.051,-0.5264 -0.135,-1.0416 -0.224,-1.5288 -0.09,-0.4872 -0.191,-0.98 -0.308,-1.4336 l 15.831,-6.5072 c -1.736,2.6096 -3.058,10.976 -2.688,13.6693 0.403,3.013 0.521,7.23 2.089,8.344 z"
       fill="#06fba3"
       id="path168" />
    <path
       opacity="0.2"
       d="m 134.172,103.892 c 0.116,-2.109 0.031,-4.2239 -0.252,-6.3168 -0.05,-0.5264 -0.134,-1.0416 -0.224,-1.5288 l 12.203,-2.3408 c -2.543,2.5592 -6.149,7.7444 -11.727,10.1864 z"
       fill="#000000"
       id="path170" />
    <path
       d="m 117.635,76.2559 c 0.398,2.6208 4.111,6.8824 3.92,6.6248 -0.148,-0.2756 -0.201,-0.5927 -0.151,-0.9016 0.085,-1.1855 0.387,-2.3453 0.891,-3.4216 0.308,1.4672 0.789,4.48 2.284,4.5192 0.594,-1.0808 1.328,-2.0664 1.227,-3.2984 0.347,1.26 0.661,2.5256 1.002,3.7856 1.479,-0.9582 2.654,-2.3177 3.388,-3.9193 0.733,-1.6017 0.996,-3.3793 0.756,-5.1247 -0.131,-0.8118 -0.42,-1.5899 -0.851,-2.2904 -0.535,-0.7729 -1.183,-1.4618 -1.921,-2.044 -1.893,-1.6072 -4.306,-2.9232 -6.72,-2.24 -4.558,1.2992 -4.222,5.6896 -3.825,8.3104 z"
       fill="#263238"
       id="path172" />
    <path
       d="m 120.805,88.4361 c 1.96,10.6792 14.745,16.3129 23.185,8.6632 4.871,-4.4072 5.65,-9.6656 6.535,-17.864 0.14,-1.2432 0.28,-2.548 0.442,-3.92 0.258,-2.1614 0.035,-4.3531 -0.655,-6.4176 -0.285,-0.8625 -0.66,-1.6922 -1.12,-2.4752 -1.649,-2.9756 -4.29,-5.2781 -7.462,-6.5062 -3.173,-1.228 -6.676,-1.3037 -9.898,-0.2139 -10.539,3.5617 -12.802,19.1241 -11.027,28.7337 z"
       fill="#06fba3"
       id="path174" />
    <path
       d="m 131.176,73.2882 c -0.078,-0.028 -0.146,-0.0787 -0.196,-0.1456 -0.078,-0.1056 -0.111,-0.2379 -0.092,-0.3679 0.019,-0.1301 0.088,-0.2474 0.193,-0.3265 0.629,-0.481 1.366,-0.8017 2.146,-0.9344 0.781,-0.1327 1.582,-0.0734 2.334,0.1728 0.06,0.0246 0.115,0.0607 0.161,0.1064 0.046,0.0457 0.082,0.1 0.107,0.1598 0.025,0.0599 0.038,0.124 0.038,0.1889 0,0.0648 -0.012,0.129 -0.037,0.1889 -0.051,0.123 -0.148,0.2212 -0.27,0.2736 -0.123,0.0523 -0.261,0.0546 -0.385,0.0064 -0.597,-0.1957 -1.232,-0.2424 -1.851,-0.136 -0.619,0.1064 -1.202,0.3626 -1.7,0.7464 -0.062,0.049 -0.136,0.0809 -0.215,0.0927 -0.078,0.0118 -0.158,0.003 -0.233,-0.0255 z"
       fill="#263238"
       id="path176" />
    <path
       d="m 125.767,74.0383 c -0.053,-0.0628 -0.121,-0.1123 -0.196,-0.1444 -0.076,-0.0321 -0.159,-0.0459 -0.241,-0.0404 -0.641,0.0808 -1.291,0.0116 -1.901,-0.2022 -0.609,-0.2138 -1.16,-0.5664 -1.61,-1.0298 -0.087,-0.1025 -0.211,-0.167 -0.345,-0.1796 -0.134,-0.0125 -0.267,0.0278 -0.372,0.1124 -0.1,0.0859 -0.163,0.2065 -0.178,0.3374 -0.014,0.1309 0.021,0.2625 0.1,0.3682 0.554,0.594 1.242,1.0468 2.007,1.3206 0.764,0.2737 1.584,0.3605 2.389,0.253 0.068,-0.0048 0.134,-0.0234 0.194,-0.0544 0.061,-0.0311 0.114,-0.0741 0.158,-0.1264 0.043,-0.0523 0.075,-0.1129 0.095,-0.178 0.019,-0.0652 0.025,-0.1336 0.018,-0.2012 -0.02,-0.0866 -0.061,-0.1672 -0.118,-0.2352 z"
       fill="#263238"
       id="path178" />
    <path
       d="m 127.677,85.3337 c -1.536,0.0144 -3.03,-0.4975 -4.234,-1.4504 1.641,-1.6296 3.478,-3.4608 4.604,-5.4824 z"
       fill="#ed893e"
       id="path180" />
    <path
       d="m 123.858,79.0112 c -0.419,-0.0331 -0.828,-0.1492 -1.202,-0.3415 -0.374,-0.1922 -0.706,-0.4569 -0.977,-0.7785 -0.025,-0.0268 -0.045,-0.0584 -0.058,-0.0929 -0.013,-0.0345 -0.019,-0.0713 -0.018,-0.1082 0.001,-0.0369 0.009,-0.0733 0.024,-0.107 0.015,-0.0337 0.037,-0.0641 0.064,-0.0895 0.026,-0.0254 0.058,-0.0452 0.093,-0.0584 0.034,-0.0131 0.071,-0.0194 0.108,-0.0183 0.037,0.001 0.073,0.0093 0.107,0.0244 0.033,0.0151 0.064,0.0367 0.089,0.0635 0.622,0.6552 1.596,1.3048 2.694,0.6608 0.064,-0.0375 0.14,-0.0485 0.212,-0.0308 0.072,0.0178 0.135,0.063 0.174,0.126 0.037,0.0648 0.047,0.1415 0.029,0.2138 -0.019,0.0722 -0.066,0.1341 -0.13,0.1726 -0.363,0.2278 -0.781,0.3536 -1.209,0.364 z"
       fill="#263238"
       id="path182" />
    <path
       d="m 133.602,87.9208 c -0.789,0.605 -1.69,1.046 -2.652,1.297 -0.962,0.2511 -1.964,0.307 -2.948,0.1646 -0.067,-0.007 -0.128,-0.0394 -0.172,-0.0904 -0.044,-0.051 -0.066,-0.1168 -0.063,-0.184 0.001,-0.0316 0.009,-0.0626 0.022,-0.0913 0.014,-0.0287 0.033,-0.0544 0.056,-0.0757 0.024,-0.0214 0.051,-0.0378 0.081,-0.0486 0.03,-0.0107 0.061,-0.0155 0.093,-0.014 1.073,0.1515 2.166,0.0545 3.195,-0.2834 1.029,-0.3379 1.967,-0.9076 2.741,-1.6654 0.046,-0.0441 0.107,-0.0688 0.171,-0.0688 0.063,0 0.125,0.0247 0.17,0.0688 0.045,0.0493 0.069,0.1131 0.069,0.1792 0,0.0662 -0.024,0.13 -0.069,0.1792 -0.209,0.2278 -0.44,0.4387 -0.694,0.6328 z"
       fill="#263238"
       id="path184" />
    <path
       d="m 144.953,94.8257 c 1.293,-0.2419 2.513,-0.7763 3.567,-1.5624 0,1.4168 0.952,3.8472 0.952,3.8472 4.508,-1.484 8.221,-10.5056 8.72,-13.496 2.508,4.6592 2.29,1.9824 2.486,0 0.28,-2.8504 0.347,-5.8016 -0.622,-8.4896 -0.968,-2.688 -3.192,-5.0904 -6.014,-5.5552 -0.526,-0.0496 -1.055,0.0428 -1.532,0.2673 -0.478,0.2246 -0.887,0.5732 -1.184,1.0095 -0.483,0.8667 -0.798,1.8165 -0.93,2.8 -1.31,7.0616 -1.254,15.3216 -5.443,21.1792 z"
       fill="#263238"
       id="path186" />
    <path
       d="m 151.348,78.5856 c -3.449,0.0728 -5.561,4.424 -5.925,7.4032 -0.431,3.3096 1.798,6.0368 4.996,4.5696 1.192,-0.5535 2.262,-1.3393 3.146,-2.3115 0.885,-0.9722 1.567,-2.1111 2.006,-3.3501 1.064,-3.0632 -0.773,-6.3728 -4.223,-6.3112 z"
       fill="#06fba3"
       id="path188" />
    <path
       opacity="0.2"
       d="m 160.918,133.539 c 0,0 -4.189,18.956 -1.282,30.396 2.906,11.441 8.708,17.209 8.708,17.209 l 1.036,-47.6 z"
       fill="#000000"
       id="path190" />
    <path
       opacity="0.2"
       d="m 168.344,181.144 c -0.823,0.197 -1.684,0.177 -2.497,-0.056 -0.157,1.854 -0.308,3.83 -0.443,5.942 -3.332,1.786 -18.189,-3.461 -31.22,-8.697 -2.873,-1.154 -5.656,-2.313 -8.204,-3.394 -0.907,-0.375 -1.775,-0.75 -2.609,-1.12 -1.731,-0.739 -3.31,-1.428 -4.688,-2.033 -1.12,-0.487 -2.105,-0.924 -2.923,-1.293 -1.708,-0.756 -2.688,-1.204 -2.688,-1.204 l 2.649,0.173 20.916,1.356 5.404,0.352 1.086,0.062 6.692,0.431 4.57,0.291 h 0.235 l 4.435,0.286 3.612,0.23 4.032,0.257 1.619,0.107 c 0,0 0.089,1.12 0.117,2.996 v 0.067 c 0.04,1.394 0.023,3.181 -0.095,5.247 z"
       fill="#000000"
       id="path192" />
    <path
       d="m 176.957,150.686 c -0.829,8.758 -2.05,17.41 -3.058,23.088 -0.7,3.954 -2.934,6.72 -5.555,7.381 -0.823,0.197 -1.684,0.178 -2.497,-0.056 -0.124,-0.033 -0.241,-0.073 -0.364,-0.117 l -20.048,-5.169 -0.174,-0.051 -2.145,-0.56 0.034,-3.976 v -0.319 -1.573 l 0.045,-4.968 2.71,0.146 13.244,0.706 c 0.268,0.075 0.55,0.086 0.823,0.033 1.148,-0.218 2.1,-1.562 2.24,-3.332 l 0.258,-3.841 0.56,-8.473 1.081,-16.078 0.991,-14.885 c 0.11,-1.606 0.363,-3.199 0.756,-4.76 1.684,0.072 3.329,0.534 4.805,1.35 3.119,1.68 6.507,5.247 7.056,12.561 0.459,6.07 0.033,14.526 -0.762,22.893 z"
       fill="#06fba3"
       id="path194" />
    <path
       d="m 152.905,177.252 -29.423,-5.678 c -0.802,-0.253 -1.652,-0.308 -2.48,-0.163 l -8.288,1.423 c -0.89,0.154 -1.805,0.078 -2.657,-0.222 -0.852,-0.3 -1.613,-0.814 -2.21,-1.492 l -3.92,-4.446 c -0.473,-0.535 -0.833,-1.159 -1.058,-1.835 -0.226,-0.677 -0.313,-1.392 -0.256,-2.103 0.057,-0.711 0.256,-1.404 0.587,-2.036 0.331,-0.632 0.786,-1.19 1.338,-1.642 l 1.405,-1.154 c 0.913,-0.75 2.051,-1.173 3.232,-1.202 1.182,-0.028 2.339,0.34 3.287,1.045 0.957,0.713 2.128,1.08 3.32,1.042 h 0.488 c 1.107,-0.035 2.197,0.279 3.116,0.897 0.919,0.618 1.621,1.509 2.008,2.547 l 0.459,1.226 23.985,0.919 z"
       fill="#06fba3"
       id="path196" />
    <path
       opacity="0.1"
       d="m 117.636,164.159 c 1.406,-0.274 2.8,-0.498 4.211,-0.728 l -0.453,-1.209 c -0.387,-1.039 -1.089,-1.929 -2.008,-2.547 -0.919,-0.618 -2.009,-0.932 -3.116,-0.897 h -0.487 c -1.193,0.038 -2.364,-0.33 -3.321,-1.042 -0.948,-0.705 -2.105,-1.073 -3.286,-1.045 -1.182,0.029 -2.32,0.452 -3.233,1.202 l -1.405,1.153 c -0.91,0.747 -1.545,1.775 -1.807,2.923 -0.261,1.147 -0.134,2.349 0.362,3.417 2.682,0.252 12.309,-0.79 14.543,-1.227 z"
       fill="#000000"
       id="path198" />
    <path
       opacity="0.2"
       d="m 162.128,171.221 c -0.987,0.419 -2.003,0.765 -3.041,1.036 -1.954,0.56 -4.648,1.265 -7.789,2.049 -1.871,0.465 -3.92,0.952 -6.026,1.456 -3.517,0.84 -7.28,1.72 -11.054,2.576 -9.851,2.24 -19.6,4.385 -24.125,5.376 0.129,-1.808 0.257,-3.578 0.364,-5.325 -0.79,0.117 -1.529,0.19 -2.24,0.224 v -0.135 l 0.173,-1.237 2.128,-0.482 5.416,-1.232 7.431,-1.68 5.443,-1.237 7.84,-1.787 6.507,-1.478 4.799,-1.092 3.607,-0.818 c 0,0 6.569,0.684 9.727,1.787 1.669,0.56 2.369,1.237 0.84,1.999 z"
       fill="#000000"
       id="path200" />
    <path
       d="m 100.326,163.202 45.153,-0.835 c 0.836,-0.071 1.644,-0.337 2.358,-0.778 l 7.156,-4.43 c 0.767,-0.476 1.644,-0.748 2.546,-0.789 0.902,-0.041 1.799,0.15 2.606,0.554 l 5.298,2.649 c 0.636,0.319 1.202,0.763 1.663,1.305 0.462,0.542 0.81,1.171 1.023,1.85 0.214,0.679 0.289,1.394 0.221,2.103 -0.068,0.708 -0.278,1.396 -0.617,2.022 l -0.856,1.613 c -0.567,1.037 -1.464,1.855 -2.548,2.324 -1.085,0.468 -2.295,0.561 -3.439,0.263 -1.153,-0.302 -8.4,0.879 -9.957,-0.795 l -0.896,-0.952 -35.924,8.456 c -2.546,0.6 -5.165,0.839 -7.778,0.711 z"
       fill="#06fba3"
       id="path202" />
    <path
       d="m 188.941,148.126 c -1.229,0.884 -2.645,1.473 -4.139,1.72 -9.733,1.612 -15.898,0.795 -23.744,-0.56 -1.383,-13.02 -1.036,-23.1 1.462,-30.38 0.834,-2.42 3.22,-5.942 5.773,-5.836 10.848,0.454 12.696,11.363 13.933,16.397 1.538,6.45 3.79,12.709 6.715,18.659 z"
       fill="#37474f"
       id="path204" />
    <path
       opacity="0.6"
       d="m 188.941,148.126 c -1.229,0.884 -2.645,1.473 -4.139,1.72 -9.733,1.612 -15.898,0.795 -23.744,-0.56 -1.383,-13.02 -1.036,-23.1 1.462,-30.38 0.834,-2.42 3.22,-5.942 5.773,-5.836 10.848,0.454 12.696,11.363 13.933,16.397 1.538,6.45 3.79,12.709 6.715,18.659 z"
       fill="#000000"
       id="path206" />
    <path
       d="m 142.578,73.4224 c 1.339,-3.4496 3.299,-5.18 2.139,-4.9448 -3.136,0.644 -5.196,-2.072 -7.442,-0.3752 -1.07,1.3608 0.342,3.7408 0.392,3.6064 -1.12,0.6104 -2.604,0.2408 -3.595,-0.56 -0.991,-0.8008 -1.395,-2.3072 -1.921,-3.4832 -0.288,1.3283 -0.193,2.711 0.274,3.9872 -0.8,0.7112 -2.57,-0.476 -3.36,-1.1704 -0.816,-0.8153 -1.439,-1.8025 -1.825,-2.8896 -0.235,1.1872 -0.42,2.4024 0.481,3.78 -1.181,0.1176 -2.744,-0.1792 -3.561,-1.0416 -0.428,-0.4499 -0.754,-0.9872 -0.955,-1.5749 -0.201,-0.5877 -0.273,-1.2119 -0.21,-1.8299 -0.241,0.616 -0.168,3.108 0.381,3.4776 -2.061,-0.56 -4.038,-3.0576 -4.032,-5.1968 0.046,-1.0721 0.348,-2.1176 0.881,-3.049 0.533,-0.9314 1.281,-1.7216 2.182,-2.3046 0.874,-0.56 1.859,-0.9968 2.8,-1.512 1.422,-0.7896 10.366,-8.2432 24.326,-0.8568 8.669,4.5808 7.476,14.56 6.519,15.68 -1.187,1.3832 -3.131,1.9208 -4.951,1.82 -1.82,-0.1008 -8.864,-0.6496 -8.523,-1.5624 z"
       fill="#263238"
       id="path208" />
    <path
       d="m 144.438,68.4496 c -0.906,0.9741 -1.582,2.1385 -1.979,3.4079 -0.398,1.2693 -0.506,2.6115 -0.317,3.9281 0.398,2.6208 4.116,6.888 3.92,6.6248 -0.149,-0.2755 -0.202,-0.5926 -0.151,-0.9016 0.084,-1.1854 0.386,-2.3452 0.89,-3.4216 0.314,1.4672 0.79,4.48 2.291,4.5192 0.593,-1.0808 1.321,-2.0664 1.22,-3.2984 0.348,1.26 0.661,2.5257 1.008,3.7856 1.478,-0.9591 2.652,-2.3187 3.386,-3.9201 0.734,-1.6014 0.997,-3.3785 0.758,-5.1239 -0.133,-0.812 -0.424,-1.5901 -0.856,-2.2904 -0.541,-0.7674 -1.194,-1.4489 -1.938,-2.0216 -1.893,-1.6072 -4.402,-3.2088 -6.72,-2.24 -0.291,0.1288 -1.602,0.6048 -1.512,0.952 z"
       fill="#263238"
       id="path210" />
    <path
       d="m 135.108,76.9617 c 0,0.8736 -0.465,1.5736 -1.025,1.5904 -0.56,0.0168 -1.019,-0.6776 -1.064,-1.5736 -0.044,-0.896 0.465,-1.5736 1.031,-1.5848 0.565,-0.0112 1.064,0.7056 1.058,1.568 z"
       fill="#263238"
       id="path212" />
    <path
       d="m 178.684,128.082 1.66,1.995 2.5,-0.667 c 1.863,-0.493 6.794,-1.804 8.088,-5.86 0.311,-0.981 0.238,-2.044 -0.205,-2.974 -0.442,-0.93 -1.222,-1.656 -2.18,-2.033 -0.959,-0.377 -2.025,-0.375 -2.982,0.004 -0.957,0.379 -1.735,1.108 -2.175,2.039 0.26,-1.047 0.094,-2.153 -0.462,-3.077 -0.556,-0.924 -1.457,-1.589 -2.503,-1.849 -1.046,-0.26 -2.153,-0.094 -3.077,0.462 -0.924,0.556 -1.589,1.456 -1.849,2.503 -1.311,4.055 1.955,7.983 3.185,9.457 z"
       fill="#37474f"
       id="path214" />
    <path
       opacity="0.25"
       d="m 178.684,128.082 1.66,1.995 2.5,-0.667 c 1.863,-0.493 6.794,-1.804 8.088,-5.86 0.311,-0.981 0.238,-2.044 -0.205,-2.974 -0.442,-0.93 -1.222,-1.656 -2.18,-2.033 -0.959,-0.377 -2.025,-0.375 -2.982,0.004 -0.957,0.379 -1.735,1.108 -2.175,2.039 0.26,-1.047 0.094,-2.153 -0.462,-3.077 -0.556,-0.924 -1.457,-1.589 -2.503,-1.849 -1.046,-0.26 -2.153,-0.094 -3.077,0.462 -0.924,0.556 -1.589,1.456 -1.849,2.503 -1.311,4.055 1.955,7.983 3.185,9.457 z"
       fill="#ffffff"
       id="path216" />
    <path
       d="m 107.091,79.5381 2.813,0.702 1.816,-2.2511 c 1.352,-1.6767 4.932,-6.1209 3.418,-10.6347 -0.365,-1.0986 -1.135,-2.0168 -2.153,-2.5676 -1.018,-0.5508 -2.208,-0.6927 -3.327,-0.3968 -1.119,0.2958 -2.083,1.0072 -2.696,1.9892 -0.613,0.982 -0.828,2.1607 -0.602,3.2959 -0.51,-1.0359 -1.394,-1.8396 -2.474,-2.2484 -1.08,-0.4088 -2.275,-0.3922 -3.343,0.0463 -1.0679,0.4386 -1.9295,1.2665 -2.4104,2.3161 -0.4809,1.0497 -0.5452,2.2428 -0.1798,3.3381 1.5142,4.5254 7.0552,5.8946 9.1382,6.411 z"
       fill="#37474f"
       id="path218" />
    <path
       opacity="0.35"
       d="m 107.091,79.5381 2.813,0.702 1.816,-2.2511 c 1.352,-1.6767 4.932,-6.1209 3.418,-10.6347 -0.365,-1.0986 -1.135,-2.0168 -2.153,-2.5676 -1.018,-0.5508 -2.208,-0.6927 -3.327,-0.3968 -1.119,0.2958 -2.083,1.0072 -2.696,1.9892 -0.613,0.982 -0.828,2.1607 -0.602,3.2959 -0.51,-1.0359 -1.394,-1.8396 -2.474,-2.2484 -1.08,-0.4088 -2.275,-0.3922 -3.343,0.0463 -1.0679,0.4386 -1.9295,1.2665 -2.4104,2.3161 -0.4809,1.0497 -0.5452,2.2428 -0.1798,3.3381 1.5142,4.5254 7.0552,5.8946 9.1382,6.411 z"
       fill="#ffffff"
       id="path220" />
    <path
       d="m 99.148,95.1622 1.677,-0.145 0.58,-1.5781 c 0.423,-1.1604 1.555,-4.2817 -0.122,-6.469 -0.414,-0.5077 -1.002,-0.8435 -1.649,-0.942 -0.6476,-0.0985 -1.3086,0.0472 -1.8547,0.4088 -0.5461,0.3617 -0.9383,0.9134 -1.1003,1.5481 -0.1619,0.6346 -0.0822,1.3068 0.2237,1.886 -0.4653,-0.5125 -1.1134,-0.8217 -1.8046,-0.861 -0.6911,-0.0393 -1.3701,0.1946 -1.8905,0.6511 -0.5204,0.4565 -0.8407,1.0992 -0.8918,1.7895 -0.0511,0.6904 0.171,1.3733 0.6185,1.9014 1.6767,2.1989 4.9722,1.9146 6.2137,1.8102 z"
       fill="#37474f"
       id="path222" />
    <path
       d="m 22.4069,180.782 c 0.3584,-1.668 0.6054,-3.357 0.7394,-5.058 0.7395,-5.715 4.0964,-10.137 8.3628,-11.002 l 3.0834,-0.636 c 0,0 -4.8358,0 -6.8544,-1.412 -4.2738,-2.958 -5.2572,-11.831 -5.2572,-11.831 0,0 -1.1979,8.873 -5.4791,11.831 -2.0186,1.412 -6.8543,1.412 -6.8543,1.412 l 3.0833,0.636 c 4.2738,0.865 7.6603,5.287 8.3702,11.002 0.1582,1.702 0.4274,3.391 0.8059,5.058 z"
       fill="#ffc14a"
       id="path224" />
    <g
       opacity="0.7"
       id="g228">
      <path
         opacity="0.7"
         d="m 22.4069,180.782 c 0.3584,-1.668 0.6054,-3.357 0.7394,-5.058 0.7395,-5.715 4.0964,-10.137 8.3628,-11.002 l 3.0834,-0.636 c 0,0 -4.8358,0 -6.8544,-1.412 -4.2738,-2.958 -5.2572,-11.831 -5.2572,-11.831 0,0 -1.1979,8.873 -5.4791,11.831 -2.0186,1.412 -6.8543,1.412 -6.8543,1.412 l 3.0833,0.636 c 4.2738,0.865 7.6603,5.287 8.3702,11.002 0.1582,1.702 0.4274,3.391 0.8059,5.058 z"
         fill="#ffffff"
         id="path226" />
    </g>
    <path
       d="m 233.65,116.675 c 0.319,-1.438 0.541,-2.895 0.665,-4.363 0.614,-4.924 3.534,-8.732 7.217,-9.486 l 2.654,-0.54 c 0,0 -4.17,0 -5.915,-1.22 -3.697,-2.5808 -4.533,-10.2042 -4.533,-10.2042 0,0 -1.035,7.6234 -4.717,10.2042 -1.738,1.22 -5.916,1.22 -5.916,1.22 l 2.662,0.54 c 3.697,0.739 6.603,4.562 7.21,9.486 0.13,1.467 0.355,2.925 0.673,4.363 z"
       fill="#ffc14a"
       id="path230" />
    <g
       opacity="0.7"
       id="g234">
      <path
         opacity="0.7"
         d="m 233.65,116.675 c 0.319,-1.438 0.541,-2.895 0.665,-4.363 0.614,-4.924 3.534,-8.732 7.217,-9.486 l 2.654,-0.54 c 0,0 -4.17,0 -5.915,-1.22 -3.697,-2.5808 -4.533,-10.2042 -4.533,-10.2042 0,0 -1.035,7.6234 -4.717,10.2042 -1.738,1.22 -5.916,1.22 -5.916,1.22 l 2.662,0.54 c 3.697,0.739 6.603,4.562 7.21,9.486 0.13,1.467 0.355,2.925 0.673,4.363 z"
         fill="#ffffff"
         id="path232" />
    </g>
    <path
       d="m 85.5007,38.2601 c 0.1479,-0.0592 0.5472,-2.9577 0.9761,-6.4034 0.8947,-7.2388 5.1759,-12.8362 10.5958,-13.9379 l 3.9044,-0.7986 c 0,0 -6.1301,0 -8.681,-1.7894 -5.4199,-3.7857 -6.6548,-14.980458 -6.6548,-14.980458 0,0 -1.4788,11.194758 -6.9283,14.980458 -2.5583,1.7894 -8.6807,1.7894 -8.6807,1.7894 l 3.9041,0.7986 c 5.4051,1.1017 9.6937,6.6991 10.5884,13.9379 0.4289,3.4753 0.8208,6.3442 0.976,6.4034 z"
       fill="#ffc14a"
       id="path236" />
    <g
       opacity="0.7"
       id="g240">
      <path
         opacity="0.7"
         d="m 85.5007,38.2601 c 0.1479,-0.0592 0.5472,-2.9577 0.9761,-6.4034 0.8947,-7.2388 5.1759,-12.8362 10.5958,-13.9379 l 3.9044,-0.7986 c 0,0 -6.1301,0 -8.681,-1.7894 -5.4199,-3.7857 -6.6548,-14.980458 -6.6548,-14.980458 0,0 -1.4788,11.194758 -6.9283,14.980458 -2.5583,1.7894 -8.6807,1.7894 -8.6807,1.7894 l 3.9041,0.7986 c 5.4051,1.1017 9.6937,6.6991 10.5884,13.9379 0.4289,3.4753 0.8208,6.3442 0.976,6.4034 z"
         fill="#ffffff"
         id="path238" />
    </g>
    <path
       d="m 255.344,198.461 c 0.155,-0.059 0.555,-2.957 0.983,-6.403 0.895,-7.239 5.176,-12.836 10.596,-13.938 l 3.904,-0.799 c 0,0 -6.129,0 -8.688,-1.789 -5.412,-3.793 -6.654,-14.988 -6.654,-14.988 0,0 -1.479,11.195 -6.936,14.988 -2.551,1.789 -8.681,1.789 -8.681,1.789 l 3.904,0.799 c 5.413,1.102 9.701,6.699 10.596,13.938 0.429,3.475 0.828,6.344 0.976,6.403 z"
       fill="#ffc14a"
       id="path242" />
    <g
       opacity="0.7"
       id="g246">
      <path
         opacity="0.7"
         d="m 255.344,198.461 c 0.155,-0.059 0.555,-2.957 0.983,-6.403 0.895,-7.239 5.176,-12.836 10.596,-13.938 l 3.904,-0.799 c 0,0 -6.129,0 -8.688,-1.789 -5.412,-3.793 -6.654,-14.988 -6.654,-14.988 0,0 -1.479,11.195 -6.936,14.988 -2.551,1.789 -8.681,1.789 -8.681,1.789 l 3.904,0.799 c 5.413,1.102 9.701,6.699 10.596,13.938 0.429,3.475 0.828,6.344 0.976,6.403 z"
         fill="#ffffff"
         id="path244" />
    </g>
    <path
       d="m 193.1,39.9903 c 0.237,-1.0673 0.403,-2.1493 0.496,-3.2386 0.451,-3.6527 2.617,-6.4847 5.353,-7.0466 l 1.974,-0.3993 c 0,0 -3.098,0 -4.384,-0.9021 -2.744,-1.9151 -3.372,-7.579 -3.372,-7.579 0,0 -0.74,5.6639 -3.498,7.579 -1.294,0.9021 -4.392,0.9021 -4.392,0.9021 l 1.975,0.3993 c 2.735,0.5619 4.902,3.3939 5.353,7.0466 0.097,1.0888 0.263,2.1705 0.495,3.2386 z"
       fill="#ffc14a"
       id="path248" />
    <g
       opacity="0.7"
       id="g252">
      <path
         opacity="0.7"
         d="m 193.1,39.9903 c 0.237,-1.0673 0.403,-2.1493 0.496,-3.2386 0.451,-3.6527 2.617,-6.4847 5.353,-7.0466 l 1.974,-0.3993 c 0,0 -3.098,0 -4.384,-0.9021 -2.744,-1.9151 -3.372,-7.579 -3.372,-7.579 0,0 -0.74,5.6639 -3.498,7.579 -1.294,0.9021 -4.392,0.9021 -4.392,0.9021 l 1.975,0.3993 c 2.735,0.5619 4.902,3.3939 5.353,7.0466 0.097,1.0888 0.263,2.1705 0.495,3.2386 z"
         fill="#ffffff"
         id="path250" />
    </g>
    <path
       d="m 23.7751,85.4863 c 0.2412,-1.0665 0.4068,-2.1488 0.4954,-3.2386 0.4511,-3.6527 2.625,-6.4847 5.3534,-7.0466 l 1.9742,-0.3993 c 0,0 -3.0981,0 -4.3847,-0.9021 -2.7358,-1.9151 -3.3643,-7.5716 -3.3643,-7.5716 0,0 -0.7394,5.6565 -3.5048,7.5716 -1.294,0.9021 -4.3922,0.9021 -4.3922,0.9021 l 1.9743,0.3993 c 2.7358,0.5619 4.9023,3.3939 5.3533,7.0466 0.0973,1.0888 0.2628,2.1705 0.4954,3.2386 z"
       fill="#ffc14a"
       id="path254" />
    <g
       opacity="0.7"
       id="g258">
      <path
         opacity="0.7"
         d="m 23.7751,85.4863 c 0.2412,-1.0665 0.4068,-2.1488 0.4954,-3.2386 0.4511,-3.6527 2.625,-6.4847 5.3534,-7.0466 l 1.9742,-0.3993 c 0,0 -3.0981,0 -4.3847,-0.9021 -2.7358,-1.9151 -3.3643,-7.5716 -3.3643,-7.5716 0,0 -0.7394,5.6565 -3.5048,7.5716 -1.294,0.9021 -4.3922,0.9021 -4.3922,0.9021 l 1.9743,0.3993 c 2.7358,0.5619 4.9023,3.3939 5.3533,7.0466 0.0973,1.0888 0.2628,2.1705 0.4954,3.2386 z"
         fill="#ffffff"
         id="path256" />
    </g>
  </g>
  <defs
     id="defs265">
    <clipPath
       id="clip0_41_1031">
      <rect
         width="280"
         height="198.797"
         fill="#ffffff"
         transform="translate(0.511719)"
         id="rect262"
         x="0"
         y="0" />
    </clipPath>
  </defs>
</svg>
