<?xml version="1.0" encoding="UTF-8" standalone="no"?>
<svg
   width="56.343334"
   height="33.629368"
   viewBox="0 0 56.343334 33.629368"
   fill="none"
   version="1.1"
   id="svg8"
   sodipodi:docname="c4545dbca0317170aa4211df842642d5.svg"
   xmlns:inkscape="http://www.inkscape.org/namespaces/inkscape"
   xmlns:sodipodi="http://sodipodi.sourceforge.net/DTD/sodipodi-0.dtd"
   xmlns="http://www.w3.org/2000/svg"
   xmlns:svg="http://www.w3.org/2000/svg">
  <defs
     id="defs12" />
  <sodipodi:namedview
     id="namedview10"
     pagecolor="#ffffff"
     bordercolor="#666666"
     borderopacity="1.0"
     inkscape:pageshadow="2"
     inkscape:pageopacity="0.0"
     inkscape:pagecheckerboard="0" />
  <g
     id="Clouds"
     transform="translate(-0.436523,-0.65503038)">
    <g
       id="clouds">
      <g
         id="Cloud">
        <path
           id="Vector"
           d="m 54.7627,16.9256 -4.5069,2.3677 c 0.0232,-0.1786 0.035,-0.3583 0.0355,-0.5381 v -1.1839 c 0,-2.1148 -1.6325,-2.9704 -3.6435,-1.9157 -0.8629,0.4866 -1.6027,1.134 -2.1706,1.8996 -0.3254,-2.6583 -2.6202,-3.6485 -5.406,-2.1848 -3.0047,1.5821 -5.4474,5.4242 -5.4474,8.6099 v 1.7758 c -0.0195,0.7099 0.1383,1.4145 0.4613,2.061 l -3.744,1.9641 c -0.5871,0.35 -1.0756,0.8207 -1.4259,1.3741 -0.3504,0.5533 -0.5528,1.1739 -0.591,1.8116 0,1.1731 0.905,1.6466 2.0169,1.0762 L 54.7627,21.1928 c 0.587,-0.3488 1.0755,-0.8185 1.4259,-1.371 0.3504,-0.5525 0.5529,-1.1723 0.591,-1.8092 0.0178,-1.1946 -0.8872,-1.6628 -2.0169,-1.087 z"
           fill="#828282" />
      </g>
      <g
         id="cloud">
        <path
           id="Vector_2"
           d="m 32.9612,3.43439 -5.5479,2.91122 c 0.0303,-0.22137 0.0461,-0.44419 0.0473,-0.66727 v -1.4852 c 0,-2.59911 -2.0051,-3.653818 -4.4833,-2.35157 C 21.9126,2.43685 21.0009,3.2333 20.3039,4.177 19.9017,0.90524 17.0804,-0.310905 13.6499,1.48641 9.94729,3.43439 6.94265,8.16983 6.94265,12.0443 v 2.1847 c -0.01664,0.8748 0.18562,1.7415 0.59147,2.5346 l -4.60753,2.4215 c -0.72411,0.4291 -1.32691,1.0074 -1.75953,1.688 -0.432626,0.6807 -0.682898,1.4445 -0.730537,2.2295 0,1.4475 1.117867,2.0287 2.490067,1.3076 L 32.9849,8.62185 C 33.71,8.19368 34.3136,7.6156 34.7463,6.93478 35.1791,6.25396 35.4287,5.48969 35.475,4.70435 35.4513,3.27296 34.3394,2.69179 32.9612,3.43439 Z"
           fill="#828282" />
      </g>
    </g>
  </g>
</svg>
