<?xml version="1.0" encoding="UTF-8" standalone="no"?>
<svg
   width="102.91508"
   height="111.17293"
   viewBox="0 0 102.91508 111.17293"
   fill="none"
   version="1.1"
   id="svg36"
   sodipodi:docname="a151229b2746f231f21a7cb1b80ad3d7.svg"
   xmlns:inkscape="http://www.inkscape.org/namespaces/inkscape"
   xmlns:sodipodi="http://sodipodi.sourceforge.net/DTD/sodipodi-0.dtd"
   xmlns="http://www.w3.org/2000/svg"
   xmlns:svg="http://www.w3.org/2000/svg">
  <defs
     id="defs40" />
  <sodipodi:namedview
     id="namedview38"
     pagecolor="#ffffff"
     bordercolor="#666666"
     borderopacity="1.0"
     inkscape:pageshadow="2"
     inkscape:pageopacity="0.0"
     inkscape:pagecheckerboard="0" />
  <path
     d="m 0,42.58123 c 0.02748,-0.4856 0.181196,-0.9583 0.448536,-1.3792 0.26734,-0.421 0.64065,-0.7782 1.08927,-1.0424 L 77.345986,0.338949 c 0.4765,-0.220247 1.0034,-0.335042 1.5378,-0.335042 0.5345,0 1.0614,0.114795 1.5378,0.335042 l 1.733,0.909421 c 0.4466,0.26572 0.818,0.62344 1.0841,1.04417 0.2662,0.42073 0.4196,0.8926 0.4478,1.37736 v 54.82343 c -0.0296,0.4845 -0.1836,0.9559 -0.4496,1.3764 -0.266,0.4205 -0.6367,0.7785 -1.0823,1.0451 l -75.81407,39.8481 c -0.47625,0.217 -1.00186,0.331 -1.53485,0.331 -0.533,0 -1.0586,-0.114 -1.53486,-0.331 l -1.733,-0.9099 c -0.44665,-0.266 -0.81845,-0.6237 -1.08553,-1.0443 C 0.185186,98.38813 0.030283,97.91643 0,97.43153 Z"
     fill="#333333"
     id="path2" />
  <g
     opacity="0.7"
     id="g6"
     transform="translate(-0.836914,-0.12207)">
    <path
       opacity="0.7"
       d="M 0.836914,42.7033 C 0.864394,42.2177 1.01811,41.745 1.28545,41.3241 1.55279,40.9031 1.9261,40.5459 2.37472,40.2817 L 78.1829,0.461019 c 0.4765,-0.220247 1.0034,-0.335042 1.5378,-0.335042 0.5345,0 1.0614,0.114795 1.5378,0.335042 l 1.733,0.909421 c 0.4466,0.26572 0.818,0.62344 1.0841,1.04417 0.2662,0.42073 0.4196,0.8926 0.4478,1.37736 V 58.6154 c -0.0296,0.4845 -0.1836,0.9559 -0.4496,1.3764 -0.266,0.4205 -0.6367,0.7785 -1.0823,1.0451 L 7.17743,100.885 c -0.47625,0.217 -1.00186,0.331 -1.53485,0.331 -0.533,0 -1.0586,-0.114 -1.53486,-0.331 l -1.733,-0.9099 C 1.92807,99.7091 1.55627,99.3514 1.28919,98.9308 1.0221,98.5102 0.867197,98.0385 0.836914,97.5536 Z"
       fill="#fff0d4"
       id="path4" />
  </g>
  <path
     d="m 0.449706,41.20363 4.35911,2.287 78.42837,-41.2037 c -0.26,-0.4243 -0.632,-0.78307 -1.0824,-1.04395 l -1.7389,-0.904037 C 79.942386,0.116229 79.417086,0 78.883986,0 c -0.533,0 -1.0583,0.116229 -1.5319,0.338943 L 1.538006,40.15963 c -0.45624,0.2561 -0.8313,0.6159 -1.0883,1.044 z"
     fill="#333333"
     id="path8" />
  <path
     opacity="0.8"
     d="m 0.449706,41.20363 4.35911,2.287 78.42837,-41.2037 c -0.26,-0.4243 -0.632,-0.78307 -1.0824,-1.04395 l -1.7389,-0.904037 C 79.942386,0.116229 79.417086,0 78.883986,0 c -0.533,0 -1.0583,0.116229 -1.5319,0.338943 L 1.538006,40.15963 c -0.45624,0.2561 -0.8313,0.6159 -1.0883,1.044 z"
     fill="#fff0d4"
     id="path10" />
  <path
     opacity="0.1"
     d="m 0,42.57583 v 54.8234 c 0.02748,0.4855 0.181196,0.9582 0.448536,1.3792 0.26734,0.4209 0.64065,0.7782 1.08927,1.0423 l 1.733,0.9152 c 0.1344,0.068 0.27488,0.125 0.41994,0.172 0.20598,0.061 0.41789,0.104 0.63287,0.129 0.40377,0.047 0.81318,0.034 1.21251,-0.038 l 0.30164,-0.07 0.18927,-0.059 c -0.11935,0.043 -0.24738,0.063 -0.37576,0.059 -0.12839,-0.005 -0.25428,-0.034 -0.36949,-0.086 -0.1648,-0.097 -0.29644,-0.234 -0.38005,-0.396 -0.08362,-0.161 -0.11587,-0.341 -0.09312,-0.519 v -54.823 c -0.01604,-0.2486 0.05183,-0.4958 0.19455,-0.7083 0.14271,-0.2126 0.35344,-0.3804 0.60393,-0.4809 l -0.79848,-0.4251 -4.35911,-2.287 C 0.173616,41.61873 0.018886,42.09103 0,42.57583 Z"
     fill="#333333"
     id="path12" />
  <path
     opacity="0.05"
     d="m 0,42.57583 v 54.8234 c 0.02748,0.4855 0.181196,0.9582 0.448536,1.3792 0.26734,0.4209 0.64065,0.7782 1.08927,1.0423 l 1.733,0.9152 c 0.1344,0.068 0.27488,0.125 0.41994,0.172 0.20598,0.061 0.41789,0.104 0.63287,0.129 0.40377,0.047 0.81318,0.034 1.21251,-0.038 l 0.30164,-0.07 0.18927,-0.059 c -0.11935,0.043 -0.24738,0.063 -0.37576,0.059 -0.12839,-0.005 -0.25428,-0.034 -0.36949,-0.086 -0.1648,-0.097 -0.29644,-0.234 -0.38005,-0.396 -0.08362,-0.161 -0.11587,-0.341 -0.09312,-0.519 v -54.823 c -0.01604,-0.2486 0.05183,-0.4958 0.19455,-0.7083 0.14271,-0.2126 0.35344,-0.3804 0.60393,-0.4809 l -0.79848,-0.4251 -4.35911,-2.287 C 0.173616,41.61873 0.018886,42.09103 0,42.57583 Z"
     fill="#0a0909"
     id="path14" />
  <path
     opacity="0.2"
     d="m 4.808476,43.49103 36.40471,12.3767 c 1.2597,0.4283 2.6421,0.4532 3.9195,0.0707 1.2773,-0.3825 2.3733,-1.1495 3.1071,-2.1747 l 5.8437,-8.1525 29.1534,-43.32388 -27.9882,43.62518 28.4377,12.5974 c -0.0268,0.4957 -0.1916,0.9772 -0.4791,1.3991 l -28.0473,-13.8619 -6.7901,9.8906 c -0.7541,1.0993 -1.9189,1.9141 -3.2804,2.2947 -1.3614,0.3806 -2.8281,0.3014 -4.1306,-0.223 l -4.8441,-1.9426 -30.84497,44.7771 c -0.1648,-0.097 -0.29645,-0.235 -0.38006,-0.396 -0.08362,-0.162 -0.11587,-0.342 -0.09311,-0.519 v -0.9149 l 31.16434,-43.0064 z"
     fill="#333333"
     id="path16" />
  <path
     opacity="0.05"
     d="m 4.808476,43.49103 36.40471,12.3767 c 1.2597,0.4283 2.6421,0.4532 3.9195,0.0707 1.2773,-0.3825 2.3733,-1.1495 3.1071,-2.1747 l 5.8437,-8.1525 29.1534,-43.32388 -27.9882,43.62518 28.4377,12.5974 c -0.0268,0.4957 -0.1916,0.9772 -0.4791,1.3991 l -28.0473,-13.8619 -6.7901,9.8906 c -0.7541,1.0993 -1.9189,1.9141 -3.2804,2.2947 -1.3614,0.3806 -2.8281,0.3014 -4.1306,-0.223 l -4.8441,-1.9426 -30.84497,44.7771 c -0.1648,-0.097 -0.29645,-0.235 -0.38006,-0.396 -0.08362,-0.162 -0.11587,-0.342 -0.09311,-0.519 v -0.9149 l 31.16434,-43.0064 z"
     fill="#0a0909"
     id="path18" />
  <path
     d="m 19.222786,52.68733 c 0.0283,-0.4848 0.1817,-0.9566 0.4478,-1.3774 0.2662,-0.4207 0.6376,-0.7784 1.0841,-1.0441 l 75.8141,-39.8207 c 0.4755,-0.2202 1.0014,-0.335 1.5349,-0.335 0.5335,0 1.0594,0.1148 1.5344,0.335 l 1.733004,0.9094 c 0.448,0.2651 0.821,0.6226 1.088,1.0433 0.267,0.4208 0.421,0.893 0.45,1.3782 v 54.8234 c -0.03,0.4851 -0.184,0.9569 -0.451,1.3776 -0.268,0.4206 -0.64,0.7782 -1.087,1.044 l -75.807704,39.8209 c -0.4773,0.218 -1.0039,0.331 -1.5379,0.331 -0.5339,0 -1.0605,-0.113 -1.5378,-0.331 l -1.7507,-0.931 c -0.4449,-0.267 -0.8151,-0.626 -1.081,-1.046 -0.266,-0.42 -0.4204,-0.891 -0.4509,-1.376 z"
     fill="#333333"
     id="path20" />
  <g
     opacity="0.5"
     id="g24"
     transform="translate(-0.836914,-0.12207)">
    <path
       opacity="0.5"
       d="m 20.0597,52.8094 c 0.0283,-0.4848 0.1817,-0.9566 0.4478,-1.3774 0.2662,-0.4207 0.6376,-0.7784 1.0841,-1.0441 L 97.4057,10.5672 c 0.4755,-0.2202 1.0014,-0.335 1.5349,-0.335 0.5335,0 1.0594,0.1148 1.5344,0.335 l 1.733,0.9094 c 0.448,0.2651 0.821,0.6226 1.088,1.0433 0.267,0.4208 0.421,0.893 0.45,1.3782 v 54.8234 c -0.03,0.4851 -0.184,0.9569 -0.451,1.3776 -0.268,0.4206 -0.64,0.7782 -1.087,1.044 L 26.4003,110.964 c -0.4773,0.218 -1.0039,0.331 -1.5379,0.331 -0.5339,0 -1.0605,-0.113 -1.5378,-0.331 l -1.7507,-0.931 c -0.4449,-0.267 -0.8151,-0.626 -1.081,-1.046 -0.266,-0.42 -0.4204,-0.891 -0.4509,-1.376 z"
       fill="#fff0d4"
       id="path22" />
  </g>
  <path
     d="m 19.666486,51.30983 4.365,2.287 78.428604,-41.1983 c -0.26,-0.4243 -0.632,-0.7831 -1.083,-1.0439 l -1.738004,-0.9041 c -0.475,-0.2227 -1.0013,-0.339 -1.5353,-0.339 -0.5341,0 -1.0603,0.1163 -1.5349,0.339 l -75.8318,39.8154 c -0.4494,0.2586 -0.8181,0.6181 -1.0706,1.0439 z"
     fill="#333333"
     id="path26" />
  <path
     opacity="0.6"
     d="m 19.666486,51.30983 4.365,2.287 78.428604,-41.1983 c -0.26,-0.4243 -0.632,-0.7831 -1.083,-1.0439 l -1.738004,-0.9041 c -0.475,-0.2227 -1.0013,-0.339 -1.5353,-0.339 -0.5341,0 -1.0603,0.1163 -1.5349,0.339 l -75.8318,39.8154 c -0.4494,0.2586 -0.8181,0.6181 -1.0706,1.0439 z"
     fill="#fff0d4"
     id="path28" />
  <path
     opacity="0.1"
     d="m 19.216786,52.68083 v 54.8231 c 0.0287,0.481 0.1812,0.95 0.4453,1.368 0.264,0.417 0.6321,0.773 1.0748,1.038 l 1.7271,0.914 c 0.1364,0.069 0.2789,0.126 0.4258,0.173 0.2058,0.061 0.4178,0.105 0.6329,0.129 0.4038,0.046 0.8132,0.034 1.2125,-0.038 l 0.2957,-0.075 c 0.0634,-0.016 0.1248,-0.038 0.1834,-0.065 -0.1157,0.046 -0.2405,0.07 -0.3667,0.07 -0.1262,0 -0.2511,-0.024 -0.3667,-0.07 -0.1643,-0.099 -0.2954,-0.237 -0.3789,-0.399 -0.0835,-0.163 -0.1161,-0.343 -0.0943,-0.521 v -54.818 c -0.0161,-0.2486 0.0518,-0.4958 0.1945,-0.7084 0.1428,-0.2125 0.3535,-0.3803 0.604,-0.4808 l -0.7985,-0.4251 -4.365,-2.287 c -0.265,0.4181 -0.4114,0.8897 -0.4259,1.3722 z"
     fill="#0a0909"
     id="path30" />
  <path
     opacity="0.4"
     d="m 24.031486,53.59653 36.4047,12.3767 c 1.2597,0.4282 2.6422,0.4532 3.9195,0.0707 1.2773,-0.3825 2.3733,-1.1496 3.1071,-2.1748 l 5.8497,-8.1471 29.153604,-43.3238 -27.988504,43.6252 28.437504,12.5973 c -0.027,0.4958 -0.191,0.9772 -0.479,1.3991 l -28.053104,-13.8673 -6.796,9.8906 c -0.7539,1.0981 -1.9176,1.912 -3.2778,2.2925 -1.3602,0.3805 -2.8255,0.3022 -4.1273,-0.2207 l -4.8382,-1.9426 -30.839,44.7826 c -0.1643,-0.099 -0.2954,-0.238 -0.3789,-0.4 -0.0835,-0.162 -0.1161,-0.343 -0.0943,-0.521 v -0.914 l 31.1643,-43.0068 z"
     fill="#333333"
     id="path32" />
  <path
     opacity="0.05"
     d="m 24.031486,53.59653 36.4047,12.3767 c 1.2597,0.4282 2.6422,0.4532 3.9195,0.0707 1.2773,-0.3825 2.3733,-1.1496 3.1071,-2.1748 l 5.8497,-8.1471 29.153604,-43.3238 -27.988504,43.6252 28.437504,12.5973 c -0.027,0.4958 -0.191,0.9772 -0.479,1.3991 l -28.053104,-13.8673 -6.796,9.8906 c -0.7539,1.0981 -1.9176,1.912 -3.2778,2.2925 -1.3602,0.3805 -2.8255,0.3022 -4.1273,-0.2207 l -4.8382,-1.9426 -30.839,44.7826 c -0.1643,-0.099 -0.2954,-0.238 -0.3789,-0.4 -0.0835,-0.162 -0.1161,-0.343 -0.0943,-0.521 v -0.914 l 31.1643,-43.0068 z"
     fill="#0a0909"
     id="path34" />
</svg>
