<?xml version="1.0" encoding="UTF-8" standalone="no"?>
<svg
   width="390"
   height="844"
   viewBox="0 0 390 844"
   fill="none"
   version="1.1"
   id="svg26"
   sodipodi:docname="61e826215d9d796d6f564d028df21caf.svg"
   xmlns:inkscape="http://www.inkscape.org/namespaces/inkscape"
   xmlns:sodipodi="http://sodipodi.sourceforge.net/DTD/sodipodi-0.dtd"
   xmlns="http://www.w3.org/2000/svg"
   xmlns:svg="http://www.w3.org/2000/svg">
  <defs
     id="defs30" />
  <sodipodi:namedview
     id="namedview28"
     pagecolor="#ffffff"
     bordercolor="#666666"
     borderopacity="1.0"
     inkscape:pageshadow="2"
     inkscape:pageopacity="0.0"
     inkscape:pagecheckerboard="0" />
  <rect
     width="61"
     height="47"
     fill="#cbc7c7"
     id="rect2"
     x="260"
     y="314" />
  <rect
     width="390"
     height="844"
     fill="#0e0d0d"
     id="rect4"
     x="0"
     y="0" />
  <path
     d="m 273.894,370.2602 0.3194,-0.1614 -1.2243,-0.6458 c -0.1031,-0.0563 -0.2121,-0.1032 -0.3254,-0.1399 l -34.719,-11.7094 c -0.4778,-0.1417 -0.9924,-0.1432 -1.4712,-0.004 -0.4787,0.1391 -0.8972,0.4116 -1.1963,0.779 l -38.8357,51.6001 c -0.6074,0.8883 -0.9537,1.9038 -1.0055,2.9489 v 3.4224 l 1.183,0.64 77.6831,-42.0751 v -3.4278 c -0.006,-0.4357 -0.1478,-0.861 -0.4081,-1.2269 z"
     fill="#333333"
     id="path6" />
  <path
     opacity="0.35"
     d="m 274.2016,370.0937 c -0.1049,-0.0581 -0.2158,-0.1067 -0.3312,-0.1453 L 239.1455,358.239 c -0.3818,-0.1155 -0.7896,-0.1406 -1.185,-0.0728 -0.3953,0.0678 -0.7651,0.2262 -1.0744,0.4602 l -1.183,-0.6349 c 0.3119,-0.2319 0.6826,-0.3888 1.0784,-0.4565 0.3958,-0.0677 0.8039,-0.044 1.1869,0.069 l 34.7191,11.7041 c 0.1134,0.0385 0.2224,0.0872 0.3253,0.1453 z"
     fill="#56ccf2"
     id="path8" />
  <path
     d="m 236.4837,359.0141 -38.8416,51.6001 c -0.6029,0.8898 -0.9469,1.9046 -0.9995,2.9489 v 3.4279 l 78.8897,-41.4352 v -3.4224 c -0.0281,-0.4643 -0.1987,-0.9121 -0.4925,-1.2926 -0.2938,-0.3805 -0.699,-0.6784 -1.1695,-0.8599 l -34.725,-11.7363 c -0.476,-0.1453 -0.9904,-0.149 -1.4689,-0.0107 -0.4785,0.1383 -0.8962,0.4116 -1.1927,0.7802 z"
     fill="#333333"
     id="path10" />
  <path
     d="m 272.1611,357.5613 c 0.0158,-0.1437 -0.01,-0.2887 -0.074,-0.4208 -0.0643,-0.132 -0.1651,-0.2466 -0.2927,-0.3326 l -2.4132,-1.2645 c -0.14576,-0.0597 -0.30627,-0.0831 -0.46522,-0.068 -0.15896,0.0151 -0.31068,0.0683 -0.43972,0.1541 l -64.70636,34.0036 c -0.3735,0.2206 -0.6844,0.5184 -0.9075,0.8691 -0.223,0.3507 -0.3519,0.7443 -0.376,1.1489 v 70.4929 c -0.0176,0.145 0.008,0.291 0.0732,0.423 0.0656,0.133 0.169,0.247 0.2994,0.331 l 2.4014,1.264 c 0.1455,0.06 0.3055,0.083 0.4642,0.069 0.1587,-0.014 0.3106,-0.065 0.4407,-0.149 L 270.8835,430.1 c 0.3718,-0.222 0.681,-0.52 0.9029,-0.871 0.2219,-0.35 0.3503,-0.744 0.3747,-1.147 z"
     fill="#f0f0f0"
     id="path12" />
  <path
     d="m 206.1711,464.108 64.7123,-34.009 c 0.3718,-0.222 0.681,-0.52 0.9029,-0.871 0.2219,-0.35 0.3503,-0.743 0.3747,-1.147 v -70.5206 c 0,-0.7426 -0.5915,-1.044 -1.2776,-0.6727 l -64.7123,34.0037 c -0.3717,0.2218 -0.681,0.52 -0.9029,0.8705 -0.2219,0.3505 -0.3502,0.7435 -0.3746,1.1474 v 70.4937 c 0,0.758 0.5737,1.06 1.2775,0.705 z"
     fill="#fffaf0"
     id="path14" />
  <path
     d="m 290.52,360.6386 20.9202,-12.1884 9.2209,2.6906 z"
     fill="#333333"
     id="path16" />
  <path
     d="m 290.52,360.6384 18.0811,-13.722 -4.016,-4.2189 z"
     fill="#333333"
     id="path18" />
  <path
     d="m 308.6011,346.9163 v 3.1856 L 290.52,360.6383 Z"
     fill="#333333"
     id="path20" />
  <path
     opacity="0.25"
     d="m 308.6011,346.9163 v 3.1856 L 290.52,360.6383 Z"
     fill="#0a0909"
     id="path22" />
  <path
     d="m 311.6177,346.653 c -0.0891,0 -0.1763,-0.0244 -0.2499,-0.0701 -0.0737,-0.0457 -0.1305,-0.1105 -0.1631,-0.1861 -0.0326,-0.0755 -0.0394,-0.1582 -0.0195,-0.2373 0.0199,-0.0791 0.0655,-0.1509 0.1309,-0.206 0.6198,-0.5215 1.1915,-1.0885 1.7093,-1.6951 0.0341,-0.0451 0.0779,-0.0834 0.1287,-0.1127 0.0509,-0.0292 0.1077,-0.0487 0.1671,-0.0573 0.0594,-0.009 0.1201,-0.006 0.1785,0.007 0.0583,0.0134 0.113,0.0374 0.1608,0.0707 0.0478,0.0332 0.0876,0.0749 0.1171,0.1226 0.0295,0.0477 0.048,0.1004 0.0545,0.1548 0.006,0.0544 6e-4,0.1094 -0.0171,0.1618 -0.0176,0.0523 -0.0468,0.1008 -0.0857,0.1425 -0.5482,0.6432 -1.1535,1.2443 -1.8099,1.7973 -0.083,0.0679 -0.1901,0.1061 -0.3017,0.1076 z m 3.33,-4.0197 c -0.0699,0.001 -0.1391,-0.0137 -0.2011,-0.0431 -0.0519,-0.0234 -0.0982,-0.056 -0.1362,-0.0958 -0.0379,-0.0398 -0.0668,-0.0861 -0.085,-0.1361 -0.0182,-0.0501 -0.0252,-0.1029 -0.0207,-0.1555 0.004,-0.0525 0.0203,-0.1038 0.0467,-0.1507 0.5165,-0.9369 0.9134,-1.9245 1.1829,-2.9435 0.0275,-0.1042 0.0993,-0.1942 0.1997,-0.2502 0.1004,-0.056 0.2211,-0.0734 0.3356,-0.0484 0.1145,0.0249 0.2134,0.0903 0.275,0.1816 0.0615,0.0913 0.0807,0.2012 0.0533,0.3054 -0.2789,1.0791 -0.6958,2.1248 -1.2421,3.1157 -0.0381,0.0681 -0.0967,0.1251 -0.1689,0.1641 -0.0723,0.0391 -0.1552,0.0587 -0.2392,0.0565 z m 1.6206,-5.6879 c -0.0583,-0.002 -0.1155,-0.0146 -0.1685,-0.0368 -0.0529,-0.0223 -0.1005,-0.0538 -0.1401,-0.0928 -0.0396,-0.0389 -0.0703,-0.0846 -0.0904,-0.1344 -0.0201,-0.0498 -0.0292,-0.1027 -0.0269,-0.1557 0,-0.2207 0,-0.4359 0,-0.6512 -4e-4,-0.8313 -0.0775,-1.6611 -0.2306,-2.4807 -0.0102,-0.0523 -0.009,-0.1059 0.004,-0.1578 0.0126,-0.0519 0.0364,-0.1009 0.0699,-0.1444 0.0335,-0.0435 0.0762,-0.0806 0.1255,-0.109 0.0492,-0.0285 0.1042,-0.0479 0.1618,-0.057 0.1167,-0.0171 0.2362,0.008 0.3325,0.0707 0.0964,0.0625 0.1618,0.1569 0.182,0.263 0.16,0.8641 0.2411,1.7389 0.2425,2.6152 0,0.226 0,0.4574 0,0.6834 -0.002,0.053 -0.016,0.1051 -0.0404,0.1533 -0.0245,0.0482 -0.0591,0.0915 -0.1019,0.1275 -0.0429,0.036 -0.0931,0.0639 -0.1478,0.0822 -0.0548,0.0183 -0.1129,0.0266 -0.1712,0.0245 z m -0.9523,-5.8171 c -0.0927,0 -0.1831,-0.0265 -0.2584,-0.0758 -0.0754,-0.0492 -0.1318,-0.1187 -0.1615,-0.1986 -0.3824,-0.9921 -0.8635,-1.9503 -1.4373,-2.8628 -0.0511,-0.0923 -0.0625,-0.1987 -0.0319,-0.2983 0.0307,-0.0995 0.1011,-0.1851 0.1975,-0.2398 0.1012,-0.0478 0.2186,-0.0589 0.3285,-0.0309 0.1098,0.028 0.2038,0.0929 0.263,0.1816 0.5996,0.9567 1.1006,1.9619 1.4964,3.0027 0.0234,0.0513 0.0349,0.1066 0.0337,0.1622 -0.001,0.0556 -0.0149,0.1104 -0.0405,0.1609 -0.0255,0.0505 -0.0623,0.0957 -0.108,0.1327 -0.0456,0.037 -0.0992,0.065 -0.1573,0.0823 -0.0439,-10e-4 -0.0875,-0.006 -0.1301,-0.0162 z m -3.1111,-5.1713 c -0.0674,-2e-4 -0.1338,-0.0143 -0.1943,-0.0414 -0.0604,-0.027 -0.1133,-0.0662 -0.1546,-0.1146 -0.7097,-0.8352 -1.4887,-1.6196 -2.3304,-2.34623 -0.0541,-0.0319 -0.0999,-0.0742 -0.1342,-0.1239 -0.0343,-0.0497 -0.0562,-0.10557 -0.0644,-0.16377 -0.008,-0.0582 -0.002,-0.11731 0.0174,-0.17321 0.0195,-0.0559 0.0522,-0.10726 0.0958,-0.15049 0.0436,-0.0432 0.097,-0.0773 0.1566,-0.0998 0.0595,-0.0225 0.1237,-0.033 0.1882,-0.0306 0.0644,0.002 0.1275,0.0175 0.1848,0.0443 0.0574,0.0268 0.1076,0.0647 0.1472,0.11095 0.8748,0.75573 1.6855,1.57058 2.4251,2.43768 0.0623,0.083 0.0883,0.1841 0.073,0.2836 -0.0153,0.0996 -0.0709,0.1903 -0.1559,0.2545 -0.0702,0.0633 -0.1619,0.1032 -0.2602,0.113 z m -4.6312,-4.13273 c -0.096,4e-4 -0.1895,-0.028 -0.2661,-0.0807 -0.9319,-0.63652 -1.9057,-1.22058 -2.9159,-1.74889 -0.0965,-0.0547 -0.1666,-0.14063 -0.1963,-0.24047 -0.0296,-0.0999 -0.0165,-0.2062 0.0366,-0.29764 0.058,-0.0898 0.1525,-0.15533 0.2631,-0.1825 0.1106,-0.0272 0.2284,-0.0138 0.3283,0.0372 1.0412,0.54436 2.0446,1.14639 3.0047,1.8027 0.0745,0.0508 0.1295,0.12168 0.1572,0.20253 0.0278,0.0809 0.0269,0.1676 -0.003,0.24796 -0.0294,0.0804 -0.0859,0.15026 -0.1614,0.19979 -0.0755,0.0495 -0.1663,0.0762 -0.2594,0.0762 z m -46.48327,-1.56054 c -0.098,7e-4 -0.19349,-0.0281 -0.27157,-0.082 -0.0781,-0.0539 -0.13434,-0.12978 -0.16001,-0.21583 -0.0257,-0.086 -0.0193,-0.1774 0.0181,-0.2598 0.0374,-0.0824 0.10376,-0.15123 0.1887,-0.1957 1.02915,-0.53812 2.0938,-1.04395 3.17618,-1.51211 0.0528,-0.0227 0.11,-0.0357 0.16834,-0.0383 0.0583,-0.003 0.11666,0.005 0.17162,0.0234 0.055,0.018 0.10546,0.0457 0.14862,0.0815 0.0432,0.0358 0.0781,0.079 0.10289,0.12713 0.0258,0.0479 0.0408,0.10004 0.044,0.1533 0.003,0.0533 -0.005,0.10658 -0.0252,0.15677 -0.0199,0.0502 -0.0506,0.0962 -0.0904,0.13542 -0.0398,0.0392 -0.0879,0.0707 -0.1413,0.0926 -1.05872,0.4574 -2.10562,0.95247 -3.11112,1.47983 -0.0682,0.036 -0.14586,0.0546 -0.22474,0.0538 z m 40.90577,-1.44753 c -0.0654,0.001 -0.1303,-0.0119 -0.1893,-0.0377 -1.0528,-0.46278 -2.1351,-0.8879 -3.2234,-1.26996 -0.0566,-0.0189 -0.1083,-0.0481 -0.152,-0.0858 -0.0437,-0.0377 -0.0785,-0.0831 -0.1023,-0.13347 -0.0238,-0.0503 -0.0361,-0.10459 -0.0361,-0.1594 0,-0.0548 0.0122,-0.10904 0.036,-0.1594 0.0208,-0.0514 0.0529,-0.0985 0.0944,-0.13825 0.0414,-0.0398 0.0913,-0.0715 0.1467,-0.0931 0.0553,-0.0217 0.1149,-0.0328 0.1752,-0.0328 0.0602,0 0.1199,0.0112 0.1752,0.0328 1.106,0.38745 2.2121,0.82332 3.2885,1.29687 0.0889,0.0407 0.1602,0.10733 0.2024,0.18929 0.0422,0.082 0.0529,0.17445 0.0304,0.26262 -0.0225,0.0882 -0.0769,0.16688 -0.1546,0.2235 -0.0776,0.0566 -0.1739,0.0879 -0.2733,0.0887 z m -35.05617,-1.07624 c -0.0892,-0.001 -0.17606,-0.0266 -0.24967,-0.0726 -0.0736,-0.0459 -0.13076,-0.11051 -0.16436,-0.18574 -0.0238,-0.0503 -0.0361,-0.10459 -0.0361,-0.1594 1e-5,-0.0548 0.0123,-0.10904 0.0361,-0.15939 0.0238,-0.0503 0.0586,-0.0958 0.10234,-0.13348 0.0437,-0.0377 0.0954,-0.0669 0.15195,-0.0858 1.10604,-0.39282 2.24757,-0.75336 3.38907,-1.07623 0.113,-0.0307 0.2347,-0.0193 0.3384,0.0317 0.1037,0.051 0.1809,0.13732 0.2147,0.24008 0.0337,0.10276 0.0212,0.2135 -0.0349,0.30785 -0.056,0.0944 -0.1509,0.16461 -0.2638,0.19529 -1.11791,0.30135 -2.23577,0.6565 -3.31816,1.03857 -0.0526,0.019 -0.10897,0.0282 -0.16561,0.0269 z m 28.98187,-1.07624 c -0.043,0.008 -0.0872,0.008 -0.1302,0 -1.1119,-0.30672 -2.2534,-0.57578 -3.395,-0.80179 -0.0586,-0.0127 -0.1139,-0.0358 -0.1628,-0.068 -0.0488,-0.0322 -0.0902,-0.0728 -0.1218,-0.1195 -0.0637,-0.0944 -0.0837,-0.2079 -0.0555,-0.31565 0.0283,-0.10775 0.1024,-0.20089 0.2061,-0.25891 0.1037,-0.058 0.2285,-0.0762 0.347,-0.0505 1.1829,0.23139 2.3303,0.50583 3.4659,0.82332 0.0561,0.0154 0.1082,0.0407 0.1535,0.0745 0.0452,0.0338 0.0827,0.0754 0.1102,0.12242 0.0275,0.047 0.0445,0.0985 0.05,0.15155 0.005,0.053 -6e-4,0.10652 -0.0179,0.15739 -0.0288,0.0824 -0.0855,0.15436 -0.162,0.2056 -0.0765,0.0512 -0.1689,0.0791 -0.2639,0.0796 z m -22.7715,-0.70493 c -0.1001,-6e-5 -0.1973,-0.0309 -0.2757,-0.0876 -0.0783,-0.0567 -0.1334,-0.1358 -0.1561,-0.22452 -0.0248,-0.10482 -0.003,-0.21431 0.0597,-0.30489 0.0631,-0.0906 0.1627,-0.15501 0.2775,-0.17941 1.1533,-0.24216 2.3363,-0.44664 3.5192,-0.6027 0.0595,-0.012 0.121,-0.0127 0.1808,-0.002 0.0597,0.0106 0.1165,0.0322 0.1666,0.0636 0.0502,0.0314 0.0927,0.0718 0.125,0.11885 0.0322,0.047 0.0535,0.0995 0.0624,0.15432 0.009,0.0548 0.005,0.11069 -0.0104,0.16418 -0.0158,0.0535 -0.0436,0.10346 -0.0815,0.14678 -0.038,0.0433 -0.0854,0.0791 -0.1392,0.10499 -0.0538,0.0259 -0.1129,0.0415 -0.1736,0.0458 -1.1829,0.15605 -2.3185,0.35516 -3.4541,0.59731 z m 16.4546,-0.61883 h -0.0651 c -1.1533,-0.15606 -2.3303,-0.26906 -3.4955,-0.33902 -0.0618,0.002 -0.1232,-0.009 -0.1803,-0.03 -0.0572,-0.0213 -0.1088,-0.0533 -0.1516,-0.0938 -0.0428,-0.0405 -0.0759,-0.0887 -0.097,-0.14154 -0.0211,-0.0528 -0.0299,-0.10905 -0.0258,-0.16512 0.004,-0.0561 0.0211,-0.11075 0.0498,-0.16051 0.0287,-0.0498 0.0685,-0.0935 0.1169,-0.12849 0.0484,-0.0349 0.1042,-0.0603 0.164,-0.0745 0.0598,-0.0142 0.1222,-0.0168 0.1831,-0.008 1.183,0.07 2.3659,0.18297 3.5488,0.33902 0.1094,0.0163 0.208,0.0693 0.2766,0.14853 0.0686,0.0792 0.1021,0.17889 0.0939,0.27944 -0.008,0.10055 -0.0573,0.19468 -0.138,0.26386 -0.0806,0.0692 -0.1867,0.10842 -0.2975,0.10997 z m -10.0076,-0.29059 c -0.1177,0.004 -0.2324,-0.0341 -0.3189,-0.10679 -0.0865,-0.0727 -0.1377,-0.17362 -0.1424,-0.28065 -0.005,-0.10704 0.0375,-0.2114 0.1173,-0.29011 0.0799,-0.0787 0.1909,-0.12534 0.3085,-0.12963 1.1829,-0.0861 2.3954,-0.13452 3.5843,-0.13452 0.1176,0 0.2305,0.0425 0.3137,0.11821 0.0832,0.0757 0.1299,0.17834 0.1299,0.28537 0,0.10704 -0.0467,0.20969 -0.1299,0.28538 -0.0832,0.0757 -0.1961,0.11821 -0.3137,0.11821 -1.1829,0 -2.3659,0.0484 -3.5133,0.13453 z"
     fill="#e0e0e0"
     id="path24" />
</svg>
