<?xml version="1.0" encoding="UTF-8" standalone="no"?>
<svg
   width="390"
   height="844"
   viewBox="0 0 390 844"
   fill="none"
   version="1.1"
   id="svg32"
   sodipodi:docname="01494e2e002004ebc1e750f3a19bdc2f.svg"
   xmlns:inkscape="http://www.inkscape.org/namespaces/inkscape"
   xmlns:sodipodi="http://sodipodi.sourceforge.net/DTD/sodipodi-0.dtd"
   xmlns="http://www.w3.org/2000/svg"
   xmlns:svg="http://www.w3.org/2000/svg">
  <defs
     id="defs36" />
  <sodipodi:namedview
     id="namedview34"
     pagecolor="#ffffff"
     bordercolor="#666666"
     borderopacity="1.0"
     inkscape:pageshadow="2"
     inkscape:pageopacity="0.0"
     inkscape:pagecheckerboard="0" />
  <rect
     width="30"
     height="49"
     fill="#cbc7c7"
     id="rect2"
     x="291"
     y="387" />
  <rect
     width="390"
     height="844"
     fill="#0e0d0d"
     id="rect4"
     x="0"
     y="0" />
  <path
     d="m 199.1335,534.224 c 72.9753,0 132.1335,-31.614 132.1335,-70.6122 C 331.267,424.614 272.1088,393 199.1335,393 126.158,393 67,424.614 67,463.6118 67,502.61 126.158,534.224 199.1335,534.224 Z"
     fill="#f5f5f5"
     id="path6" />
  <path
     d="m 123.36,467.3703 69.3549,36.4307 c 0.7936,0.366 1.671,0.557 2.561,0.557 0.89,0 1.7674,-0.191 2.5611,-0.557 l 117.406,-61.6685 c 1.4136,-0.7426 1.4136,-1.9479 0,-2.6905 l -69.3554,-36.436 c -0.7936,-0.3663 -1.671,-0.5573 -2.561,-0.5573 -0.89,0 -1.7674,0.191 -2.561,0.5573 L 123.36,464.6797 c -1.42,0.7426 -1.42,1.948 0,2.6906 z"
     fill="#e0e0e0"
     id="path8" />
  <path
     d="m 298.39831,429.0659 -4.83228,-2.5399 c 0,0 -2.88043,-10.8754 -1.73299,-20.6584 1.6147,-13.75427 9.74736,-19.74352 15.34856,-17.75787 3.7262,1.33454 4.8796,5.18746 -1.384,13.38297 -3.6908,4.8485 -8.22734,14.9113 -7.39929,27.5732 z"
     fill="#333333"
     id="path10" />
  <g
     opacity="0.3"
     id="g14"
     transform="translate(291,387)">
    <path
       opacity="0.3"
       d="M 7.39831,42.0659 2.56603,39.526 c 0,0 -2.880434,-10.8754 -1.732991,-20.6584 C 2.44774,5.11333 10.5804,-0.87592 16.1816,1.10973 19.9078,2.44427 21.0612,6.29719 14.7976,14.4927 11.1068,19.3412 6.57026,29.404 7.39831,42.0659 Z"
       fill="#0a0909"
       id="path12" />
  </g>
  <path
     d="m 296.3934,423.749 h 0.0651 c 0.0433,-0.007 0.0846,-0.0219 0.12148,-0.0437 0.0369,-0.0218 0.0687,-0.05 0.0935,-0.0831 0.0248,-0.033 0.0421,-0.0703 0.0509,-0.1095 0.009,-0.0392 0.009,-0.0796 3.8e-4,-0.1188 -2.64977,-12.6835 2.22391,-26.94358 8.28048,-32.87364 0.0574,-0.0604 0.0866,-0.13871 0.0816,-0.21838 -0.005,-0.0797 -0.0441,-0.15439 -0.1088,-0.20832 -0.0647,-0.0539 -0.1499,-0.0828 -0.2376,-0.0805 -0.0876,0.002 -0.1709,0.0356 -0.232,0.0928 -6.13942,6.04306 -11.10772,20.52919 -8.41655,33.40099 0.0131,0.0653 0.05,0.1246 0.10474,0.1686 0.0547,0.0439 0.12407,0.0698 0.19691,0.0735 z"
     fill="#fff0d4"
     id="path16" />
  <path
     d="m 311.0556,435.7166 c 0.763,0.3498 2.7917,-1.2323 3.3595,-1.6144 0.9688,-0.6686 1.7326,-1.5525 2.218,-2.5668 0.5399,-1.1526 0.6743,-2.429 0.3845,-3.6538 -0.1483,-0.6467 -0.3459,-1.2832 -0.5915,-1.9049 l -0.692,-1.8404 c -0.274,-0.5926 -0.4129,-1.2297 -0.4081,-1.8727 0.1065,-1.2915 1.3071,-2.2439 2.4013,-3.0672 1.183,-0.9148 2.4487,-2.1041 2.3659,-3.6431 -0.1586,-1.1924 -0.7472,-2.3032 -1.6738,-3.1587 -0.8577,-0.8933 -1.8691,-1.6736 -2.6557,-2.6261 -0.613,-0.6608 -0.9594,-1.4924 -0.9818,-2.3569 0.0485,-0.5327 0.2155,-1.0508 0.4909,-1.5229 0.6339,-0.9845 1.1798,-2.0139 1.6324,-3.078 0.3549,-1.0763 0.2189,-2.4377 -0.7452,-3.1641 -0.7985,-0.5974 -1.9282,-0.635 -2.9574,-0.5382 -0.9553,0.1515 -1.8633,0.4892 -2.6616,0.9902 -2.6142,1.4852 -3.9864,4.4556 -6.7841,5.6287 -1.1136,0.3735 -2.2513,0.6844 -3.40683,0.9309 -1.13561,0.3283 -2.27714,0.9148 -2.75031,1.8996 -0.94634,1.9533 1.12971,4.2081 0.50275,6.2637 -0.55006,1.8188 -2.41909,2.5883 -3.40093,4.2511 -0.40235,0.7299 -0.53313,1.559 -0.37262,2.3623 0.16743,1.362 0.6085,2.6844 1.30123,3.9014 0.7775,1.2517 1.64077,2.4577 2.5847,3.6108 0,0 12.72241,6.7157 12.84071,6.7695 z"
     fill="#333333"
     id="path18" />
  <g
     opacity="0.15"
     id="g22"
     transform="translate(291,387)">
    <path
       opacity="0.15"
       d="m 20.0556,48.7166 c 0.763,0.3498 2.7917,-1.2323 3.3595,-1.6144 0.9688,-0.6686 1.7326,-1.5525 2.218,-2.5668 0.5399,-1.1526 0.6743,-2.429 0.3845,-3.6538 -0.1483,-0.6467 -0.3459,-1.2832 -0.5915,-1.9049 l -0.692,-1.8404 c -0.274,-0.5926 -0.4129,-1.2297 -0.4081,-1.8727 0.1065,-1.2915 1.3071,-2.2439 2.4013,-3.0672 1.183,-0.9148 2.4487,-2.1041 2.3659,-3.6431 -0.1586,-1.1924 -0.7472,-2.3032 -1.6738,-3.1587 -0.8577,-0.8933 -1.8691,-1.6736 -2.6557,-2.6261 -0.613,-0.6608 -0.9594,-1.4924 -0.9818,-2.3569 0.0485,-0.5327 0.2155,-1.0508 0.4909,-1.5229 0.6339,-0.9845 1.1798,-2.0139 1.6324,-3.078 0.3549,-1.0763 0.2189,-2.4377 -0.7452,-3.1641 -0.7985,-0.5974 -1.9282,-0.635 -2.9574,-0.5382 -0.9553,0.1515 -1.8633,0.4892 -2.6616,0.9902 -2.6142,1.4852 -3.9864,4.4556 -6.7841,5.6287 -1.1136,0.3735 -2.2513,0.6844 -3.40683,0.9309 -1.13561,0.3283 -2.27714,0.9148 -2.75031,1.8996 -0.94634,1.9533 1.12971,4.2081 0.50275,6.2637 -0.55006,1.8188 -2.41909,2.5883 -3.40093,4.2511 -0.40235,0.7299 -0.53313,1.559 -0.37262,2.3623 0.16743,1.362 0.6085,2.6844 1.30123,3.9014 0.7775,1.2517 1.64077,2.4577 2.5847,3.6108 0,0 12.72241,6.7157 12.84071,6.7695 z"
       fill="#0a0909"
       id="path20" />
  </g>
  <path
     d="m 303.6563,432.208 c 0.0443,-0.003 0.0874,-0.0147 0.1269,-0.0333 0.0395,-0.0187 0.0746,-0.0442 0.1032,-0.0752 0.0286,-0.031 0.0501,-0.0669 0.0634,-0.1055 0.0133,-0.0386 0.0181,-0.0793 0.014,-0.1196 -1.2243,-12.0646 4.3,-25.7005 8.6354,-29.7902 0.0373,-0.0272 0.0678,-0.0612 0.0895,-0.0999 0.0217,-0.0387 0.0341,-0.0812 0.0365,-0.1245 0.002,-0.0434 -0.005,-0.0868 -0.023,-0.1272 -0.0175,-0.0404 -0.0442,-0.077 -0.0784,-0.1074 -0.0342,-0.0303 -0.075,-0.0537 -0.1199,-0.0686 -0.0449,-0.0148 -0.0927,-0.0209 -0.1403,-0.0177 -0.0476,0.003 -0.0939,0.0156 -0.1359,0.0363 -0.042,0.0207 -0.0786,0.0493 -0.1076,0.0839 -4.43,4.1704 -10.0549,18.0377 -8.8246,30.2691 0.007,0.0805 0.0496,0.155 0.1172,0.2074 0.0675,0.0523 0.155,0.0784 0.2436,0.0724 z"
     fill="#fff0d4"
     id="path24" />
  <path
     d="m 304.9757,417.3289 h 0.1005 c 3.1032,-0.9371 6.3106,-1.5597 9.564,-1.8565 0.0885,-0.008 0.1699,-0.0478 0.2264,-0.1103 0.0565,-0.0625 0.0835,-0.1428 0.0753,-0.2233 -0.002,-0.0402 -0.0133,-0.0796 -0.033,-0.1156 -0.0196,-0.036 -0.0473,-0.0679 -0.0812,-0.0937 -0.0339,-0.0258 -0.0734,-0.0449 -0.1158,-0.0562 -0.0425,-0.0112 -0.087,-0.0142 -0.1308,-0.009 -3.3109,0.3067 -6.5752,0.94 -9.7356,1.8888 -0.0734,0.0264 -0.1344,0.0755 -0.1722,0.1386 -0.0377,0.0631 -0.0499,0.1363 -0.0344,0.2068 0.0155,0.0705 0.0577,0.1338 0.1192,0.1789 0.0616,0.045 0.1386,0.069 0.2176,0.0676 z"
     fill="#fff0d4"
     id="path26" />
  <path
     d="m 125.726,460.6756 c 0.073,0.8937 0.376,1.7594 0.884,2.5269 0.509,0.7675 1.209,1.4153 2.044,1.891 l 63.7066,33.4545 c 0.9074,0.416 1.9091,0.632 2.9248,0.632 1.0158,0 2.0175,-0.216 2.9248,-0.632 l 112.1479,-58.9075 c 0.8842,-0.4239 1.6245,-1.0594 2.1408,-1.8379 0.5164,-0.7786 0.7893,-1.6707 0.7893,-2.58 0,-0.9093 -0.2729,-1.8014 -0.7893,-2.58 -0.5163,-0.7785 -1.2566,-1.4141 -2.1408,-1.838 l -63.695,-33.4655 c -0.9061,-0.41919 -1.9083,-0.63768 -2.9248,-0.63768 -1.0165,0 -2.0187,0.21849 -2.9248,0.63768 L 128.654,456.2522 c -0.835,0.4769 -1.535,1.1257 -2.044,1.894 -0.508,0.7684 -0.811,1.6348 -0.884,2.5294 z"
     fill="#37474f"
     id="path28" />
  <path
     d="m 128.653,459.3249 63.7072,33.4651 c 0.9061,0.42 1.9083,0.638 2.9248,0.638 1.0165,0 2.0187,-0.218 2.9248,-0.638 l 112.1479,-58.9127 c 1.6206,-0.8502 1.6206,-2.2278 0,-3.0727 l -63.695,-33.4655 c -0.9061,-0.41919 -1.9083,-0.63768 -2.9248,-0.63768 -1.0165,0 -2.0187,0.21849 -2.9248,0.63768 L 128.653,456.2522 c -1.614,0.861 -1.614,2.2278 0,3.0727 z"
     fill="#455a64"
     id="path30" />
</svg>
