<?xml version="1.0" encoding="UTF-8" standalone="no"?>
<svg
   width="243.13406"
   height="101.90927"
   viewBox="0 0 243.13406 101.90927"
   fill="none"
   version="1.1"
   id="svg6"
   sodipodi:docname="2a62bf4e63b4cfe30d00e7fdc2a96b08.svg"
   xmlns:inkscape="http://www.inkscape.org/namespaces/inkscape"
   xmlns:sodipodi="http://sodipodi.sourceforge.net/DTD/sodipodi-0.dtd"
   xmlns="http://www.w3.org/2000/svg"
   xmlns:svg="http://www.w3.org/2000/svg">
  <defs
     id="defs10" />
  <sodipodi:namedview
     id="namedview8"
     pagecolor="#ffffff"
     bordercolor="#666666"
     borderopacity="1.0"
     inkscape:pageshadow="2"
     inkscape:pageopacity="0.0"
     inkscape:pagecheckerboard="0" />
  <path
     d="m 33.428167,55.69277 c 7.641801,4.0144 7.641801,10.5256 0,14.5292 -7.6417,4.0036 -20.044799,4.0143 -27.6924295,0 -7.64765,-4.0144 -7.64765,-10.531 0,-14.5292 7.6476295,-3.9982 20.0034295,-4.0197 27.6924295,0 z"
     fill="#e0e0e0"
     id="path2" />
  <path
     d="m 50.190167,64.92157 69.355403,36.4307 c 0.794,0.366 1.671,0.557 2.561,0.557 0.89,0 1.767,-0.191 2.561,-0.557 l 117.406,-61.6685 c 1.414,-0.7426 1.414,-1.9479 0,-2.6905 l -69.355,-36.436 C 171.92457,0.190924 171.04757,0 170.15757,0 c -0.89,0 -1.768,0.190924 -2.561,0.55727 L 50.190167,62.23097 c -1.4196,0.7426 -1.4196,1.948 0,2.6906 z"
     fill="#e0e0e0"
     id="path4" />
</svg>
