<?xml version="1.0" encoding="UTF-8" standalone="no"?>
<svg
   width="182.19342"
   height="193.946"
   viewBox="0 0 182.19342 193.946"
   fill="none"
   version="1.1"
   id="svg152"
   sodipodi:docname="1de1204e7139300973467f42b59961de.svg"
   xmlns:inkscape="http://www.inkscape.org/namespaces/inkscape"
   xmlns:sodipodi="http://sodipodi.sourceforge.net/DTD/sodipodi-0.dtd"
   xmlns="http://www.w3.org/2000/svg"
   xmlns:svg="http://www.w3.org/2000/svg">
  <defs
     id="defs156" />
  <sodipodi:namedview
     id="namedview154"
     pagecolor="#ffffff"
     bordercolor="#666666"
     borderopacity="1.0"
     inkscape:pageshadow="2"
     inkscape:pageopacity="0.0"
     inkscape:pagecheckerboard="0" />
  <path
     d="m 98.254921,65.4703 c -2.0104,-1.2992 -2.8,-4.3456 -3.0184,-7.5432 -0.1325,-2.4306 -0.0331,-4.8683 0.2968,-7.28 0.0616,-0.616 0.1512,-1.2096 0.2576,-1.7696 0.0892,-0.566 0.2089,-1.1268 0.3584,-1.68 l -18.2616,-7.5376 c 2.0048,3.024 3.5336,12.7064 3.108,15.82 -0.4648,3.4944 -0.6048,8.4 -2.4192,9.6656 z"
     fill="#37474f"
     id="path2" />
  <g
     opacity="0.7"
     id="g6"
     transform="translate(-0.14257873)">
    <path
       opacity="0.7"
       d="m 98.3975,65.4703 c -2.0104,-1.2992 -2.8,-4.3456 -3.0184,-7.5432 -0.1325,-2.4306 -0.0331,-4.8683 0.2968,-7.28 0.0616,-0.616 0.1512,-1.2096 0.2576,-1.7696 0.0892,-0.566 0.2089,-1.1268 0.3584,-1.68 L 78.0303,39.6599 c 2.0048,3.024 3.5336,12.7064 3.108,15.82 -0.4648,3.4944 -0.6048,8.4 -2.4192,9.6656 z"
       fill="#ffffff"
       id="path4" />
  </g>
  <path
     d="m 78.576621,65.1455 c -3.92,2.8 -2.24,7.2016 0.9464,10.7968 1.2259,1.3787 2.545,2.6716 3.948,3.8696 6.104,5.2248 15.68,3.0072 18.530399,-4.508 1.249,-3.332 0.818,-6.9048 -3.746399,-9.828 z"
     fill="#06fba3"
     id="path8" />
  <path
     opacity="0.2"
     d="m 95.237021,57.9272 c -0.1324,-2.4305 -0.033,-4.8682 0.2968,-7.28 0.0616,-0.616 0.1512,-1.2096 0.2576,-1.7696 l -14.1176,-2.7104 c 2.9624,2.9344 7.1008,8.9376 13.5632,11.76 z"
     fill="#000000"
     id="path10" />
  <path
     d="m 113.86242,25.184 c -0.448,3.0352 -4.609,7.9688 -4.407,7.672 0.167,-0.3218 0.226,-0.6891 0.168,-1.0472 -0.091,-1.3665 -0.427,-2.7056 -0.991,-3.9536 -0.353,1.68 -0.891,5.2024 -2.565,5.2304 -0.667,-1.2544 -1.484,-2.3968 -1.367,-3.8192 -0.386,1.456 -0.744,2.9232 -1.12,4.3792 -3.248,-1.9992 -5.302699,-6.6136 -4.625099,-10.4664 0.1462,-0.9344 0.4713,-1.8319 0.9571,-2.6432 0.601999,-0.8854 1.332999,-1.6762 2.167999,-2.3464 2.122,-1.8592 2.984,-2.7216 5.773,-2.7216 6.087,0 6.457,6.6808 6.009,9.716 z"
     fill="#37474f"
     id="path12" />
  <path
     opacity="0.3"
     d="m 113.86242,25.184 c -0.448,3.0352 -4.609,7.9688 -4.407,7.672 0.167,-0.3218 0.226,-0.6891 0.168,-1.0472 -0.091,-1.3665 -0.427,-2.7056 -0.991,-3.9536 -0.353,1.68 -0.891,5.2024 -2.565,5.2304 -0.667,-1.2544 -1.484,-2.3968 -1.367,-3.8192 -0.386,1.456 -0.744,2.9232 -1.12,4.3792 -3.248,-1.9992 -5.302699,-6.6136 -4.625099,-10.4664 0.1462,-0.9344 0.4713,-1.8319 0.9571,-2.6432 0.601999,-0.8854 1.332999,-1.6762 2.167999,-2.3464 2.122,-1.8592 2.984,-2.7216 5.773,-2.7216 6.087,0 6.457,6.6808 6.009,9.716 z"
     fill="#000000"
     id="path14" />
  <path
     d="m 110.70942,40.0464 c -2.268,12.3592 -17.062899,18.8776 -26.829299,10.024 -5.6392,-5.1016 -6.5352,-11.2 -7.5656,-20.6752 -0.1624,-1.4392 -0.3248,-2.9512 -0.504,-4.5584 -0.3022,-2.5021 -0.046,-5.0401 0.7504,-7.4312 0.3269,-0.9949 0.7547,-1.9538 1.2768,-2.8616 1.9099,-3.4347 4.9634,-6.0912401 8.6295,-7.5073101 3.666,-1.41607 7.7124,-1.50208 11.4353,-0.24309 C 110.14442,10.9152 112.76542,28.9248 110.70942,40.0464 Z"
     fill="#37474f"
     id="path16" />
  <path
     opacity="0.7"
     d="m 110.70942,40.0464 c -2.268,12.3592 -17.062899,18.8776 -26.829299,10.024 -5.6392,-5.1016 -6.5352,-11.2 -7.5656,-20.6752 -0.1624,-1.4392 -0.3248,-2.9512 -0.504,-4.5584 -0.3022,-2.5021 -0.046,-5.0401 0.7504,-7.4312 0.3269,-0.9949 0.7547,-1.9538 1.2768,-2.8616 1.9099,-3.4347 4.9634,-6.0912401 8.6295,-7.5073101 3.666,-1.41607 7.7124,-1.50208 11.4353,-0.24309 C 110.14442,10.9152 112.76542,28.9248 110.70942,40.0464 Z"
     fill="#ffffff"
     id="path18" />
  <path
     d="m 95.432521,25.2008 c 0.6496,-0.0448 1.2152,0.7392 1.2656,1.7304 0.0504,0.9912 -0.3416,1.8312 -1.0696,1.8704 -0.728,0.0392 -1.2992,-0.7336 -1.3552,-1.736 -0.056,-1.0024 0.5152,-1.8256 1.1592,-1.8648 z"
     fill="#37474f"
     id="path20" />
  <path
     opacity="0.3"
     d="m 95.432521,25.2008 c 0.6496,-0.0448 1.2152,0.7392 1.2656,1.7304 0.0504,0.9912 -0.3416,1.8312 -1.0696,1.8704 -0.728,0.0392 -1.2992,-0.7336 -1.3552,-1.736 -0.056,-1.0024 0.5152,-1.8256 1.1592,-1.8648 z"
     fill="#000000"
     id="path22" />
  <path
     d="m 106.52042,25.1 c 0.65,-0.0448 1.215,0.728 1.271,1.7192 0.056,0.9912 -0.414,1.8256 -1.075,1.8704 -0.661,0.0448 -1.226,-0.728 -1.282,-1.7192 -0.056,-0.9912 0.442,-1.8312 1.086,-1.8704 z"
     fill="#37474f"
     id="path24" />
  <path
     opacity="0.3"
     d="m 106.52042,25.1 c 0.65,-0.0448 1.215,0.728 1.271,1.7192 0.056,0.9912 -0.414,1.8256 -1.075,1.8704 -0.661,0.0448 -1.226,-0.728 -1.282,-1.7192 -0.056,-0.9912 0.442,-1.8312 1.086,-1.8704 z"
     fill="#000000"
     id="path26" />
  <path
     d="m 101.85542,36.7423 c 1.68,0.1736 4.744,-0.8456 5.959,-2.0384 -2.313,-2.2904 -4.895,-4.8664 -6.479,-7.7056 z"
     fill="#37474f"
     id="path28" />
  <path
     opacity="0.5"
     d="m 101.85542,36.7423 c 1.68,0.1736 4.744,-0.8456 5.959,-2.0384 -2.313,-2.2904 -4.895,-4.8664 -6.479,-7.7056 z"
     fill="#ffffff"
     id="path30" />
  <path
     d="m 93.579121,21.3032 c 0.7263,-0.1373 1.4747,-0.1019 2.1848,0.1034 0.7102,0.2052 1.3621,0.5746 1.9032,1.0782 0.0312,0.0528 0.071,0.1001 0.1176,0.14 0.0584,0.0504 0.1262,0.0887 0.1995,0.1129 0.0733,0.0242 0.1507,0.0336 0.2276,0.0279 0.077,-0.0057 0.1521,-0.0265 0.221,-0.0613 0.0689,-0.0347 0.1303,-0.0827 0.1807,-0.1411 0.0503,-0.0585 0.0887,-0.1263 0.1129,-0.1996 0.0242,-0.0733 0.0336,-0.1506 0.0279,-0.2276 -0.0057,-0.0769 -0.0265,-0.152 -0.0613,-0.2209 -0.0347,-0.069 -0.0827,-0.1303 -0.1411,-0.1807 -0.6621,-0.6482 -1.4696,-1.1286 -2.3551,-1.4014 -0.8854,-0.2727 -1.8233,-0.3299 -2.7353,-0.1666 -0.0771,0.0079 -0.1517,0.0318 -0.219,0.0701 -0.0674,0.0382 -0.1261,0.09 -0.1724,0.1521 -0.0464,0.0621 -0.0793,0.1332 -0.0967,0.2087 -0.0175,0.0755 -0.0191,0.1537 -0.0047,0.2299 0.0125,0.1018 0.0554,0.1974 0.1232,0.2744 0.0604,0.0685 0.1358,0.1223 0.2202,0.1572 0.0844,0.035 0.1758,0.0502 0.267,0.0444 z"
     fill="#37474f"
     id="path32" />
  <path
     opacity="0.3"
     d="m 93.579121,21.3032 c 0.7263,-0.1373 1.4747,-0.1019 2.1848,0.1034 0.7102,0.2052 1.3621,0.5746 1.9032,1.0782 0.0312,0.0528 0.071,0.1001 0.1176,0.14 0.0584,0.0504 0.1262,0.0887 0.1995,0.1129 0.0733,0.0242 0.1507,0.0336 0.2276,0.0279 0.077,-0.0057 0.1521,-0.0265 0.221,-0.0613 0.0689,-0.0347 0.1303,-0.0827 0.1807,-0.1411 0.0503,-0.0585 0.0887,-0.1263 0.1129,-0.1996 0.0242,-0.0733 0.0336,-0.1506 0.0279,-0.2276 -0.0057,-0.0769 -0.0265,-0.152 -0.0613,-0.2209 -0.0347,-0.069 -0.0827,-0.1303 -0.1411,-0.1807 -0.6621,-0.6482 -1.4696,-1.1286 -2.3551,-1.4014 -0.8854,-0.2727 -1.8233,-0.3299 -2.7353,-0.1666 -0.0771,0.0079 -0.1517,0.0318 -0.219,0.0701 -0.0674,0.0382 -0.1261,0.09 -0.1724,0.1521 -0.0464,0.0621 -0.0793,0.1332 -0.0967,0.2087 -0.0175,0.0755 -0.0191,0.1537 -0.0047,0.2299 0.0125,0.1018 0.0554,0.1974 0.1232,0.2744 0.0604,0.0685 0.1358,0.1223 0.2202,0.1572 0.0844,0.035 0.1758,0.0502 0.267,0.0444 z"
     fill="#000000"
     id="path34" />
  <path
     d="m 110.57042,20.1161 c -0.009,-0.1516 -0.075,-0.2941 -0.186,-0.3982 -0.11,-0.1042 -0.256,-0.1621 -0.408,-0.1618 -0.925,-0.0237 -1.842,0.1775 -2.672,0.5861 -0.83,0.4087 -1.548,1.0128 -2.094,1.7603 -0.042,0.0627 -0.07,0.1333 -0.084,0.2075 -0.015,0.0743 -0.013,0.1505 0.003,0.2243 0.016,0.0738 0.047,0.1435 0.091,0.205 0.044,0.0615 0.1,0.1134 0.164,0.1528 h 0.039 c 0.127,0.0762 0.279,0.0989 0.423,0.0632 0.144,-0.0356 0.268,-0.1269 0.344,-0.2536 0.444,-0.5815 1.02,-1.0492 1.68,-1.3646 0.66,-0.3154 1.386,-0.4696 2.117,-0.4498 0.097,0.0043 0.194,-0.0167 0.28,-0.0609 0.086,-0.0442 0.16,-0.11 0.213,-0.1911 0.053,-0.0984 0.084,-0.2075 0.09,-0.3192 z"
     fill="#37474f"
     id="path36" />
  <path
     opacity="0.3"
     d="m 110.57042,20.1161 c -0.009,-0.1516 -0.075,-0.2941 -0.186,-0.3982 -0.11,-0.1042 -0.256,-0.1621 -0.408,-0.1618 -0.925,-0.0237 -1.842,0.1775 -2.672,0.5861 -0.83,0.4087 -1.548,1.0128 -2.094,1.7603 -0.042,0.0627 -0.07,0.1333 -0.084,0.2075 -0.015,0.0743 -0.013,0.1505 0.003,0.2243 0.016,0.0738 0.047,0.1435 0.091,0.205 0.044,0.0615 0.1,0.1134 0.164,0.1528 h 0.039 c 0.127,0.0762 0.279,0.0989 0.423,0.0632 0.144,-0.0356 0.268,-0.1269 0.344,-0.2536 0.444,-0.5815 1.02,-1.0492 1.68,-1.3646 0.66,-0.3154 1.386,-0.4696 2.117,-0.4498 0.097,0.0043 0.194,-0.0167 0.28,-0.0609 0.086,-0.0442 0.16,-0.11 0.213,-0.1911 0.053,-0.0984 0.084,-0.2075 0.09,-0.3192 z"
     fill="#000000"
     id="path38" />
  <path
     d="m 82.765321,47.4216 c -1.4956,-0.2836 -2.9071,-0.9041 -4.1272,-1.8144 0,1.6408 -1.12,4.48 -1.12,4.48 -5.2192,-1.7192 -9.52,-12.1576 -10.08,-15.6184 -2.9008,5.3928 -2.6488,2.2904 -2.8728,0 -0.3248,-3.2984 -0.4088,-6.72 0.7168,-9.828 1.1256,-3.108 3.6904,-5.8912 6.9608,-6.4288 0.6085,-0.0557 1.2207,0.0526 1.7732,0.3136 0.5525,0.2609 1.025,0.6651 1.3684,1.1704 0.5563,0.9983 0.9192,2.0927 1.0696,3.2256 1.5288,8.1816 1.4616,17.7352 6.3112,24.5 z"
     fill="#37474f"
     id="path40" />
  <path
     opacity="0.3"
     d="m 82.765321,47.4216 c -1.4956,-0.2836 -2.9071,-0.9041 -4.1272,-1.8144 0,1.6408 -1.12,4.48 -1.12,4.48 -5.2192,-1.7192 -9.52,-12.1576 -10.08,-15.6184 -2.9008,5.3928 -2.6488,2.2904 -2.8728,0 -0.3248,-3.2984 -0.4088,-6.72 0.7168,-9.828 1.1256,-3.108 3.6904,-5.8912 6.9608,-6.4288 0.6085,-0.0557 1.2207,0.0526 1.7732,0.3136 0.5525,0.2609 1.025,0.6651 1.3684,1.1704 0.5563,0.9983 0.9192,2.0927 1.0696,3.2256 1.5288,8.1816 1.4616,17.7352 6.3112,24.5 z"
     fill="#000000"
     id="path42" />
  <path
     d="m 75.367921,28.6615 c 3.9928,0.0896 6.4288,5.124 6.8544,8.568 0.4984,3.836 -2.0776,6.9888 -5.7792,5.292 -1.3801,-0.6402 -2.6185,-1.5495 -3.6426,-2.6746 -1.0242,-1.1251 -1.8134,-2.4433 -2.3214,-3.8774 -1.2376,-3.5616 0.8904,-7.392 4.8888,-7.308 z"
     fill="#37474f"
     id="path44" />
  <path
     opacity="0.7"
     d="m 75.367921,28.6615 c 3.9928,0.0896 6.4288,5.124 6.8544,8.568 0.4984,3.836 -2.0776,6.9888 -5.7792,5.292 -1.3801,-0.6402 -2.6185,-1.5495 -3.6426,-2.6746 -1.0242,-1.1251 -1.8134,-2.4433 -2.3214,-3.8774 -1.2376,-3.5616 0.8904,-7.392 4.8888,-7.308 z"
     fill="#ffffff"
     id="path46" />
  <path
     d="m 83.364521,16.9185 c 1.0447,1.1249 1.825,2.4687 2.2842,3.9336 0.4593,1.4648 0.5857,3.0136 0.3702,4.5336 -0.4648,3.0352 -4.76,7.9632 -4.5584,7.6664 0.1715,-0.3205 0.2344,-0.688 0.1792,-1.0472 -0.0994,-1.3697 -0.4486,-2.7097 -1.0304,-3.9536 -0.364,1.68 -0.9184,5.2024 -2.6488,5.2248 -0.6888,-1.2488 -1.5344,-2.3912 -1.4168,-3.8192 -0.3976,1.4616 -0.7672,2.9288 -1.1648,4.3848 -3.36,-2.0048 -5.488,-6.6192 -4.7936,-10.472 0.153,-0.9378 0.4898,-1.8361 0.9912,-2.6432 0.6276,-0.8878 1.3824,-1.6783 2.24,-2.3464 2.1952,-1.8592 5.1016,-3.7128 7.7504,-2.5984 0.3808,0.1792 1.8984,0.7336 1.7976,1.1368 z"
     fill="#37474f"
     id="path48" />
  <path
     opacity="0.3"
     d="m 83.364521,16.9185 c 1.0447,1.1249 1.825,2.4687 2.2842,3.9336 0.4593,1.4648 0.5857,3.0136 0.3702,4.5336 -0.4648,3.0352 -4.76,7.9632 -4.5584,7.6664 0.1715,-0.3205 0.2344,-0.688 0.1792,-1.0472 -0.0994,-1.3697 -0.4486,-2.7097 -1.0304,-3.9536 -0.364,1.68 -0.9184,5.2024 -2.6488,5.2248 -0.6888,-1.2488 -1.5344,-2.3912 -1.4168,-3.8192 -0.3976,1.4616 -0.7672,2.9288 -1.1648,4.3848 -3.36,-2.0048 -5.488,-6.6192 -4.7936,-10.472 0.153,-0.9378 0.4898,-1.8361 0.9912,-2.6432 0.6276,-0.8878 1.3824,-1.6783 2.24,-2.3464 2.1952,-1.8592 5.1016,-3.7128 7.7504,-2.5984 0.3808,0.1792 1.8984,0.7336 1.7976,1.1368 z"
     fill="#000000"
     id="path50" />
  <path
     d="m 105.01542,40.136 c 0,0 -3.422,-1.3888 -13.507599,-2.5928 0.56,3.6624 2.8,5.208 7.9576,5.768 5.157999,0.56 5.549999,-3.1752 5.549999,-3.1752 z"
     fill="#263238"
     id="path52" />
  <path
     d="m 104.55542,40.0072 c -0.154,0.4019 -0.41,0.7568 -0.743,1.0297 -0.333,0.273 -0.731,0.4546 -1.155,0.5271 -2.978699,-0.3595 -5.914299,-1.0123 -8.764299,-1.9488 -0.4825,-0.1101 -0.9238,-0.3548 -1.2728,-0.7057 -0.3489,-0.3509 -0.5911,-0.7936 -0.6984,-1.2767 4.2748,0.4039 8.503499,1.1987 12.633499,2.3744 z"
     fill="#ffffff"
     id="path54" />
  <path
     d="m 102.45542,41.2615 c -2.541999,-1.033 -5.227999,-1.6659 -7.963399,-1.876 -0.7668,0.0835 -1.4966,0.3738 -2.1112,0.84 1.12,1.8144 3.36,2.716 7.0392,3.1304 1.385399,0.2451 2.811399,-0.0152 4.020399,-0.7336 -0.266,-0.4958 -0.597,-0.9535 -0.985,-1.3608 z"
     fill="#ffffff"
     id="path56" />
  <path
     d="m 111.59442,64.3 c -0.432,4.0606 -1.95,7.9296 -4.396,11.2 -0.179,0.2408 -0.364,0.4816 -0.56,0.7168 -5.443,6.8936 -15.225999,9.0328 -23.362799,5.4096 -2.5724,-1.1145 -5.0421,-2.4524 -7.3808,-3.9984 -4.6144,-3.1024 -8.596,-7.4144 -10.472,-12.4768 l 14.308,-1.8424 9.7832,-1.26 6.6864,0.6832 z"
     fill="#06fba3"
     id="path58" />
  <path
     d="M 40.850321,73.4727 C 40.290321,115.473 9.2942813,151.873 6.0966813,193.778 H 159.93442 c -15.293,-32.761 -24.876,-67.893 -28.336,-103.8805 l -2.38,-24.752 H 50.487921 c 0,0 -9.5816,4.2168 -9.6376,8.3272 z"
     fill="#37474f"
     id="path60" />
  <path
     opacity="0.6"
     d="M 40.850321,73.4727 C 40.290321,115.473 9.2942813,151.873 6.0966813,193.778 H 159.93442 c -15.293,-32.761 -24.876,-67.893 -28.336,-103.8805 l -2.38,-24.752 H 50.487921 c 0,0 -9.5816,4.2168 -9.6376,8.3272 z"
     fill="#ffffff"
     id="path62" />
  <path
     opacity="0.2"
     d="m 25.236621,193.722 c 0,0 -0.896,-43.249 13.44,-87.993 14.336,-44.7442 -3.6624,13.417 -0.8624,65.257 0.7952,14.946 4.7096,22.96 4.7096,22.96 z"
     fill="#ffffff"
     id="path64" />
  <path
     opacity="0.2"
     d="m 145.81542,193.946 c 0,0 -18.793,-43.585 -22.17,-101.114 0,0 -4.603,50.91 11.278,100.946 z"
     fill="#ffffff"
     id="path66" />
  <path
     d="m 140.79342,57.9663 c 0.075,-0.0375 0.154,-0.0693 0.235,-0.0952 l -0.09,0.0392 z"
     fill="#37474f"
     id="path68" />
  <path
     d="m 142.03042,57.5073 -0.397,0.1456 -0.325,0.1176 h -0.05 l -0.23,0.084 c 0.319,-0.112 0.655,-0.2296 1.002,-0.3472 z"
     fill="#37474f"
     id="path70" />
  <path
     d="m 182.19342,59.7361 c 0,15.3664 -27.574,25.0376 -39.878,28.56 -11.67,3.92 -18.67,4.508 -18.67,4.508 -0.431,-4.06 -9.234,-27.888 -9.234,-27.888 0,0 5.264,-2.24 9.038,-1.904 h 0.095 c 4.418,0.349 8.837,-0.6634 12.662,-2.9008 1.391,-0.8031 2.84,-1.5013 4.334,-2.0888 l 0.252,-0.0952 0.146,-0.056 0.319,-0.1232 h 0.05 l 0.325,-0.1176 0.398,-0.1456 0.465,-0.1512 0.14,-0.0448 0.145,-0.0448 0.107,-0.028 h 0.039 c 1.088,-0.3151 2.193,-0.5693 3.309,-0.7616 3.275,-0.6386 6.667,-0.2474 9.711,1.12 0.578,0.2834 1.218,0.418 1.861,0.3916 0.644,-0.0264 1.271,-0.213 1.824,-0.5428 0.56,-0.3584 0.8,-0.7448 0.263,-1.0472 l -26.174,-29.9376 7.98,-4.3848 c 0,0 40.493,21.3976 40.493,37.6824 z"
     fill="#37474f"
     id="path72" />
  <path
     d="m 182.19342,59.7361 c 0,15.3664 -27.574,25.0376 -39.878,28.56 -11.67,3.92 -18.67,4.508 -18.67,4.508 -0.431,-4.06 -9.234,-27.888 -9.234,-27.888 0,0 5.264,-2.24 9.038,-1.904 h 0.095 c 4.418,0.349 8.837,-0.6634 12.662,-2.9008 1.391,-0.8031 2.84,-1.5013 4.334,-2.0888 l 0.252,-0.0952 0.146,-0.056 0.319,-0.1232 h 0.05 l 0.325,-0.1176 0.398,-0.1456 0.465,-0.1512 0.14,-0.0448 0.145,-0.0448 0.107,-0.028 h 0.039 c 1.088,-0.3151 2.193,-0.5693 3.309,-0.7616 3.275,-0.6386 6.667,-0.2474 9.711,1.12 0.578,0.2834 1.218,0.418 1.861,0.3916 0.644,-0.0264 1.271,-0.213 1.824,-0.5428 0.56,-0.3584 0.8,-0.7448 0.263,-1.0472 l -26.174,-29.9376 7.98,-4.3848 c 0,0 40.493,21.3976 40.493,37.6824 z"
     fill="#37474f"
     id="path74" />
  <g
     opacity="0.3"
     id="g78"
     transform="translate(-0.14257873)">
    <path
       opacity="0.3"
       d="m 182.336,59.7361 c 0,15.3664 -27.574,25.0376 -39.878,28.56 -11.67,3.92 -18.67,4.508 -18.67,4.508 -0.431,-4.06 -9.234,-27.888 -9.234,-27.888 0,0 5.264,-2.24 9.038,-1.904 h 0.095 c 4.418,0.349 8.837,-0.6634 12.662,-2.9008 1.391,-0.8031 2.84,-1.5013 4.334,-2.0888 l 0.252,-0.0952 0.146,-0.056 0.319,-0.1232 h 0.05 l 0.325,-0.1176 0.398,-0.1456 0.465,-0.1512 0.14,-0.0448 0.145,-0.0448 0.107,-0.028 h 0.039 c 1.088,-0.3151 2.193,-0.5693 3.309,-0.7616 3.275,-0.6386 6.667,-0.2474 9.711,1.12 0.578,0.2834 1.218,0.418 1.861,0.3916 0.644,-0.0264 1.271,-0.213 1.824,-0.5428 0.56,-0.3584 0.8,-0.7448 0.263,-1.0472 l -26.174,-29.9376 7.98,-4.3848 c 0,0 40.493,21.3976 40.493,37.6824 z"
       fill="#ffffff"
       id="path76" />
  </g>
  <path
     d="m 135.87642,27.2168 -11.155,-4.4184 -6.72,-8.96 9.654,-2.1448 9.128,4.732 5.477,5.9584 c 0.253,0.2767 0.434,0.6128 0.523,0.9773 0.09,0.3645 0.087,0.7457 -0.009,1.1087 -0.096,0.363 -0.281,0.696 -0.539,0.9686 -0.259,0.2725 -0.581,0.4757 -0.938,0.591 l -3.92,1.2488 c -0.493,0.1528 -1.023,0.1311 -1.501,-0.0616 z"
     fill="#37474f"
     id="path80" />
  <path
     opacity="0.7"
     d="m 135.87642,27.2168 -11.155,-4.4184 -6.72,-8.96 9.654,-2.1448 9.128,4.732 5.477,5.9584 c 0.253,0.2767 0.434,0.6128 0.523,0.9773 0.09,0.3645 0.087,0.7457 -0.009,1.1087 -0.096,0.363 -0.281,0.696 -0.539,0.9686 -0.259,0.2725 -0.581,0.4757 -0.938,0.591 l -3.92,1.2488 c -0.493,0.1528 -1.023,0.1311 -1.501,-0.0616 z"
     fill="#ffffff"
     id="path82" />
  <path
     opacity="0.2"
     d="m 128.57342,80.5847 1.12,11.3288 c 0,0 16.514,-3.8304 25.849,-8.1032 l -7.498,0.4088 c -6.204,0.4256 -12.413,-0.7426 -18.038,-3.3936 z"
     fill="#000000"
     id="path84" />
  <path
     d="m 130.55042,91.6504 c -0.162,36.0586 -6.787,39.4636 -6.473,70.4986 0,0 -62.434899,0.252 -64.551699,0.308 -5.04,-41.765 -10.1752,-43.68 -8.82,-75.7514 -0.6552,-10.5336 5.32,-19.796 11.3288,-21 l 27.4904,-3.6568 26.443499,2.8 c 6.72,0.9632 12.796,6.2608 14.582,26.8016 z"
     fill="#37474f"
     id="path86" />
  <path
     opacity="0.3"
     d="m 130.55042,91.6504 c -0.162,36.0586 -6.787,39.4636 -6.473,70.4986 0,0 -62.434899,0.252 -64.551699,0.308 -5.04,-41.765 -10.1752,-43.68 -8.82,-75.7514 -0.6552,-10.5336 5.32,-19.796 11.3288,-21 l 27.4904,-3.6568 26.443499,2.8 c 6.72,0.9632 12.796,6.2608 14.582,26.8016 z"
     fill="#ffffff"
     id="path88" />
  <path
     d="m 85.459121,21.2304 c -1.68,-3.696 -3.92,-5.4824 -2.6152,-5.2808 3.5056,0.56 5.6504,-2.5256 8.2264,-0.7896 1.2544,1.4336 -0.1904,4.0992 -0.252,3.9536 1.288,0.6104 2.8952,0.1288 3.9536,-0.812 1.0584,-0.9408 1.428,-2.5872 1.9488,-3.92 0.39,1.4332 0.355,2.9488 -0.1008,4.3624 0.924,0.7336 2.828,-0.644 3.695499,-1.4448 0.868,-0.9187 1.517,-2.0213 1.899,-3.2256 0.33,1.288 0.588,2.5984 -0.336,4.1496 1.31,0.0728 3.03,-0.3304 3.892,-1.3104 0.451,-0.5105 0.784,-1.1133 0.978,-1.7662 0.193,-0.6529 0.242,-1.3402 0.142,-2.0138 0.297,0.6608 0.342,3.36 -0.246,3.8136 2.24,-0.7336 4.317,-3.5336 4.2,-5.8688 -0.108,-1.1715601 -0.497,-2.2998901 -1.134,-3.2893401 -0.636,-0.98946 -1.502,-1.81087 -2.523,-2.39464 -1.003,-0.5992 -2.117,-0.9912 -3.17,-1.5064 -1.618,-0.7952 -11.899899,-8.4672 -26.997499,0.28 -9.3688,5.432 -7.5376,16.2399801 -6.4232,17.4159801 1.3832,1.4504 3.5616,1.9376 5.572,1.736 2.0104,-0.2016 9.7272,-1.1088 9.2904,-2.0888 z"
     fill="#37474f"
     id="path90" />
  <path
     opacity="0.3"
     d="m 85.459121,21.2304 c -1.68,-3.696 -3.92,-5.4824 -2.6152,-5.2808 3.5056,0.56 5.6504,-2.5256 8.2264,-0.7896 1.2544,1.4336 -0.1904,4.0992 -0.252,3.9536 1.288,0.6104 2.8952,0.1288 3.9536,-0.812 1.0584,-0.9408 1.428,-2.5872 1.9488,-3.92 0.39,1.4332 0.355,2.9488 -0.1008,4.3624 0.924,0.7336 2.828,-0.644 3.695499,-1.4448 0.868,-0.9187 1.517,-2.0213 1.899,-3.2256 0.33,1.288 0.588,2.5984 -0.336,4.1496 1.31,0.0728 3.03,-0.3304 3.892,-1.3104 0.451,-0.5105 0.784,-1.1133 0.978,-1.7662 0.193,-0.6529 0.242,-1.3402 0.142,-2.0138 0.297,0.6608 0.342,3.36 -0.246,3.8136 2.24,-0.7336 4.317,-3.5336 4.2,-5.8688 -0.108,-1.1715601 -0.497,-2.2998901 -1.134,-3.2893401 -0.636,-0.98946 -1.502,-1.81087 -2.523,-2.39464 -1.003,-0.5992 -2.117,-0.9912 -3.17,-1.5064 -1.618,-0.7952 -11.899899,-8.4672 -26.997499,0.28 -9.3688,5.432 -7.5376,16.2399801 -6.4232,17.4159801 1.3832,1.4504 3.5616,1.9376 5.572,1.736 2.0104,-0.2016 9.7272,-1.1088 9.2904,-2.0888 z"
     fill="#000000"
     id="path92" />
  <path
     d="m 105.01542,40.136 c 0,0 -3.422,-1.3888 -13.507599,-2.5928 0.56,3.6624 2.8,5.208 7.9576,5.768 5.157999,0.56 5.549999,-3.1752 5.549999,-3.1752 z"
     fill="#37474f"
     id="path94" />
  <path
     opacity="0.3"
     d="m 105.01542,40.136 c 0,0 -3.422,-1.3888 -13.507599,-2.5928 0.56,3.6624 2.8,5.208 7.9576,5.768 5.157999,0.56 5.549999,-3.1752 5.549999,-3.1752 z"
     fill="#000000"
     id="path96" />
  <path
     d="m 104.55542,40.0072 c -0.154,0.4019 -0.41,0.7568 -0.743,1.0297 -0.333,0.273 -0.731,0.4546 -1.155,0.5271 -2.978699,-0.3595 -5.914299,-1.0123 -8.764299,-1.9488 -0.4825,-0.1101 -0.9238,-0.3548 -1.2728,-0.7057 -0.3489,-0.3509 -0.5911,-0.7936 -0.6984,-1.2767 4.2748,0.4039 8.503499,1.1987 12.633499,2.3744 z"
     fill="#ffffff"
     id="path98" />
  <path
     d="m 102.45542,41.2615 c -2.541999,-1.033 -5.227999,-1.6659 -7.963399,-1.876 -0.7668,0.0835 -1.4966,0.3738 -2.1112,0.84 1.12,1.8144 3.36,2.716 7.0392,3.1304 1.385399,0.2451 2.811399,-0.0152 4.020399,-0.7336 -0.266,-0.4958 -0.597,-0.9535 -0.985,-1.3608 z"
     fill="#ffffff"
     id="path100" />
  <path
     d="m 56.293921,146.553 c 0,0 13.2048,-7 13.132,-6.233 -0.0728,0.767 0.2744,15.579 0.2744,15.579 l -14.3976,-0.33 z"
     fill="#37474f"
     id="path102" />
  <path
     d="m 69.415021,140.32 c 0,0 12.1576,0.398 12.0904,1.747 -0.0672,1.35 -1.3776,12.679 -1.3776,12.679 l -10.4384,1.159 z"
     fill="#37474f"
     id="path104" />
  <g
     opacity="0.7"
     id="g108"
     transform="translate(-0.14257873)">
    <path
       opacity="0.7"
       d="m 81.6367,142.067 c -0.0672,1.355 -1.372,12.673 -1.372,12.673 l -10.4384,1.159 -14.3976,-0.33 0.9912,-9.016 c 0,0 13.2048,-7 13.132,-6.233 0.0056,0 12.1632,0.426 12.0848,1.747 z"
       fill="#ffffff"
       id="path106" />
  </g>
  <path
     d="m 111.59442,64.3 c -0.432,4.0606 -1.95,7.9296 -4.396,11.2 -0.179,0.2408 -0.364,0.4816 -0.56,0.7168 -5.443,6.8936 -15.225999,9.0328 -23.362799,5.4096 -2.5724,-1.1145 -5.0421,-2.4524 -7.3808,-3.9984 -4.6144,-3.1024 -8.596,-7.4144 -10.472,-12.4768 l 14.308,-1.8424 9.7832,-1.26 6.6864,0.6832 z"
     fill="#37474f"
     id="path110" />
  <path
     opacity="0.7"
     d="m 111.59442,64.3 c -0.432,4.0606 -1.95,7.9296 -4.396,11.2 -0.179,0.2408 -0.364,0.4816 -0.56,0.7168 -5.443,6.8936 -15.225999,9.0328 -23.362799,5.4096 -2.5724,-1.1145 -5.0421,-2.4524 -7.3808,-3.9984 -4.6144,-3.1024 -8.596,-7.4144 -10.472,-12.4768 l 14.308,-1.8424 9.7832,-1.26 6.6864,0.6832 z"
     fill="#ffffff"
     id="path112" />
  <path
     opacity="0.2"
     d="m 50.794921,100.666 c 0.0201,6.298 0.5822,12.582 1.68,18.783 l 4.676,-29.1875 z"
     fill="#000000"
     id="path114" />
  <path
     d="m 25.449621,121.784 31.276,22.098 -1.4336,12.997 c 0,0 -46.9391797,-10.791 -54.0455797,-25.435 -3.32081,-6.832 0.42,-15.187 6.1992,-22.915 0.00264,-0.009 0.00264,-0.019 0,-0.028 C 14.316821,97.2615 20.560821,90.5807 25.270421,86.6327 c 4.619,-3.7586 8.6309,-8.2069 11.8944,-13.188 8.1088,-12.7288 26.32,-7.5712 26.32,-7.5712 -4.1496,9.7104 -4.1944,28.1792 -4.1944,28.1792 0,0 -4.0712,3.0688 -8.5176,6.6133 -0.0448,2.996 -1.8648,6.664 -5.3816,10.808 -4.62,5.466 -18.3624,8.58 -19.9416,10.31 z"
     fill="#37474f"
     id="path116" />
  <path
     opacity="0.3"
     d="m 25.449621,121.784 31.276,22.098 -1.4336,12.997 c 0,0 -46.9391797,-10.791 -54.0455797,-25.435 -3.32081,-6.832 0.42,-15.187 6.1992,-22.915 0.00264,-0.009 0.00264,-0.019 0,-0.028 C 14.316821,97.2615 20.560821,90.5807 25.270421,86.6327 c 4.619,-3.7586 8.6309,-8.2069 11.8944,-13.188 8.1088,-12.7288 26.32,-7.5712 26.32,-7.5712 -4.1496,9.7104 -4.1944,28.1792 -4.1944,28.1792 0,0 -4.0712,3.0688 -8.5176,6.6133 -0.0448,2.996 -1.8648,6.664 -5.3816,10.808 -4.62,5.466 -18.3624,8.58 -19.9416,10.31 z"
     fill="#ffffff"
     id="path118" />
  <path
     d="m 49.075821,62.1104 c 9.8877,8.2236 21.1224,14.6765 33.208,19.0736 0,-3.7912 -1.2096,-11.452 -3.36,-16.2008 -0.6104,-1.3328 -1.3832,-2.6712 -2.632,-3.4384 -1.2488,-0.7672 -3.08,-0.7616 -4.0096,0.3752 -3.5504,-2.5088 -9.3912,-2.6264 -12.8352,0 -2.6656,-0.924 -6.4512,-2.3912 -9.2288,-1.8928 -2.7776,0.4984 -6.2048,4.2 -5.7904,6.9944 2.562,-1.2264 5.3399,-1.938 8.176,-2.0944 -0.7616,-0.9016 -0.0168,0.028 -3.528,-2.8168 z"
     fill="#37474f"
     id="path120" />
  <path
     opacity="0.6"
     d="m 49.075821,62.1104 c 9.8877,8.2236 21.1224,14.6765 33.208,19.0736 0,-3.7912 -1.2096,-11.452 -3.36,-16.2008 -0.6104,-1.3328 -1.3832,-2.6712 -2.632,-3.4384 -1.2488,-0.7672 -3.08,-0.7616 -4.0096,0.3752 -3.5504,-2.5088 -9.3912,-2.6264 -12.8352,0 -2.6656,-0.924 -6.4512,-2.3912 -9.2288,-1.8928 -2.7776,0.4984 -6.2048,4.2 -5.7904,6.9944 2.562,-1.2264 5.3399,-1.938 8.176,-2.0944 -0.7616,-0.9016 -0.0168,0.028 -3.528,-2.8168 z"
     fill="#ffffff"
     id="path122" />
  <path
     d="m 120.93542,63.0679 c -1.606,-0.7266 -3.348,-1.1025 -5.11,-1.1025 -1.763,0 -3.505,0.3759 -5.11,1.1025 -2.195,-1.6072 -5.572,-1.9487 -7.84,-0.4087 -0.357,-0.4267 -0.799,-0.7745 -1.297,-1.0213 -0.498,-0.2469 -1.043,-0.3873 -1.597999,-0.4123 -1.1204,-0.0392 -1.8372,0.7336 -2.6044,1.5344 1.6128,0.812 2.436,2.6208 3.007399,4.3344 1.458,4.3405 2.079,8.9182 1.831,13.4904 7.728,-3.7744 14.286,-10.108 18.721,-17.5169 z"
     fill="#37474f"
     id="path124" />
  <path
     opacity="0.6"
     d="m 120.93542,63.0679 c -1.606,-0.7266 -3.348,-1.1025 -5.11,-1.1025 -1.763,0 -3.505,0.3759 -5.11,1.1025 -2.195,-1.6072 -5.572,-1.9487 -7.84,-0.4087 -0.357,-0.4267 -0.799,-0.7745 -1.297,-1.0213 -0.498,-0.2469 -1.043,-0.3873 -1.597999,-0.4123 -1.1204,-0.0392 -1.8372,0.7336 -2.6044,1.5344 1.6128,0.812 2.436,2.6208 3.007399,4.3344 1.458,4.3405 2.079,8.9182 1.831,13.4904 7.728,-3.7744 14.286,-10.108 18.721,-17.5169 z"
     fill="#ffffff"
     id="path126" />
  <path
     opacity="0.5"
     d="m 119.42242,106.709 c 0,8.506 -12.107,23.71 -27.042099,23.71 -14.9352,0 -27.0424,-15.204 -27.0424,-23.71 0,-8.5066 12.1072,-15.4058 27.0424,-15.4058 14.935099,0 27.042099,6.8824 27.042099,15.4058 z"
     fill="#ffffff"
     id="path128" />
  <path
     d="m 115.78842,107.442 c 0,7.006 -9.974,19.533 -22.276999,19.533 -12.3032,0 -22.2712,-12.55 -22.2712,-19.533 0,-6.983 9.968,-12.6949 22.2712,-12.6949 12.302999,0 22.276999,5.6779 22.276999,12.6949 z"
     fill="#37474f"
     id="path130" />
  <path
     opacity="0.5"
     d="m 115.78842,107.442 c 0,7.006 -9.974,19.533 -22.276999,19.533 -12.3032,0 -22.2712,-12.55 -22.2712,-19.533 0,-6.983 9.968,-12.6949 22.2712,-12.6949 12.302999,0 22.276999,5.6779 22.276999,12.6949 z"
     fill="#ffffff"
     id="path132" />
  <path
     d="M 124.08742,162.457 H 59.525421 v 10.533 h 64.561999 z"
     fill="#ffffff"
     id="path134" />
  <path
     d="m 59.525421,172.99 -6.1768,20.787 h 72.827799 l -2.083,-20.787 z"
     fill="#37474f"
     id="path136" />
  <path
     opacity="0.2"
     d="m 59.525421,172.99 -6.1768,20.787 h 72.827799 l -2.083,-20.787 z"
     fill="#ffffff"
     id="path138" />
  <path
     d="M 107.37742,161.785 H 88.074221 v 11.542 h 19.303199 z"
     fill="#263238"
     id="path140" />
  <path
     opacity="0.7"
     d="M 107.37742,161.785 H 88.074221 v 11.542 h 19.303199 z"
     fill="#ffffff"
     id="path142" />
  <path
     opacity="0.7"
     d="m 96.155721,161.785 -5.684,11.542 h 4.2111 l 5.863599,-11.542 z"
     fill="#ffffff"
     id="path144" />
  <path
     opacity="0.7"
     d="m 102.34942,161.785 -5.684399,11.542 h 3.0072 l 5.863199,-11.542 z"
     fill="#ffffff"
     id="path146" />
  <path
     opacity="0.2"
     d="m 113.86242,25.156 c -0.236,1.5848 -1.473,3.6792 -2.582,5.2808 0.18,3.2048 -0.008,6.4196 -0.56,9.5816 -0.672,3.7241 -2.554,7.1223 -5.355,9.6669 -2.801,2.5447 -6.363299,4.0935 -10.134499,4.4059 -0.0699,1.2684 -0.0699,2.5396 0,3.808 0.0787,1.6408 0.4034,3.2604 0.9632,4.8048 l 15.383299,1.568 c -0.432,4.0605 -1.951,7.9296 -4.396,11.2 -0.179,0.2408 -0.364,0.4816 -0.56,0.7168 -5.443,6.8936 -15.226499,9.0328 -23.363299,5.4096 -2.5667,-1.1154 -5.0307,-2.4533 -7.364,-3.9984 -4.6144,-3.1024 -8.596,-7.4144 -10.472,-12.4768 l 14.308,-1.8424 c 0.7392,-2.0944 0.9072,-5.32 1.2432,-7.84 0.2352,-1.7192 -0.1232,-5.4376 -0.8288,-8.9264 -0.537,-0.2667 -1.0487,-0.5816 -1.5288,-0.9408 0,1.6408 -1.12,4.48 -1.12,4.48 -5.2192,-1.7192 -9.52,-12.1576 -10.08,-15.6184 -2.9064,5.3928 -2.6488,2.2904 -2.8728,0 -0.3248,-3.2984 -0.4088,-6.72 0.7168,-9.828 0.8031,-2.3113 2.3875,-4.27 4.48,-5.5384 -0.56,-3.7968 0.2128,-10.8584201 7.2128,-14.9184201 15.12,-8.74721 25.378899,-1.0752 26.997899,-0.28 1.052,0.5152 2.161,0.90719 3.169,1.50639 1.022,0.58377 1.887,1.40519 2.524,2.39464 0.637,0.98945 1.025,2.11778 1.133,3.2893901 0.073,1.5232 -0.778,3.2368 -1.999,4.452 5.197,0.6664 5.51,6.7816 5.085,9.6432 z"
     fill="#ffffff"
     id="path148" />
  <path
     opacity="0.2"
     d="m 103.11642,14.7064 -0.191,-0.3192 c 0.071,-0.4152 0.071,-0.8392 0,-1.2544 0.147,0.511 0.212,1.0423 0.191,1.5736 z"
     fill="#ffffff"
     id="path150" />
</svg>
