<?xml version="1.0" encoding="UTF-8" standalone="no"?>
<svg
   width="98.813515"
   height="65.83873"
   viewBox="0 0 98.813515 65.83873"
   fill="none"
   version="1.1"
   id="svg10"
   sodipodi:docname="521e1c86a8d9d07e32d0614252ee958b.svg"
   xmlns:inkscape="http://www.inkscape.org/namespaces/inkscape"
   xmlns:sodipodi="http://sodipodi.sourceforge.net/DTD/sodipodi-0.dtd"
   xmlns="http://www.w3.org/2000/svg"
   xmlns:svg="http://www.w3.org/2000/svg">
  <defs
     id="defs14" />
  <sodipodi:namedview
     id="namedview12"
     pagecolor="#ffffff"
     bordercolor="#666666"
     borderopacity="1.0"
     inkscape:pageshadow="2"
     inkscape:pageopacity="0.0"
     inkscape:pagecheckerboard="0" />
  <g
     id="Hearts"
     transform="translate(-0.30859361,-0.2387696)">
    <g
       id="Heart">
      <path
         id="heart"
         d="m 86.6845,64.0817 1.6593,1.9958 2.5006,-0.6672 c 1.8623,-0.4932 6.7938,-1.8044 8.0876,-5.8598 0.3114,-0.9816 0.2382,-2.0448 -0.2046,-2.9745 -0.4429,-0.9297 -1.2224,-1.6565 -2.1808,-2.0332 -0.9584,-0.3767 -2.0241,-0.3753 -2.9815,0.004 -0.9574,0.3793 -1.735,1.1081 -2.1754,2.039 0.2601,-1.0464 0.0938,-2.1531 -0.4622,-3.0769 -0.556,-0.9237 -1.4562,-1.5888 -2.5025,-1.8488 -1.0463,-0.2601 -2.1531,-0.0938 -3.0769,0.4622 -0.9237,0.556 -1.5888,1.4561 -1.8488,2.5025 -1.3112,4.0554 1.9552,7.9832 3.1852,9.4569 z"
         fill="#37474f" />
      <path
         id="heart_2"
         opacity="0.25"
         d="m 86.6845,64.0817 1.6593,1.9958 2.5006,-0.6672 c 1.8623,-0.4932 6.7938,-1.8044 8.0876,-5.8598 0.3114,-0.9816 0.2382,-2.0448 -0.2046,-2.9745 -0.4429,-0.9297 -1.2224,-1.6565 -2.1808,-2.0332 -0.9584,-0.3767 -2.0241,-0.3753 -2.9815,0.004 -0.9574,0.3793 -1.735,1.1081 -2.1754,2.039 0.2601,-1.0464 0.0938,-2.1531 -0.4622,-3.0769 -0.556,-0.9237 -1.4562,-1.5888 -2.5025,-1.8488 -1.0463,-0.2601 -2.1531,-0.0938 -3.0769,0.4622 -0.9237,0.556 -1.5888,1.4561 -1.8488,2.5025 -1.3112,4.0554 1.9552,7.9832 3.1852,9.4569 z"
         fill="#ffffff" />
    </g>
    <g
       id="heart_3">
      <path
         id="heart_4"
         d="m 15.0906,15.5381 2.8138,0.702 1.816,-2.2511 C 21.0722,12.3123 24.6519,7.86811 23.1376,3.35432 22.773,2.25573 22.0032,1.33751 20.9851,0.786718 19.967,0.235926 18.7772,0.0940048 17.6581,0.389864 16.539,0.685722 15.5748,1.3971 14.962,2.37908 14.3491,3.36106 14.1337,4.53975 14.3596,5.67503 13.8498,4.63909 12.9655,3.83544 11.8857,3.42663 10.806,3.01782 9.6112,3.03438 8.54316,3.47295 7.47511,3.91152 6.6135,4.73937 6.13261,5.78903 5.65171,6.8387 5.58743,8.03183 5.95276,9.12709 7.46703,13.6525 13.0077,15.0217 15.0906,15.5381 Z"
         fill="#37474f" />
      <path
         id="heart_5"
         opacity="0.35"
         d="m 15.0906,15.5381 2.8138,0.702 1.816,-2.2511 C 21.0722,12.3123 24.6519,7.86811 23.1376,3.35432 22.773,2.25573 22.0032,1.33751 20.9851,0.786718 19.967,0.235926 18.7772,0.0940048 17.6581,0.389864 16.539,0.685722 15.5748,1.3971 14.962,2.37908 14.3491,3.36106 14.1337,4.53975 14.3596,5.67503 13.8498,4.63909 12.9655,3.83544 11.8857,3.42663 10.806,3.01782 9.6112,3.03438 8.54316,3.47295 7.47511,3.91152 6.6135,4.73937 6.13261,5.78903 5.65171,6.8387 5.58743,8.03183 5.95276,9.12709 7.46703,13.6525 13.0077,15.0217 15.0906,15.5381 Z"
         fill="#ffffff" />
    </g>
    <path
       id="heart_6"
       d="m 7.14804,31.1622 1.67671,-0.145 0.58018,-1.5781 C 9.82846,28.2787 10.9598,25.1574 9.2831,22.9701 8.86929,22.4624 8.2815,22.1266 7.63396,22.0281 6.98642,21.9296 6.32538,22.0753 5.77928,22.4369 5.23319,22.7986 4.84104,23.3503 4.67905,23.985 4.51705,24.6196 4.59679,25.2918 4.90275,25.871 4.43737,25.3585 3.78929,25.0493 3.09813,25.01 2.40697,24.9707 1.72805,25.2046 1.20762,25.6611 0.687199,26.1176 0.366926,26.7603 0.315806,27.4506 0.264686,28.141 0.486815,28.8239 0.934327,29.352 2.61104,31.5509 5.90646,31.2666 7.14804,31.1622 Z"
       fill="#37474f" />
  </g>
</svg>
